<svg width="84" height="84" viewBox="0 0 84 84" fill="none" xmlns="http://www.w3.org/2000/svg">
<path d="M6.14913 76.6044C6.14913 76.6044 4.78538 76.6044 4.33079 75.2407C3.33071 72.4223 1.1487 64.6034 6.24005 47.8747C6.24005 47.8747 10.1495 31.0551 24.4234 18.6904C43.4251 2.32533 70.1546 0.416068 75.8824 4.3255C75.8824 4.3255 76.5188 4.78008 76.4279 5.59833C76.337 5.962 76.7916 5.4165 77.7917 6.32567C80.2464 8.23492 85.1559 35.4191 62.3358 60.2394C62.3358 60.2394 49.6983 74.0588 29.7875 77.9682C29.8784 77.8773 8.33114 83.0595 6.14913 76.6044Z" fill="url(#paint0_radial_630_45266)"/>
<path d="M62.4268 16.6902L67.8818 12.3262C67.8818 12.3262 68.3364 12.1443 69.2455 13.1444C70.2456 14.1445 79.7919 23.5999 79.7919 23.5999C79.7919 23.5999 79.1555 28.6912 78.1554 31.8733L62.4268 16.6902Z" fill="url(#paint1_linear_630_45266)"/>
<path d="M62.5176 16.5993L67.8817 12.2352C67.8817 12.2352 67.3362 10.9624 65.9725 9.78049C64.8815 8.87132 59.1537 3.14355 59.1537 3.14355C59.1537 3.14355 55.2443 3.41631 50.9712 4.87098L62.5176 16.5993Z" fill="url(#paint2_linear_630_45266)"/>
<path d="M16.6045 62.6941L12.4224 68.1492C12.4224 68.1492 12.4224 68.4219 13.3315 69.422C15.7863 72.4222 24.3325 78.9683 24.3325 78.9683C24.3325 78.9683 29.6966 78.2409 32.7878 77.1499C32.7878 77.1499 25.7871 71.8767 23.6961 70.0584C21.7868 68.2401 16.6045 62.6941 16.6045 62.6941Z" fill="url(#paint3_linear_630_45266)"/>
<path d="M16.6046 62.7851L12.4225 68.331C12.4225 68.331 11.1496 67.8764 9.87678 66.5127C8.8767 65.5126 3.60352 59.603 3.60352 59.603C3.60352 59.603 4.0581 55.3299 5.33094 51.0568C5.33094 51.0568 8.96761 55.4208 10.2404 56.7845C12.4225 59.1484 16.6046 62.7851 16.6046 62.7851Z" fill="url(#paint4_linear_630_45266)"/>
<path d="M52.244 6.32565C54.7897 9.14407 46.9709 20.4178 34.788 31.4187C22.6051 42.4197 10.695 49.1475 8.14933 46.3291C5.60366 43.5107 13.3316 32.3279 25.5145 21.236C37.6973 10.1442 49.6984 3.50722 52.244 6.32565Z" fill="url(#paint5_radial_630_45266)"/>
<path opacity="0.39" d="M71.6851 39.48C75.1524 43.4369 65.6235 54.7088 50.435 64.7316C35.2465 74.7545 20.0868 79.6542 16.6194 75.6973C13.1521 71.7404 22.6811 60.4686 37.8695 50.4457C53.058 40.4228 68.2177 35.5231 71.6851 39.48Z" fill="url(#paint6_radial_630_45266)"/>
<path opacity="0.5" d="M80.6099 5.5074C81.9736 7.05298 80.0644 11.0533 76.2458 14.5082C72.4273 17.963 68.2452 19.5086 66.8814 17.963C65.5176 16.4174 67.336 12.4171 71.1545 8.96224C74.973 5.5074 79.1552 3.96181 80.6099 5.5074Z" fill="url(#paint7_radial_630_45266)"/>
<path d="M78.4277 2.05256C78.7914 2.50715 75.5184 5.78015 71.1544 9.32591C66.7903 12.8717 62.9718 15.4173 62.6082 14.9628C62.2445 14.5082 65.5175 11.2352 69.8815 7.68941C74.2455 4.14365 78.064 1.59798 78.4277 2.05256Z" fill="url(#paint8_radial_630_45266)"/>
<path d="M76.4277 5.68924C76.4277 5.68924 70.7909 9.50775 60.5172 18.2358C54.3349 23.509 33.8786 44.238 23.4231 55.148C16.0589 62.7851 6.14893 76.6953 6.14893 76.6953" stroke="#661919" stroke-width="0.4" stroke-miterlimit="10"/>
<path d="M55.0624 22.9634C55.0624 22.9634 40.7884 36.7828 38.6064 38.8739C36.4244 41.1468 25.7871 52.6024 25.7871 52.6024L27.5145 54.4207L56.8807 24.7818C56.8807 24.6909 56.0624 23.5999 55.0624 22.9634Z" fill="url(#paint9_linear_630_45266)"/>
<path d="M53.3349 21.3269C53.3349 21.3269 38.97 34.9645 36.788 37.1465C34.606 39.3285 23.9688 50.784 23.9688 50.784L25.6962 52.6024L55.1533 22.9634C55.0623 22.9634 54.4259 21.9634 53.3349 21.3269Z" fill="url(#paint10_linear_630_45266)"/>
<path d="M56.335 26.782L51.6982 22.0543C51.4255 21.7815 51.4255 21.3269 51.6982 20.9633L51.88 20.7814C52.1528 20.5087 52.6074 20.5087 52.9711 20.7814L57.6078 25.5091C57.8806 25.7819 57.8806 26.2365 57.6078 26.6001L57.3351 26.782C57.0623 27.0547 56.6077 27.0547 56.335 26.782Z" fill="url(#paint11_linear_630_45266)"/>
<path d="M53.0619 30.3277L48.0615 25.3273C47.7887 25.0545 47.7887 24.5999 48.0615 24.2363L48.3342 23.9635C48.607 23.6908 49.0616 23.6908 49.4253 23.9635L54.4257 29.0549C54.6984 29.3276 54.6984 29.7822 54.4257 30.1459L54.1529 30.4186C53.7893 30.6914 53.3347 30.6914 53.0619 30.3277Z" fill="url(#paint12_linear_630_45266)"/>
<path d="M49.6981 33.8735L44.334 28.4185C44.0612 28.1457 44.0612 27.6911 44.334 27.3275L44.6067 27.0547C44.8795 26.782 45.334 26.782 45.6977 27.0547L51.0618 32.5097C51.3346 32.7825 51.3346 33.2371 51.0618 33.6007L50.7891 33.8735C50.4254 34.1462 49.9708 34.1462 49.6981 33.8735Z" fill="url(#paint13_linear_630_45266)"/>
<path d="M46.3337 37.692L40.6059 31.8733C40.3332 31.6005 40.3332 31.146 40.6059 30.7823L40.8787 30.5095C41.1514 30.2368 41.606 30.2368 41.9697 30.5095L47.6975 36.3282C47.9702 36.601 47.9702 37.0556 47.6975 37.4192L47.4247 37.692C47.061 37.9647 46.6064 37.9647 46.3337 37.692Z" fill="url(#paint14_linear_630_45266)"/>
<path d="M42.2431 40.8741L36.7881 35.3281C36.5153 35.0554 36.5153 34.6008 36.7881 34.2371L37.0608 33.9644C37.3336 33.6916 37.7881 33.6916 38.1518 33.9644L43.6068 39.5103C43.8796 39.7831 43.8796 40.2377 43.6068 40.6013L43.3341 40.8741C43.0613 41.1468 42.5158 41.1468 42.2431 40.8741Z" fill="url(#paint15_linear_630_45266)"/>
<path d="M38.9697 44.6017L33.4238 38.9648C33.1511 38.6921 33.1511 38.2375 33.4238 37.8738L33.6966 37.6011C33.9693 37.3283 34.4239 37.3283 34.7876 37.6011L40.3335 43.2379C40.6062 43.5107 40.6062 43.9652 40.3335 44.3289L40.0607 44.6017C39.6971 44.9653 39.2425 44.9653 38.9697 44.6017Z" fill="url(#paint16_linear_630_45266)"/>
<path d="M35.333 48.4202L29.7871 42.7833C29.5143 42.5106 29.5143 42.056 29.7871 41.6923L30.0598 41.4196C30.3326 41.1468 30.7872 41.1468 31.1508 41.4196L36.6968 47.0564C36.9695 47.3292 36.9695 47.7838 36.6968 48.1474L36.424 48.4202C36.0603 48.6929 35.6058 48.6929 35.333 48.4202Z" fill="url(#paint17_linear_630_45266)"/>
<path d="M31.7876 52.0569L26.2417 46.42C25.9689 46.1473 25.9689 45.6927 26.2417 45.329L26.5144 45.0562C26.7872 44.7835 27.2418 44.7835 27.6054 45.0562L33.1514 50.6931C33.4241 50.9658 33.4241 51.4204 33.1514 51.7841L32.8786 52.0569C32.6059 52.3296 32.1513 52.3296 31.7876 52.0569Z" fill="url(#paint18_linear_630_45266)"/>
<path d="M28.6055 55.6026L23.0595 49.9658C22.7868 49.693 22.7868 49.2384 23.0595 48.8748L23.3323 48.602C23.605 48.3293 24.0596 48.3293 24.4233 48.602L29.9692 54.2389C30.242 54.5116 30.242 54.9662 29.9692 55.3299L29.6965 55.6026C29.3328 55.8754 28.8782 55.8754 28.6055 55.6026Z" fill="url(#paint19_linear_630_45266)"/>
<path opacity="0.7" d="M23.5335 63.3087C25.9883 65.8544 24.6245 71.3094 20.4423 75.4006C16.2601 79.5828 10.8051 80.8557 8.25945 78.31C5.71378 75.7643 7.16845 70.4002 11.3506 66.218C15.5328 62.0359 20.9878 60.763 23.5335 63.3087Z" fill="url(#paint20_radial_630_45266)"/>
<defs>
<radialGradient id="paint0_radial_630_45266" cx="0" cy="0" r="1" gradientUnits="userSpaceOnUse" gradientTransform="translate(44.2973 34.0235) rotate(-28.8025) scale(57.7457 31.4184)">
<stop offset="0.00719496" stop-color="#C05D5B"/>
<stop offset="0.7061" stop-color="#982A26"/>
<stop offset="0.8363" stop-color="#820E0E"/>
</radialGradient>
<linearGradient id="paint1_linear_630_45266" x1="65.889" y1="14.4073" x2="78.1606" y2="27.8525" gradientUnits="userSpaceOnUse">
<stop stop-color="#8A8A8A"/>
<stop offset="0.03125" stop-color="#BABABA"/>
<stop offset="0.130208" stop-color="#F3F3F3"/>
</linearGradient>
<linearGradient id="paint2_linear_630_45266" x1="65.2564" y1="13.8314" x2="54.2426" y2="4.13764" gradientUnits="userSpaceOnUse">
<stop offset="0.0162744" stop-color="#BABABA"/>
<stop offset="0.1136" stop-color="#F3F3F3"/>
</linearGradient>
<linearGradient id="paint3_linear_630_45266" x1="15.5134" y1="65.3307" x2="27.3163" y2="75.8095" gradientUnits="userSpaceOnUse">
<stop stop-color="#8A8A8A"/>
<stop offset="0.03125" stop-color="#BABABA"/>
<stop offset="0.130208" stop-color="#F3F3F3"/>
</linearGradient>
<linearGradient id="paint4_linear_630_45266" x1="14.0359" y1="65.5342" x2="3.97697" y2="54.9514" gradientUnits="userSpaceOnUse">
<stop offset="0.0162744" stop-color="#BABABA"/>
<stop offset="0.1136" stop-color="#F3F3F3"/>
</linearGradient>
<radialGradient id="paint5_radial_630_45266" cx="0" cy="0" r="1" gradientUnits="userSpaceOnUse" gradientTransform="translate(30.1856 26.3443) rotate(-42.1984) scale(23.8164 6.34389)">
<stop offset="0.1123" stop-color="white" stop-opacity="0.3"/>
<stop offset="0.8271" stop-color="white" stop-opacity="0"/>
</radialGradient>
<radialGradient id="paint6_radial_630_45266" cx="0" cy="0" r="1" gradientUnits="userSpaceOnUse" gradientTransform="translate(44.1507 57.6051) rotate(-33.3293) scale(26.3477 10.7282)">
<stop stop-color="white" stop-opacity="0.5"/>
<stop offset="0.8367" stop-color="white" stop-opacity="0"/>
</radialGradient>
<radialGradient id="paint7_radial_630_45266" cx="0" cy="0" r="1" gradientUnits="userSpaceOnUse" gradientTransform="translate(73.6744 11.7381) rotate(-42.1977) scale(8.66414 3.06829)">
<stop stop-color="white" stop-opacity="0.5"/>
<stop offset="0.7959" stop-color="white" stop-opacity="0"/>
</radialGradient>
<radialGradient id="paint8_radial_630_45266" cx="0" cy="0" r="1" gradientUnits="userSpaceOnUse" gradientTransform="translate(70.5585 8.53614) rotate(-39.3796) scale(8.15757 1.56219)">
<stop stop-color="white" stop-opacity="0.8"/>
<stop offset="0.615" stop-color="white" stop-opacity="0"/>
</radialGradient>
<linearGradient id="paint9_linear_630_45266" x1="40.0034" y1="37.3061" x2="43.6117" y2="40.9646" gradientUnits="userSpaceOnUse">
<stop stop-color="#636363"/>
<stop offset="0.0417426" stop-color="#BABABA"/>
<stop offset="0.1038" stop-color="#F3F3F3"/>
</linearGradient>
<linearGradient id="paint10_linear_630_45266" x1="38.1404" y1="35.5419" x2="41.9152" y2="39.2499" gradientUnits="userSpaceOnUse">
<stop offset="0.5407" stop-color="#F3F3F3"/>
<stop offset="0.6328" stop-color="#2B2B2B"/>
</linearGradient>
<linearGradient id="paint11_linear_630_45266" x1="53.9223" y1="24.4646" x2="56.0832" y2="22.3727" gradientUnits="userSpaceOnUse">
<stop stop-color="#636363"/>
<stop offset="0.0824654" stop-color="#BABABA"/>
<stop offset="0.1901" stop-color="#F3F3F3"/>
</linearGradient>
<linearGradient id="paint12_linear_630_45266" x1="50.51" y1="27.8602" x2="52.6707" y2="25.7665" gradientUnits="userSpaceOnUse">
<stop stop-color="#636363"/>
<stop offset="0.0824654" stop-color="#BABABA"/>
<stop offset="0.1901" stop-color="#F3F3F3"/>
</linearGradient>
<linearGradient id="paint13_linear_630_45266" x1="46.9545" y1="31.168" x2="49.1151" y2="29.0725" gradientUnits="userSpaceOnUse">
<stop stop-color="#636363"/>
<stop offset="0.0824654" stop-color="#BABABA"/>
<stop offset="0.1901" stop-color="#F3F3F3"/>
</linearGradient>
<linearGradient id="paint14_linear_630_45266" x1="43.4168" y1="34.7986" x2="45.577" y2="32.7015" gradientUnits="userSpaceOnUse">
<stop stop-color="#636363"/>
<stop offset="0.0824654" stop-color="#BABABA"/>
<stop offset="0.1901" stop-color="#F3F3F3"/>
</linearGradient>
<linearGradient id="paint15_linear_630_45266" x1="39.5104" y1="38.1334" x2="41.6709" y2="36.0378" gradientUnits="userSpaceOnUse">
<stop stop-color="#636363"/>
<stop offset="0.0824654" stop-color="#BABABA"/>
<stop offset="0.1901" stop-color="#F3F3F3"/>
</linearGradient>
<linearGradient id="paint16_linear_630_45266" x1="36.1118" y1="41.8597" x2="38.2723" y2="39.7636" gradientUnits="userSpaceOnUse">
<stop stop-color="#636363"/>
<stop offset="0.0824654" stop-color="#BABABA"/>
<stop offset="0.1901" stop-color="#F3F3F3"/>
</linearGradient>
<linearGradient id="paint17_linear_630_45266" x1="32.4888" y1="45.5968" x2="34.6493" y2="43.5006" gradientUnits="userSpaceOnUse">
<stop stop-color="#636363"/>
<stop offset="0.0824654" stop-color="#BABABA"/>
<stop offset="0.1901" stop-color="#F3F3F3"/>
</linearGradient>
<linearGradient id="paint18_linear_630_45266" x1="29.0057" y1="49.271" x2="31.1661" y2="47.1748" gradientUnits="userSpaceOnUse">
<stop stop-color="#636363"/>
<stop offset="0.0824654" stop-color="#BABABA"/>
<stop offset="0.1901" stop-color="#F3F3F3"/>
</linearGradient>
<linearGradient id="paint19_linear_630_45266" x1="25.7861" y1="52.8417" x2="27.9466" y2="50.7457" gradientUnits="userSpaceOnUse">
<stop stop-color="#636363"/>
<stop offset="0.0824654" stop-color="#BABABA"/>
<stop offset="0.1901" stop-color="#F3F3F3"/>
</linearGradient>
<radialGradient id="paint20_radial_630_45266" cx="0" cy="0" r="1" gradientUnits="userSpaceOnUse" gradientTransform="translate(15.8565 70.8042) rotate(-44.5448) scale(9.98278 5.32373)">
<stop stop-color="white" stop-opacity="0.5"/>
<stop offset="0.7959" stop-color="white" stop-opacity="0"/>
</radialGradient>
</defs>
</svg>
