<svg width="84" height="84" viewBox="0 0 84 84" fill="none" xmlns="http://www.w3.org/2000/svg">
<path d="M42 84C65.196 84 84 65.196 84 42C84 18.804 65.196 0 42 0C18.804 0 0 18.804 0 42C0 65.196 18.804 84 42 84Z" fill="url(#paint0_radial_630_44847)"/>
<path opacity="0.6" d="M42 84C65.196 84 84 65.196 84 42C84 18.804 65.196 0 42 0C18.804 0 0 18.804 0 42C0 65.196 18.804 84 42 84Z" fill="url(#paint1_radial_630_44847)"/>
<path d="M42 84C65.196 84 84 65.196 84 42C84 18.804 65.196 0 42 0C18.804 0 0 18.804 0 42C0 65.196 18.804 84 42 84Z" fill="url(#paint2_radial_630_44847)"/>
<path d="M10.2513 15.4265C10.2513 15.4265 7.96217 22.4929 8.26075 40.8057C8.4598 58.5213 9.45506 64.4929 9.45506 64.4929" stroke="#A9A8B6" stroke-miterlimit="10"/>
<path d="M9.05672 64.0948C8.75814 63.8957 8.36003 63.7962 7.96193 63.4976C8.16098 63.7962 8.26051 63.8957 8.36003 64.0948C8.75814 64.5924 9.05672 65.1896 9.45482 65.5877C9.7534 65.8862 9.95245 66.1848 10.052 66.4834C10.1515 66.782 10.4501 67.0806 10.6491 67.1801C11.4453 67.5782 12.2416 67.8768 12.9382 68.1754C13.2368 68.2749 13.4359 68.5735 13.6349 68.872C13.7344 69.0711 13.6349 69.1706 13.4359 69.1706C12.6397 69.2701 11.8434 69.0711 11.0472 68.7725C10.9477 68.7725 10.8482 68.673 10.7487 68.673C10.6491 69.0711 10.8482 69.2701 11.0472 69.3697C11.8434 69.8673 12.6397 70.2654 13.4359 70.6635C13.7344 70.8626 13.9335 71.0616 14.1325 71.2607C14.3316 71.4597 14.2321 71.6588 13.9335 71.6588C13.6349 71.6588 13.2368 71.6588 12.9382 71.7583C13.4359 72.0569 13.834 72.3554 14.3316 72.654C14.5307 72.8531 14.7297 73.1517 14.9288 73.4502C15.1278 73.6493 15.3269 73.8483 15.5259 74.0474C15.6254 74.1469 15.6254 74.2464 15.725 74.346C15.6254 74.346 15.5259 74.4455 15.4264 74.4455C14.9288 74.2464 14.4311 74.1469 14.033 73.8483C13.2368 73.2512 12.4406 72.5545 11.6444 71.8578C11.3458 71.5592 11.1468 71.2607 11.2463 70.763C11.2463 70.6635 11.1468 70.564 11.1468 70.4644C10.4501 69.5687 9.65387 68.7725 9.05672 67.7772C8.55909 66.8815 7.8624 65.9858 7.76288 64.7915C7.76288 64.4929 7.4643 64.0948 7.26525 63.7962C6.96667 63.2986 6.86714 62.7014 7.16572 62.1043C7.16572 62.0047 7.16572 61.9052 7.16572 61.8057C6.96667 61.3081 6.66809 60.9099 6.46904 60.4123C6.36951 60.0142 6.46904 59.6161 6.46904 59.218C6.96667 59.218 7.16572 59.5166 7.36477 59.8152C7.8624 60.5118 8.26051 61.2085 8.75814 62.0047C8.85766 62.1043 8.95719 62.2038 9.05672 62.3033C9.35529 62.5024 9.45482 62.7014 9.55435 63C9.65387 63.5971 10.1515 63.6967 10.5496 63.7962C11.1468 63.9953 11.7439 64.1943 12.3411 64.3934C12.8387 64.5924 13.2368 64.9905 13.1373 65.4881C12.4406 65.4881 11.7439 65.6872 11.0472 65.3886C10.6491 65.1896 10.1515 65.09 9.7534 64.891C9.05672 65.09 8.95719 64.7915 9.05672 64.0948Z" fill="url(#paint3_radial_630_44847)"/>
<path d="M15.924 9.05686C15.5259 9.55449 15.1278 9.85307 14.7297 10.2512C14.8292 10.3507 14.9287 10.3507 15.0283 10.3507C14.3316 11.4455 13.0377 11.8436 12.142 12.8389C12.9382 12.6398 13.5354 12.1422 14.3316 12.5403C14.033 13.3365 13.3363 13.5355 12.7392 14.0332C12.2415 14.4313 11.6444 14.8294 11.0472 15.2275C10.8482 15.327 10.7486 15.6256 10.5496 15.8246C10.3505 16.1232 10.251 16.2227 9.95244 15.8246C9.55433 16.2227 9.25575 16.7204 8.85765 17.1185C8.95717 17.1185 8.95717 17.218 9.0567 17.1185C10.251 17.0189 10.8482 15.9242 11.8434 15.5261C12.4406 15.327 13.0377 14.9289 13.6349 15.327C13.5354 15.7251 13.3363 16.0237 12.9382 16.3223C12.0425 16.9194 11.0472 17.5166 10.1515 18.2133C9.95243 18.4123 9.75338 18.7109 9.55433 19.0095C9.4548 18.8104 9.35528 18.6114 9.25575 18.4123C8.45954 18.9099 8.16097 19.9052 7.26523 20.4028C6.66807 19.6066 7.1657 19.0095 7.56381 18.4123C7.86239 18.0142 8.06144 17.7156 7.86239 17.1185C7.76286 16.8199 8.06144 16.3223 8.26049 16.0237C8.95717 15.128 9.75338 14.2322 10.4501 13.3365C10.5496 13.237 10.5496 13.237 10.5496 13.1374C10.7486 12.7393 10.8482 12.3412 11.1467 12.0426C11.4453 11.6445 11.7439 11.346 11.943 10.9479C12.6396 10.0521 13.5354 9.35544 14.6302 8.95734C15.2273 8.95734 15.5259 9.05686 15.924 9.05686Z" fill="url(#paint4_radial_630_44847)"/>
<path d="M8.75803 44.8862C8.95708 45.782 8.95708 45.6825 9.65376 45.5829C10.3504 45.3839 11.0471 45.2844 11.7438 45.1848C12.0424 45.1848 12.341 45.3839 12.4405 45.6825C12.4405 45.981 12.1419 46.3791 11.9429 46.4787C10.9476 46.6777 9.95234 46.8768 8.95708 47.0758C8.75803 47.0758 8.55898 46.9763 8.35993 46.8768C8.16087 46.7772 7.96182 46.6777 7.76277 46.6777C7.16561 46.3791 6.46893 46.1801 5.9713 45.8815C5.5732 45.6825 5.27462 45.2844 4.97604 44.9858C4.67746 44.7867 4.77699 44.4881 4.97604 44.2891C5.17509 44.09 5.47367 44.09 5.77225 44.2891C6.3694 44.6872 7.06609 45.0853 7.76277 45.4834C8.2604 45.6825 8.55898 45.4834 8.75803 44.8862Z" fill="url(#paint5_radial_630_44847)"/>
<path d="M9.45477 52.4502C9.15619 52.3507 8.85761 52.2512 8.45951 52.1517C8.35998 52.1517 8.26046 52.0521 8.16093 52.0521C6.76756 51.9526 5.87183 51.0569 5.07562 49.9621C4.9761 49.763 4.9761 49.4645 5.07562 49.2654C5.27467 48.7678 5.57325 48.7678 5.97136 49.0663C6.46899 49.564 7.06614 50.0616 7.6633 50.5592C7.86235 50.6588 8.0614 50.7583 8.26046 50.8578C9.35524 50.9573 10.45 50.9573 11.5448 50.8578C11.7439 50.8578 12.0424 50.8578 12.142 50.8578C12.4406 51.0569 12.6396 51.2559 12.5401 51.654C12.4405 51.9526 12.2415 51.9526 11.9429 52.0521C11.3458 52.1517 10.7486 52.2512 10.1515 52.3507C9.9524 52.3507 9.75335 52.4502 9.45477 52.4502Z" fill="url(#paint6_radial_630_44847)"/>
<path d="M11.0474 57.6256C10.3507 57.5261 9.65404 57.5261 9.05689 57.2275C8.45973 56.9289 7.86257 56.9289 7.26542 56.5308C6.46921 55.9336 5.87205 55.237 5.47395 54.4407V54.3412C5.47395 54.0426 5.37442 53.545 5.77253 53.4455C6.17063 53.2464 6.36968 53.7441 6.56874 53.9431C7.06637 54.5403 7.564 55.0379 7.9621 55.6351C8.26068 55.9336 8.55926 55.9336 8.95736 55.8341C9.05689 55.8341 9.15641 55.8341 9.25594 55.8341C9.55452 56.2322 10.0521 56.1327 10.4503 56.2322C11.0474 56.3317 11.545 56.3317 12.1422 56.4313C12.3412 56.4313 12.5403 56.6303 12.7394 56.8294C12.9384 57.128 12.7394 57.4265 12.3412 57.5261C11.9431 57.4265 11.4455 57.4265 11.0474 57.6256C11.0474 57.5261 11.0474 57.5261 11.0474 57.6256Z" fill="url(#paint7_radial_630_44847)"/>
<path d="M8.65858 60.4123C7.9619 60.2133 7.56379 59.6161 7.16569 59.1185C6.86711 58.7204 6.46901 58.2227 6.17043 57.8246C5.97138 57.4265 5.87185 56.9289 6.0709 56.4313C6.26995 56.5308 6.46901 56.6303 6.56853 56.7299C7.16569 57.4265 7.76285 58.0237 8.36 58.7204C8.55905 58.9194 8.75811 59.019 8.95716 59.218C9.05669 59.3175 9.15621 59.5166 9.15621 59.6161C9.15621 60.1137 9.45479 60.4123 9.85289 60.5118C10.5496 60.6114 11.1467 60.8104 11.8434 60.9099C12.341 61.0095 12.8387 61.3081 12.8387 61.7062C12.8387 61.8057 12.7391 62.0047 12.6396 62.0047C11.8434 62.2038 10.9477 62.1043 10.1515 61.9052C9.95242 61.8057 9.65384 61.8057 9.45479 61.7062C8.75811 61.4076 8.65858 61.3081 8.65858 60.4123Z" fill="url(#paint8_radial_630_44847)"/>
<path d="M13.2368 18.9099C13.1373 19.4076 13.0377 19.8057 12.7392 20.0047C11.943 20.6019 11.0472 21.0995 10.251 21.6967C9.95243 21.8957 9.75338 22.1943 9.55433 22.4929C9.35527 22.4929 9.35528 22.5924 9.25575 22.5924C8.45954 22.6919 8.06144 23.3886 7.56381 23.7867C7.26523 23.9858 7.1657 24.3839 6.7676 24.1848C6.56854 24.0853 6.46902 23.2891 6.66807 22.9905C7.06617 22.1943 7.86238 21.6967 8.65859 21.3981C8.75812 21.3981 8.85764 21.2986 8.95717 21.199C9.75338 20.2038 10.7486 19.5071 11.943 19.0095C12.2415 18.9099 12.7392 18.9099 13.2368 18.9099Z" fill="url(#paint9_radial_630_44847)"/>
<path d="M8.95703 31.7488C8.65845 31.2512 8.26034 31.3507 7.96177 31.4502C7.26508 31.5498 6.66793 31.8483 6.07077 32.0474C5.87172 32.0474 5.67267 32.0474 5.57314 31.9479C5.47361 31.7488 5.17503 31.5498 5.37409 31.2512C5.67267 30.7535 6.1703 30.5545 6.66793 30.455C7.16556 30.3554 7.76271 30.1564 8.26034 30.3554C8.35987 30.3554 8.45939 30.2559 8.55892 30.1564C9.35513 29.2607 10.2509 28.6635 11.3457 28.2654C11.6442 28.1659 12.0423 28.1659 12.3409 28.0663C12.6395 28.0663 12.6395 28.1659 12.6395 28.3649C12.6395 28.763 12.3409 29.0616 11.9428 29.3602C11.0471 29.9573 10.1513 30.455 9.2556 31.0521C9.15608 31.2512 9.15608 31.4502 8.95703 31.7488Z" fill="url(#paint10_radial_630_44847)"/>
<path d="M5.97168 27.3697C5.97168 26.872 6.36978 26.5735 6.76789 26.3744C7.16599 26.1753 7.66362 25.9763 8.16125 25.7772C8.36031 25.6777 8.45983 25.5782 8.55936 25.4787C9.35557 24.4834 10.4504 23.8862 11.5451 23.3886C11.8437 23.2891 12.2418 23.2891 12.6399 23.2891C12.7395 23.2891 12.839 23.4881 12.839 23.5877C12.7395 23.9858 12.4409 24.3839 12.0428 24.5829C11.147 25.0806 10.2513 25.6777 9.45509 26.3744C9.05699 26.7725 8.65888 26.9716 8.26078 27.1706C7.76315 27.4692 7.26552 27.7678 6.76789 28.0663C6.36978 28.2654 6.17073 28.1659 5.97168 27.7678C5.97168 27.5687 5.97168 27.4692 5.97168 27.3697Z" fill="url(#paint11_radial_630_44847)"/>
<path d="M12.5405 33.6398C12.64 34.3365 12.4409 34.5355 11.8438 34.8341C11.0476 35.1327 10.3509 35.6303 9.55468 36.0284C9.15658 36.2275 8.95752 36.5261 8.858 36.9242C7.86274 36.9242 6.967 36.9242 6.07127 36.9242C5.87222 36.9242 5.47411 36.5261 5.47411 36.327C5.37459 36.0284 5.67316 35.8294 5.97174 35.8294C6.5689 35.8294 7.16606 35.7299 7.76321 35.8294C8.06179 35.8294 8.36037 35.9289 8.45989 35.5308C8.45989 35.4313 8.65895 35.3318 8.75847 35.2322C9.75373 34.436 10.8485 33.8389 12.2419 33.7393C12.2419 33.5403 12.3414 33.5403 12.5405 33.6398Z" fill="url(#paint12_radial_630_44847)"/>
<path d="M5.77255 39.9099C6.56876 40.109 7.36497 40.3081 8.06165 40.5071C8.16118 40.5071 8.36023 40.5071 8.45976 40.5071C9.15644 40.2085 9.95265 39.8104 10.6493 39.5118C11.147 39.3128 11.6446 39.3128 12.1422 39.3128C12.4408 39.3128 12.5403 39.5118 12.4408 39.8104C12.4408 40.5071 11.7441 40.4076 11.346 40.6066C10.5498 40.9052 9.7536 41.3033 8.95739 41.6019C8.85786 41.7014 8.65881 41.7014 8.45976 41.7014C8.26071 41.7014 8.06165 41.6019 7.8626 41.6019C6.96687 41.5024 6.17066 41.3033 5.47398 40.9052C5.27492 40.8057 5.07587 40.5071 5.1754 40.4076C5.27492 40.2085 5.5735 40.0095 5.77255 39.9099Z" fill="url(#paint13_radial_630_44847)"/>
<path d="M63.4978 76.436C55.3366 70.2654 49.7632 57.9242 49.7632 43.6919C49.7632 27.7678 56.73 14.1327 66.5831 8.95734" stroke="#A9A8B6" stroke-miterlimit="10"/>
<path d="M67.0807 72.455C67.0807 72.8531 67.0807 73.1516 67.0807 73.5498C67.4788 73.2512 67.7774 72.8531 68.275 72.7535C68.8722 72.654 69.0713 72.0569 69.6684 71.8578C69.7679 71.8578 69.8675 71.7583 69.967 71.6588C69.967 71.8578 70.0665 72.0569 70.0665 72.3554C70.2656 72.2559 70.3651 72.1564 70.4646 71.9573C70.7632 71.6588 71.1613 71.2607 71.4599 70.9621C71.6589 70.8625 71.858 70.763 72.057 70.6635C72.1566 70.6635 72.2561 70.564 72.2561 70.564C72.8532 70.0663 73.3509 69.5687 73.948 69.0711C74.0476 68.9716 74.1471 68.7725 74.2466 68.5734C74.5452 68.2749 74.7442 67.9763 75.0428 67.6777C75.3414 67.3791 75.7395 67.1801 75.7395 66.6825C75.7395 66.3839 76.0381 66.1848 76.3367 65.8862C76.5357 66.2844 76.4362 66.6825 76.2371 66.981C75.3414 68.2749 74.7442 69.7678 73.4504 70.763C72.9528 71.1611 72.5547 71.7583 72.057 72.2559C71.3603 72.8531 70.5641 73.4502 69.8675 73.9479C69.7679 74.0474 69.5689 74.1469 69.3698 74.1469C68.3746 74.2464 67.7774 75.0426 66.9812 75.5403C66.5831 75.8389 66.185 76.0379 65.7869 76.237C65.4883 76.436 65.1897 76.5355 64.8912 76.8341C64.3935 77.3317 63.7964 77.7299 63.0002 77.6303C62.7016 77.6303 62.403 77.8294 62.2039 78.0284C61.6068 78.4265 61.0096 78.5261 60.4125 78.2275C60.313 78.128 60.1139 78.327 59.9148 78.327C59.4172 78.5261 58.8201 78.6256 58.3224 78.2275C58.3224 77.7299 58.7205 77.5308 59.1186 77.3317C59.8153 76.8341 60.6115 76.436 61.3082 75.9384C61.6068 75.7393 61.8058 75.4407 61.7063 74.9431C61.0096 74.8436 61.0096 74.8436 60.8106 74.346C60.7111 74.6445 60.6115 75.0426 60.4125 75.3412C59.7158 76.3365 58.7205 76.9336 57.6258 77.4313C57.2276 77.6303 56.6305 77.5308 56.2324 77.2322C56.1329 76.7346 56.531 76.6351 56.8295 76.5355C57.7253 75.9384 58.621 75.4407 59.4172 74.8436C59.8153 74.545 60.1139 74.1469 60.1139 73.5498C60.313 73.6493 60.512 73.7488 60.6115 73.8483C60.8106 74.1469 61.0096 74.1469 61.2087 73.9479C62.1044 73.2512 62.9006 72.5545 63.7964 71.8578C64.0949 71.5592 64.493 71.3602 64.8912 71.1611C65.0902 72.0569 64.7916 72.654 64.294 73.0521C63.5973 73.6493 62.9006 74.2464 62.2039 74.8436C62.5025 74.9431 62.7016 75.1422 62.6021 75.5403C62.5025 75.8389 62.5025 76.237 62.403 76.5355C62.6021 76.436 62.8011 76.237 63.0002 76.1374C63.0002 76.1374 63.0002 75.9384 63.0002 75.8389C62.9006 75.5403 62.8011 75.3412 63.2987 75.1422C63.9954 74.7441 64.4931 74.1469 65.1897 73.6493C65.4883 73.3507 65.7869 73.1516 65.9859 72.8531C66.185 72.5545 66.5831 72.3554 67.0807 72.455Z" fill="url(#paint14_radial_630_44847)"/>
<path d="M65.8862 10.1517C66.3838 10.8483 66.7819 11.4455 67.1801 12.0426C67.4786 12.5403 67.6777 13.0379 67.5781 13.5355C67.5781 13.8341 67.3791 13.9336 67.1801 13.7346C66.8815 13.5355 66.6824 13.237 66.4834 12.9384C65.9857 12.2417 65.4881 11.4455 64.9905 10.7488C64.4928 10.5498 64.3933 10.2512 64.2938 9.75355C63.9952 9.15639 63.3981 8.95734 62.9004 8.65876C62.3033 8.36018 61.7061 7.96208 61.109 7.6635C60.9099 7.56397 60.8104 7.36492 60.6113 7.16587C61.308 6.66824 61.9052 6.86729 62.5023 7.06634C62.6018 7.06634 62.7014 7.16587 62.7014 7.16587C63.5971 6.76776 64.1943 7.26539 64.8909 7.6635C65.1895 7.86255 65.4881 7.86255 65.7867 7.96208C66.0853 8.0616 66.2843 8.16113 66.4834 8.36018C67.6777 9.15639 69.071 9.65402 70.0663 10.7488C70.1658 10.8483 70.2654 10.8483 70.3649 10.8483C71.0616 10.8483 71.4597 11.2464 71.8578 11.7441C71.9573 11.9431 72.1564 12.1422 72.3554 12.1422C73.1516 12.3412 73.5497 12.9384 74.0473 13.5355C74.1469 13.6351 74.2464 13.8341 74.4455 13.9336C75.2417 14.5308 75.8388 15.2275 76.2369 16.1232C76.436 16.6208 76.8341 17.0189 77.0331 17.5166C77.1327 17.8152 77.1327 18.2133 77.2322 18.6114C77.1327 18.6114 77.1327 18.6114 77.0331 18.7109C76.8341 18.3128 76.7345 17.9147 76.5355 17.6161C76.436 17.4171 76.2369 17.218 76.1374 17.0189C75.8388 16.7204 75.5402 16.4218 75.3412 16.2227C75.1421 16.0237 74.8436 15.8246 74.6445 15.6256C74.1469 15.128 73.6492 14.6303 73.1516 14.1327C73.1516 14.2322 73.0521 14.3317 72.9526 14.5308C71.9573 14.2322 71.7583 13.237 71.1611 12.4408C71.1611 12.8389 71.1611 13.1374 71.1611 13.3365C71.1611 13.7346 70.962 13.8341 70.6635 13.5355C70.3649 13.237 70.0663 12.8389 69.8673 12.5403C69.6682 12.2417 69.4691 11.9431 69.2701 11.7441C69.3696 12.1422 69.4691 12.5403 69.5687 12.9384C69.5687 13.1374 69.4691 13.3365 69.4691 13.436C69.2701 13.3365 69.071 13.3365 68.872 13.1374C68.4739 12.6398 68.0758 12.0426 67.6777 11.545C67.3791 11.1469 67.0805 10.7488 66.6824 10.3507C66.1848 10.2512 66.0853 10.2512 65.8862 10.1517ZM65.6872 10.0521C65.6872 9.65402 65.1895 9.05686 64.7914 9.05686C64.7914 9.65402 65.09 9.9526 65.6872 10.0521Z" fill="url(#paint15_radial_630_44847)"/>
<path d="M52.4503 53.1469C51.9527 53.0474 51.3555 52.9479 50.7583 52.9479C50.4598 52.9479 50.1612 52.9479 49.8626 53.1469C48.7678 53.6446 47.673 54.1422 46.4787 54.5403C46.0806 54.7393 45.6825 54.7393 45.1849 54.7393C44.7868 54.7393 44.3887 54.5403 44.3887 54.2417C44.3887 53.9431 44.8863 53.545 45.1849 53.4455C45.6825 53.346 46.1801 53.2465 46.6778 53.0474C47.5735 52.6493 48.4692 52.2512 49.365 51.9526C49.4645 51.8531 49.6636 51.8531 49.7631 51.7536C49.8626 51.3555 50.1612 51.455 50.4598 51.455C50.8579 51.5545 51.3555 51.455 51.8531 51.455C52.6493 51.455 53.5451 51.5545 54.3413 51.5545C54.5403 51.5545 54.6399 51.5545 54.8389 51.455C55.237 51.3555 55.5356 51.455 55.7346 51.7536C55.9337 52.0521 55.7346 52.2512 55.5356 52.4502C55.1375 52.6493 54.7394 52.8484 54.3413 52.9479C53.7441 53.0474 53.0474 53.1469 52.4503 53.1469Z" fill="url(#paint16_radial_630_44847)"/>
<path d="M50.559 34.436C50.9571 34.5355 51.3552 34.6351 51.6538 34.7346C52.5495 35.1327 53.3457 35.4313 54.2415 35.8294C54.7391 36.0284 55.2367 36.327 55.7344 36.6256L55.8339 36.7251C56.1325 36.9242 56.3315 37.1232 56.1325 37.4218C56.033 37.6209 55.6348 37.8199 55.3363 37.6209C53.9429 37.0237 52.6491 36.5261 51.2557 35.9289C51.1562 35.9289 50.9571 35.8294 50.8576 35.8294C50.2604 36.0284 49.7628 35.7299 49.1657 35.8294C48.5685 35.9289 47.9713 36.0284 47.3742 36.128C47.2747 36.128 47.0756 36.128 46.9761 36.128C46.2794 36.2275 45.6822 36.2275 44.9856 36.327C44.7865 36.327 44.4879 36.2275 44.2889 36.128C43.9903 36.0284 43.9903 35.6303 44.2889 35.3318C44.4879 35.2322 44.687 35.0332 44.886 35.0332C45.8813 34.9336 46.9761 34.7346 48.0709 34.6351C48.5685 34.5355 48.9666 34.5355 49.4642 34.5355C49.5638 34.5355 49.6633 34.5355 49.7628 34.5355C50.2604 34.9336 50.4595 34.6351 50.559 34.436Z" fill="url(#paint17_radial_630_44847)"/>
<path d="M49.763 45.5829C50.0616 45.6825 50.3601 45.782 50.5592 45.782C51.4549 45.981 52.4502 46.0806 53.3459 46.2796C53.8436 46.3791 54.4407 46.3791 55.0379 46.4787C55.1374 46.4787 55.3365 46.4787 55.3365 46.4787C55.5355 46.5782 55.7346 46.7772 55.7346 46.8768C55.7346 46.9763 55.635 47.2749 55.436 47.2749C55.1374 47.3744 54.7393 47.5735 54.4407 47.5735C53.1469 47.673 51.9526 47.3744 50.7583 47.1754C50.0616 47.0758 49.5639 47.2749 48.9668 47.4739C47.9715 47.7725 47.0758 48.1706 46.0805 48.4692C45.6824 48.5687 45.1848 48.6682 44.7867 48.7678C44.3886 48.8673 43.9905 48.6682 43.891 48.3697C43.7914 47.9716 44.1895 47.5735 44.5876 47.4739C45.2843 47.2749 46.0805 47.0758 46.7772 46.8768C47.5734 46.6777 48.3696 46.3791 49.2654 46.0806C49.4644 45.981 49.5639 45.8815 49.6635 45.6825C49.6635 45.782 49.6635 45.6825 49.763 45.5829Z" fill="url(#paint18_radial_630_44847)"/>
<path d="M49.5639 28.9621C50.0615 29.0616 50.7582 29.1611 51.4549 29.1611C51.7535 29.1611 52.052 29.1611 52.3506 29.1611C53.1468 29.1611 53.744 29.6588 54.3411 30.0569C55.1373 30.654 55.9335 31.2512 56.7298 31.8483C56.8293 31.9479 56.9288 32.0474 57.0283 32.2464C57.2274 32.545 57.0283 32.7441 56.7298 32.7441C56.2321 32.8436 55.834 32.4455 55.4359 32.2464C54.5402 31.6493 53.5449 31.1517 52.6492 30.5545C52.3506 30.3554 52.1516 30.3554 51.853 30.5545C51.7535 30.5545 51.4549 30.654 51.4549 30.5545C50.9572 30.2559 50.4596 30.3554 49.8625 30.3554C48.6681 30.3554 47.4738 30.455 46.2795 30.455C46.18 30.455 45.9809 30.3554 45.8814 30.3554C45.6824 30.2559 45.3838 30.0569 45.3838 29.9573C45.4833 29.7583 45.6824 29.5592 45.7819 29.3602C45.8814 29.2607 46.18 29.2607 46.379 29.1611C47.3743 29.1611 48.3696 29.0616 49.5639 28.9621Z" fill="url(#paint19_radial_630_44847)"/>
<path d="M44.7867 42.4976C44.5876 42.4976 44.4881 42.4976 44.289 42.4976C43.9905 42.4976 43.6919 42.3981 43.6919 42C43.6919 41.7014 43.9905 41.3033 44.289 41.3033C45.4834 41.1043 46.5781 40.8057 47.7725 40.6066C48.2701 40.5071 48.8673 40.4076 49.3649 40.308C49.4644 40.308 49.5639 40.308 49.5639 40.2085C49.962 39.5118 50.5592 39.9099 51.0568 40.0095C52.3507 40.4076 53.6445 40.8057 54.9383 41.2038C55.2369 41.3033 55.5355 41.2038 55.7345 41.6019C55.9336 41.9005 55.8341 42 55.635 42.0995C55.2369 42.199 54.8388 42.2986 54.5402 42.199C53.3459 41.9005 52.1516 41.6019 50.9573 41.3033C50.6587 41.2038 50.3601 41.2038 50.0616 41.4028C49.6635 41.6019 49.1658 41.7014 48.7677 41.8009C47.7725 42 46.7772 42.199 45.6824 42.3981C45.2843 42.4976 45.0853 42.4976 44.7867 42.4976Z" fill="url(#paint20_radial_630_44847)"/>
<g filter="url(#filter0_d_630_44847)">
<path d="M54.839 21.8957C54.839 21.7962 54.839 21.6967 54.839 21.4976C54.839 21.0995 54.5404 20.801 54.1423 20.801C52.948 20.7014 51.7537 20.6019 50.5594 20.4028C50.1613 20.4028 49.7632 20.2038 49.4646 20.1043C49.3651 20.0047 49.166 19.8057 49.166 19.7062C49.166 19.5071 49.3651 19.4076 49.5641 19.3081C50.5594 19.0095 51.5546 19.109 52.5499 19.2085C53.0475 19.3081 53.5452 19.3081 54.0428 19.4076C54.6399 19.5071 55.2371 19.6066 55.4362 20.2038C55.5357 20.6019 55.8343 20.7014 56.1328 20.9005C57.4267 21.7962 58.4219 22.891 59.2181 24.2844C59.3177 24.3839 59.3177 24.4834 59.3177 24.5829C59.3177 24.6825 59.3177 24.8815 59.3177 24.981C59.2181 25.0806 59.0191 25.0806 58.9196 25.0806C58.621 24.8815 58.3224 24.6825 58.0238 24.4834C57.3272 23.7867 56.5309 22.9905 55.8343 22.2938C55.6352 22.0948 55.3366 21.9953 55.0381 21.7962C54.839 21.8957 54.839 21.8957 54.839 21.8957Z" fill="url(#paint21_radial_630_44847)"/>
</g>
<path d="M50.957 56.7298C51.6537 57.0284 52.4499 56.8294 53.2461 56.6303C53.6442 56.5308 54.0423 56.5308 54.4404 56.4313C54.9381 56.3317 55.3362 56.2322 55.8338 56.0332H55.9333C56.2319 56.0332 56.63 55.9336 56.7295 56.2322C56.829 56.4313 56.5305 56.8294 56.3314 56.9289C55.7343 57.2275 55.1371 57.5261 54.5399 57.6256C53.4452 57.9242 52.4499 58.0237 51.3551 58.0237C51.1561 58.0237 50.957 58.2227 50.758 58.3223C49.6632 59.1185 48.3693 59.6161 47.0755 60.1137C46.7769 60.2133 46.3788 60.2133 46.0802 60.1137C45.8812 60.1137 45.6821 59.8152 45.6821 59.7156C45.7817 59.4171 45.9807 59.1185 46.1798 59.0189C47.175 58.9194 47.8717 58.2227 48.7674 57.9242C49.2651 57.7251 49.8622 57.4265 50.3599 57.128C50.4594 57.128 50.6584 56.9289 50.957 56.7298Z" fill="url(#paint22_radial_630_44847)"/>
<path d="M56.6302 18.1138C56.7297 17.5166 56.6302 17.1185 56.033 16.9194C55.5354 16.7204 54.9382 16.6209 54.3411 16.5213C53.4454 16.3223 52.6491 16.2228 51.7534 16.0237C51.5544 15.9242 51.3553 15.6256 51.1562 15.4265C51.4548 15.327 51.6539 15.0284 51.9525 15.0284C53.0472 14.9289 54.142 15.0284 55.2368 15.327C55.6349 15.4265 56.033 15.5261 56.4311 15.7251C56.8292 15.9242 57.1278 16.2228 57.3269 16.6209C57.3269 16.7204 57.4264 16.8199 57.5259 16.9194C58.4217 17.3175 58.8198 18.2133 59.4169 18.91C59.9145 19.5071 60.4122 20.2038 60.7108 21C60.8103 21.1991 60.8103 21.3981 60.9098 21.5972C60.4122 21.7962 60.1136 21.4976 59.9145 21.2986C59.1183 20.5024 58.4217 19.6066 57.6254 18.7109C57.3269 18.4123 57.1278 18.1138 56.6302 18.1138Z" fill="url(#paint23_radial_630_44847)"/>
<path d="M58.2224 28.0664C58.2224 28.4645 58.1229 28.564 57.8243 28.4645C57.5257 28.3649 57.2271 28.1659 56.9285 27.9668C56.0328 27.2701 55.0376 26.5735 54.1418 25.8768C54.0423 25.7773 53.9428 25.6777 53.8432 25.6777C53.3456 25.6777 52.848 25.3791 52.3504 25.2796C51.0565 25.1801 49.7627 25.1801 48.5684 25.0806C48.1703 25.0806 47.8717 24.981 47.5731 24.8815C47.374 24.782 47.175 24.4834 47.2745 24.3839C47.374 24.1848 47.5731 23.9858 47.7721 23.9858C48.8669 23.8863 49.9617 23.7867 51.0565 23.8863C51.7532 23.9858 52.5494 23.8863 53.2461 24.2844C53.6442 24.4834 54.2413 24.5829 54.6395 24.782C55.9333 25.5782 57.1276 26.4739 58.0233 27.7678C58.1229 27.8673 58.1229 28.0664 58.2224 28.0664Z" fill="url(#paint24_radial_630_44847)"/>
<path d="M48.2702 65.1896C47.8721 65.1896 47.474 65.2891 47.3745 64.7915C47.2749 64.5924 47.6731 64.0948 47.9716 63.9953C48.6683 63.6967 49.365 63.3981 49.9622 63.0995C50.5593 62.8009 51.0569 62.5024 51.5546 62.2038C51.7536 62.1043 51.9527 61.9052 52.0522 61.6066C52.2512 61.0095 52.7489 60.91 53.2465 60.7109C54.3413 60.4123 55.4361 60.2133 56.3318 59.6161C56.4313 59.5166 56.6304 59.5166 56.8295 59.5166C57.0285 59.5166 57.2276 59.6161 57.128 60.0142C56.8294 60.7109 56.2323 61.109 55.5356 61.3081C54.8389 61.6066 54.0427 61.8057 53.346 62.0047C53.2465 62.0047 53.147 62.1043 53.0475 62.2038C52.8484 62.8009 52.4503 63.0995 51.9527 63.3981C50.9574 63.9953 49.8626 64.3934 48.8674 64.891C48.7678 65.2891 48.4693 65.1896 48.2702 65.1896Z" fill="url(#paint25_radial_630_44847)"/>
<path d="M60.81 67.1801C60.4119 69.0711 58.8195 69.6682 57.3266 70.3649C57.2271 70.4645 57.0281 70.3649 56.9285 70.3649C56.829 70.3649 56.6299 70.4644 56.5304 70.564C55.8337 71.5592 54.8385 72.0569 53.7437 72.5545C53.2461 72.7535 52.7484 72.9526 52.2508 72.8531C51.9522 72.8531 51.7532 72.654 51.4546 72.5545C51.6536 71.8578 52.2508 71.7583 52.7484 71.5592C53.6442 71.0616 54.6394 70.564 55.5352 69.9668C55.7342 69.8673 55.9333 69.4692 56.0328 69.2701C56.1323 69.1706 56.2318 69.0711 56.2318 69.0711C57.1276 69.2701 57.7247 68.5735 58.4214 68.1754C58.919 67.8768 59.4167 67.4787 59.8148 67.1801C60.1134 66.981 60.5115 66.8815 60.81 67.1801Z" fill="url(#paint26_radial_630_44847)"/>
<path d="M50.2607 69.4692C50.1612 69.4692 50.0617 69.4692 49.9621 69.4692C49.6636 69.4692 49.4645 69.4692 49.365 69.1706C49.2655 68.872 49.564 68.5734 49.7631 68.4739C51.0569 68.0758 52.1517 67.1801 53.346 66.5829C53.6446 66.3839 53.8437 66.0853 54.0427 65.8862C54.1422 65.7867 54.1422 65.7867 54.2418 65.7867C55.038 65.4881 55.9337 65.1896 56.7299 64.891C57.128 64.6919 57.5261 64.3934 57.8247 64.1943C57.9242 64.0948 58.0237 64.0948 58.0237 64.0948C58.2228 64.0948 58.5214 64.0948 58.7204 64.0948C58.7204 64.2938 58.7204 64.4929 58.6209 64.6919C58.3223 65.5877 57.5261 66.0853 56.7299 66.3839C56.0332 66.6825 55.3365 66.8815 54.6399 67.0806C54.5403 67.0806 54.4408 67.1801 54.4408 67.2796C53.5451 68.3744 52.2512 68.9716 50.9574 69.4692C50.9574 69.3697 50.6588 69.4692 50.2607 69.4692Z" fill="url(#paint27_radial_630_44847)"/>
<path d="M62.1045 18.6114C61.8059 18.3128 61.5073 18.1137 61.3083 17.8152C60.7111 16.9194 60.114 16.0237 59.5168 15.128C59.3178 14.9289 59.2182 14.7298 58.8201 14.7298C58.7206 14.7298 58.6211 14.6303 58.6211 14.6303C58.422 13.8341 57.7253 13.8341 57.1282 13.6351C56.4315 13.436 55.7348 13.237 54.9386 13.0379C54.5405 12.9384 54.0429 12.7393 53.6448 12.6398C53.5452 12.5403 53.4457 12.4407 53.3462 12.2417C53.4457 12.1422 53.6448 12.0426 53.7443 11.9431C54.7396 11.545 55.6353 11.8436 56.531 12.0426C57.2277 12.2417 57.9244 12.4407 58.5215 12.8389C59.1187 13.237 59.6163 13.7346 60.2135 14.2322C61.2087 15.128 61.8059 16.2227 62.204 17.4171C62.3035 17.7156 62.3035 18.0142 62.3035 18.3128C62.5026 18.3128 62.3035 18.4123 62.1045 18.6114Z" fill="url(#paint28_radial_630_44847)"/>
<path d="M59.019 73.2512C59.019 73.0521 59.019 72.8531 58.9195 72.5545C58.82 72.7536 58.6209 72.8531 58.6209 72.9526C58.5214 73.4502 58.2228 73.7488 57.8247 74.0474C57.0285 74.7441 56.2323 75.3412 55.2371 75.5403C54.7394 75.6398 54.2418 75.5403 53.8437 75.3412C53.7442 75.3412 53.7442 74.9431 53.8437 74.9431C54.1423 74.7441 54.5404 74.545 54.8389 74.346C55.7347 73.8483 56.6304 73.2512 57.5261 72.654C57.7252 72.455 57.9243 72.1564 58.1233 71.7583C58.5214 71.6588 58.6209 71.7583 58.9195 72.455C59.6162 71.9573 60.3129 71.5592 61.0096 71.1611C61.7062 70.763 62.1043 69.8673 63.0001 69.7678C63.0996 70.763 62.7015 71.4597 62.0048 72.0569C60.8105 73.0521 59.7157 73.5498 59.019 73.2512Z" fill="url(#paint29_radial_630_44847)"/>
<path d="M64.2937 16.1232C63.6965 16.2228 63.4975 15.8246 63.2984 15.5261C62.7013 14.7299 62.2037 13.9337 61.6065 13.1374C61.4074 12.8389 61.3079 12.6398 60.9098 12.6398C60.8103 12.6398 60.7108 12.5403 60.7108 12.4408C60.7108 11.9431 60.3127 11.6446 59.9146 11.545C58.8198 11.1469 57.6255 10.7488 56.4311 10.3507C56.2321 10.2512 55.9335 10.0521 55.834 9.95261C55.834 9.95261 55.9335 9.65403 56.033 9.55451C56.5307 9.25593 57.2273 9.25593 57.725 9.45498C58.6207 9.75356 59.616 10.1517 60.5117 10.5498C60.9098 10.7488 61.3079 11.0474 61.4074 11.545C61.4074 11.6446 61.507 11.8436 61.6065 11.8436C62.4027 12.0427 62.7013 12.7393 63.0994 13.3365C63.4975 13.8341 63.7961 14.5308 64.0946 15.128C64.1942 15.2275 64.1942 15.6256 64.2937 16.1232Z" fill="url(#paint30_radial_630_44847)"/>
<path d="M65.9856 14.6303C65.3884 14.5308 65.0899 14.3317 64.8908 13.9336C64.2937 13.0379 63.796 12.2417 63.1989 11.346C62.9998 11.0474 62.7012 10.7488 62.6017 10.4502C62.4027 9.85308 61.8055 9.75355 61.3079 9.5545C60.4121 9.15639 59.6159 8.75829 58.7202 8.36018C58.5211 8.26066 58.3221 8.06161 58.123 7.86255C58.9193 7.36492 59.6159 7.56398 60.2131 7.76303C61.0093 8.06161 61.706 8.45971 62.5022 8.95734C62.9003 9.15639 63.2984 9.5545 63.2984 10.1517C63.2984 10.2512 63.3979 10.4502 63.4975 10.4502C64.2937 10.6493 64.5922 11.346 65.0899 11.9431C65.3884 12.3412 65.687 12.8389 65.8861 13.3365C65.8861 13.6351 65.8861 14.0332 65.9856 14.6303Z" fill="url(#paint31_radial_630_44847)"/>
<defs>
<filter id="filter0_d_630_44847" x="45.166" y="19.109" width="18.1519" height="13.9716" filterUnits="userSpaceOnUse" color-interpolation-filters="sRGB">
<feFlood flood-opacity="0" result="BackgroundImageFix"/>
<feColorMatrix in="SourceAlpha" type="matrix" values="0 0 0 0 0 0 0 0 0 0 0 0 0 0 0 0 0 0 127 0" result="hardAlpha"/>
<feOffset dy="4"/>
<feGaussianBlur stdDeviation="2"/>
<feComposite in2="hardAlpha" operator="out"/>
<feColorMatrix type="matrix" values="0 0 0 0 0 0 0 0 0 0 0 0 0 0 0 0 0 0 0.25 0"/>
<feBlend mode="normal" in2="BackgroundImageFix" result="effect1_dropShadow_630_44847"/>
<feBlend mode="normal" in="SourceGraphic" in2="effect1_dropShadow_630_44847" result="shape"/>
</filter>
<radialGradient id="paint0_radial_630_44847" cx="0" cy="0" r="1" gradientUnits="userSpaceOnUse" gradientTransform="translate(-0.298385 -0.298578) rotate(42.3575) scale(114.482)">
<stop offset="0.153794" stop-color="#E5EBF6"/>
<stop offset="0.73443" stop-color="#B2C3E4"/>
<stop offset="0.883819" stop-color="#526B9C"/>
</radialGradient>
<radialGradient id="paint1_radial_630_44847" cx="0" cy="0" r="1" gradientUnits="userSpaceOnUse" gradientTransform="translate(-0.298385 9.65403) rotate(42.9834) scale(99.9952)">
<stop offset="0.33133" stop-color="#E1E7F4"/>
<stop offset="0.725647" stop-color="#BBCAE7"/>
</radialGradient>
<radialGradient id="paint2_radial_630_44847" cx="0" cy="0" r="1" gradientUnits="userSpaceOnUse" gradientTransform="translate(26.076 22.5924) rotate(33.6901) scale(35.8846)">
<stop offset="0.223704" stop-color="white" stop-opacity="0.8"/>
<stop offset="0.9757" stop-color="white" stop-opacity="0"/>
</radialGradient>
<radialGradient id="paint3_radial_630_44847" cx="0" cy="0" r="1" gradientUnits="userSpaceOnUse" gradientTransform="translate(11.0458 67.3024) scale(6.24456)">
<stop offset="0.5241" stop-color="#EC2224"/>
<stop offset="0.6673" stop-color="#DE2124"/>
<stop offset="0.9383" stop-color="#B81F24"/>
<stop offset="1" stop-color="#AF1F24"/>
</radialGradient>
<radialGradient id="paint4_radial_630_44847" cx="0" cy="0" r="1" gradientUnits="userSpaceOnUse" gradientTransform="translate(11.5697 14.744) scale(5.08936)">
<stop offset="0.5241" stop-color="#EC2224"/>
<stop offset="0.6673" stop-color="#DE2124"/>
<stop offset="0.9383" stop-color="#B81F24"/>
<stop offset="1" stop-color="#AF1F24"/>
</radialGradient>
<radialGradient id="paint5_radial_630_44847" cx="0" cy="0" r="1" gradientUnits="userSpaceOnUse" gradientTransform="translate(8.66955 45.6084) scale(2.93273)">
<stop offset="0.5241" stop-color="#EC2224"/>
<stop offset="0.6673" stop-color="#DE2124"/>
<stop offset="0.9383" stop-color="#B81F24"/>
<stop offset="1" stop-color="#AF1F24"/>
</radialGradient>
<radialGradient id="paint6_radial_630_44847" cx="0" cy="0" r="1" gradientUnits="userSpaceOnUse" gradientTransform="translate(8.85383 50.7022) scale(2.92009)">
<stop offset="0.5241" stop-color="#EC2224"/>
<stop offset="0.6673" stop-color="#DE2124"/>
<stop offset="0.9383" stop-color="#B81F24"/>
<stop offset="1" stop-color="#AF1F24"/>
</radialGradient>
<radialGradient id="paint7_radial_630_44847" cx="0" cy="0" r="1" gradientUnits="userSpaceOnUse" gradientTransform="translate(9.12417 55.4066) scale(3.00708)">
<stop offset="0.5241" stop-color="#EC2224"/>
<stop offset="0.6673" stop-color="#DE2124"/>
<stop offset="0.9383" stop-color="#B81F24"/>
<stop offset="1" stop-color="#AF1F24"/>
</radialGradient>
<radialGradient id="paint8_radial_630_44847" cx="0" cy="0" r="1" gradientUnits="userSpaceOnUse" gradientTransform="translate(9.44454 59.2671) scale(3.18274)">
<stop offset="0.5241" stop-color="#EC2224"/>
<stop offset="0.6673" stop-color="#DE2124"/>
<stop offset="0.9383" stop-color="#B81F24"/>
<stop offset="1" stop-color="#AF1F24"/>
</radialGradient>
<radialGradient id="paint9_radial_630_44847" cx="0" cy="0" r="1" gradientUnits="userSpaceOnUse" gradientTransform="translate(9.87002 21.6146) scale(3.08391)">
<stop offset="0.5241" stop-color="#EC2224"/>
<stop offset="0.6673" stop-color="#DE2124"/>
<stop offset="0.9383" stop-color="#B81F24"/>
<stop offset="1" stop-color="#AF1F24"/>
</radialGradient>
<radialGradient id="paint10_radial_630_44847" cx="0" cy="0" r="1" gradientUnits="userSpaceOnUse" gradientTransform="translate(9.0472 30.0344) scale(2.96906)">
<stop offset="0.5241" stop-color="#EC2224"/>
<stop offset="0.6673" stop-color="#DE2124"/>
<stop offset="0.9383" stop-color="#B81F24"/>
<stop offset="1" stop-color="#AF1F24"/>
</radialGradient>
<radialGradient id="paint11_radial_630_44847" cx="0" cy="0" r="1" gradientUnits="userSpaceOnUse" gradientTransform="translate(9.4124 25.6671) scale(2.97732)">
<stop offset="0.5241" stop-color="#EC2224"/>
<stop offset="0.6673" stop-color="#DE2124"/>
<stop offset="0.9383" stop-color="#B81F24"/>
<stop offset="1" stop-color="#AF1F24"/>
</radialGradient>
<radialGradient id="paint12_radial_630_44847" cx="0" cy="0" r="1" gradientUnits="userSpaceOnUse" gradientTransform="translate(8.95872 35.2482) scale(2.80066 2.80067)">
<stop offset="0.5241" stop-color="#EC2224"/>
<stop offset="0.6673" stop-color="#DE2124"/>
<stop offset="0.9383" stop-color="#B81F24"/>
<stop offset="1" stop-color="#AF1F24"/>
</radialGradient>
<radialGradient id="paint13_radial_630_44847" cx="0" cy="0" r="1" gradientUnits="userSpaceOnUse" gradientTransform="translate(8.84622 40.518) scale(2.70781 2.70781)">
<stop offset="0.5241" stop-color="#EC2224"/>
<stop offset="0.6673" stop-color="#DE2124"/>
<stop offset="0.9383" stop-color="#B81F24"/>
<stop offset="1" stop-color="#AF1F24"/>
</radialGradient>
<radialGradient id="paint14_radial_630_44847" cx="0" cy="0" r="1" gradientUnits="userSpaceOnUse" gradientTransform="translate(66.3278 72.1878) scale(8.48291)">
<stop offset="0.5241" stop-color="#EC2224"/>
<stop offset="0.6673" stop-color="#DE2124"/>
<stop offset="0.9383" stop-color="#B81F24"/>
<stop offset="1" stop-color="#AF1F24"/>
</radialGradient>
<radialGradient id="paint15_radial_630_44847" cx="0" cy="0" r="1" gradientUnits="userSpaceOnUse" gradientTransform="translate(68.8353 12.7409) scale(7.15393)">
<stop offset="0.5241" stop-color="#EC2224"/>
<stop offset="0.6673" stop-color="#DE2124"/>
<stop offset="0.9383" stop-color="#B81F24"/>
<stop offset="1" stop-color="#AF1F24"/>
</radialGradient>
<radialGradient id="paint16_radial_630_44847" cx="0" cy="0" r="1" gradientUnits="userSpaceOnUse" gradientTransform="translate(50.0948 53.0689) scale(4.20816)">
<stop offset="0.5241" stop-color="#EC2224"/>
<stop offset="0.6673" stop-color="#DE2124"/>
<stop offset="0.9383" stop-color="#B81F24"/>
<stop offset="1" stop-color="#AF1F24"/>
</radialGradient>
<radialGradient id="paint17_radial_630_44847" cx="0" cy="0" r="1" gradientUnits="userSpaceOnUse" gradientTransform="translate(50.2994 36.0805) scale(4.42513 4.42513)">
<stop offset="0.5241" stop-color="#EC2224"/>
<stop offset="0.6673" stop-color="#DE2124"/>
<stop offset="0.9383" stop-color="#B81F24"/>
<stop offset="1" stop-color="#AF1F24"/>
</radialGradient>
<radialGradient id="paint18_radial_630_44847" cx="0" cy="0" r="1" gradientUnits="userSpaceOnUse" gradientTransform="translate(49.8034 47.24) scale(4.38333 4.38333)">
<stop offset="0.5241" stop-color="#EC2224"/>
<stop offset="0.6673" stop-color="#DE2124"/>
<stop offset="0.9383" stop-color="#B81F24"/>
<stop offset="1" stop-color="#AF1F24"/>
</radialGradient>
<radialGradient id="paint19_radial_630_44847" cx="0" cy="0" r="1" gradientUnits="userSpaceOnUse" gradientTransform="translate(51.2558 30.8785) scale(4.34312 4.34312)">
<stop offset="0.5241" stop-color="#EC2224"/>
<stop offset="0.6673" stop-color="#DE2124"/>
<stop offset="0.9383" stop-color="#B81F24"/>
<stop offset="1" stop-color="#AF1F24"/>
</radialGradient>
<radialGradient id="paint20_radial_630_44847" cx="0" cy="0" r="1" gradientUnits="userSpaceOnUse" gradientTransform="translate(49.7317 41.2087) scale(4.36909)">
<stop offset="0.5241" stop-color="#EC2224"/>
<stop offset="0.6673" stop-color="#DE2124"/>
<stop offset="0.9383" stop-color="#B81F24"/>
<stop offset="1" stop-color="#AF1F24"/>
</radialGradient>
<radialGradient id="paint21_radial_630_44847" cx="0" cy="0" r="1" gradientUnits="userSpaceOnUse" gradientTransform="translate(54.161 22.1156) scale(4.17631)">
<stop offset="0.5241" stop-color="#EC2224"/>
<stop offset="0.6673" stop-color="#DE2124"/>
<stop offset="0.9383" stop-color="#B81F24"/>
<stop offset="1" stop-color="#AF1F24"/>
</radialGradient>
<radialGradient id="paint22_radial_630_44847" cx="0" cy="0" r="1" gradientUnits="userSpaceOnUse" gradientTransform="translate(51.1709 58.2217) scale(4.23384 4.23384)">
<stop offset="0.5241" stop-color="#EC2224"/>
<stop offset="0.6673" stop-color="#DE2124"/>
<stop offset="0.9383" stop-color="#B81F24"/>
<stop offset="1" stop-color="#AF1F24"/>
</radialGradient>
<radialGradient id="paint23_radial_630_44847" cx="0" cy="0" r="1" gradientUnits="userSpaceOnUse" gradientTransform="translate(56.0398 18.3407) scale(4.13929)">
<stop offset="0.5241" stop-color="#EC2224"/>
<stop offset="0.6673" stop-color="#DE2124"/>
<stop offset="0.9383" stop-color="#B81F24"/>
<stop offset="1" stop-color="#AF1F24"/>
</radialGradient>
<radialGradient id="paint24_radial_630_44847" cx="0" cy="0" r="1" gradientUnits="userSpaceOnUse" gradientTransform="translate(52.708 26.1916) scale(4.20916)">
<stop offset="0.5241" stop-color="#EC2224"/>
<stop offset="0.6673" stop-color="#DE2124"/>
<stop offset="0.9383" stop-color="#B81F24"/>
<stop offset="1" stop-color="#AF1F24"/>
</radialGradient>
<radialGradient id="paint25_radial_630_44847" cx="0" cy="0" r="1" gradientUnits="userSpaceOnUse" gradientTransform="translate(52.3354 62.4544) scale(4.00602 4.00603)">
<stop offset="0.5241" stop-color="#EC2224"/>
<stop offset="0.6673" stop-color="#DE2124"/>
<stop offset="0.9383" stop-color="#B81F24"/>
<stop offset="1" stop-color="#AF1F24"/>
</radialGradient>
<radialGradient id="paint26_radial_630_44847" cx="0" cy="0" r="1" gradientUnits="userSpaceOnUse" gradientTransform="translate(56.1249 69.9814) scale(3.93476 3.93476)">
<stop offset="0.5241" stop-color="#EC2224"/>
<stop offset="0.6673" stop-color="#DE2124"/>
<stop offset="0.9383" stop-color="#B81F24"/>
<stop offset="1" stop-color="#AF1F24"/>
</radialGradient>
<radialGradient id="paint27_radial_630_44847" cx="0" cy="0" r="1" gradientUnits="userSpaceOnUse" gradientTransform="translate(54.1399 66.7037) scale(3.9051 3.90511)">
<stop offset="0.5241" stop-color="#EC2224"/>
<stop offset="0.6673" stop-color="#DE2124"/>
<stop offset="0.9383" stop-color="#B81F24"/>
<stop offset="1" stop-color="#AF1F24"/>
</radialGradient>
<radialGradient id="paint28_radial_630_44847" cx="0" cy="0" r="1" gradientUnits="userSpaceOnUse" gradientTransform="translate(57.9648 15.1393) scale(4.01229)">
<stop offset="0.5241" stop-color="#EC2224"/>
<stop offset="0.6673" stop-color="#DE2124"/>
<stop offset="0.9383" stop-color="#B81F24"/>
<stop offset="1" stop-color="#AF1F24"/>
</radialGradient>
<radialGradient id="paint29_radial_630_44847" cx="0" cy="0" r="1" gradientUnits="userSpaceOnUse" gradientTransform="translate(58.432 72.7045) scale(3.85554 3.85554)">
<stop offset="0.5241" stop-color="#EC2224"/>
<stop offset="0.6673" stop-color="#DE2124"/>
<stop offset="0.9383" stop-color="#B81F24"/>
<stop offset="1" stop-color="#AF1F24"/>
</radialGradient>
<radialGradient id="paint30_radial_630_44847" cx="0" cy="0" r="1" gradientUnits="userSpaceOnUse" gradientTransform="translate(60.0549 12.6115) scale(3.85166)">
<stop offset="0.5241" stop-color="#EC2224"/>
<stop offset="0.6673" stop-color="#DE2124"/>
<stop offset="0.9383" stop-color="#B81F24"/>
<stop offset="1" stop-color="#AF1F24"/>
</radialGradient>
<radialGradient id="paint31_radial_630_44847" cx="0" cy="0" r="1" gradientUnits="userSpaceOnUse" gradientTransform="translate(62.0208 11.0357) scale(3.76766)">
<stop offset="0.5241" stop-color="#EC2224"/>
<stop offset="0.6673" stop-color="#DE2124"/>
<stop offset="0.9383" stop-color="#B81F24"/>
<stop offset="1" stop-color="#AF1F24"/>
</radialGradient>
</defs>
</svg>
