<svg width="18" height="22" viewBox="0 0 18 22" fill="none" xmlns="http://www.w3.org/2000/svg">
<path d="M6.61869 16.3809H2.67503C1.32423 16.3809 0.529589 14.6879 1.30415 13.4553L1.51119 13.1258C2.23832 11.662 2.82107 10.6718 2.82107 7.8746C2.82107 6.18395 3.47207 4.56255 4.63086 3.36708C5.78965 2.17161 7.3613 1.5 9.00008 1.5C10.6389 1.5 12.2105 2.17161 13.3693 3.36708C14.5281 4.56255 15.1791 6.18395 15.1791 7.8746C15.1791 10.6718 15.7618 11.662 16.489 13.1258L16.6925 13.4478C17.4721 14.6812 16.6794 16.3809 15.3251 16.3809H11.3902M6.61869 16.3809H11.3902M6.61869 16.3809V17.8428C6.61869 19.3103 7.68682 20.5 9.00444 20.5C10.322 20.5 11.3902 19.3103 11.3902 17.8428V16.3809" stroke="#202735" stroke-width="2" stroke-linecap="round" stroke-linejoin="round"/>
</svg>
