<svg width="16" height="17" viewBox="0 0 16 17" fill="none" xmlns="http://www.w3.org/2000/svg">
<path d="M11.6323 2.70508V3.90508M4.43229 2.70508V3.90508M2.93229 6.30534H13.1323M2.63281 6.30534H13.4328M2 8.88523C2 6.28616 2 4.98661 2.79081 4.17918C3.58163 3.37174 4.85442 3.37174 7.4 3.37174H8.6C11.1456 3.37174 12.4184 3.37174 13.2092 4.17918C14 4.98661 14 6.28616 14 8.88523V9.19159C14 11.7907 14 13.0902 13.2092 13.8977C12.4184 14.7051 11.1456 14.7051 8.6 14.7051H7.4C4.85442 14.7051 3.58163 14.7051 2.79081 13.8977C2 13.0902 2 11.7907 2 9.19159V8.88523Z" stroke="#202735" stroke-width="2" stroke-linecap="round" stroke-linejoin="round"/>
</svg>
