<svg width="16" height="17" viewBox="0 0 16 17" fill="none" xmlns="http://www.w3.org/2000/svg">
<g clip-path="url(#clip0_3390_34851)">
<path d="M8.94085 6.03886C8.94085 5.51907 8.51947 5.09769 7.99967 5.09769C7.47988 5.09769 7.0585 5.51907 7.0585 6.03886H8.94085ZM7.99967 8.70553H7.0585C7.0585 8.95515 7.15766 9.19454 7.33416 9.37104L7.99967 8.70553ZM8.6675 10.7044C9.03505 11.0719 9.63097 11.0719 9.99852 10.7044C10.3661 10.3368 10.3661 9.7409 9.99852 9.37335L8.6675 10.7044ZM14.6663 8.70524H13.7252C13.7252 11.8673 11.1618 14.4307 7.99967 14.4307V15.3719V16.3131C12.2014 16.3131 15.6075 12.9069 15.6075 8.70524H14.6663ZM7.99967 15.3719V14.4307C4.83757 14.4307 2.27418 11.8673 2.27418 8.70524H1.33301H0.391831C0.391831 12.9069 3.79798 16.3131 7.99967 16.3131V15.3719ZM1.33301 8.70524H2.27418C2.27418 5.54314 4.83757 2.97975 7.99967 2.97975V2.03857V1.0974C3.79798 1.0974 0.391831 4.50354 0.391831 8.70524H1.33301ZM7.99967 2.03857V2.97975C11.1618 2.97975 13.7252 5.54314 13.7252 8.70524H14.6663H15.6075C15.6075 4.50354 12.2014 1.0974 7.99967 1.0974V2.03857ZM7.99967 6.03886H7.0585V8.70553H7.99967H8.94085V6.03886H7.99967ZM7.99967 8.70553L7.33416 9.37104L8.6675 10.7044L9.33301 10.0389L9.99852 9.37335L8.66519 8.04002L7.99967 8.70553Z" fill="#202735"/>
</g>
<defs>
<clipPath id="clip0_3390_34851">
<rect width="16" height="16" fill="white" transform="translate(0 0.705078)"/>
</clipPath>
</defs>
</svg>
