<svg width="19" height="19" viewBox="0 0 19 19" fill="none" xmlns="http://www.w3.org/2000/svg">
<path d="M17.6605 8.31863C17.5551 8.20599 17.4094 8.13968 17.2552 8.13422C17.101 8.12875 16.951 8.18457 16.8378 8.28945L13.086 11.7495C12.2831 11.0544 11.2882 10.619 10.2328 10.5009V7.3267L13.9962 5.44205C14.0918 5.39308 14.172 5.31869 14.228 5.22706C14.2841 5.13544 14.3137 5.03013 14.3137 4.92274C14.3137 4.81536 14.2841 4.71005 14.228 4.61843C14.172 4.5268 14.0918 4.45241 13.9962 4.40344L9.91185 2.36125C9.82303 2.31649 9.72424 2.29518 9.62486 2.29934C9.52549 2.3035 9.42882 2.333 9.34405 2.38503C9.25928 2.43706 9.18922 2.5099 9.14052 2.59662C9.09182 2.68335 9.0661 2.78108 9.0658 2.88055V10.5009C8.01034 10.619 7.01549 11.0544 6.21256 11.7495L2.46075 8.28945C2.34593 8.19635 2.20005 8.15029 2.05258 8.1606C1.90512 8.1709 1.76706 8.23679 1.6663 8.34496C1.56554 8.45312 1.5096 8.5955 1.50977 8.74333C1.50993 8.89115 1.56621 9.0334 1.66721 9.14134L9.25252 16.1432C9.36041 16.2432 9.50213 16.2988 9.64929 16.2988C9.79644 16.2988 9.93816 16.2432 10.0461 16.1432L17.6314 9.14134C17.744 9.03592 17.8103 8.89018 17.8158 8.73601C17.8212 8.58183 17.7654 8.43176 17.6605 8.31863ZM12.2225 12.5489L10.2328 14.3869V11.6795C10.9623 11.7845 11.6498 12.0849 12.2225 12.5489ZM10.2328 3.82579L12.4267 4.92274L10.2328 6.0197V3.82579ZM9.0658 11.6795V14.3869L7.07612 12.5489C7.64876 12.0849 8.33628 11.7845 9.0658 11.6795Z" fill="#ACB0B9"/>
</svg>
