<svg width="84" height="84" viewBox="0 0 84 84" fill="none" xmlns="http://www.w3.org/2000/svg">
<circle cx="42.9769" cy="42.9767" r="41.0233" fill="url(#paint0_radial_630_38576)"/>
<path fill-rule="evenodd" clip-rule="evenodd" d="M70.4266 16.903V16.7177H69.8091V17.0882H65.919V15.7914H64.684V13.5066H64.1283V16.2855H63.5108V15.5444H48.8765V15.1121H47.8885V13.7536H47.518V14.5564H47.3328H47.1475V15.5444H46.3448C45.6656 15.7914 44.6158 16.162 43.6279 15.9767C43.6279 15.9149 43.5661 15.7297 43.6279 15.7297C43.9984 15.5444 43.8749 15.4827 43.8131 15.1739C43.7514 14.8651 43.6896 14.4329 43.6896 13.9388C44.0601 13.6918 44.6776 13.3831 45.1716 13.3213C46.3448 11.901 45.1716 9.73962 44.9246 8.56631C44.5541 8.3193 44.3071 8.19579 43.8131 8.01053C39.5525 5.04638 33.5012 7.94878 35.2919 13.2596C35.4154 13.6918 35.7241 14.1858 35.6624 14.7416C34.6126 15.6679 34.9831 14.8034 34.3656 14.6181C32.5132 14.0006 30.9695 15.4827 30.1668 16.903C27.7586 21.164 28.9936 24.6839 28.3143 25.6102C28.0673 26.66 25.9061 25.7955 25.4739 26.413C25.4739 26.413 23.9302 33.0206 25.5974 33.3911C26.1531 33.5146 26.8324 33.6381 27.1411 33.6999C27.3263 33.6999 27.5116 34.2556 27.5116 34.4409C27.3264 34.5644 26.2149 34.6262 25.7826 34.8114C25.0417 35.1202 26.0296 40.678 26.0296 41.666C25.8444 41.7895 25.6591 41.666 25.4739 41.7895C25.0417 42.0365 24.3624 44.3832 24.5477 45.68C24.6712 46.3593 25.4122 46.2358 25.6591 46.4828C25.4739 48.5824 24.1154 51.4848 24.7329 53.5844C25.0417 54.6342 24.4859 55.0665 24.1154 55.7457C23.6215 56.4868 24.0537 56.5485 23.1275 57.4131C22.6335 58.3394 22.1395 59.2039 21.6455 60.1302C21.3368 60.8095 21.522 61.7976 21.275 62.5386C20.7193 64.0207 18.9286 65.688 20.3488 67.2318C20.4106 67.6024 18.5581 73.5924 18.5581 74.5187C18.5581 75.3215 18.8051 76.0008 19.7313 76.1243C21.0898 76.3096 23.6215 76.3096 23.745 75.6303C23.8685 74.951 23.4362 74.457 23.251 73.9012C23.251 72.8514 23.251 71.8016 23.251 70.69C23.4362 70.1342 24.3007 68.0964 24.3624 67.8494C24.9182 67.4789 25.6591 67.9111 25.9679 67.4789C26.5854 66.6143 26.4619 64.7617 27.0794 63.3414C27.3881 62.6004 27.6968 61.8593 27.8821 61.1183C27.9438 60.8095 27.5116 60.0067 27.7586 59.5127C27.8821 59.3892 27.9438 59.2657 28.0673 59.0804C28.2526 58.7099 28.2526 58.2776 28.4996 57.9689C29.7963 57.1043 29.3023 57.2278 29.9815 55.9928C30.105 55.7457 30.846 55.6222 31.0312 55.19C31.34 54.6342 31.1547 53.8932 31.34 53.2756C31.7105 52.1023 32.9454 48.7059 33.6247 47.7178C34.0569 47.0385 34.6126 46.8533 34.6126 46.8533C35.4771 48.3354 35.0449 48.0266 37.0208 48.8911C37.2678 49.0146 39.5525 52.6581 39.8612 53.0904C40.7875 54.5107 41.0345 54.4489 42.6399 54.3872C43.3191 55.0665 43.3809 55.5605 43.1956 56.672C43.1956 57.0426 43.1956 57.3513 43.1956 57.7219C43.0721 58.0306 42.6399 58.2159 42.5782 58.5864C42.3929 59.1422 42.7017 59.7597 42.7017 60.2537C42.7634 61.18 42.7634 62.0446 42.9486 62.7856C42.9486 63.7119 43.0721 65.441 43.8749 65.9968C43.8749 66.8613 44.1836 70.0107 44.0601 70.443C43.9366 70.6283 43.8131 70.8753 43.6279 71.0605C43.5044 71.4928 43.0721 73.9629 43.0721 74.3335C43.3191 74.3952 44.3071 74.704 45.5421 74.704L45.6038 74.3952C47.518 74.3952 49.8027 76.1243 53.3223 75.0127C53.8781 73.0984 52.0874 73.2219 50.9142 72.6661C50.4202 72.4191 48.3825 70.0725 48.1972 69.5167C47.9502 68.7139 48.1972 66.4908 48.1972 65.3792C48.6295 64.8235 48.6295 64.947 48.6295 64.2677C49.247 63.1561 48.1972 62.2298 48.506 61.0565C48.6295 60.5007 48.753 59.698 48.9382 59.0804C48.9382 58.6481 48.9382 58.2776 48.9382 57.8454C49 57.7219 49.0617 57.5366 49.0617 57.4131C49.0617 56.9191 49.0617 56.4868 49.0617 55.9928C49.1852 55.6222 49.3705 54.6959 49.1852 54.1402C48.506 53.0286 49.1235 52.1023 48.1972 52.1023C46.283 49.5087 46.8388 46.0505 42.2694 41.419C42.0224 41.0485 41.5284 38.7636 42.2694 38.3931C42.7017 38.2696 43.1339 38.7636 43.6896 38.7636C44.8628 37.6521 45.5421 31.9708 44.9246 30.4887C44.7393 29.9947 44.1219 29.7477 43.7514 29.5006C42.9486 29.0684 43.5661 27.4628 44.2454 27.7098C45.0481 27.9568 46.53 28.9449 47.024 29.1919C48.6295 29.9329 49.6792 30.7357 50.6672 30.5504C51.3464 30.4269 54.1868 27.8333 54.3721 26.5982C54.4956 25.8572 54.3721 24.8074 54.3721 24.7456C54.6191 24.6839 55.113 24.5604 55.4218 24.4986C55.4835 24.4986 55.4835 24.4986 55.4835 24.4369C55.4835 24.3751 55.4835 24.3751 55.4835 24.3134C55.0513 22.7078 54.9895 22.5225 54.9895 20.7317C56.348 19.8054 55.854 19.9906 56.6567 18.8791C56.842 18.8173 56.9655 18.8173 57.0272 18.7556H63.5108V17.9528H64.2518V18.1998C64.8075 18.1998 65.3632 18.1998 65.9807 18.1998V17.8293H69.8091V18.1998H70.4266V18.0145H72.279V16.9647H70.4266V16.903ZM50.1114 23.3253C49.9262 23.0783 49.247 22.152 49.1852 21.5345H51.5934C51.3464 21.9668 50.6054 23.3253 50.1114 23.3253ZM51.9639 21.1022H49.9879V20.7317C50.5437 20.7317 50.8524 20.6082 50.6054 20.1759C50.2349 19.4349 51.8404 19.4966 52.0874 19.6201C52.4579 19.9289 52.2109 20.7317 51.9639 21.1022Z" fill="black"/>
<path fill-rule="evenodd" clip-rule="evenodd" d="M83.9943 42.7016C83.9981 42.4682 84 42.2343 84 42C84 18.804 65.196 0 42 0C18.804 0 0 18.804 0 42C0 65.196 18.804 84 42 84C42.2356 84 42.4707 83.9981 42.7053 83.9942C42.9365 83.9981 43.1681 84 43.4001 84C54.3598 83.7461 64.5149 79.0567 71.9329 71.4622C78.5489 64.7412 82.9185 55.8023 83.8248 45.8624C83.9056 45.0493 83.9643 44.2283 84.0001 43.4C84.0001 43.1667 83.9982 42.934 83.9943 42.7016ZM83.9943 42.7016C83.6215 20.601 65.5896 2.80001 43.4001 2.80001C20.9774 2.80001 2.80014 20.9773 2.80014 43.4C2.80014 65.5907 20.6031 83.6233 42.7053 83.9942C54.1426 83.8059 64.4678 79.0459 71.9329 71.4622C78.4273 64.8133 82.8236 55.9376 83.8248 45.8624C83.9199 44.8194 83.9768 43.7653 83.9943 42.7016Z" fill="#FFF29F"/>
<defs>
<radialGradient id="paint0_radial_630_38576" cx="0" cy="0" r="1" gradientUnits="userSpaceOnUse" gradientTransform="translate(62.7646 80.6216) rotate(-115.791) scale(79.867 77.7653)">
<stop stop-color="#FF7A00"/>
<stop offset="0.520833" stop-color="#FBC400"/>
<stop offset="1" stop-color="#FFF29F"/>
</radialGradient>
</defs>
</svg>
