<svg xmlns="http://www.w3.org/2000/svg" width="26" height="28" viewBox="0 0 26 28" fill="none">
<path d="M25.4977 16.1492L24.1108 27.4496C24.0705 27.7835 23.8137 28 23.4468 28H17.7818C17.4149 28 17.2278 27.8165 17.2278 27.523V27.446L18.622 15.9621C18.6954 15.5218 18.7651 15.0852 18.7651 14.6486C18.7651 13.9918 18.6954 13.5846 18.4753 13.291C18.1854 12.8911 17.6718 12.7444 16.9747 12.7444C15.9877 12.7444 14.6669 12.9278 14.6669 12.9278L12.8764 27.446C12.8397 27.7799 12.5866 27.9963 12.2233 27.9963H6.54741C6.18418 27.9963 6.00439 27.8129 6.00439 27.5194V27.4423L8.01867 11.1337C8.16176 9.8165 9.51928 9.45327 11.8601 9.00933C13.6873 8.64243 16.2445 8.31589 18.5523 8.31589C21.0436 8.31589 23.0175 8.57272 24.298 9.56334C25.2446 10.2568 25.7949 11.3538 25.7949 13.0709C25.7876 14.0652 25.6005 15.1622 25.4977 16.1492Z" fill="white"/>
<path d="M9.71378 0.313835C9.46796 -0.027381 8.99099 -0.100761 8.64977 0.145061C8.30856 0.390883 8.23518 0.867852 8.481 1.20907C8.58373 1.35216 8.72682 1.44388 8.88459 1.48791C8.93962 1.67136 9.39824 3.35542 8.18748 4.19929C8.18748 4.19929 6.63917 5.40639 4.85604 2.82709L4.85237 2.83076C4.90007 2.62163 4.86705 2.39782 4.73129 2.2107C4.48547 1.86948 4.0085 1.79611 3.66729 2.04193C3.32607 2.28775 3.25269 2.76472 3.49852 3.10593C3.63427 3.29305 3.83973 3.39578 4.05253 3.41413L4.04886 3.4178C5.9494 5.91271 4.32037 7.00973 4.32037 7.00973C3.12795 7.90864 1.65301 6.91801 1.52093 6.82628C1.5246 6.66485 1.48057 6.50341 1.37784 6.36399C1.13202 6.02278 0.655051 5.9494 0.313835 6.19522C-0.0273808 6.44104 -0.100761 6.91801 0.145061 7.25922C0.372538 7.57476 0.798141 7.65914 1.13202 7.47203L4.28001 10.0477C4.28001 10.0477 4.42677 11.0236 5.24495 10.554C5.24495 10.554 6.88866 8.93228 8.07741 8.12877C9.21113 7.24822 11.2621 6.18788 11.2621 6.18788C11.9665 5.56048 11.0823 5.11654 11.0823 5.11654L9.61471 1.31547C9.89356 1.05497 9.94125 0.629368 9.71378 0.313835Z" fill="white"/>
</svg>