<svg width="84" height="84" viewBox="0 0 84 84" fill="none" xmlns="http://www.w3.org/2000/svg">
<path d="M63.986 1.41149C63.3944 0.522379 60.7325 -1.15705 59.8451 1.21391C59.8451 1.21391 59.2536 3.09092 59.155 3.48608C59.0564 3.78245 57.9719 5.06672 57.3803 5.16551C56.8874 5.2643 53.831 5.36309 52.5493 5.36309L47.7184 5.85704C47.324 5.2643 46.6339 4.77035 45.7465 4.77035C44.7606 4.77035 43.9719 5.36309 43.5775 6.15341L38.2536 6.64736V7.04252L38.155 5.95583L35.0986 6.74615L35.493 10.599H39.1409L38.8451 9.2159L44.1691 8.72195C44.5634 9.11711 45.155 9.41348 45.8451 9.41348C46.6339 9.41348 47.324 9.01832 47.7184 8.42558L51.662 8.03042L54.324 10.599C54.324 10.599 55.0141 12.2784 53.4367 14.0566C51.8592 15.8348 49.8874 16.6252 48.9015 16.8227C47.9155 17.0203 44.4648 17.1191 44.4648 17.1191C44.4648 17.1191 43.8733 17.3167 43.8733 18.2058C43.8733 19.0949 43.8733 19.0949 43.8733 19.0949C43.8733 19.0949 43.9719 19.7864 45.155 19.7864C46.3381 19.8852 50.2817 19.3913 51.2677 19.0949C52.155 18.7985 54.9155 17.5143 56.0001 15.1433C56.0001 15.1433 57.0846 13.5627 57.1832 9.31469C57.1832 9.31469 59.5494 8.72195 60.3381 7.73405C60.3381 7.73405 60.4367 6.84494 61.0282 6.64736C61.6198 6.44978 61.7184 6.44978 62.1127 5.95583C62.2113 6.44978 62.3099 7.04252 62.1127 7.63526C61.7184 8.82074 61.0282 10.7965 60.7324 11.0929C60.4367 11.4881 59.7465 12.0808 59.7465 12.0808C59.7465 12.0808 59.9437 13.9578 62.7043 16.8227L63.1972 16.23C63.1972 16.23 62.1127 15.5385 62.1127 14.353C62.1127 13.1675 62.4085 10.8953 62.8029 9.51227C63.1972 8.12921 63.5916 6.64736 63.5916 6.64736L62.9015 4.96793C63.5916 4.17761 64.3803 3.18971 64.3803 3.18971C64.3803 3.18971 64.5775 2.39939 63.986 1.41149Z" fill="url(#paint0_linear_630_42031)"/>
<path opacity="0.5" d="M54.2252 73.627C65.0609 73.627 73.8449 64.8253 73.8449 53.9678C73.8449 43.1103 65.0609 34.3086 54.2252 34.3086C43.3895 34.3086 34.6055 43.1103 34.6055 53.9678C34.6055 64.8253 43.3895 73.627 54.2252 73.627Z" fill="#CCCCCC"/>
<path d="M54.028 23.9356C37.4647 23.9356 24.0562 37.3711 24.0562 53.9678C23.9576 70.5645 37.4647 84 54.028 84C70.5914 84 83.9999 70.5645 83.9999 53.9678C83.9999 37.3711 70.5914 23.9356 54.028 23.9356ZM54.028 79.9496C39.7323 79.9496 28.0985 68.2924 28.0985 53.9678C28.0985 39.6433 39.7323 27.986 54.028 27.986C68.3238 27.986 79.9576 39.6433 79.9576 53.9678C79.9576 68.2924 68.3238 79.9496 54.028 79.9496Z" fill="url(#paint1_radial_630_42031)"/>
<path d="M54.2256 60.8831C58.0372 60.8831 61.127 57.787 61.127 53.9678C61.127 50.1486 58.0372 47.0525 54.2256 47.0525C50.4141 47.0525 47.3242 50.1486 47.3242 53.9678C47.3242 57.787 50.4141 60.8831 54.2256 60.8831Z" fill="url(#paint2_radial_630_42031)"/>
<path d="M55.2113 53.3751L45.2535 23.8368C45.155 23.6393 45.0564 23.4417 44.8592 23.2441C43.0845 14.2542 41.2113 10.599 41.2113 10.599C41.2113 10.599 37.9578 10.6978 33.9155 10.6978C29.7747 10.7965 0 13.9578 0 13.9578V17C0 17 29.6761 14.2542 33.1268 14.5506C36.4789 14.7482 36.4789 15.6373 36.6761 16.1312C37.169 17.4155 36.2817 18.6998 36.2817 18.6998L0 56V65L36.9719 25.8126C36.9719 25.8126 38.1549 24.3308 39.4366 24.4296C41.3099 24.5284 41.8028 26.3066 41.8028 26.3066L52.8451 54.1654C53.0423 54.7581 53.831 55.1533 54.4226 54.9557C55.1127 54.6593 55.4085 53.9678 55.2113 53.3751Z" fill="url(#paint3_linear_630_42031)"/>
<path opacity="0.7" d="M19.6196 15.0445C19.6196 15.0445 28.9858 13.0687 33.7182 12.7724C39.3379 12.476 40.2253 15.0445 38.4506 17.0203C36.676 18.8974 35.8872 19.2925 35.8872 19.2925C35.8872 19.2925 37.6619 17.4155 36.4788 15.5385C35.5915 14.0566 29.8732 14.5506 29.8732 14.5506L19.6196 15.0445Z" fill="#01305B"/>
<path d="M14.8877 14.4518C14.8877 14.4518 28.7891 12.9699 31.4511 12.7723C34.1131 12.5748 39.7328 12.0808 39.7328 12.0808L38.5497 10.6978C38.5497 10.6978 32.2398 11.0929 27.9018 11.5869C23.5638 12.1796 16.7609 12.8711 16.7609 12.8711L14.8877 14.4518Z" fill="url(#paint4_radial_630_42031)"/>
<path opacity="0.6" d="M47.4229 6.94373C47.4229 6.94373 52.0567 6.64736 52.944 6.64736C53.8313 6.74615 55.7045 6.64736 55.7045 6.64736L55.4088 5.16551C55.4088 5.16551 53.3383 4.96793 51.8595 5.16551C50.3806 5.36309 48.113 5.46188 48.113 5.46188L47.4229 6.94373Z" fill="url(#paint5_radial_630_42031)"/>
<path opacity="0.6" d="M37.958 8.03043C37.958 8.03043 41.1129 7.53648 41.8031 7.53648C42.4932 7.53648 43.6763 7.3389 43.6763 7.3389L43.3805 5.95584C43.3805 5.95584 41.9017 5.95584 40.9158 6.15342C39.9298 6.351 38.3524 6.64737 38.3524 6.64737L37.958 8.03043Z" fill="url(#paint6_radial_630_42031)"/>
<path opacity="0.8" d="M55.7038 55.5484C55.7038 55.5484 49.0982 36.6795 47.9151 32.9255C46.732 29.1715 44.1686 21.6635 44.1686 21.6635L43.2812 23.6393C43.2812 23.6393 45.9432 32.234 48.1122 38.1614C50.2813 44.1876 53.5348 53.3751 53.5348 53.3751L55.7038 55.5484Z" fill="url(#paint7_radial_630_42031)"/>
<path d="M44.0705 20.6756C44.0705 20.6756 42.1972 14.7481 42 13.5627C41.8028 12.3772 41.0141 10.0062 41.0141 10.0062L39.7324 10.7965C39.7324 10.7965 40.2254 13.5627 40.9155 15.4397C41.5071 17.3167 42.493 20.1816 42.493 20.1816L44.0705 20.6756Z" fill="url(#paint8_radial_630_42031)"/>
<path d="M4.04227 56.6352C4.04227 56.6352 31.155 30.7522 34.0141 28.0848C36.8733 25.4175 42.2958 19.4901 42.2958 19.4901L38.7465 18.0082C38.7465 18.0082 32.1409 24.1332 28 28.9739C23.7606 33.8146 3.54932 52.0908 3.54932 52.0908L4.04227 56.6352Z" fill="url(#paint9_radial_630_42031)"/>
<path d="M63.493 6.74617L62.8029 5.06674C62.3099 5.4619 62.0141 6.05464 62.0141 6.05464C62.1127 6.54859 62.2113 7.14133 62.0141 7.73407C61.6198 8.91955 60.9296 10.8954 60.6339 11.1917C60.3381 11.5869 59.6479 12.1796 59.6479 12.1796C59.6479 12.1796 59.8451 14.0566 62.6057 16.9215L63.0987 16.3288C63.0987 16.3288 62.0141 15.6373 62.0141 14.4518C62.0141 13.2663 62.3099 10.9941 62.7043 9.61108C63.0987 8.22802 63.493 6.74617 63.493 6.74617Z" fill="#0D0D0D"/>
<path opacity="0.6" d="M59.1548 12.0808C59.1548 12.0808 60.9294 14.6494 61.2252 15.2421C61.521 15.8349 62.2111 16.8228 62.2111 16.8228L62.8027 16.23C62.8027 16.23 62.1125 14.9458 61.6196 14.1554C61.028 13.3651 60.1407 12.0808 60.1407 12.0808H59.1548Z" fill="url(#paint10_radial_630_42031)"/>
<defs>
<linearGradient id="paint0_linear_630_42031" x1="64.3587" y1="9.94567" x2="35.0947" y2="9.94567" gradientUnits="userSpaceOnUse">
<stop offset="0.0454546"/>
<stop offset="0.8743"/>
</linearGradient>
<radialGradient id="paint1_radial_630_42031" cx="0" cy="0" r="1" gradientUnits="userSpaceOnUse" gradientTransform="translate(53.99 53.9523) scale(35.7529 35.8248)">
<stop offset="0.7138" stop-color="#979797"/>
<stop offset="0.7928" stop-color="#040404"/>
</radialGradient>
<radialGradient id="paint2_radial_630_42031" cx="0" cy="0" r="1" gradientUnits="userSpaceOnUse" gradientTransform="translate(54.1938 53.9523) scale(6.94001 6.95398)">
<stop stop-color="#828282"/>
<stop offset="0.4813" stop-color="#F2F2F2"/>
<stop offset="0.8828" stop-color="#828282"/>
</radialGradient>
<linearGradient id="paint3_linear_630_42031" x1="9.78472" y1="63.1399" x2="43.243" y2="11.2943" gradientUnits="userSpaceOnUse">
<stop offset="0.666" stop-color="#7B0018"/>
<stop offset="0.8135" stop-color="#3870FF"/>
</linearGradient>
<radialGradient id="paint4_radial_630_42031" cx="0" cy="0" r="1" gradientUnits="userSpaceOnUse" gradientTransform="translate(27.3438 12.6523) rotate(-6.66142) scale(11.7436 0.555806)">
<stop stop-color="white"/>
<stop offset="0.84" stop-color="white" stop-opacity="0"/>
</radialGradient>
<radialGradient id="paint5_radial_630_42031" cx="0" cy="0" r="1" gradientUnits="userSpaceOnUse" gradientTransform="translate(51.586 6.20949) rotate(-5.74323) scale(3.90987 0.549654)">
<stop stop-color="white"/>
<stop offset="0.84" stop-color="white" stop-opacity="0"/>
</radialGradient>
<radialGradient id="paint6_radial_630_42031" cx="0" cy="0" r="1" gradientUnits="userSpaceOnUse" gradientTransform="translate(40.7229 7.06345) rotate(-11.8812) scale(2.73569 0.498174)">
<stop stop-color="white"/>
<stop offset="0.84" stop-color="white" stop-opacity="0"/>
</radialGradient>
<radialGradient id="paint7_radial_630_42031" cx="0" cy="0" r="1" gradientUnits="userSpaceOnUse" gradientTransform="translate(49.2868 38.7234) rotate(-109.646) scale(16.8757 0.555223)">
<stop stop-color="white"/>
<stop offset="0.84" stop-color="white" stop-opacity="0"/>
</radialGradient>
<radialGradient id="paint8_radial_630_42031" cx="0" cy="0" r="1" gradientUnits="userSpaceOnUse" gradientTransform="translate(41.8976 15.4123) rotate(-108.479) scale(5.26122 0.55176)">
<stop stop-color="white"/>
<stop offset="0.84" stop-color="white" stop-opacity="0"/>
</radialGradient>
<radialGradient id="paint9_radial_630_42031" cx="0" cy="0" r="1" gradientUnits="userSpaceOnUse" gradientTransform="translate(22.1307 36.9104) rotate(-48.9353) scale(25.1288 2.0241)">
<stop stop-color="white"/>
<stop offset="0.84" stop-color="white" stop-opacity="0"/>
</radialGradient>
<radialGradient id="paint10_radial_630_42031" cx="0" cy="0" r="1" gradientUnits="userSpaceOnUse" gradientTransform="translate(60.9219 14.2446) rotate(54.5185) scale(2.66777 0.301857)">
<stop stop-color="white"/>
<stop offset="0.84" stop-color="white" stop-opacity="0"/>
</radialGradient>
</defs>
</svg>
