<svg width="20" height="21" viewBox="0 0 20 21" fill="none" xmlns="http://www.w3.org/2000/svg">
<g >
<path d="M15.7091 5.83023L15.2443 13.3491C15.1255 15.27 15.0662 16.2306 14.5847 16.9212C14.3466 17.2626 14.0401 17.5507 13.6846 17.7672C12.9657 18.2052 12.0034 18.2052 10.0786 18.2052C8.15145 18.2052 7.18784 18.2052 6.4684 17.7664C6.11271 17.5495 5.80611 17.2608 5.56812 16.9188C5.08677 16.2272 5.0287 15.2653 4.91257 13.3416L4.45911 5.83023M3.3335 5.83008H16.8335M13.1253 5.83008L12.6133 4.77388C12.2732 4.07227 12.1031 3.72147 11.8098 3.50269C11.7447 3.45415 11.6758 3.41098 11.6037 3.3736C11.2789 3.20508 10.8891 3.20508 10.1094 3.20508C9.3101 3.20508 8.9105 3.20508 8.58026 3.38067C8.50707 3.41959 8.43723 3.4645 8.37146 3.51496C8.07473 3.7426 7.90897 4.10624 7.57745 4.83352L7.12319 5.83008M8.20911 14.0802V9.58023M11.9591 14.0802V9.58023" stroke="white" stroke-width="1.67" stroke-linecap="round"/>
</g>
</svg>
