<svg width="84" height="80" viewBox="0 0 84 80" fill="none" xmlns="http://www.w3.org/2000/svg">
<path d="M28.9365 2.32382H29.0891C29.0738 2.18134 28.9365 2.32382 28.9365 2.32382Z" fill="url(#paint0_linear_630_38566)"/>
<path d="M78.1002 76.8551L77.7952 44.8576C74.4393 45.2089 75.7206 44.0634 75.7206 44.0634C76.3765 44.5979 76.7121 44.2161 76.7121 44.2161C76.4681 41.9404 77.1697 40.6727 77.1697 40.6727C76.285 40.016 77.4748 37.2515 77.4748 37.2515C75.9342 37.3584 76.6816 34.2885 76.6816 34.2885C75.4003 34.0288 75.5986 33.143 75.5986 33.143C76.4375 32.303 75.2477 32.7917 75.2477 32.7917C74.0122 30.6229 76.285 29.9356 76.285 29.9356L75.4003 27.6599L77.6731 27.6141C78.7104 15.258 77.2155 8.1712 77.2155 8.1712C78.4053 7.51445 77.5206 3.51285 77.5206 3.51285C75.0952 3.00883 75.3393 1.97025 75.3393 1.97025L73.219 1.92443L72.4868 1.46623C72.441 3.16157 68.597 1.3135 68.597 1.3135C66.9343 3.19211 66.4767 0.122186 66.4767 0.122186C66.8276 0.168006 65.3022 -0.290192 65.8971 0.70257C66.4767 1.69533 65.7445 1.74115 65.7445 1.74115C51.8634 0.274919 50.6736 1.34405 50.6736 1.34405C52.1075 2.27572 50.6279 3.46703 50.6736 3.81832C48.0499 3.7725 47.4093 4.32234 47.4093 4.32234C47.3483 2.12298 44.5415 0.626204 42.8178 0.778937C41.0941 0.931669 40.0569 0.0458198 40.0569 0.0458198C38.4247 1.57315 34.657 0 34.657 0C34.1536 1.23713 33.4672 0.687297 33.4672 0.687297L31.9265 0.534564L31.6825 1.61897L31.1791 0.580384C30.752 2.50482 30.2943 2.27572 30.2943 2.27572L29.0588 2.32154C29.074 2.3979 29.0283 2.56591 28.9062 2.91719C28.5554 3.84886 27.5639 2.91719 27.5639 2.91719C27.5639 2.91719 24.208 3.13102 22.5301 3.02411C20.8369 2.93247 19.9064 1.58842 19.9064 1.58842L19.2505 2.47427L17.6793 2.27572L17.5725 1.7717L16.7336 2.27572L13.1947 2.1688L12.8438 2.52009L12.3099 1.93971L11.4405 1.87861L11.0439 2.33681L10.51 1.60369L10.2049 1.55787L9.89981 2.35208L9.39643 1.95498L7.27613 1.84807L6.81852 0.977489C3.88976 4.0016 1.44913 1.49678 1.44913 1.49678L1.03727 4.67362L0.73219 4.6278L0.57965 2.79501L0.930491 2.6881L1.03727 2.38263L0.15254 2.27572L0 6.27731C0.73219 7.42281 0.884729 6.23149 0.884729 6.23149L1.34235 6.47587C-0.350841 24.2234 2.07454 31.8448 2.07454 31.8448C0.350841 36.2435 3.06604 37.4806 3.06604 37.4806L2.95927 40.4436L1.61692 39.7105L1.57116 40.4436L2.25758 40.8407L2.05928 41.192C1.37286 40.5811 1.12879 40.7338 1.12879 40.7338C0.73219 47.7442 1.43387 50.86 1.43387 50.86L2.97452 51.1044L2.62368 59.5047L1.43387 59.5505C0.945745 60.3141 0.915237 63.3841 0.915237 63.3841C2.01352 72.1967 0.518634 74.8543 0.518634 74.8543L2.79147 75.2056L2.74571 76.29L3.24909 76.5344C3.34062 75.7401 4.13382 75.5416 4.13382 75.5416C4.66771 75.7402 4.17958 76.5802 4.17958 76.5802L4.68296 76.6871L4.88126 75.6027H5.18634L5.14058 76.2594L5.64396 76.3053C7.81002 75.3278 7.96256 76.4122 7.96256 76.4122L8.16086 75.175C8.46594 75.9692 10.7845 75.8318 10.7845 75.8318C12.8133 75.5874 13.0574 76.4885 13.0574 76.4885L12.9506 75.2514H13.4082C13.6065 76.1831 14.2472 75.9387 14.2472 75.9387C14.354 74.6557 14.9031 74.9001 14.9031 74.9001C15.315 75.3583 15.2082 76.3969 15.2082 76.3969L15.7421 76.6413C15.9404 75.6943 16.9319 75.8471 16.9319 75.8471L17.7709 75.2667V75.8471H18.6556L18.8996 75.1903C19.1437 75.343 19.2962 76.3358 19.2962 76.3358H19.7539L20.1047 76.0914L20.3488 76.4427C20.3945 75.9387 21.0352 75.6027 21.0352 75.6027L21.6148 76.4885L22.0725 76.3358L22.0267 75.6791C22.4843 75.4347 23.5216 76.5191 23.5216 76.5191L23.7657 76.2136L23.2623 75.6332L23.9487 74.9001C24.0097 75.4805 24.9402 76.5191 24.9402 76.5191C24.5894 74.9765 25.4741 74.7474 25.4741 74.7474C26.008 76.4733 27.1673 76.5191 27.1673 76.5191C27.2741 75.8318 27.5181 75.786 27.5181 75.786C28.9062 77.2522 31.6672 75.9845 31.6672 75.9845L33.5434 79.0544C33.9705 78.4893 35.1604 78.5962 35.1604 78.5962L34.9163 77.7562C38.2874 76.6718 39.3704 78.5962 39.3704 78.5962L40.0264 77.6646L40.423 77.6188L40.4687 78.3519C41.6128 79.1308 44.1297 78.1991 44.1297 78.1991L43.55 77.7409C43.306 77.13 50.8567 77.2369 50.8567 77.2369C50.9024 77.5882 50.5516 77.8173 50.5516 77.8173L48.6296 77.97C50.5058 79.2072 52.0465 77.6646 52.0465 77.6646L52.2448 76.8245L51.5889 76.9773C51.8634 76.2442 52.6719 76.4733 52.6719 76.4733L52.3211 77.6646C52.8549 77.8631 53.2515 77.5118 53.2515 77.5118L53.2973 76.6718H53.6481L53.4498 77.3591C56.0735 76.5649 57.9498 76.9009 57.9498 76.9009C58.1938 75.7249 59.3836 75.9692 59.3836 75.9692C61.1073 77.3133 63.2276 76.4274 63.2276 76.4274C67.6208 78.6115 70.0004 76.3816 70.0004 76.3816C70.9766 77.6951 70.9309 76.2747 70.9309 76.2747L72.2122 76.2289L72.4105 75.8318L69.4512 75.5874C71.7851 73.2048 78.1002 76.8551 78.1002 76.8551ZM56.2108 14.9525C58.6057 14.1889 59.826 15.1053 59.826 15.1053L63.2581 17.6101L63.2429 17.9308L62.7242 17.7781C62.7242 17.7781 62.2971 18.0225 62.4802 18.7708C62.6785 19.5345 62.8768 18.6639 62.8768 18.6639L62.831 18.2668L63.2886 18.2516L61.7175 28.4083L61.0005 28.4541L60.5887 27.9195H59.8565C59.8565 27.9195 60.0701 26.4228 59.2769 26.4075C58.4989 26.3922 58.9108 26.9115 58.9108 26.9115L59.5362 27.217L59.3684 27.5683L46.4025 17.6101C46.3873 17.5948 53.8159 15.7162 56.2108 14.9525ZM19.7234 66.0111L19.0522 65.5987C19.0522 65.5987 18.8996 66.286 18.2285 66.0722C17.9997 66.1485 17.8471 65.8889 17.8471 65.8889C17.9844 65.9805 18.1217 66.0416 18.2285 66.0722C18.3658 66.0263 18.5335 65.8278 18.7166 65.3696C18.7166 65.3696 18.5488 64.9725 18.3047 65.3696L18.1369 65.7362L18.0912 65.0183L17.6336 65.3238L17.2827 65.278L17.2217 65.9347L10.6778 61.0778C10.6778 61.0778 9.74727 60.7265 10.4795 58.4813C11.2117 56.2056 15.2082 47.5915 15.2082 47.5915L30.6299 62.5135L19.7234 66.0111ZM63.7615 64.9878C53.9075 65.6445 52.0617 61.2916 52.0617 61.2916L44.1754 52.8302L44.5263 52.372L43.6873 51.5778L43.7331 52.2346C42.8941 50.5393 41.9026 50.0047 41.9026 50.0047L42.1467 50.7989C41.0026 49.852 41.3535 48.7675 41.3535 48.7675L39.8586 46.8431C38.6688 46.1864 39.5077 47.1944 39.5077 47.1944L40.6518 48.4774L40.3467 48.9356C40.3467 48.9356 38.3789 47.2402 37.1434 44.934C35.9078 42.5972 36.8383 45.1783 36.8383 45.1783L29.1808 36.8697L29.7605 37.3279C29.7605 37.3279 30.5232 38.3206 30.0655 37.1751C29.6079 36.0449 28.1893 36.2435 28.1893 36.2435L9.21339 15.93C14.7506 12.3408 17.4048 15.1969 17.4048 15.1969L23.247 19.3054L22.9419 19.6567L24.2233 20.9397L24.5284 20.7869L23.9487 20.0538L25.1538 20.7106L24.8487 21.2146L25.0927 21.4589L25.5504 21.1077L26.008 21.5659L26.8012 21.6117C26.7097 22.9099 28.6774 22.803 28.6774 22.803L60.0243 44.1398L59.6277 44.5979L60.4667 45.2852L59.9633 45.2394L58.5294 44.659L58.4836 45.3158L62.2819 45.6671L68.8106 50.0658C68.4597 59.0159 63.7615 64.9878 63.7615 64.9878Z" fill="url(#paint1_linear_630_38566)"/>
<path d="M33.9365 2.32382H34.0891C34.0738 2.18134 33.9365 2.32382 33.9365 2.32382Z" fill="url(#paint2_linear_630_38566)"/>
<path d="M83.1002 76.8551L82.7952 44.8576C79.4393 45.2089 80.7206 44.0634 80.7206 44.0634C81.3765 44.5979 81.7121 44.2161 81.7121 44.2161C81.4681 41.9404 82.1697 40.6727 82.1697 40.6727C81.285 40.016 82.4748 37.2515 82.4748 37.2515C80.9342 37.3584 81.6816 34.2885 81.6816 34.2885C80.4003 34.0288 80.5986 33.143 80.5986 33.143C81.4375 32.303 80.2477 32.7917 80.2477 32.7917C79.0122 30.6229 81.285 29.9356 81.285 29.9356L80.4003 27.6599L82.6731 27.6141C83.7104 15.258 82.2155 8.1712 82.2155 8.1712C83.4053 7.51445 82.5206 3.51285 82.5206 3.51285C80.0952 3.00883 80.3393 1.97025 80.3393 1.97025L78.219 1.92443L77.4868 1.46623C77.441 3.16157 73.597 1.3135 73.597 1.3135C71.9343 3.19211 71.4767 0.122186 71.4767 0.122186C71.8276 0.168006 70.3022 -0.290192 70.8971 0.70257C71.4767 1.69533 70.7445 1.74115 70.7445 1.74115C56.8634 0.274919 55.6736 1.34405 55.6736 1.34405C57.1075 2.27572 55.6279 3.46703 55.6736 3.81832C53.0499 3.7725 52.4093 4.32234 52.4093 4.32234C52.3483 2.12298 49.5415 0.626204 47.8178 0.778937C46.0941 0.931669 45.0569 0.0458198 45.0569 0.0458198C43.4247 1.57315 39.657 0 39.657 0C39.1536 1.23713 38.4672 0.687297 38.4672 0.687297L36.9265 0.534564L36.6825 1.61897L36.1791 0.580384C35.752 2.50482 35.2943 2.27572 35.2943 2.27572L34.0588 2.32154C34.074 2.3979 34.0283 2.56591 33.9062 2.91719C33.5554 3.84886 32.5639 2.91719 32.5639 2.91719C32.5639 2.91719 29.208 3.13102 27.5301 3.02411C25.8369 2.93247 24.9064 1.58842 24.9064 1.58842L24.2505 2.47427L22.6793 2.27572L22.5725 1.7717L21.7336 2.27572L18.1947 2.1688L17.8438 2.52009L17.3099 1.93971L16.4405 1.87861L16.0439 2.33681L15.51 1.60369L15.2049 1.55787L14.8998 2.35208L14.3964 1.95498L12.2761 1.84807L11.8185 0.977489C8.88976 4.0016 6.44913 1.49678 6.44913 1.49678L6.03727 4.67362L5.73219 4.6278L5.57965 2.79501L5.93049 2.6881L6.03727 2.38263L5.15254 2.27572L5 6.27731C5.73219 7.42281 5.88473 6.23149 5.88473 6.23149L6.34235 6.47587C4.64916 24.2234 7.07454 31.8448 7.07454 31.8448C5.35084 36.2435 8.06604 37.4806 8.06604 37.4806L7.95927 40.4436L6.61692 39.7105L6.57116 40.4436L7.25758 40.8407L7.05928 41.192C6.37286 40.5811 6.12879 40.7338 6.12879 40.7338C5.73219 47.7442 6.43387 50.86 6.43387 50.86L7.97452 51.1044L7.62368 59.5047L6.43387 59.5505C5.94574 60.3141 5.91524 63.3841 5.91524 63.3841C7.01352 72.1967 5.51863 74.8543 5.51863 74.8543L7.79147 75.2056L7.74571 76.29L8.24909 76.5344C8.34062 75.7401 9.13382 75.5416 9.13382 75.5416C9.66771 75.7402 9.17958 76.5802 9.17958 76.5802L9.68296 76.6871L9.88126 75.6027H10.1863L10.1406 76.2594L10.644 76.3053C12.81 75.3278 12.9626 76.4122 12.9626 76.4122L13.1609 75.175C13.4659 75.9692 15.7845 75.8318 15.7845 75.8318C17.8133 75.5874 18.0574 76.4885 18.0574 76.4885L17.9506 75.2514H18.4082C18.6065 76.1831 19.2472 75.9387 19.2472 75.9387C19.354 74.6557 19.9031 74.9001 19.9031 74.9001C20.315 75.3583 20.2082 76.3969 20.2082 76.3969L20.7421 76.6413C20.9404 75.6943 21.9319 75.8471 21.9319 75.8471L22.7709 75.2667V75.8471H23.6556L23.8996 75.1903C24.1437 75.343 24.2962 76.3358 24.2962 76.3358H24.7539L25.1047 76.0914L25.3488 76.4427C25.3945 75.9387 26.0352 75.6027 26.0352 75.6027L26.6148 76.4885L27.0725 76.3358L27.0267 75.6791C27.4843 75.4347 28.5216 76.5191 28.5216 76.5191L28.7657 76.2136L28.2623 75.6332L28.9487 74.9001C29.0097 75.4805 29.9402 76.5191 29.9402 76.5191C29.5894 74.9765 30.4741 74.7474 30.4741 74.7474C31.008 76.4733 32.1673 76.5191 32.1673 76.5191C32.2741 75.8318 32.5181 75.786 32.5181 75.786C33.9062 77.2522 36.6672 75.9845 36.6672 75.9845L38.5434 79.0544C38.9705 78.4893 40.1604 78.5962 40.1604 78.5962L39.9163 77.7562C43.2874 76.6718 44.3704 78.5962 44.3704 78.5962L45.0264 77.6646L45.423 77.6188L45.4687 78.3519C46.6128 79.1308 49.1297 78.1991 49.1297 78.1991L48.55 77.7409C48.306 77.13 55.8567 77.2369 55.8567 77.2369C55.9024 77.5882 55.5516 77.8173 55.5516 77.8173L53.6296 77.97C55.5058 79.2072 57.0465 77.6646 57.0465 77.6646L57.2448 76.8245L56.5889 76.9773C56.8634 76.2442 57.6719 76.4733 57.6719 76.4733L57.3211 77.6646C57.8549 77.8631 58.2515 77.5118 58.2515 77.5118L58.2973 76.6718H58.6481L58.4498 77.3591C61.0735 76.5649 62.9498 76.9009 62.9498 76.9009C63.1938 75.7249 64.3836 75.9692 64.3836 75.9692C66.1073 77.3133 68.2276 76.4274 68.2276 76.4274C72.6208 78.6115 75.0004 76.3816 75.0004 76.3816C75.9766 77.6951 75.9309 76.2747 75.9309 76.2747L77.2122 76.2289L77.4105 75.8318L74.4512 75.5874C76.7851 73.2048 83.1002 76.8551 83.1002 76.8551ZM61.2108 14.9525C63.6057 14.1889 64.826 15.1053 64.826 15.1053L68.2581 17.6101L68.2429 17.9308L67.7242 17.7781C67.7242 17.7781 67.2971 18.0225 67.4802 18.7708C67.6785 19.5345 67.8768 18.6639 67.8768 18.6639L67.831 18.2668L68.2886 18.2516L66.7175 28.4083L66.0005 28.4541L65.5887 27.9195H64.8565C64.8565 27.9195 65.0701 26.4228 64.2769 26.4075C63.4989 26.3922 63.9108 26.9115 63.9108 26.9115L64.5362 27.217L64.3684 27.5683L51.4025 17.6101C51.3873 17.5948 58.8159 15.7162 61.2108 14.9525ZM24.7234 66.0111L24.0522 65.5987C24.0522 65.5987 23.8996 66.286 23.2285 66.0722C22.9997 66.1485 22.8471 65.8889 22.8471 65.8889C22.9844 65.9805 23.1217 66.0416 23.2285 66.0722C23.3658 66.0263 23.5335 65.8278 23.7166 65.3696C23.7166 65.3696 23.5488 64.9725 23.3047 65.3696L23.1369 65.7362L23.0912 65.0183L22.6336 65.3238L22.2827 65.278L22.2217 65.9347L15.6778 61.0778C15.6778 61.0778 14.7473 60.7265 15.4795 58.4813C16.2117 56.2056 20.2082 47.5915 20.2082 47.5915L35.6299 62.5135L24.7234 66.0111ZM68.7615 64.9878C58.9075 65.6445 57.0617 61.2916 57.0617 61.2916L49.1754 52.8302L49.5263 52.372L48.6873 51.5778L48.7331 52.2346C47.8941 50.5393 46.9026 50.0047 46.9026 50.0047L47.1467 50.7989C46.0026 49.852 46.3535 48.7675 46.3535 48.7675L44.8586 46.8431C43.6688 46.1864 44.5077 47.1944 44.5077 47.1944L45.6518 48.4774L45.3467 48.9356C45.3467 48.9356 43.3789 47.2402 42.1434 44.934C40.9078 42.5972 41.8383 45.1783 41.8383 45.1783L34.1808 36.8697L34.7605 37.3279C34.7605 37.3279 35.5232 38.3206 35.0655 37.1751C34.6079 36.0449 33.1893 36.2435 33.1893 36.2435L14.2134 15.93C19.7506 12.3408 22.4048 15.1969 22.4048 15.1969L28.247 19.3054L27.9419 19.6567L29.2233 20.9397L29.5284 20.7869L28.9487 20.0538L30.1538 20.7106L29.8487 21.2146L30.0927 21.4589L30.5504 21.1077L31.008 21.5659L31.8012 21.6117C31.7097 22.9099 33.6774 22.803 33.6774 22.803L65.0243 44.1398L64.6277 44.5979L65.4667 45.2852L64.9633 45.2394L63.5294 44.659L63.4836 45.3158L67.2819 45.6671L73.8106 50.0658C73.4597 59.0159 68.7615 64.9878 68.7615 64.9878Z" fill="url(#paint3_linear_630_38566)"/>
<defs>
<linearGradient id="paint0_linear_630_38566" x1="29.0071" y1="2.2536" x2="29.0066" y2="2.31926" gradientUnits="userSpaceOnUse">
<stop stop-color="#BB3119"/>
<stop offset="1" stop-color="#812112"/>
</linearGradient>
<linearGradient id="paint1_linear_630_38566" x1="39.3906" y1="-0.155696" x2="38.7423" y2="79.0864" gradientUnits="userSpaceOnUse">
<stop stop-color="#A5000A"/>
<stop offset="1" stop-color="#C0002E"/>
</linearGradient>
<linearGradient id="paint2_linear_630_38566" x1="34.0071" y1="2.2536" x2="34.0066" y2="2.31926" gradientUnits="userSpaceOnUse">
<stop stop-color="#BB3119"/>
<stop offset="1" stop-color="#812112"/>
</linearGradient>
<linearGradient id="paint3_linear_630_38566" x1="44.3906" y1="-0.155696" x2="43.7423" y2="79.0864" gradientUnits="userSpaceOnUse">
<stop stop-color="#FF1220"/>
<stop offset="1" stop-color="#C0002E"/>
</linearGradient>
</defs>
</svg>
