<svg width="20" height="20" viewBox="0 0 20 20" fill="none" xmlns="http://www.w3.org/2000/svg">
<path d="M10 11.75C10.9389 11.75 11.7 10.9665 11.7 10C11.7 9.0335 10.9389 8.25 10 8.25M10 11.75C9.06112 11.75 8.3 10.9665 8.3 10C8.3 9.0335 9.06112 8.25 10 8.25M10 11.75V16.125M10 8.25V3.875M18.5 7.375H16.375C15.9055 7.375 15.525 7.76675 15.525 8.25V11.75C15.525 12.2333 15.9055 12.625 16.375 12.625H18.5M1.5 7.375H3.625C4.09444 7.375 4.475 7.76675 4.475 8.25V11.75C4.475 12.2333 4.09444 12.625 3.625 12.625H1.5M1.5 7C1.5 5.11439 1.5 4.17157 1.99792 3.58579C2.49583 3 3.29722 3 4.9 3H15.1C16.7028 3 17.5041 3 18.0021 3.58579C18.5 4.17157 18.5 5.11439 18.5 7V13C18.5 14.8857 18.5 15.8285 18.0021 16.4142C17.5041 17 16.7028 17 15.1 17H4.9C3.29722 17 2.49583 17 1.99792 16.4142C1.5 15.8285 1.5 14.8857 1.5 13V7Z" stroke="white" stroke-width="1.5" stroke-linecap="round" stroke-linejoin="round"/>
</svg>
