<svg width="84" height="74" viewBox="0 0 84 74" fill="none" xmlns="http://www.w3.org/2000/svg">
<path fill-rule="evenodd" clip-rule="evenodd" d="M69.856 63.5886C69.3078 66.9875 68.9788 70.3864 68.7595 73.7854C55.9314 73.7854 43.8707 71.8118 31.81 67.2068C28.5208 65.8911 24.1351 63.6982 25.3411 61.0668C26.6569 58.2161 27.8629 55.6943 28.9593 53.1726C30.604 49.3351 32.0293 45.7169 33.1258 42.4276C35.6475 35.3008 37.6211 28.0644 40.0332 20.9377C43.5418 22.8016 47.0503 24.4462 50.4493 25.8716C54.0675 27.4066 57.7953 28.6127 61.3039 29.7091C64.9221 30.8055 68.4306 31.6826 71.9392 32.3405C75.9959 33.2176 79.9431 33.7659 83.7806 34.2044C81.3684 36.9455 79.1756 39.6865 77.202 42.6469C75.3381 45.9362 73.8031 49.3351 72.4874 52.734C71.5006 56.4618 70.6235 59.9704 69.856 63.5886Z" fill="url(#paint0_linear_630_49485)"/>
<path fill-rule="evenodd" clip-rule="evenodd" d="M36.7442 31.4634C40.0334 33.2176 43.3227 34.7526 46.7216 36.0683C45.4059 39.6865 44.0902 43.3047 42.7745 46.9229C39.4852 45.6072 36.3056 44.1819 33.126 42.5372C34.4417 38.8094 35.6478 35.1912 36.7442 31.4634Z" fill="url(#paint1_linear_630_49485)"/>
<path fill-rule="evenodd" clip-rule="evenodd" d="M61.4135 29.7091L57.9049 39.4673C54.1771 38.4805 50.4492 37.3841 46.831 36.0683L50.5589 25.8716C54.1771 27.4066 57.9049 28.7223 61.4135 29.7091ZM42.7743 46.9229C46.3925 48.2387 50.1203 49.3351 53.8482 50.3219C52.5324 53.9401 51.2167 57.5583 49.901 61.1765C46.1732 60.1897 42.4453 59.0933 38.8271 57.7775C40.1429 54.1593 41.4586 50.5411 42.7743 46.9229Z" fill="url(#paint2_linear_630_49485)"/>
<path fill-rule="evenodd" clip-rule="evenodd" d="M28.9594 53.2822C32.2487 54.9268 35.5379 56.3522 38.8272 57.7775L34.9897 68.3032C34.0029 67.9743 32.9065 67.5357 31.9197 67.2068C29.8365 66.4393 27.3148 65.2332 26.1087 63.8079C25.3412 62.9307 25.0123 62.0536 25.4508 61.0668C25.4508 61.0668 25.4508 60.9572 25.5605 60.9572C25.6701 60.6282 25.8894 60.2993 25.999 59.9704C26.9858 57.6679 27.9726 55.3654 28.9594 53.2822Z" fill="url(#paint3_linear_630_49485)"/>
<path fill-rule="evenodd" clip-rule="evenodd" d="M50.4494 25.8716L46.7216 36.0683C43.3227 34.643 40.0334 33.108 36.7441 31.4634C37.8406 27.9548 38.937 24.4462 40.0334 21.0473C43.542 22.9113 47.0505 24.4462 50.4494 25.8716Z" fill="black"/>
<path fill-rule="evenodd" clip-rule="evenodd" d="M33.1259 42.5372C36.3055 44.1819 39.4851 45.6072 42.7744 46.9229C41.4587 50.5411 40.143 54.1593 38.8273 57.7775C35.4284 56.4618 32.1391 54.9268 28.9595 53.2822V53.1726C30.6041 49.3351 31.9198 45.8265 33.1259 42.5372Z" fill="black"/>
<path fill-rule="evenodd" clip-rule="evenodd" d="M46.7215 36.0683C50.3397 37.3841 54.0675 38.4805 57.7954 39.4673C56.4797 43.0855 55.1639 46.7037 53.8482 50.3219C50.1204 49.3351 46.3926 48.2387 42.7744 46.9229C44.0901 43.3047 45.4058 39.6865 46.7215 36.0683ZM38.8272 57.7775C42.4454 59.0933 46.1733 60.1897 49.9011 61.1765L46.1733 71.4828C42.4454 70.7153 38.7176 69.6189 34.9897 68.4129L38.8272 57.7775Z" fill="url(#paint4_linear_630_49485)"/>
<path fill-rule="evenodd" clip-rule="evenodd" d="M49.9014 61.1765C51.5461 61.615 53.1907 61.944 54.8354 62.2729C56.48 62.6018 58.2343 62.8211 59.8789 62.9307C59.0018 66.3297 58.2343 69.8382 57.4668 73.2371C53.6293 72.9082 49.9014 72.2503 46.064 71.4828L49.9014 61.1765ZM57.9053 39.4673C59.4403 39.7962 61.085 40.1251 62.62 40.3444C64.2646 40.6733 65.9092 40.8926 67.5539 41.1119C66.0189 44.6205 64.5935 48.2387 63.2778 51.8569C61.7428 51.6376 60.0982 51.4183 58.5632 51.199C57.0282 50.9797 55.4932 50.6508 53.9582 50.3219C55.2739 46.7037 56.5896 43.0855 57.9053 39.4673Z" fill="url(#paint5_linear_630_49485)"/>
<path fill-rule="evenodd" clip-rule="evenodd" d="M63.2776 51.8569C64.8125 52.0761 66.4572 52.1858 67.9922 52.4051C69.5272 52.6243 71.0622 52.734 72.7068 52.8436C71.6104 56.3522 70.6236 59.9704 69.9657 63.479V63.5886C68.3211 63.4789 66.6765 63.3693 65.0318 63.2597C63.3872 63.15 61.6329 62.9307 59.9883 62.8211C60.8654 59.2029 62.0715 55.5847 63.2776 51.8569ZM77.4214 42.7565C75.7768 42.4276 74.1322 42.2083 72.4875 41.989C70.8429 41.7697 69.1982 41.4408 67.5536 41.2215C68.979 38.2612 70.514 35.4105 72.1586 32.4501C76.2154 33.3273 80.1625 33.8755 84 34.3141C81.4782 37.0551 79.395 39.7962 77.4214 42.7565Z" fill="url(#paint6_linear_630_49485)"/>
<path fill-rule="evenodd" clip-rule="evenodd" d="M53.9579 50.3219C55.4929 50.6508 57.0279 50.9797 58.5629 51.199C60.0978 51.4183 61.7425 51.6376 63.2775 51.8569C62.0714 55.4751 60.975 59.2029 59.9882 62.8211C58.3436 62.6018 56.5893 62.3825 54.9447 62.1632C53.3 61.8343 51.6554 61.5054 50.0107 61.0668C51.2168 57.5583 52.5325 53.9401 53.9579 50.3219ZM72.1585 32.4501C70.5139 35.3008 68.9789 38.2612 67.5535 41.2215C65.9089 41.0023 64.2643 40.783 62.6196 40.454C60.975 40.1251 59.44 39.9058 57.905 39.5769L61.4136 29.8187C65.0318 30.8055 68.65 31.6826 72.1585 32.4501Z" fill="url(#paint7_linear_630_49485)"/>
<path fill-rule="evenodd" clip-rule="evenodd" d="M59.8784 62.9307C61.5231 63.0404 63.2774 63.2597 64.922 63.3693C66.5666 63.4789 68.2113 63.5886 69.8559 63.6982C69.3077 67.0971 68.9788 70.3864 68.7595 73.7853C64.922 73.7853 61.1942 73.5661 57.4663 73.2371C58.2338 69.7286 59.0013 66.3297 59.8784 62.9307ZM67.5534 41.1119C69.198 41.3312 70.8427 41.6601 72.4873 41.8794C74.132 42.0987 75.7766 42.4276 77.4212 42.6469C75.5573 45.9362 74.0223 49.3351 72.7066 52.734C71.1716 52.6243 69.6366 52.4051 67.992 52.2954C66.457 52.0761 64.8124 51.9665 63.2774 51.7472C64.5931 48.2387 66.0184 44.7301 67.5534 41.1119Z" fill="url(#paint8_linear_630_49485)"/>
<path fill-rule="evenodd" clip-rule="evenodd" d="M47.1602 62.9307C38.8273 57.0101 26.4377 58.7643 25.3413 61.1765C33.8934 43.524 35.867 33.4369 40.3623 20.1702C49.5723 17.9773 57.5762 17.1002 63.2776 18.9641C57.5762 30.5862 50.3398 51.199 47.1602 62.9307Z" fill="black"/>
<path fill-rule="evenodd" clip-rule="evenodd" d="M35.4284 58.9836C37.2923 55.0365 39.0466 50.8701 40.5816 46.3747C37.7309 45.6072 34.7706 45.2783 32.0295 45.7169L31.8102 46.1554C30.1656 50.5411 28.0824 55.4751 25.3413 61.0668C25.9992 59.7511 30.2752 58.545 35.4284 58.9836Z" fill="url(#paint9_linear_630_49485)"/>
<path fill-rule="evenodd" clip-rule="evenodd" d="M47.1602 62.9307C43.542 60.409 39.2659 59.3125 35.5381 58.9836C37.402 55.0365 39.1563 50.8701 40.6913 46.3747H40.8009C44.6384 47.4712 48.2566 49.5544 50.5591 51.9665C49.2434 55.5847 48.147 59.2029 47.1602 62.9307Z" fill="url(#paint10_linear_630_49485)"/>
<path fill-rule="evenodd" clip-rule="evenodd" d="M50.7781 51.3086C49.3527 55.4751 48.1467 59.5318 47.1599 62.9307C40.3621 52.1858 23.9157 49.0061 12.6225 46.3747C12.0743 46.2651 11.5261 46.1554 10.9779 46.0458C10.9779 45.2783 7.46933 44.0722 7.03076 45.1687C9.22361 37.713 11.7454 30.3669 14.5961 23.1305C16.1311 19.5123 17.6661 16.0038 19.2011 12.3856C20.8457 8.87702 22.4903 5.36847 24.2446 1.85991C35.7571 3.72383 52.4227 7.89024 58.3434 12.6049C60.5363 14.3591 62.1809 16.552 63.387 19.0738C61.9616 22.2534 60.5363 25.762 59.0013 29.4898C55.9313 36.8358 53.4095 43.524 50.7781 51.3086Z" fill="url(#paint11_linear_630_49485)"/>
<path fill-rule="evenodd" clip-rule="evenodd" d="M10.4297 33.9851C12.4032 34.4237 14.2672 34.7526 16.2407 35.1912C18.2143 35.6298 20.1879 36.0683 22.2711 36.6166C20.9553 40.2348 19.6396 43.853 18.3239 47.4712C16.3504 47.0326 14.4864 46.594 12.6225 46.1554C12.0743 46.0458 11.5261 45.9362 10.9779 45.8265C10.9779 45.059 7.46933 43.853 7.03076 44.9494C8.01754 41.3312 9.11397 37.713 10.4297 33.9851ZM19.0914 12.2759C21.065 12.6049 22.9289 13.0434 24.9025 13.3724C26.876 13.8109 28.74 14.2495 30.7135 14.5784C29.2882 18.1966 27.8628 21.9245 26.4375 25.5427C24.4639 25.1041 22.4903 24.6655 20.4071 24.227C18.4336 23.7884 16.46 23.3498 14.4864 23.0209C16.0214 19.4027 17.5564 15.8941 19.0914 12.2759Z" fill="url(#paint12_linear_630_49485)"/>
<path fill-rule="evenodd" clip-rule="evenodd" d="M14.4865 23.0209C16.46 23.4595 18.4336 23.7884 20.4071 24.227C22.3807 24.6655 24.4639 25.1041 26.4375 25.5427C25.0121 29.1609 23.5868 32.8887 22.2711 36.5069C20.2975 36.0683 18.3239 35.5201 16.2407 35.0816C14.2672 34.643 12.4033 34.2044 10.4297 33.8755C11.6358 30.3669 13.0611 26.6391 14.4865 23.0209ZM35.0992 3.94312C33.6739 7.56132 32.2485 11.0699 30.8232 14.6881C28.8496 14.2495 26.9857 13.8109 25.0121 13.3724C23.0386 12.9338 21.1746 12.6049 19.2011 12.2759C20.8457 8.76738 22.4904 5.25883 24.135 1.75027C27.4243 2.29848 31.2617 3.06598 35.0992 3.94312Z" fill="url(#paint13_linear_630_49485)"/>
<path fill-rule="evenodd" clip-rule="evenodd" d="M25.9992 25.5427C27.8631 25.9812 29.727 26.5295 31.5909 27.0777C33.4548 27.6259 35.2091 28.1741 37.073 28.7223C35.7573 32.4501 34.4416 36.178 33.1259 39.9058C31.262 39.248 29.3981 38.6998 27.5341 38.1516C25.6702 37.6033 23.8063 37.0551 21.9424 36.6166C23.2581 32.8887 24.5738 29.1609 25.9992 25.5427ZM45.6251 6.79382C44.0902 10.412 42.6648 13.9206 41.2394 17.5388C39.4852 16.9906 37.6213 16.4424 35.867 15.8941C34.1127 15.3459 32.2488 14.9074 30.3849 14.4688C31.9198 10.9602 33.4548 7.34203 34.9898 3.83347C38.608 4.82026 42.3359 5.80704 45.6251 6.79382Z" fill="url(#paint14_linear_630_49485)"/>
<path fill-rule="evenodd" clip-rule="evenodd" d="M21.9422 36.5069C23.8061 36.9455 25.67 37.4937 27.534 38.0419C29.3979 38.5901 31.2618 39.1383 33.1257 39.7962C31.9197 43.4144 30.7136 47.0326 29.5075 50.6508C25.7797 49.3351 21.8326 48.3483 18.2144 47.4712C19.4204 43.853 20.6265 40.2348 21.9422 36.5069ZM30.3847 14.5784C32.2486 15.017 34.0029 15.4556 35.8668 16.0038C37.6211 16.552 39.485 16.9906 41.2393 17.6484C39.8139 21.3763 38.3886 24.9945 36.9632 28.7223C35.0993 28.1741 33.345 27.6259 31.4811 27.0777C29.6172 26.5295 27.7532 26.0909 25.8893 25.5427C27.4243 21.8148 28.9593 18.1966 30.3847 14.5784Z" fill="url(#paint15_linear_630_49485)"/>
<path fill-rule="evenodd" clip-rule="evenodd" d="M47.2694 33.108C47.9272 33.5466 48.6947 33.9851 49.3526 34.4237C50.0105 34.8623 50.6683 35.4105 51.3262 35.9587C51.984 36.5069 52.5322 37.1648 53.1901 37.8226C53.7383 38.4805 54.2865 39.1383 54.8347 39.9058C53.519 43.524 52.2033 47.1422 50.8876 51.0894C50.3394 50.3219 49.7912 49.664 49.243 49.0062C48.6947 48.3483 48.0369 47.6904 47.379 47.1422C46.7212 46.594 46.0633 46.0458 45.4055 45.6072C44.7476 45.1687 44.0898 44.6205 43.3223 44.1819C44.5283 40.6733 45.9537 36.8358 47.2694 33.108ZM59.0011 29.2705C58.4529 28.3934 58.0144 27.7355 57.4661 27.0777C56.9179 26.3102 56.2601 25.6523 55.6022 25.1041C54.9444 24.5559 54.2865 24.0077 53.6287 23.4595C52.9708 23.0209 52.3129 22.4727 51.6551 22.0341C53.1901 18.4159 54.7251 14.7977 56.3697 11.2892C57.0276 11.7277 57.6854 12.1663 58.2336 12.4952C60.4265 14.2495 62.0711 16.4424 63.2772 18.9641C61.9615 22.0341 60.5361 25.5427 59.0011 29.2705Z" fill="url(#paint16_linear_630_49485)"/>
<path fill-rule="evenodd" clip-rule="evenodd" d="M43.3225 44.4012C43.9803 44.8397 44.7478 45.2783 45.4057 45.8265C46.0635 46.2651 46.7214 46.8133 47.3792 47.3615C48.0371 47.9097 48.5853 48.5676 49.2432 49.2254C49.7914 49.8833 50.3396 50.5411 50.8878 51.3086C49.4625 55.4751 48.2564 59.5318 47.2696 62.9307C45.7346 60.5186 43.761 58.4354 41.4586 56.7908C41.02 56.4618 40.4718 56.1329 40.0332 55.6943C40.9103 51.8569 42.1164 48.129 43.3225 44.4012ZM51.6553 22.0341C52.971 22.9113 54.2867 23.7884 55.6024 24.9945C56.8085 26.0909 57.9049 27.5162 59.0013 29.1609L58.8917 29.2705C57.3567 32.8887 56.041 36.3973 54.7253 40.0155C53.6289 38.4805 52.5324 37.1648 51.2167 36.0683C49.901 34.9719 48.5853 33.9851 47.16 33.108C48.695 29.3802 50.1203 25.762 51.6553 22.0341Z" fill="url(#paint17_linear_630_49485)"/>
<path fill-rule="evenodd" clip-rule="evenodd" d="M41.2391 17.6484C42.9933 18.3063 44.8573 18.9641 46.6115 19.7316C48.3658 20.4991 50.1201 21.2666 51.8744 22.1438C50.449 25.8716 49.0237 29.5994 47.5983 33.3273C45.844 32.4501 44.0898 31.6827 42.3355 30.9152C40.5812 30.1477 38.8269 29.4898 36.963 28.8319C38.3884 24.9945 39.8137 21.2666 41.2391 17.6484ZM33.0159 39.9058C34.7702 40.5637 36.6341 41.3312 38.3884 42.0987C40.1426 42.8662 41.8969 43.7433 43.6512 44.6205C42.4451 48.3483 41.2391 52.1858 40.033 55.9136C37.9498 54.4883 35.7569 53.3919 33.3448 52.2954H33.2352C33.1255 52.2954 33.0159 52.1858 32.9062 52.1858C31.8098 51.7472 30.6037 51.3086 29.5073 50.8701C30.6037 47.1422 31.8098 43.524 33.0159 39.9058Z" fill="url(#paint18_linear_630_49485)"/>
<path fill-rule="evenodd" clip-rule="evenodd" d="M37.0726 28.7223C38.8269 29.3802 40.6908 30.038 42.4451 30.8055C44.1994 31.573 45.9537 32.3405 47.7079 33.2176C46.3922 36.9455 45.0765 40.6733 43.7608 44.5108C42.0065 43.6337 40.2522 42.7565 38.498 41.989C36.7437 41.2215 34.9894 40.454 33.1255 39.7962C34.3316 36.178 35.6473 32.4501 37.0726 28.7223ZM56.3697 11.2892C54.8347 14.9074 53.2997 18.5256 51.8743 22.1438C50.1201 21.2666 48.3658 20.4991 46.6115 19.7316C44.8572 18.9641 43.1029 18.3063 41.239 17.6484C42.6644 14.0302 44.0897 10.412 45.6247 6.90346C49.9008 8.21917 53.7383 9.64452 56.3697 11.2892Z" fill="url(#paint19_linear_630_49485)"/>
<path fill-rule="evenodd" clip-rule="evenodd" d="M10.8683 45.8265C10.8683 46.2651 7.14045 45.9362 6.81152 45.059V44.9494C7.57902 44.0722 10.8683 45.1687 10.8683 45.8265Z" fill="#151217"/>
<path fill-rule="evenodd" clip-rule="evenodd" d="M27.6441 2.29848C16.6798 24.1173 9.00484 48.4579 3.08415 72.4696C2.97451 72.0311 2.42629 71.7021 1.76844 71.4828C1.00094 71.2636 0.343087 71.3732 0.0141602 71.7021C6.04449 47.4712 13.8291 22.8016 24.903 0.873126C25.7801 -0.990795 28.6308 0.434556 27.6441 2.29848Z" fill="#7F7F82"/>
<path fill-rule="evenodd" clip-rule="evenodd" d="M2.97446 72.2503C5.05767 64.1368 7.25051 56.0233 9.66265 48.0194C14.3773 32.3405 20.1883 16.8809 27.5344 2.18883C28.4115 0.434555 25.8897 -0.771512 25.0126 0.873124C17.5569 15.6749 11.7459 31.3537 6.92159 47.0326C4.50945 55.1461 2.20696 63.3693 0.233398 71.5925C0.562326 71.3732 1.11054 71.3732 1.76839 71.4828C2.3166 71.5925 2.75517 71.9214 2.97446 72.2503Z" fill="#8A8A8E"/>
<path fill-rule="evenodd" clip-rule="evenodd" d="M2.86477 72.1407C4.83833 64.0272 7.03118 56.0233 9.55296 48.0194C14.2676 32.3405 19.969 16.7713 27.4247 2.18883C28.1922 0.65384 25.8897 -0.442584 25.1222 1.09241C17.6665 15.7845 11.9651 31.4634 7.14082 47.1422C4.72869 55.2558 2.4262 63.3693 0.452637 71.4828C0.781564 71.3732 1.32978 71.3732 1.76835 71.4828C2.20692 71.5925 2.64548 71.8118 2.86477 72.1407Z" fill="#959599"/>
<path fill-rule="evenodd" clip-rule="evenodd" d="M2.75535 72.0311C4.72891 63.9175 6.92176 55.9136 9.44354 47.9097C14.2678 32.2309 19.9692 16.7713 27.3153 2.07919C27.9731 0.76348 25.8899 -0.223302 25.232 1.09241C17.7764 15.7845 12.075 31.3537 7.25069 47.1422C4.83855 55.1461 2.53606 63.2597 0.5625 71.4828C0.891427 71.3732 1.33 71.3732 1.76857 71.4828C2.09749 71.5925 2.42642 71.8118 2.75535 72.0311Z" fill="#A0A1A4"/>
<path fill-rule="evenodd" clip-rule="evenodd" d="M2.64544 71.9214C4.619 63.9175 6.81185 55.804 9.22398 47.9097C14.0483 32.2309 19.7497 16.6616 27.0957 1.96955C27.7536 0.763482 25.9993 -0.113657 25.3414 1.09241C17.8857 15.7845 12.1843 31.3537 7.36006 47.1422C4.94793 55.1461 2.75508 63.2597 0.671875 71.3732C1.0008 71.3732 1.32973 71.3732 1.65866 71.4828C2.09723 71.5925 2.31651 71.7021 2.64544 71.9214Z" fill="#ABACAF"/>
<path fill-rule="evenodd" clip-rule="evenodd" d="M2.42615 71.8118C4.39972 63.8079 6.59257 55.804 9.0047 47.8001C13.829 32.1212 19.5304 16.552 26.8764 1.96955C27.4246 0.982766 25.8896 0.215269 25.3414 1.20205C17.8857 15.8941 12.1843 31.4634 7.36006 47.2519C4.94793 55.2558 2.75508 63.2597 0.671875 71.3732C0.89116 71.3732 1.22009 71.3732 1.54901 71.4828C1.98758 71.5925 2.20687 71.7021 2.42615 71.8118Z" fill="#B7B8BB"/>
<path fill-rule="evenodd" clip-rule="evenodd" d="M2.31646 71.7021C4.29003 63.6982 6.48288 55.6943 8.89501 47.8001C13.7193 32.1212 19.4207 16.552 26.7667 1.85991C27.2053 0.982768 25.9992 0.434556 25.5607 1.20205C18.105 15.8941 12.4036 31.4634 7.5793 47.2519C5.16717 55.2558 2.97432 63.2597 0.891113 71.3732C1.1104 71.3732 1.32968 71.3732 1.65861 71.4828C1.98754 71.5925 2.20682 71.5925 2.31646 71.7021Z" fill="#C2C3C6"/>
<path fill-rule="evenodd" clip-rule="evenodd" d="M2.20678 71.7021C4.18034 63.5886 6.37319 55.6943 8.78532 47.8001C13.6096 32.1212 19.311 16.552 26.7667 1.8599C26.8763 1.64062 26.8763 1.42133 26.7667 1.31169C26.4377 0.982765 25.9992 0.982765 25.7799 1.42133C18.3242 16.1134 12.6228 31.6826 7.79854 47.3615C5.38641 55.3654 3.19356 63.3693 1.11035 71.4829C1.32964 71.4829 1.43928 71.4829 1.65856 71.5925C1.87785 71.4829 2.09713 71.5925 2.20678 71.7021Z" fill="#CCCED0"/>
<path fill-rule="evenodd" clip-rule="evenodd" d="M2.09709 71.5925C4.07065 63.5886 6.2635 55.5847 8.67563 47.6904C13.4999 32.0116 19.2013 16.4423 26.657 1.75026C26.7666 1.64062 26.7666 1.42134 26.657 1.31169C26.4377 1.09241 26.1088 1.09241 25.8895 1.42134C18.5434 16.1134 12.7324 31.6826 7.90814 47.3615C5.496 55.3654 3.30315 63.3693 1.32959 71.3732C1.43923 71.3732 1.65852 71.3732 1.76816 71.4828C1.8778 71.4828 1.98744 71.5925 2.09709 71.5925Z" fill="#D7D8DA"/>
<path fill-rule="evenodd" clip-rule="evenodd" d="M1.87802 71.5925C3.85159 63.5886 6.04443 55.5847 8.45657 47.6904C13.2808 31.9019 19.0919 16.4423 26.4379 1.75026C26.4379 1.64062 26.5476 1.53098 26.4379 1.53098C26.3283 1.31169 26.109 1.31169 25.9994 1.53098C18.6533 16.1134 12.8423 31.6826 8.018 47.3615C5.60587 55.2558 3.41302 63.3693 1.43945 71.3732C1.5491 71.3732 1.65874 71.3732 1.76838 71.4828C1.76838 71.4828 1.87802 71.4828 1.87802 71.5925Z" fill="#E2E3E4"/>
<path fill-rule="evenodd" clip-rule="evenodd" d="M26.4379 1.53098C26.4379 1.53098 26.3282 1.42134 26.2186 1.42134C26.2186 1.42134 26.2186 1.53098 26.109 1.53098C18.7629 16.2231 12.9519 31.7923 8.23724 47.4712C5.8251 55.3654 3.63225 63.3693 1.65869 71.4828H1.76833H1.87798C3.85154 63.4789 6.04439 55.4751 8.45652 47.5808C13.1711 31.9019 18.9822 16.3327 26.4379 1.53098C26.3282 1.64062 26.3282 1.53098 26.4379 1.53098Z" fill="#ECEDEE"/>
<path fill-rule="evenodd" clip-rule="evenodd" d="M1.76818 71.2636C2.64532 71.4828 3.19353 72.0311 3.08389 72.4696C2.97425 72.9082 2.20675 73.1275 1.32961 72.9082C0.452472 72.6889 -0.0957406 72.1407 0.0139019 71.7021C0.123544 71.2636 0.891041 71.0443 1.76818 71.2636Z" fill="url(#paint20_linear_630_49485)"/>
<path fill-rule="evenodd" clip-rule="evenodd" d="M24.0257 1.75026C24.9028 0.434555 27.6439 1.31169 27.9728 2.40812C26.3282 5.91668 24.5739 9.53488 23.0389 13.0434C21.3943 12.4952 20.7364 12.3856 19.0918 12.2759C20.6268 8.76738 22.2714 5.25882 24.0257 1.75026Z" fill="url(#paint21_linear_630_49485)"/>
<path fill-rule="evenodd" clip-rule="evenodd" d="M18.9822 12.2759C19.64 11.2892 22.2714 10.7409 22.9293 13.0434C21.3943 16.6616 19.7497 20.1702 18.3243 23.7884C17.0086 23.5691 15.6929 23.2402 14.4868 23.0209C15.9122 19.4027 17.4472 15.8941 18.9822 12.2759Z" fill="url(#paint22_linear_630_49485)"/>
<path fill-rule="evenodd" clip-rule="evenodd" d="M14.3774 23.0209C15.1448 21.9245 17.8859 22.363 18.2148 23.7884C18.1052 24.1173 17.8859 24.5559 17.7763 24.8848C16.4606 28.1741 15.2545 31.3537 14.0484 34.643C12.7327 34.4237 11.5266 34.0948 10.2109 33.8755C11.6363 30.2573 12.952 26.6391 14.3774 23.0209Z" fill="url(#paint23_linear_630_49485)"/>
<path fill-rule="evenodd" clip-rule="evenodd" d="M10.3203 33.9851C11.0878 32.6694 13.7193 33.4369 14.0482 34.7526C12.0746 41.0022 11.6361 42.6469 10.7589 45.9362C10.6493 45.059 7.25036 44.1819 6.70215 45.1687C7.90822 41.3312 9.11428 37.6033 10.3203 33.9851Z" fill="url(#paint24_linear_630_49485)"/>
<defs>
<linearGradient id="paint0_linear_630_49485" x1="49.2417" y1="66.6631" x2="61.3023" y2="24.2681" gradientUnits="userSpaceOnUse">
<stop stop-color="#96969A"/>
<stop offset="1" stop-color="white"/>
</linearGradient>
<linearGradient id="paint1_linear_630_49485" x1="32.8369" y1="41.6854" x2="46.9416" y2="36.5929" gradientUnits="userSpaceOnUse">
<stop stop-color="#111212"/>
<stop offset="1" stop-color="white"/>
</linearGradient>
<linearGradient id="paint2_linear_630_49485" x1="51.4452" y1="44.1871" x2="60.0351" y2="47.1697" gradientUnits="userSpaceOnUse">
<stop stop-color="#585C5C"/>
<stop offset="1" stop-color="white"/>
</linearGradient>
<linearGradient id="paint3_linear_630_49485" x1="23.1216" y1="55.3556" x2="42.7029" y2="67.1902" gradientUnits="userSpaceOnUse">
<stop stop-color="#111212"/>
<stop offset="1" stop-color="white"/>
</linearGradient>
<linearGradient id="paint4_linear_630_49485" x1="48.7334" y1="54.7896" x2="57.4249" y2="58.1518" gradientUnits="userSpaceOnUse">
<stop/>
<stop offset="1" stop-color="#959599"/>
</linearGradient>
<linearGradient id="paint5_linear_630_49485" x1="51.3545" y1="55.0147" x2="63.0251" y2="57.7409" gradientUnits="userSpaceOnUse">
<stop stop-color="#6E6E70"/>
<stop offset="1" stop-color="white"/>
</linearGradient>
<linearGradient id="paint6_linear_630_49485" x1="53.8717" y1="43.7299" x2="79.3652" y2="50.6315" gradientUnits="userSpaceOnUse">
<stop stop-color="#C2C3C6"/>
<stop offset="1" stop-color="white"/>
</linearGradient>
<linearGradient id="paint7_linear_630_49485" x1="60.4325" y1="46.5031" x2="70.5272" y2="48.6761" gradientUnits="userSpaceOnUse">
<stop/>
<stop offset="1" stop-color="#959599"/>
</linearGradient>
<linearGradient id="paint8_linear_630_49485" x1="63.2918" y1="56.7519" x2="71.8521" y2="59.2305" gradientUnits="userSpaceOnUse">
<stop/>
<stop offset="1" stop-color="#959599"/>
</linearGradient>
<linearGradient id="paint9_linear_630_49485" x1="30.5116" y1="53.2608" x2="24.5529" y2="52.5136" gradientUnits="userSpaceOnUse">
<stop/>
<stop offset="1" stop-color="#959599"/>
</linearGradient>
<linearGradient id="paint10_linear_630_49485" x1="43.0303" y1="54.372" x2="35.0039" y2="52.3488" gradientUnits="userSpaceOnUse">
<stop stop-color="#38383B"/>
<stop offset="1" stop-color="#A9AAAB"/>
</linearGradient>
<linearGradient id="paint11_linear_630_49485" x1="28.1462" y1="51.9042" x2="45.3235" y2="1.83425" gradientUnits="userSpaceOnUse">
<stop stop-color="#96969A"/>
<stop offset="1" stop-color="white"/>
</linearGradient>
<linearGradient id="paint12_linear_630_49485" x1="9.54915" y1="27.2087" x2="28.2197" y2="32.6147" gradientUnits="userSpaceOnUse">
<stop stop-color="#C2C3C6"/>
<stop offset="1" stop-color="white"/>
</linearGradient>
<linearGradient id="paint13_linear_630_49485" x1="20.1931" y1="18.2549" x2="33.7892" y2="22.1915" gradientUnits="userSpaceOnUse">
<stop/>
<stop offset="1" stop-color="#959599"/>
</linearGradient>
<linearGradient id="paint14_linear_630_49485" x1="12.7891" y1="16.0942" x2="36.556" y2="22.5283" gradientUnits="userSpaceOnUse">
<stop stop-color="#C2C3C6"/>
<stop offset="1" stop-color="white"/>
</linearGradient>
<linearGradient id="paint15_linear_630_49485" x1="20.8134" y1="29.6599" x2="41.3672" y2="36.397" gradientUnits="userSpaceOnUse">
<stop/>
<stop offset="1" stop-color="#959599"/>
</linearGradient>
<linearGradient id="paint16_linear_630_49485" x1="29.3604" y1="9.11691" x2="62.2161" y2="38.8543" gradientUnits="userSpaceOnUse">
<stop stop-color="#C2C3C6"/>
<stop offset="1" stop-color="white"/>
</linearGradient>
<linearGradient id="paint17_linear_630_49485" x1="43.6994" y1="39.2792" x2="63.5947" y2="50.3746" gradientUnits="userSpaceOnUse">
<stop/>
<stop offset="1" stop-color="#959599"/>
</linearGradient>
<linearGradient id="paint18_linear_630_49485" x1="61.2739" y1="45.0616" x2="33.9549" y2="33.9419" gradientUnits="userSpaceOnUse">
<stop stop-color="#C2C3C6"/>
<stop offset="1" stop-color="white"/>
</linearGradient>
<linearGradient id="paint19_linear_630_49485" x1="50.5244" y1="27.8476" x2="30.9031" y2="20.2574" gradientUnits="userSpaceOnUse">
<stop/>
<stop offset="1" stop-color="#959599"/>
</linearGradient>
<linearGradient id="paint20_linear_630_49485" x1="4.11014" y1="70.7115" x2="-0.266672" y2="73.0388" gradientUnits="userSpaceOnUse">
<stop/>
<stop offset="1" stop-color="#959599"/>
</linearGradient>
<linearGradient id="paint21_linear_630_49485" x1="21.5305" y1="6.21666" x2="25.6471" y2="8.13639" gradientUnits="userSpaceOnUse">
<stop stop-color="#C2C3C6"/>
<stop offset="0.45" stop-color="#151217"/>
<stop offset="1" stop-color="#959599"/>
</linearGradient>
<linearGradient id="paint22_linear_630_49485" x1="16.7551" y1="16.8235" x2="20.594" y2="18.2971" gradientUnits="userSpaceOnUse">
<stop stop-color="white"/>
<stop offset="0.45" stop-color="#D7D8DA"/>
<stop offset="1" stop-color="white"/>
</linearGradient>
<linearGradient id="paint23_linear_630_49485" x1="12.0882" y1="27.7844" x2="16.3136" y2="29.0762" gradientUnits="userSpaceOnUse">
<stop stop-color="#C2C3C6"/>
<stop offset="0.54" stop-color="#151217"/>
<stop offset="1" stop-color="#959599"/>
</linearGradient>
<linearGradient id="paint24_linear_630_49485" x1="8.42288" y1="38.8533" x2="12.2593" y2="40.0262" gradientUnits="userSpaceOnUse">
<stop stop-color="white"/>
<stop offset="0.45" stop-color="#D7D8DA"/>
<stop offset="1" stop-color="white"/>
</linearGradient>
</defs>
</svg>
