<svg width="84" height="84" viewBox="0 0 84 84" fill="none" xmlns="http://www.w3.org/2000/svg">
<path d="M0 84L16.9047 60.8089H67.0953L84 84H0Z" fill="#223BBD"/>
<path d="M77.3574 80.8402H6.64551L18.8469 62.045H65.153L77.3574 80.8402Z" fill="#3958FF"/>
<path d="M66.7455 64.4958L74.2161 76.0004C69.9116 75.8617 63.4456 74.0367 61.4181 69.5329C59.3845 65.0137 65.1747 64.5482 66.7455 64.4958Z" fill="#FFA32B"/>
<path d="M46.2422 69.4743C46.1204 68.232 44.2147 67.2733 41.9833 67.2733C39.7519 67.2733 37.8462 68.2289 37.7244 69.4743C37.5935 70.7937 39.4961 71.9251 41.9833 71.9251C44.4674 71.9251 46.3731 70.7937 46.2422 69.4743Z" fill="#FFA32B"/>
<path d="M17.2549 64.4958L9.78735 76.0004C15.2487 76.0004 20.8562 73.3739 22.1531 70.4916L23.0298 68.5403C24.0801 66.2067 21.4499 64.4958 17.2549 64.4958Z" fill="#FFA32B"/>
<path d="M77.5675 80.9389H6.43555L18.78 62.0019H65.22L77.5675 80.9389ZM6.85261 80.7416H77.1474L65.0861 62.0882H18.9139L6.85261 80.7416Z" fill="white"/>
<path d="M42.1447 80.8402H41.8555L41.9042 62.045H42.096L42.1447 80.8402Z" fill="white"/>
<path d="M28.8443 69.4836C28.8717 69.3911 28.759 69.3171 28.5886 69.3171C28.4181 69.3171 28.2567 69.3911 28.2263 69.4836C28.1959 69.5761 28.3115 69.6532 28.482 69.6532C28.6555 69.6532 28.8169 69.5761 28.8443 69.4836Z" fill="white"/>
<path d="M55.7737 69.4836C55.7433 69.3911 55.5819 69.3171 55.4115 69.3171C55.241 69.3171 55.1253 69.3911 55.1557 69.4836C55.1831 69.5761 55.3475 69.6532 55.518 69.6532C55.6885 69.6532 55.8042 69.5761 55.7737 69.4836Z" fill="white"/>
<path d="M22.9171 69.4836C22.9567 69.3911 22.8532 69.3171 22.6827 69.3171C22.5122 69.3171 22.3417 69.3911 22.2991 69.4836C22.2565 69.5761 22.36 69.6532 22.5335 69.6532C22.701 69.6532 22.8745 69.5761 22.9171 69.4836Z" fill="white"/>
<path d="M13.054 71.1513H11.0234L13.2366 67.9546H15.124L13.054 71.1513ZM11.3522 71.0157H12.9017L14.8227 68.0686H13.3766L11.3522 71.0157Z" fill="white"/>
<path d="M11.2182 75.1131H9.50732L9.61387 74.9523H11.3187L11.2182 75.1131Z" fill="white"/>
<path d="M17.5379 65.1065H16.1802L16.2471 65.0045H17.6018L17.5379 65.1065Z" fill="white"/>
<path d="M74.4533 75.1131H72.7455L72.645 74.9523H74.3468L74.4533 75.1131Z" fill="white"/>
<path d="M67.7893 65.1065H66.4316L66.3677 65.0045H67.7224L67.7893 65.1065Z" fill="white"/>
<path d="M30.8717 62.3102H30.6799L30.8474 61.7861H31.0361L30.8717 62.3102Z" fill="white"/>
<path d="M38.3544 62.3102H38.1626L38.2204 61.7861H38.4092L38.3544 62.3102Z" fill="white"/>
<path d="M53.3199 62.3102H53.1281L52.9668 61.7861H53.1555L53.3199 62.3102Z" fill="white"/>
<path d="M45.8373 62.3102H45.6455L45.5938 61.7861H45.7825L45.8373 62.3102Z" fill="white"/>
<path d="M24.9508 81.429H24.6555L25.0421 80.2052H25.3283L24.9508 81.429Z" fill="white"/>
<path d="M36.4154 81.429H36.1201L36.251 80.2052H36.5402L36.4154 81.429Z" fill="white"/>
<path d="M59.3447 81.429H59.0494L58.6719 80.2052H58.958L59.3447 81.429Z" fill="white"/>
<path d="M47.88 81.429H47.5847L47.4629 80.2052H47.7491L47.88 81.429Z" fill="white"/>
<path d="M74.4047 76.0867L74.2616 76.0837C73.1048 76.0467 71.8384 75.8833 70.6146 75.6182C69.2325 75.3161 67.9295 74.8937 66.7514 74.3666C65.4485 73.784 64.3312 73.0873 63.4301 72.3074C62.459 71.4658 61.7436 70.5256 61.2992 69.5329C60.7877 68.3893 60.7177 67.4429 61.0587 66.6969C61.3326 66.0927 61.8806 65.6056 62.6812 65.2418C64.0786 64.6006 65.9629 64.4742 66.7057 64.4496L66.8123 64.4465L74.4047 76.0867ZM66.6783 64.5482C65.8899 64.5821 64.1516 64.7209 62.8487 65.3189C62.0724 65.6765 61.5397 66.1512 61.2748 66.74C60.943 67.4737 61.0191 68.4047 61.5305 69.5299C61.9719 70.5071 62.6782 71.4288 63.6341 72.2519C64.5139 73.0102 65.6037 73.6853 66.8701 74.2525C68.0148 74.7643 69.2812 75.1712 70.6237 75.464C71.7622 75.7107 72.9373 75.8648 74.0241 75.911L66.6783 64.5482Z" fill="white"/>
<path d="M61.0861 69.4836C61.0465 69.3911 61.15 69.3171 61.3205 69.3171C61.4909 69.3171 61.6614 69.3911 61.704 69.4836C61.7467 69.5761 61.6432 69.6532 61.4696 69.6532C61.2961 69.6532 61.1256 69.5761 61.0861 69.4836Z" fill="white"/>
<path d="M72.977 71.1513H70.9464L68.8794 67.9546H70.7668L72.977 71.1513ZM71.0987 71.0157H72.6482L70.6237 68.0686H69.1777L71.0987 71.0157Z" fill="white"/>
<path d="M41.9831 71.9929C39.429 71.9929 37.4715 70.8276 37.6116 69.4713C37.7425 68.1981 39.6999 67.2147 41.9861 67.2147C44.2724 67.2147 46.2298 68.1981 46.3577 69.4713C46.4947 70.8276 44.5342 71.9929 41.9831 71.9929ZM41.9831 67.3288C39.8126 67.3288 37.9556 68.2628 37.8368 69.4713C37.712 70.7537 39.569 71.8511 41.9801 71.8511C44.3911 71.8511 46.2481 70.7506 46.1263 69.4713C46.0106 68.2628 44.1567 67.3288 41.9831 67.3288Z" fill="white"/>
<path d="M18.6338 62.3718L18.6916 62.2855C18.9869 62.2855 19.2944 62.1776 19.3796 62.045H19.5684C19.4527 62.2238 19.0356 62.3718 18.6338 62.3718Z" fill="white"/>
<path d="M65.3388 62.3718C64.9369 62.3718 64.5199 62.2238 64.4072 62.045H64.596C64.6812 62.1776 64.9887 62.2855 65.2809 62.2855L65.3388 62.3718Z" fill="white"/>
<path d="M7.7627 80.8094H7.4735C7.66833 80.5042 7.46437 80.2576 7.02295 80.2576L7.15081 80.0634C7.74444 80.0634 8.02451 80.3963 7.7627 80.8094Z" fill="white"/>
<path d="M76.4839 80.8094H76.1947C75.9359 80.3963 76.2129 80.0634 76.8096 80.0634L76.9344 80.2576C76.4961 80.2576 76.2921 80.5042 76.4839 80.8094Z" fill="white"/>
<path d="M9.73247 76.0837H9.60156L17.1878 64.4465H17.2883C18.3264 64.4465 19.2731 64.5451 20.1134 64.7394C20.9323 64.9305 21.6203 65.2048 22.1591 65.5624C22.7071 65.9262 23.0815 66.3578 23.2581 66.8479C23.4468 67.3689 23.4133 67.9392 23.1424 68.5434L22.2687 70.4947C21.9643 71.176 21.4163 71.8542 20.6339 72.5139C19.8546 73.1705 18.8774 73.7747 17.7297 74.3049C16.5546 74.8506 15.27 75.2852 13.9183 75.5935C12.4997 75.9172 11.0872 76.0837 9.73247 76.0837ZM17.3248 64.5451L9.97296 75.9172C11.2485 75.9079 12.5728 75.7476 13.9031 75.4425C15.2152 75.1434 16.4633 74.7211 17.6049 74.194C18.7221 73.6792 19.6719 73.0904 20.433 72.4553C21.2002 71.8141 21.7329 71.1514 22.0343 70.4917L22.9171 68.5403C23.182 67.9515 23.2215 67.3966 23.0389 66.888C22.8684 66.4071 22.5061 65.9878 21.9734 65.6333C21.4498 65.285 20.777 65.0168 19.9794 64.8288C19.191 64.6469 18.299 64.5513 17.3248 64.5451Z" fill="white"/>
<path fill-rule="evenodd" clip-rule="evenodd" d="M65.6127 14.3162C63.4902 11.6402 61.43 9.08866 58.4959 7.53283C56.4357 5.16797 54.001 3.17651 49.3188 1.06058C49.5686 1.06058 49.9431 1.18504 50.3801 1.30951C55.2496 3.17651 62.4913 6.78603 65.5503 13.6317C65.5503 13.8806 65.6127 14.0673 65.6127 14.3162Z" fill="url(#paint0_linear_630_46070)"/>
<path fill-rule="evenodd" clip-rule="evenodd" d="M65.6127 14.3162C63.4902 11.6402 61.43 9.08866 58.4959 7.53283C56.4357 5.16797 54.001 3.17651 49.3188 1.06058C49.5686 1.06058 49.9431 1.18504 50.3801 1.30951C50.6923 1.43398 51.0044 1.55844 51.379 1.68291C54.2507 2.98981 58.1213 5.91476 58.9953 6.97273C60.1814 7.71953 63.8023 10.2711 65.6127 13.9428C65.6127 14.0673 65.6127 14.1918 65.6127 14.3162Z" fill="url(#paint1_linear_630_46070)"/>
<path fill-rule="evenodd" clip-rule="evenodd" d="M60.3061 41.6366C60.8056 42.4457 60.9928 43.3792 60.5558 44.6238C65.4253 40.5164 68.1722 32.6751 68.2346 24.3981C68.2346 24.2736 68.2346 24.2113 68.1722 24.3358C67.7976 25.7672 66.2993 28.5677 64.364 30.3102C63.8646 34.3554 62.5536 38.2138 60.3061 41.6366ZM42.6388 52.154C42.0769 51.4695 41.6399 50.7227 41.3278 49.8514C45.1984 48.1089 47.9452 46.1174 50.38 44.0637C53.7511 43.877 57.0598 43.3169 60.2437 41.6366C60.8056 42.5701 60.868 43.5036 60.4934 44.6238C54.9373 49.7892 48.9441 52.154 42.6388 52.154ZM29.7785 45.744C33.2121 47.7977 37.0202 49.2291 41.2654 49.9136C44.6989 48.3578 47.6955 46.4286 50.3175 44.126C49.3187 41.0765 48.5071 37.5293 47.758 33.6708C43.0758 32.4884 38.5809 31.057 34.2733 29.5012C31.4016 31.7416 28.5299 34.0442 25.5958 36.2846C26.5322 40.143 27.7183 43.2547 29.7785 45.744ZM25.5958 36.1601C26.7195 40.8898 28.1553 43.877 29.7785 45.6818C28.2802 46.4286 27.531 46.802 25.9079 46.9887C20.6015 43.6281 17.4176 37.2803 16.169 31.057C16.1066 30.6214 16.0442 30.3102 16.169 30.0613C16.606 29.3767 17.48 28.5677 18.2292 28.132C20.6639 31.9283 22.4743 34.1687 25.5958 36.1601ZM18.2292 28.132C17.48 28.5677 15.8569 29.999 16.0442 30.4969C14.9829 21.4109 16.9182 14.6274 22.4743 9.15092C21.9125 10.769 21.7876 13.2583 22.0373 16.4944C19.8523 20.5396 18.6662 24.3981 18.2292 28.132ZM42.0769 8.03072C42.3891 5.91479 41.8897 3.79887 40.6411 1.62071C37.3948 1.18507 33.8988 0.998373 30.8398 2.3675C28.0929 3.79887 24.7842 6.22596 22.6616 8.83975C21.9749 9.52432 21.6627 13.8806 22.0373 16.4944C25.4085 15.9343 28.842 15.9966 31.7762 16.3077C35.1474 13.6317 42.0769 8.03072 42.0769 8.03072ZM58.4333 7.47062C61.3674 8.96422 63.7397 11.6402 65.7374 14.5652C67.5479 18.4237 68.1722 20.8508 68.1722 24.1491C68.1722 26.0161 65.675 29.0655 64.364 30.248C62.3663 27.8831 59.8691 26.0161 57.2471 24.3358C55.8737 17.3657 54.8748 14.0051 54.0008 12.1381C55.4367 10.5201 56.935 8.96422 58.4333 7.47062ZM34.2109 29.3767C38.3936 30.9325 42.8885 32.3017 47.6955 33.5463C51.1291 30.6836 54.313 27.6342 57.1223 24.3981C56.3731 20.2907 55.4367 16.1833 53.876 12.1381C49.943 10.4578 45.9475 9.08869 41.8897 8.09296C38.2064 10.5823 34.7728 13.3205 31.6513 16.37C32.5878 20.7263 34.2109 29.3767 34.2109 29.3767Z" fill="url(#paint2_radial_630_46070)"/>
<path fill-rule="evenodd" clip-rule="evenodd" d="M60.3062 41.6366C60.8056 42.4456 60.9929 43.3791 60.5559 44.6238C61.2426 43.7525 61.1802 42.9435 60.9929 42.1344C60.9304 41.8233 60.9929 41.5121 61.1802 41.2009C62.9282 38.4004 64.2392 35.1021 64.9883 31.0569C65.0507 30.8702 65.1132 30.6835 65.1756 30.5591C66.549 28.5676 67.86 26.8873 68.1722 24.5224L68.2346 24.398C68.2346 24.3357 68.2346 24.2735 68.1722 24.398C67.7976 25.8293 66.2993 28.6298 64.364 30.3724C63.8646 34.3553 62.5536 38.2137 60.3062 41.6366Z" fill="#B2B2B2"/>
<path fill-rule="evenodd" clip-rule="evenodd" d="M42.0767 8.03065C42.3889 5.91473 41.8894 3.7988 40.6409 1.62064C39.9542 1.5584 39.2674 1.43394 38.5807 1.3717L36.583 1.68287C37.3321 1.68287 38.7056 1.80734 39.4547 1.86957C40.079 1.9318 40.3287 4.29666 40.3912 5.85249C40.4536 6.97269 40.079 7.84395 39.205 8.46629C36.3333 10.7067 34.0234 12.2625 32.213 14.005C31.7136 14.5029 31.0893 14.7518 30.3401 14.7518C27.2187 14.6896 24.5343 14.8141 22.4741 15.4364C22.3493 15.7476 22.162 16.121 22.0371 16.4321C25.4083 15.872 28.8418 15.9343 31.776 16.2454C35.1471 13.6316 42.0767 8.03065 42.0767 8.03065Z" fill="url(#paint3_radial_630_46070)"/>
<path fill-rule="evenodd" clip-rule="evenodd" d="M23.5354 7.84402C23.2233 8.21742 22.9111 8.52859 22.599 8.90199C21.9123 9.58655 21.6001 13.9429 21.9747 16.5567L22.4117 15.5609C22.4117 13.3828 21.9123 9.89772 23.5354 7.84402Z" fill="#CCCCCC"/>
<path fill-rule="evenodd" clip-rule="evenodd" d="M49.1312 0.998366C47.7578 0.0648679 44.6364 -0.184065 40.2663 0.127101C36.3333 0.376034 33.0246 1.18507 32.3379 1.86963L40.5785 1.68293L49.1312 0.998366Z" fill="#EDEDED"/>
<path fill-rule="evenodd" clip-rule="evenodd" d="M32.9624 1.86957L40.5787 1.68287L47.5707 1.12277L48.195 0.936068C48.0702 0.687135 47.9453 0.624902 47.321 0.562669C44.8239 0.127037 42.0146 0.687135 40.4538 1.06053C38.8931 1.3717 36.7081 1.185 34.5855 1.30947C33.6491 1.30947 33.0248 1.5584 32.9624 1.86957Z" fill="#FAFAFA"/>
<path fill-rule="evenodd" clip-rule="evenodd" d="M42.077 8.03071C41.7648 5.91478 41.2654 3.73662 40.6411 1.62069C43.4504 0.81166 45.8227 0.500494 49.1938 0.936127C53.1269 2.55419 56.7477 4.79458 58.4957 7.40838C56.8726 9.02644 55.3743 10.52 54.0633 12.0759C50.0054 10.769 42.077 8.03071 42.077 8.03071Z" fill="url(#paint4_linear_630_46070)"/>
<path fill-rule="evenodd" clip-rule="evenodd" d="M34.2109 29.3766C38.3937 30.9324 42.8885 32.3016 47.6955 33.5462C51.1291 30.6835 54.313 27.6341 57.1223 24.398C56.3731 20.2906 55.4991 15.6853 53.876 12.138L53.002 12.9471C54.2506 14.8763 55.3743 20.3528 55.4367 23.0288C55.4367 23.4022 55.3118 23.7756 55.0621 24.0868C53.002 26.6384 50.6921 28.7543 48.2574 30.6213C47.6955 31.0569 47.0088 31.2436 46.2597 31.1191C42.3267 30.4968 38.6434 29.8123 34.7728 28.3809L34.2109 29.3766Z" fill="url(#paint5_linear_630_46070)"/>
<path fill-rule="evenodd" clip-rule="evenodd" d="M54.0009 12.1381C50.0679 10.4578 46.0725 9.08863 42.0146 8.0929C38.3313 10.5822 34.8353 13.3827 31.7139 16.4321C32.5254 20.7262 33.3994 25.0826 34.211 29.3766L34.8977 28.5054C34.5856 24.8336 34.0237 21.2241 33.7116 17.6146C33.6492 17.1167 33.8364 16.6811 34.1486 16.3077C36.396 14.005 39.0805 11.8891 41.7649 10.0844C42.1395 9.83543 42.5765 9.71096 43.0759 9.83542C46.3222 10.5822 49.6309 11.6402 53.0645 13.0093L54.0009 12.1381Z" fill="white"/>
<path fill-rule="evenodd" clip-rule="evenodd" d="M25.5954 36.1601C28.4671 33.9197 31.3388 31.617 34.2729 29.3766C33.4614 25.0826 32.5874 20.7262 31.7758 16.4321C28.7168 16.121 25.4705 16.1832 22.0369 16.6188C20.2265 20.1661 18.7906 23.9624 18.2288 28.132C21.0381 32.7372 23.4103 34.9776 25.5954 36.1601Z" fill="url(#paint6_linear_630_46070)"/>
<path fill-rule="evenodd" clip-rule="evenodd" d="M16.1064 30.4968C16.1064 30.3101 16.1064 30.1857 16.2313 30.0612C16.6683 29.3766 17.5423 28.5676 18.2915 28.132C20.7886 31.9282 22.599 34.2308 25.658 36.2223L24.9089 36.7824C22.4117 34.542 19.9146 32.1771 17.9169 28.8788C17.1053 29.3766 16.481 29.8123 16.1064 30.4968Z" fill="#E5E5E5"/>
<path fill-rule="evenodd" clip-rule="evenodd" d="M25.5958 36.1601C26.7195 40.8898 28.1554 43.877 29.7785 45.6817C28.2803 46.4285 27.5311 46.8019 25.908 46.9886C26.9693 46.6775 27.9057 46.1796 28.7173 45.4328C27.0941 42.6945 25.7831 39.7074 24.8467 36.7202L25.5958 36.1601Z" fill="#7F7F7F"/>
<path fill-rule="evenodd" clip-rule="evenodd" d="M41.3276 49.9136C44.7612 48.3578 47.7578 46.4286 50.3798 44.126C49.3809 41.0765 48.5694 37.5292 47.8202 33.6708L46.8838 34.542C47.4457 37.5915 48.2572 40.5787 49.3809 43.6281C49.5058 43.877 49.3809 44.1259 49.1937 44.3126C46.9462 46.4286 44.2618 48.2333 41.3276 49.9136Z" fill="#7F7F7F"/>
<path fill-rule="evenodd" clip-rule="evenodd" d="M47.8204 33.5463C43.1382 32.3639 38.6434 30.9325 34.3358 29.3767C31.4641 31.6171 28.5924 33.9197 25.6582 36.1601C26.5946 40.0808 27.8432 43.1302 29.8409 45.6818C28.3426 42.7568 27.0316 39.8319 26.3449 36.8447C26.2825 36.5957 26.4073 36.2846 26.5946 36.1601C28.5299 34.9154 30.4652 33.6708 33.6491 31.2437C34.0861 30.9325 34.5231 30.808 35.0225 30.9947C38.9555 31.9905 42.8885 33.1729 46.8215 34.4798L47.8204 33.5463Z" fill="url(#paint7_linear_630_46070)"/>
<path fill-rule="evenodd" clip-rule="evenodd" d="M41.3276 49.9136C41.5773 50.7226 42.0768 51.4694 42.6386 52.2162C36.5206 52.6519 30.8396 50.8471 25.9077 47.1131C26.9066 47.1131 28.1551 46.6775 29.7783 45.8062C33.087 47.7977 37.02 49.1046 41.3276 49.9136Z" fill="url(#paint8_linear_630_46070)"/>
<path fill-rule="evenodd" clip-rule="evenodd" d="M50.3798 44.0637C54.0007 43.9393 57.3094 43.1925 60.2436 41.6366C62.8656 38.525 64.239 34.2309 64.3014 30.3724C62.1788 28.0076 59.9314 26.1406 57.1846 24.4603C54.0631 27.5097 50.8792 30.5591 47.7578 33.6085C48.4445 37.0936 49.3185 40.6409 50.3798 44.0637Z" fill="url(#paint9_linear_630_46070)"/>
<path fill-rule="evenodd" clip-rule="evenodd" d="M64.4259 30.3102C62.3034 27.9453 60.0559 26.0783 57.3091 24.398C54.1876 27.4474 51.0038 30.4969 47.8823 33.5463C48.5066 37.0936 49.3806 40.5786 50.4419 44.0015C49.8176 40.952 49.3806 37.5914 49.0685 34.3553C49.006 33.9197 49.1933 33.5463 49.5055 33.2974C52.065 31.057 54.2501 28.8166 56.8721 26.3895C57.2466 26.0161 57.7461 25.9538 58.2455 26.1405C60.3056 26.9496 62.4906 28.6921 64.4259 30.3102Z" fill="#333333"/>
<path fill-rule="evenodd" clip-rule="evenodd" d="M42.6386 52.1541C42.0768 51.4695 41.6398 50.7227 41.3276 49.8514C45.1982 48.1089 47.9451 46.1174 50.3798 44.0638C53.751 43.8771 57.0597 43.317 60.2435 41.6367C60.8054 42.5702 60.8678 43.5037 60.4933 44.6238C60.6181 43.8148 60.6181 42.8813 60.1811 42.1968C57.0597 43.4414 53.8134 44.2504 50.5047 44.5616C47.8202 46.5531 45.0734 48.4823 41.7646 50.1004C42.0144 50.7849 42.3265 51.5317 42.6386 52.1541Z" fill="#CCCCCC"/>
<path fill-rule="evenodd" clip-rule="evenodd" d="M22.4118 9.21317V9.2754C21.8499 10.8935 21.7875 13.3206 22.0372 16.4944L21.2881 16.37C21.2881 13.7562 21.4754 11.5158 22.4118 9.21317Z" fill="#FAFAFA"/>
<path fill-rule="evenodd" clip-rule="evenodd" d="M18.229 28.132C17.5422 28.5054 16.1688 29.75 16.0439 30.3724C16.1688 29.3144 17.0428 28.5054 17.7295 27.9453C18.4787 23.9624 19.6648 20.1661 21.2255 16.5566L22.0371 16.6811C19.8521 20.5395 18.666 24.398 18.229 28.132Z" fill="#999999"/>
<path fill-rule="evenodd" clip-rule="evenodd" d="M68.2344 24.398C68.1095 26.265 65.6748 29.19 64.4262 30.3102C62.4285 27.9453 59.9313 26.0783 57.3093 24.398L58.2458 23.7134C60.618 25.1448 62.9279 27.0118 64.8008 29.19C66.1118 27.8831 67.4228 26.2028 68.2344 24.398Z" fill="#7F7F7F"/>
<path fill-rule="evenodd" clip-rule="evenodd" d="M58.4334 7.47061C58.6831 7.59508 58.9328 7.71954 59.1826 7.90624L58.808 7.96848L55.9363 11.3913C55.5617 11.8269 55.4368 12.387 55.5617 12.9471C56.5606 16.4322 57.497 20.1662 58.1213 23.6512L57.1848 24.3358C55.8738 17.3657 54.875 14.0051 54.001 12.1381C55.4368 10.52 56.9351 8.96421 58.4334 7.47061Z" fill="url(#paint10_linear_630_46070)"/>
<path fill-rule="evenodd" clip-rule="evenodd" d="M43.0756 7.15947C42.8259 5.41694 42.3889 3.67441 41.9519 1.93188C44.2618 1.30955 46.1971 1.06062 48.8815 1.37178C52.0654 2.67868 55.0619 4.48344 56.4354 6.6616C55.1244 7.9685 53.8758 9.21316 52.8145 10.4578C49.5682 9.39986 43.0756 7.15947 43.0756 7.15947Z" fill="url(#paint11_linear_630_46070)"/>
<path fill-rule="evenodd" clip-rule="evenodd" d="M25.5333 35.0399C28.1553 32.9862 30.7149 30.9325 33.3369 28.941C32.5877 25.0203 31.8386 21.1619 31.0894 17.2412C28.3426 16.93 25.4084 16.9923 22.287 17.4279C20.6014 20.6018 19.4153 24.0246 18.9783 27.7586C21.4754 31.9282 23.5356 33.9819 25.5333 35.0399Z" fill="url(#paint12_linear_630_46070)"/>
<path opacity="0.6" fill-rule="evenodd" clip-rule="evenodd" d="M25.5333 35.0399C28.1553 32.9862 30.7149 30.9325 33.3369 28.941C32.5877 25.0203 31.8386 21.1619 31.0894 17.2412C28.3426 16.93 25.4084 16.9923 22.287 17.4279C20.6014 20.6018 19.4153 24.0246 18.9783 27.7586C21.4754 31.9905 23.5356 33.9819 25.5333 35.0399Z" fill="url(#paint13_linear_630_46070)"/>
<defs>
<linearGradient id="paint0_linear_630_46070" x1="58.5519" y1="8.42717" x2="56.9513" y2="6.35053" gradientUnits="userSpaceOnUse">
<stop offset="0.38" stop-color="#CCCCCC"/>
<stop offset="0.62" stop-color="#E5E5E5"/>
</linearGradient>
<linearGradient id="paint1_linear_630_46070" x1="60.3756" y1="9.0636" x2="55.185" y2="5.23986" gradientUnits="userSpaceOnUse">
<stop offset="0.18" stop-color="#E5E5E5"/>
<stop offset="0.82" stop-color="white"/>
</linearGradient>
<radialGradient id="paint2_radial_630_46070" cx="0" cy="0" r="1" gradientUnits="userSpaceOnUse" gradientTransform="translate(33.4244 10.897) rotate(1.27958) scale(41.1722 41.0434)">
<stop offset="0.06" stop-color="white"/>
<stop offset="0.4208" stop-color="#E2E2E2"/>
<stop offset="0.72" stop-color="#CDCDCD"/>
<stop offset="0.94" stop-color="#E1E1E1"/>
</radialGradient>
<radialGradient id="paint3_radial_630_46070" cx="0" cy="0" r="1" gradientUnits="userSpaceOnUse" gradientTransform="translate(32.0625 9.00106) scale(8.91301 8.88509)">
<stop offset="0.06" stop-color="white"/>
<stop offset="0.3163" stop-color="#D1D1D1"/>
<stop offset="0.7133" stop-color="#999999"/>
<stop offset="1" stop-color="#D1D1D1"/>
</radialGradient>
<linearGradient id="paint4_linear_630_46070" x1="55.8533" y1="10.2598" x2="43.0736" y2="2.77096" gradientUnits="userSpaceOnUse">
<stop offset="0.19"/>
<stop offset="0.81" stop-color="#666666"/>
</linearGradient>
<linearGradient id="paint5_linear_630_46070" x1="37.4658" y1="12.7895" x2="54.0676" y2="32.8431" gradientUnits="userSpaceOnUse">
<stop offset="0.46" stop-color="#7F7F7F"/>
<stop offset="0.8919" stop-color="#B2B2B2"/>
</linearGradient>
<linearGradient id="paint6_linear_630_46070" x1="34.1694" y1="30.7089" x2="20.0589" y2="19.5336" gradientUnits="userSpaceOnUse">
<stop offset="0.2"/>
<stop offset="0.8" stop-color="#666666"/>
</linearGradient>
<linearGradient id="paint7_linear_630_46070" x1="37.8253" y1="45.9919" x2="36.1572" y2="29.2533" gradientUnits="userSpaceOnUse">
<stop offset="0.14" stop-color="#CCCCCC"/>
<stop offset="0.86" stop-color="white"/>
</linearGradient>
<linearGradient id="paint8_linear_630_46070" x1="19.8385" y1="43.2006" x2="45.372" y2="53.97" gradientUnits="userSpaceOnUse">
<stop offset="0.26"/>
<stop offset="0.74" stop-color="#666666"/>
</linearGradient>
<linearGradient id="paint9_linear_630_46070" x1="50.2157" y1="26.0933" x2="61.0492" y2="43.0156" gradientUnits="userSpaceOnUse">
<stop/>
<stop offset="1" stop-color="#666666"/>
</linearGradient>
<linearGradient id="paint10_linear_630_46070" x1="60.1377" y1="23.5037" x2="55.9564" y2="7.5253" gradientUnits="userSpaceOnUse">
<stop offset="0.16" stop-color="#E5E5E5"/>
<stop offset="0.84" stop-color="white"/>
</linearGradient>
<linearGradient id="paint11_linear_630_46070" x1="50.9351" y1="10.5452" x2="48.0818" y2="1.73619" gradientUnits="userSpaceOnUse">
<stop offset="0.2486" stop-color="white" stop-opacity="0"/>
<stop offset="0.9912" stop-color="white" stop-opacity="0.5"/>
</linearGradient>
<linearGradient id="paint12_linear_630_46070" x1="29.6566" y1="29.8656" x2="23.0926" y2="19.328" gradientUnits="userSpaceOnUse">
<stop offset="0.4515" stop-color="white" stop-opacity="0"/>
<stop offset="1" stop-color="white" stop-opacity="0.5"/>
</linearGradient>
<linearGradient id="paint13_linear_630_46070" x1="31.2215" y1="32.3681" x2="22.1617" y2="17.8237" gradientUnits="userSpaceOnUse">
<stop offset="0.3927" stop-color="white" stop-opacity="0"/>
<stop offset="0.8697" stop-color="white"/>
</linearGradient>
</defs>
</svg>
