<svg width="84" height="58" viewBox="0 0 84 58" fill="none" xmlns="http://www.w3.org/2000/svg">
<path d="M8.16377 42.8857C7.12512 60.546 44.5596 57.5343 54.1057 55.5791C60.5061 54.2522 63.7062 52.7692 66.9064 49.647C69.4822 47.1493 70.653 43.3247 70.9652 39.266C71.2774 35.2072 73.3738 27.9871 75.1691 23.1478C77.1204 17.7621 83.9992 10.6817 83.9992 10.6817L83.9994 9.64285L78.8052 12.7594L50.2371 41.3275L8.16377 42.8857Z" fill="url(#paint0_radial_630_38584)"/>
<path d="M54.9117 29.3808C50.7564 34.8141 8.97531 31.0099 7.82178 43.4052C7.82178 55.3518 31.6835 52.5123 39.3291 51.7159C50.5688 50.5451 60.6621 48.2421 64.2525 44.6516C70.1065 38.7976 70.6529 33.2559 70.6529 33.2559L54.9117 29.3808Z" fill="url(#paint1_linear_630_38584)"/>
<path d="M76.2091 15.3565C69.9398 21.7796 61.8487 25.9129 53.874 29.9002C53.874 29.9002 58.0294 29.9002 70.5761 33.2559C70.5761 33.2559 71.7718 24.4119 77.7673 16.3953C81.4033 12.24 81.4033 12.24 84.0006 9.64285H81.9227C80.8839 10.6817 77.3115 14.2271 76.2091 15.3565Z" fill="url(#paint2_linear_630_38584)"/>
<path d="M53.874 29.9002C60.1071 26.7837 58.7946 27.0864 64.2624 24.1866L73.0926 24.7061C73.0926 24.7061 71.0149 28.8614 70.576 33.1778C62.8879 31.5511 62.1847 30.9391 53.874 29.9002Z" fill="url(#paint3_linear_630_38584)"/>
<path d="M70.5747 33.256C70.5747 33.256 71.3552 36.3781 71.2772 36.5342C71.2772 37.0617 72.5717 31.4585 73.6106 27.8226L73.0912 24.7061C73.1692 24.7841 71.0135 28.342 70.5747 33.256Z" fill="url(#paint4_linear_630_38584)"/>
<path d="M26.2543 49.8133C34.4652 49.8133 41.1214 48.5509 41.1214 46.9937C41.1214 45.4365 34.4652 44.1741 26.2543 44.1741C18.0434 44.1741 11.3872 45.4365 11.3872 46.9937C11.3872 48.5509 18.0434 49.8133 26.2543 49.8133Z" fill="url(#paint5_radial_630_38584)" fill-opacity="0.7"/>
<path d="M24.1189 46.9937C37.0959 46.9937 47.6158 36.4738 47.6158 23.4969C47.6158 10.5199 37.0959 0 24.1189 0C11.142 0 0.62207 10.5199 0.62207 23.4969C0.62207 36.4738 11.142 46.9937 24.1189 46.9937Z" fill="url(#paint6_radial_630_38584)"/>
<path d="M24.1189 46.9937C37.0959 46.9937 47.6158 36.4738 47.6158 23.4969C47.6158 10.5199 37.0959 0 24.1189 0C11.142 0 0.62207 10.5199 0.62207 23.4969C0.62207 36.4738 11.142 46.9937 24.1189 46.9937Z" fill="url(#paint7_radial_630_38584)"/>
<path d="M4.039 20.3355C4.039 20.3355 5.23521 20.5918 5.74786 20.1646C6.26052 19.7374 6.68774 18.7975 7.28584 18.7121C7.96939 18.6267 9.67825 18.2849 10.7036 16.8324C10.7036 16.8324 13.0105 16.0634 13.7795 15.6361C14.5485 15.2089 15.4884 14.5254 15.8302 14.0127C16.2574 13.5001 18.308 12.7311 18.3934 12.7311C18.4789 12.7311 20.4441 11.2785 20.4441 11.2785L21.9821 10.5096C21.9821 10.5096 23.7764 9.91146 24.3745 9.56968C24.9726 9.14247 25.3998 8.37348 25.3998 8.37348C25.3998 8.37348 25.7416 8.54437 27.1086 7.94626C28.3903 7.26272 29.9283 6.8355 29.9283 6.8355C29.9283 6.8355 30.8681 6.8355 31.8935 6.40829L34.115 6.2374C34.115 6.2374 34.7131 6.8355 35.8238 6.8355C35.8238 6.8355 37.8745 7.09183 38.2163 7.4336C38.558 7.77538 38.3871 8.20259 39.5833 8.45892C40.7796 8.71525 41.8049 9.56968 42.0612 10.0823C42.3175 10.595 42.3175 11.7058 44.1118 12.3893C44.1118 12.3893 44.1118 14.0127 45.1371 14.6963C45.1371 14.6963 45.7352 16.7469 46.1625 16.9178C46.1625 16.9178 46.1625 18.1994 46.7606 19.4811L47.4441 22.7279C47.4441 22.7279 47.5296 24.6077 47.4441 25.8893C47.3587 27.171 47.1023 29.0507 47.1023 29.0507C47.1023 29.0507 46.2479 30.1615 46.1625 30.7596C46.077 31.3577 45.9061 32.2976 45.9061 32.2976L45.1371 33.5792C45.1371 33.5792 44.0264 33.921 43.5992 34.5191C43.2574 35.2026 42.403 36.3988 42.403 36.3988L41.8049 36.826C41.8049 36.826 39.1561 37.4241 38.7289 38.1931H38.2163C38.2163 38.1931 36.5928 38.0222 35.4821 38.1931L34.115 38.4495C34.115 38.4495 31.7226 37.8514 30.6973 37.9368C29.7574 38.0223 29.0738 38.1931 29.0738 38.1931C29.0738 38.1931 26.6814 37.4241 25.5707 37.4241C24.5454 37.3387 23.3491 37.595 23.3491 37.595C23.3491 37.595 18.9061 35.8862 18.308 35.9716C17.7099 36.0571 16.9409 36.3134 16.9409 36.3134L16.0865 36.2279C16.0865 36.2279 14.8048 35.459 13.3523 35.459C11.8998 35.459 11.3871 35.5444 11.3871 35.5444H10.8745C10.8745 35.5444 11.1308 35.459 10.3618 35.1172C9.67825 34.8609 7.71306 34.7754 7.71306 34.7754L7.28584 35.1172L6.77318 35.0317L6.34597 34.6045L5.14976 34.4336L4.97887 34.8609L4.46622 34.3482L4.20989 34.6045L4.46622 35.2881L14.7194 36.9115L30.1846 39.3039C30.1846 39.3039 36.5074 40.0729 39.327 39.3039C42.1466 38.5349 45.308 34.4336 46.077 33.4083C46.846 32.4684 47.5296 29.6488 47.7859 28.1108C48.0422 26.4874 48.1277 24.1805 47.9568 22.6425C47.7859 21.1045 47.3587 18.9684 47.3587 18.9684C47.3587 18.9684 46.6751 16.0634 45.9916 14.5254C45.2226 12.9874 42.2321 8.88614 42.2321 8.88614C42.2321 8.88614 40.6941 6.8355 38.8998 6.06651C37.1055 5.29753 33.0042 4.01588 30.6973 4.52854C28.3903 5.0412 11.0453 15.038 11.0453 15.038L3.18457 19.3956L4.039 20.3355Z" fill="#6D6D6D"/>
<path d="M3.69867 20.25C3.69867 20.25 4.89487 20.5063 5.40753 20.0791C5.92019 19.6518 6.34741 18.712 7.03095 18.6265C7.7145 18.5411 9.42336 18.1139 10.4487 16.7468C10.4487 16.7468 12.8411 15.9778 13.5246 15.5506C14.2936 15.1234 15.2335 14.4398 15.6607 13.9272C16.0879 13.4145 18.1386 12.6455 18.3094 12.6455C18.3949 12.6455 20.3601 11.193 20.3601 11.193L21.8126 10.2531C21.8126 10.2531 23.6069 9.655 24.205 9.22779C24.8031 8.80057 25.2303 8.03158 25.2303 8.03158C25.2303 8.03158 25.5721 8.20247 26.9392 7.60437C28.2209 6.92082 29.8443 6.49361 29.8443 6.49361C29.8443 6.49361 30.7841 6.49361 31.8949 6.06639L34.1164 5.8955C34.1164 5.8955 34.7145 6.49361 35.9107 6.49361C35.9107 6.49361 37.9614 6.74994 38.3031 7.09171C38.6449 7.43348 38.474 7.8607 39.6702 8.11703C40.8664 8.37335 41.8918 9.22779 42.1481 9.74044C42.4044 10.2531 42.4044 11.3639 44.2842 12.0474C44.2842 12.0474 44.2842 13.6708 45.3095 14.3544C45.3095 14.3544 45.9076 16.405 46.3348 16.5759C46.3348 16.5759 46.3348 17.8575 46.9329 19.1392L47.6164 22.386C47.6164 22.386 47.7019 24.3512 47.6164 25.6329C47.531 26.9145 47.2747 28.7943 47.2747 28.7943C47.2747 28.7943 46.3348 29.905 46.3348 30.5031C46.3348 31.1012 46.0785 32.0411 46.0785 32.0411L45.224 33.3227C45.224 33.3227 44.1133 33.6645 43.6861 34.3481C43.3443 35.0316 42.4899 36.3133 42.4899 36.3133L41.8918 36.7405C41.8918 36.7405 39.243 37.3386 38.7304 38.1076H38.2177C38.2177 38.1076 36.5943 37.9367 35.4835 38.1076L34.2019 38.6202C34.2019 38.6202 31.724 38.0221 30.7841 38.1076C29.7588 38.193 29.1607 38.3639 29.1607 38.3639C29.1607 38.3639 26.6829 37.5949 25.6576 37.5095C24.6322 37.424 23.436 37.6803 23.436 37.6803C23.436 37.6803 18.993 35.886 18.3094 35.9715C17.6259 36.0569 16.9424 36.3133 16.9424 36.3133L16.0025 36.2278C16.0025 36.2278 14.7208 35.4588 13.1829 35.4588C11.6449 35.4588 11.1322 35.5443 11.1322 35.5443H10.6196C10.6196 35.5443 10.8759 35.4588 10.1069 35.1171C9.42336 34.7753 7.45817 34.7753 7.45817 34.7753L7.03095 35.1171H6.43285L6.00564 34.6898L4.80943 34.519L4.63855 34.9462L4.12589 34.4335L3.78411 34.6898L4.04044 35.3734L14.4645 37.0822L30.186 39.3892C30.186 39.3892 36.5943 40.1582 39.4139 39.3892C42.319 38.6202 45.4804 34.4335 46.2494 33.4936C47.0183 32.5538 47.7019 29.7341 47.9582 28.1107C48.2145 26.4873 48.3 24.0949 48.1291 22.5569C47.9582 21.0189 47.6164 18.7974 47.6164 18.7974C47.6164 18.7974 46.9329 15.8069 46.2494 14.2689C45.4804 12.6455 42.319 8.54424 42.319 8.54424C42.319 8.54424 40.781 6.57905 38.9867 5.81006C37.1924 4.95563 33.0057 3.75943 30.6133 4.27208C28.2209 4.78474 10.7904 14.7816 10.7904 14.7816L2.84424 19.2246L3.69867 20.25Z" fill="#E5E5E5"/>
<path d="M1.64735 17.0032C1.64735 17.0032 1.13469 18.0285 1.90367 17.7722C3.95431 17.1741 10.1062 13.8418 13.4385 11.7912C16.7708 9.74052 25.1442 4.9557 25.7423 4.61393C26.4259 4.3576 32.236 0.939875 39.755 5.63925C42.6601 7.43355 45.3088 9.65508 47.274 17.0886C47.274 17.0886 49.1537 22.7279 48.043 29.0507C46.9322 35.3735 43.429 37.8513 43.429 37.8513C43.429 37.8513 41.0366 40.2437 36.0809 41.0127C36.0809 41.0127 35.2265 41.5254 25.4005 40.4146L11.8151 38.8766C11.8151 38.8766 6.34672 38.1076 6.09039 38.1931C5.9195 38.1931 4.97963 38.2785 4.97963 38.2785C4.97963 38.2785 4.55241 38.1931 4.21064 37.6804C3.86887 37.2532 2.92899 36.2279 3.09988 35.2026C3.09988 35.2026 3.18532 34.6899 4.55241 35.0317C5.9195 35.3735 13.2676 36.2279 13.2676 36.2279L17.1126 36.7406C17.1126 36.7406 21.2138 37.0823 23.3499 37.7659C23.3499 37.7659 27.7929 37.8513 29.3309 38.7912C29.3309 38.7912 32.236 38.1931 34.2866 39.133C34.2866 39.133 36.3373 38.4494 39.2423 38.4494C39.2423 38.4494 42.5746 36.9114 43.3436 35.9716C44.198 35.0317 45.3942 33.0665 46.0778 32.9811C46.0778 32.9811 46.1632 32.2121 46.5904 31.4431C46.5904 31.4431 47.1885 28.9652 47.5303 28.7089C47.5303 28.7089 47.4449 27.4273 47.8721 26.6583C47.8721 26.6583 48.2139 24.6931 47.7866 21.2753C47.7866 21.2753 47.1031 17.6867 46.9322 17.1741C46.9322 17.1741 45.8215 14.1836 45.5651 13.5855C45.5651 13.5855 44.6252 12.3038 44.4544 11.7912L43.6854 10.6804C43.6854 10.6804 42.4037 9.14242 41.8911 8.54431C41.293 7.94621 40.0113 6.92089 39.4987 6.57912C38.986 6.23735 36.3373 5.21203 35.9955 5.12659C35.6537 5.12659 33.9449 5.04115 32.7486 5.12659C31.467 5.21203 29.8436 5.72469 28.8183 6.15191C27.7929 6.57912 21.2993 10.0823 21.2993 10.0823C21.2993 10.0823 13.2676 14.8671 12.2423 15.4652C11.0461 16.2342 4.89418 19.6519 4.89418 19.6519C4.89418 19.6519 1.90367 21.019 1.64735 21.019C1.39102 21.1045 0.280252 21.2753 0.109366 20.4209C0.109366 20.4209 -0.0615189 19.8228 0.0239242 18.7975C0.280254 17.7722 1.64735 17.0032 1.64735 17.0032Z" fill="url(#paint8_linear_630_38584)"/>
<defs>
<radialGradient id="paint0_radial_630_38584" cx="0" cy="0" r="1" gradientUnits="userSpaceOnUse" gradientTransform="translate(37.6897 49.264) scale(37.7896 37.7896)">
<stop offset="0.6574" stop-color="#A67822"/>
<stop offset="0.8537" stop-color="#D7B35B"/>
</radialGradient>
<linearGradient id="paint1_linear_630_38584" x1="34.6605" y1="52.6716" x2="27.9621" y2="24.0513" gradientUnits="userSpaceOnUse">
<stop stop-color="#A67822"/>
<stop offset="0.4332" stop-color="#D7B35B"/>
<stop offset="0.7591" stop-color="#E6CD9B"/>
</linearGradient>
<linearGradient id="paint2_linear_630_38584" x1="66.8595" y1="18.9924" x2="73.612" y2="24.1866" gradientUnits="userSpaceOnUse">
<stop offset="0.476312" stop-color="#EDE8D4"/>
<stop offset="0.592878" stop-color="#EDE8D4"/>
<stop offset="0.876226" stop-color="#B79E6A"/>
</linearGradient>
<linearGradient id="paint3_linear_630_38584" x1="63.1433" y1="32.6089" x2="59.8821" y2="22.0278" gradientUnits="userSpaceOnUse">
<stop stop-color="#182D55"/>
<stop offset="0.974" stop-color="#3661AB"/>
</linearGradient>
<linearGradient id="paint4_linear_630_38584" x1="70.5766" y1="29.3059" x2="74.4095" y2="29.3059" gradientUnits="userSpaceOnUse">
<stop stop-color="#182D55"/>
<stop offset="0.974" stop-color="#3661AB"/>
</linearGradient>
<radialGradient id="paint5_radial_630_38584" cx="0" cy="0" r="1" gradientUnits="userSpaceOnUse" gradientTransform="translate(26.2589 46.9541) rotate(90) scale(2.82475 14.8299)">
<stop offset="0.1823" stop-color="#2B0505"/>
<stop offset="1" stop-color="#2B0505" stop-opacity="0"/>
</radialGradient>
<radialGradient id="paint6_radial_630_38584" cx="0" cy="0" r="1" gradientUnits="userSpaceOnUse" gradientTransform="translate(24.155 23.477) scale(23.477 23.477)">
<stop stop-color="#EDEDED"/>
<stop offset="1" stop-color="#BFBFBF"/>
</radialGradient>
<radialGradient id="paint7_radial_630_38584" cx="0" cy="0" r="1" gradientUnits="userSpaceOnUse" gradientTransform="translate(15.6708 -4.15536) rotate(72.9795) scale(53.2349 53.2349)">
<stop offset="0.54703" stop-color="#E4E4E4"/>
<stop offset="0.9867" stop-color="#5F5F5F" stop-opacity="0.6907"/>
<stop offset="1" stop-color="#595959" stop-opacity="0.7"/>
</radialGradient>
<linearGradient id="paint8_linear_630_38584" x1="0.0890318" y1="22.1325" x2="48.3974" y2="22.1325" gradientUnits="userSpaceOnUse">
<stop stop-color="#141414"/>
<stop offset="1"/>
</linearGradient>
</defs>
</svg>
