<svg width="84" height="84" viewBox="0 0 84 84" fill="none" xmlns="http://www.w3.org/2000/svg">
<path d="M83.9894 41.6669C84.5044 64.533 66.1138 83.4818 42.9269 83.9896C19.74 84.4974 0.5255 66.3612 0.0105632 43.495C-0.504374 20.6289 17.8715 1.68014 41.0731 1.17232C64.26 0.66451 83.4745 18.7862 83.9894 41.6669Z" fill="url(#paint0_radial_630_43887)"/>
<path d="M80.1065 25.9539H80.0917C80.062 25.9539 80.0323 25.9539 79.9878 25.9682C79.9878 25.9826 79.9878 25.9826 79.9878 25.9969C80.0323 25.9682 80.0768 25.9539 80.1065 25.9539Z" fill="url(#paint1_radial_630_43887)"/>
<path d="M80.5477 25.0833H80.5328C80.5031 25.0833 80.4735 25.0833 80.429 25.0977C80.429 25.112 80.429 25.112 80.429 25.1263C80.4735 25.0977 80.518 25.0833 80.5477 25.0833Z" fill="url(#paint2_radial_630_43887)"/>
<path d="M81.5621 52.3892L81.518 52.2586C81.4885 52.1715 81.4591 52.099 81.4297 52.041C80.0909 48.5443 78.2665 45.1782 75.8831 41.7251L75.7801 41.58L75.8537 41.4349C77.6633 37.9092 79.0315 34.0643 80.2674 29.0007C80.2821 28.9281 80.3115 28.8266 80.341 28.7105L80.3704 28.6089C80.5911 27.8109 80.7235 27.2016 80.7971 26.7228C80.6499 26.3601 80.4881 25.9973 80.3262 25.6346C79.3111 31.2351 77.1778 36.3712 77.1778 36.3712C77.1778 36.3712 76.81 37.3724 76.3833 38.2864C71.9548 48.7619 65.0547 56.3936 59.714 61.6314C59.5228 61.82 59.3021 62.0521 59.0667 62.2988L59.0373 62.3278C57.4925 63.9093 56.0359 65.3457 54.9766 65.4763C54.8884 65.4908 54.8001 65.4908 54.7118 65.4908C54.2851 65.4908 53.5495 65.3457 53.0493 65.2151C52.7109 65.1135 51.0484 64.6057 50.5923 64.4897C47.282 63.6046 43.7804 62.4439 40.7496 61.2106L40.3671 61.051L40.6467 60.7608C50.4599 50.1983 58.8754 37.1402 66.2464 21.0498C68.1443 16.7696 69.439 13.331 70.0128 11.735C69.8215 11.5754 69.645 11.4013 69.4537 11.2417C62.8919 26.7808 54.4911 44.4382 41.8384 58.0187C41.6324 58.2363 41.4411 58.4684 41.2793 58.6716C40.6908 59.368 40.1023 60.0934 39.2048 60.4562L39.0871 60.4997L38.4839 60.2095C34.7322 58.4539 30.8629 56.6548 27.7585 54.1448L27.6114 54.0142L27.6703 53.8256C33.2169 37.9527 39.9405 24.3288 47.6792 13.1714C47.6645 13.1859 47.6645 13.1859 47.6645 13.1859L49.1358 11.1111C51.6075 7.62895 53.9615 4.68363 55.1679 3.20371C54.9031 3.11666 54.6235 3.02961 54.344 2.94255C54.1527 3.13117 53.9762 3.3488 53.8143 3.56644C53.6966 3.71153 53.5937 3.84211 53.5054 3.95818C40.6908 18.6993 32.5107 37.9963 26.8169 53.1726L26.6845 53.5209L26.3756 53.3032C23.948 51.6057 22.2708 50.1548 20.3729 48.138L20.0933 47.8333C18.6515 46.3099 15.9591 43.4806 15.7384 41.4784C15.606 40.2451 16.1504 38.2284 16.6359 36.4438C16.7536 36.0375 16.886 35.5007 17.0184 35.0074C19.1223 26.4906 21.9324 19.4538 25.6399 13.5921C26.0813 12.7361 26.7287 11.8801 26.7287 11.8801C30.0095 6.83096 33.4228 3.47938 35.5561 1.65125C35.1589 1.70929 34.7617 1.78183 34.3791 1.85438C30.7452 5.00283 27.788 8.80418 25.1397 12.4895L25.0367 12.6346L24.8602 12.6055C23.0358 12.2863 20.5494 12.0977 18.2101 12.0977C16.5917 12.0977 15.0616 12.1848 13.7964 12.3589C13.6051 12.3879 13.3991 12.4169 13.2226 12.4459C12.943 12.7071 12.6782 12.9537 12.4134 13.2149C15.9444 12.7942 19.4313 12.9683 21.5499 13.1569C22.4032 13.2149 23.2859 13.3165 24.1981 13.4325L24.6101 13.4906L24.4041 13.8533C22.2413 17.6837 19.8285 22.312 18.2101 27.6804L18.1366 27.9125L17.9012 27.8835C16.2681 27.6804 14.532 27.5643 12.7371 27.5643C9.14723 27.5643 5.49853 27.9996 2.40891 28.7685C2.32063 29.0297 2.21764 29.2909 2.12937 29.552C5.55738 28.7831 10.0447 28.5799 10.0447 28.5799L10.03 28.5944C10.9274 28.5364 11.8102 28.5074 12.6929 28.5074C14.3849 28.5074 15.9885 28.6089 17.4598 28.8121L17.8129 28.8556L17.6952 29.1748C16.5623 32.3232 15.8414 35.9505 15.1352 39.4472L15.0322 39.926C14.9439 40.3322 14.8704 40.7385 14.7821 41.1302L14.7527 41.3043L14.5761 41.3478C12.2074 41.9282 10.692 42.2184 8.14678 42.8858C6.16059 43.4806 2.37948 45.1202 0.172607 46.3679C0.172607 46.426 0.18732 46.484 0.18732 46.5566C0.202032 46.6001 0.216745 46.6291 0.216745 46.6726L0.275595 46.9193L0.525707 46.8612C0.967082 46.7452 1.42317 46.542 1.90868 46.2954C2.54132 45.9907 4.11555 45.0186 4.85118 44.9315L5.08658 44.9025L5.14543 45.1202C8.11735 54.3914 15.1793 62.4149 24.4041 68.3055C32.6578 73.5723 41.7648 76.5901 53.0787 76.7207C54.2116 76.7352 55.3444 76.7207 56.4773 76.6772L56.7274 76.6627L56.7716 76.9093C56.8893 77.6493 57.0805 78.0556 57.1541 78.7665V78.7955C57.2276 79.4194 57.2865 80.0723 57.3895 80.6817L57.4336 80.9574L57.7132 80.8703C57.8308 80.8268 57.9486 80.7978 58.0957 80.7687C58.0515 78.1426 57.4483 75.1392 57.2718 74.0075C56.9481 72.0924 56.6097 69.8435 56.2272 68.0008L55.8888 66.3468L56.0212 66.2452C59.155 63.5611 62.377 60.3836 66.1434 56.2631L66.3935 55.9874L66.5995 56.2921C68.4238 59.0923 69.9687 63.0678 70.9838 67.522C71.2486 68.5812 71.5135 69.7709 71.7489 71.0187C71.8224 71.1203 71.9254 71.2073 72.0284 71.2799L72.1755 71.3814C72.2491 71.3089 72.3079 71.2363 72.3815 71.1783V71.1638C72.6758 70.2933 72.3815 69.2341 72.102 68.204C72.0284 67.9283 71.9548 67.6526 71.896 67.406C70.8367 62.7486 69.13 58.4249 67.1144 55.2329L67.0114 55.0588L67.1439 54.8992C69.9245 51.4896 72.5286 47.6157 75.1033 43.0599L75.324 42.6827L75.5888 43.0309C76.5746 44.3512 77.575 46.0342 78.5019 47.8333C78.8109 48.3847 80.6793 51.6782 81.6798 55.2184C81.7534 55.291 81.8416 55.349 81.9299 55.378C82.0476 55.0443 82.1506 54.6961 82.2536 54.3624C82.1653 53.9416 81.9593 53.3177 81.5621 52.3892ZM56.5509 75.4149V76.0533H56.2419C55.1238 76.0678 53.9909 76.0678 52.8727 76.0243C41.7795 75.6906 32.8343 72.4841 24.5218 67.1883C15.4442 61.3992 8.8824 53.7965 6.01347 44.8445L5.9399 44.5978L6.19001 44.4963C8.49988 43.5967 10.1771 43.3936 12.7518 42.7552C13.355 42.6101 13.9582 42.4505 14.5614 42.2909L14.7674 42.2329L14.8851 42.407C22.0501 53.8981 34.7617 61.5734 54.9031 66.5354L55.0943 66.5789L55.1238 66.7676C55.3297 68.1459 55.6093 69.5243 55.8594 70.743L55.8741 70.7866C56.1242 72.1649 56.3596 73.9495 56.5509 75.4149Z" fill="url(#paint3_radial_630_43887)"/>
<path d="M80.4002 25.5187H80.3854C80.3557 25.5187 80.326 25.5187 80.2815 25.5331C80.2815 25.5474 80.2815 25.5474 80.2815 25.5618C80.326 25.5331 80.3705 25.5187 80.4002 25.5187Z" fill="black"/>
<path d="M45.1516 75.0124C45.1516 75.0124 33.7 73.3635 22.5735 65.7172C12.4334 58.9973 7.1865 48.8734 6.18864 45.6015C6.20163 45.2423 6.49184 44.0921 6.72336 44.6533C8.5015 50.239 15.0045 59.295 22.6124 64.6397C30.5104 70.3524 36.743 72.2996 48.1667 74.6346C46.1509 75.0475 46.151 75.0475 45.1516 75.0124Z" fill="url(#paint4_radial_630_43887)"/>
<path d="M13.8743 42.1065C21.0957 53.8734 37.3846 62.9504 54.3003 66.7254C53.3157 67.2154 42.2249 65.5495 33.3217 60.254C24.8739 55.4395 16.2122 48.9271 13.8743 42.1065Z" fill="url(#paint5_radial_630_43887)"/>
<path d="M28.3638 51.0626C28.3638 51.0626 35.3129 38.9152 42.173 27.6449C50.5541 12.0348 55.492 4.09491 54.9922 4.22924C53.7451 4.56452 47.1511 12.1401 41.175 23.7486C35.3901 34.5782 30.8488 43.8098 28.3638 51.0626Z" fill="url(#paint6_radial_630_43887)"/>
<path d="M16.5471 40.2968C16.5471 40.2968 18.1848 32.4049 22.0476 21.936C27.548 8.89006 36.9577 0.653434 36.5485 0.675933C30.0479 5.50779 24.1974 13.8155 21.0471 21.936C17.9265 29.4767 17.4345 35.0161 16.5471 40.2968Z" fill="url(#paint7_radial_630_43887)"/>
<path d="M42.5643 60.958C55.8529 41.4236 61.7883 33.1211 69.4103 13.82C69.8309 14.9516 66.9235 27.3013 60.4683 37.8232C54.5648 47.8007 47.3029 55.346 42.5643 60.958Z" fill="url(#paint8_radial_630_43887)"/>
<path d="M53.4527 66.4005C66.428 49.7136 72.2266 42.6393 79.6083 25.8081C80.0321 26.849 76.7855 39.1277 70.4903 48.1597C64.7357 56.7379 58.0897 61.664 53.4527 66.4005Z" fill="url(#paint9_radial_630_43887)"/>
<defs>
<radialGradient id="paint0_radial_630_43887" cx="0" cy="0" r="1" gradientUnits="userSpaceOnUse" gradientTransform="translate(21.4995 12.5008) rotate(72.0917) scale(74.9428 75.7774)">
<stop offset="0.0200832" stop-color="white"/>
<stop offset="0.324757" stop-color="#FAFAFA"/>
<stop offset="0.640331" stop-color="#FAFAFA"/>
<stop offset="0.947274" stop-color="#A5A5A4"/>
</radialGradient>
<radialGradient id="paint1_radial_630_43887" cx="0" cy="0" r="1" gradientUnits="userSpaceOnUse" gradientTransform="translate(46.9467 31.7376) scale(71.894 69.4732)">
<stop stop-color="white"/>
<stop offset="0.0417025" stop-color="#FFFFD7"/>
<stop offset="0.1085" stop-color="#FFFF9C"/>
<stop offset="0.1656" stop-color="#FFFF71"/>
<stop offset="0.21" stop-color="#FFFF57"/>
<stop offset="0.2364" stop-color="#FFFF4D"/>
<stop offset="0.4424" stop-color="#ECC903"/>
<stop offset="0.6364" stop-color="#C99E00"/>
<stop offset="0.8641" stop-color="#A37600"/>
<stop offset="1" stop-color="#916300"/>
</radialGradient>
<radialGradient id="paint2_radial_630_43887" cx="0" cy="0" r="1" gradientUnits="userSpaceOnUse" gradientTransform="translate(47.9944 25.8532) scale(45.7831 44.2415)">
<stop stop-color="white"/>
<stop offset="0.0417025" stop-color="#FFFFD7"/>
<stop offset="0.1085" stop-color="#FFFF9C"/>
<stop offset="0.1656" stop-color="#FFFF71"/>
<stop offset="0.21" stop-color="#FFFF57"/>
<stop offset="0.2364" stop-color="#FFFF4D"/>
<stop offset="0.4424" stop-color="#ECC903"/>
<stop offset="0.6364" stop-color="#C99E00"/>
<stop offset="0.8641" stop-color="#A37600"/>
<stop offset="1" stop-color="#916300"/>
</radialGradient>
<radialGradient id="paint3_radial_630_43887" cx="0" cy="0" r="1" gradientUnits="userSpaceOnUse" gradientTransform="translate(29.696 17.0549) rotate(71.1714) scale(72.0765 102.923)">
<stop offset="0.136827" stop-color="#BFBFBF"/>
<stop offset="0.997708" stop-color="#1D1D1D"/>
</radialGradient>
<radialGradient id="paint4_radial_630_43887" cx="0" cy="0" r="1" gradientUnits="userSpaceOnUse" gradientTransform="translate(26.7197 58.9526) rotate(-133.939) scale(16.4188 16.1518)">
<stop offset="0.369646" stop-color="white"/>
<stop offset="1" stop-color="white" stop-opacity="0"/>
</radialGradient>
<radialGradient id="paint5_radial_630_43887" cx="0" cy="0" r="1" gradientUnits="userSpaceOnUse" gradientTransform="translate(35.9863 53.7649) rotate(15.8459) scale(17.1853 15.9064)">
<stop offset="0.369646" stop-color="white"/>
<stop offset="1" stop-color="white" stop-opacity="0"/>
</radialGradient>
<radialGradient id="paint6_radial_630_43887" cx="0" cy="0" r="1" gradientUnits="userSpaceOnUse" gradientTransform="translate(43.9599 31.5675) rotate(-50.7693) scale(21.3556 12.3358)">
<stop offset="0.369646" stop-color="white"/>
<stop offset="1" stop-color="white" stop-opacity="0"/>
</radialGradient>
<radialGradient id="paint7_radial_630_43887" cx="0" cy="0" r="1" gradientUnits="userSpaceOnUse" gradientTransform="translate(25.5541 22.4912) rotate(32.832) scale(32.5929 12.4567)">
<stop offset="0.392969" stop-color="white"/>
<stop offset="0.903551" stop-color="white" stop-opacity="0"/>
</radialGradient>
<radialGradient id="paint8_radial_630_43887" cx="0" cy="0" r="1" gradientUnits="userSpaceOnUse" gradientTransform="translate(55.5435 35.2732) rotate(-71.291) scale(19.8861 12.456)">
<stop offset="0.619792" stop-color="white"/>
<stop offset="1" stop-color="white" stop-opacity="0"/>
</radialGradient>
<radialGradient id="paint9_radial_630_43887" cx="0" cy="0" r="1" gradientUnits="userSpaceOnUse" gradientTransform="translate(66.0763 44.1794) rotate(47.7497) scale(23.9194 16.7484)">
<stop offset="0.159258" stop-color="white"/>
<stop offset="1" stop-color="white" stop-opacity="0"/>
</radialGradient>
</defs>
</svg>
