<svg width="84" height="79" viewBox="0 0 84 79" fill="none" xmlns="http://www.w3.org/2000/svg">
<path d="M39.3383 54.751C37.7355 54.1374 34.6978 54.3522 32.8202 55.2725C32.8202 55.2725 31.5533 58.9537 33.2477 61.2852C36.0106 60.3342 39.9794 55.3952 39.3383 54.751ZM33.7361 59.7207C32.6371 58.1868 33.4614 55.7787 33.4614 55.7787C34.6825 55.1805 36.667 55.0424 37.7202 55.4412C38.1476 55.8707 35.5526 59.1071 33.7361 59.7207Z" fill="#DB9565"/>
<path d="M17.7539 52.4349C17.7539 52.4349 21.3106 51.1311 21.738 50.9317C22.1654 50.7323 33.7513 56.745 34.3009 56.4075C34.8504 56.0854 36.5295 44.7962 37.7202 44.6582C38.9108 44.5202 41.2616 44.2747 41.2616 44.2747L36.5753 61.2699C36.5753 61.2699 18.6851 53.8767 17.7539 52.4349Z" fill="#B58C6B"/>
<path d="M40.3306 58.6776C40.3306 58.6776 47.5966 63.1872 48.0545 67.8194C48.5125 72.4517 46.8944 69.9208 46.8944 69.9208C46.8944 69.9208 39.6284 60.5336 39.6284 61.73C39.6284 62.9111 40.3306 58.6776 40.3306 58.6776Z" fill="#B58C6B"/>
<path d="M1.08479 49.1831C1.08479 49.1831 0.138372 49.9807 0.016254 50.717C-0.121129 51.4379 0.611579 55.8094 2.24491 57.2665C3.87823 58.7237 7.95392 63.54 13.205 63.632C13.2813 60.9018 9.1293 53.3705 7.12962 53.2325C5.14521 53.0791 1.35955 50.1034 1.08479 49.1831Z" fill="#DB9565"/>
<path d="M12.9453 62.0521C12.9453 62.0521 31.8431 67.6353 35.0181 67.5433C38.1932 67.4513 37.3689 68.6323 37.3689 68.6323C37.3689 68.6323 34.7892 54.1221 38.2542 44.5968C41.7041 44.2133 44.2533 43.9526 44.2533 43.9526C44.2533 43.9526 37.1857 65.81 40.1776 68.6323C43.1695 71.4546 35.5371 71.7307 35.5371 71.7307C35.5371 71.7307 13.2659 64.3989 13.1895 63.632C13.1285 62.8497 12.9453 62.0521 12.9453 62.0521Z" fill="#D26443"/>
<path d="M0.84033 49.5818C0.84033 49.5818 0.0618286 32.9242 0.0312991 32.2493C-0.106083 29.4576 1.78674 17.6009 8.03002 12.125C14.4107 6.52647 19.4022 3.24402 24.9433 1.89422C31.0492 0.391043 37.2315 0.114948 44.5738 2.78386C53.4273 6.00496 57.8389 9.27208 59.3806 10.8366C61.1513 12.6312 67.9441 22.0338 70.9207 28.5833C73.9126 35.1329 68.0662 40.7315 66.7077 41.2683C65.3491 41.8205 53.3968 43.7225 46.4666 44.5508C39.5364 45.3637 31.2477 45.7779 28.4084 47.956C25.5539 50.134 18.4864 53.8306 14.0138 53.9687C9.52597 54.0914 3.69484 54.7663 0.84033 49.5818Z" fill="#926B4D"/>
<path d="M0.840769 48.7536C0.840769 48.7536 0.0317383 32.1113 0.0317383 31.421C0.0317383 10.8827 19.418 2.41578 24.9591 1.05064C31.0649 -0.452535 37.1708 -0.498551 44.5895 1.94028C62.3729 7.76894 67.9446 21.1902 70.9364 27.7398C73.9283 34.2893 68.0819 39.8879 66.7234 40.4248C65.3648 40.9769 53.4125 42.8789 46.4823 43.6919C39.5521 44.5048 31.2634 44.919 28.4241 47.097C25.5696 49.2751 18.5021 52.9717 14.0295 53.0944C9.52641 53.2631 3.69528 53.938 0.840769 48.7536Z" fill="url(#paint0_radial_630_38619)"/>
<path d="M46.2685 40.4248C46.2685 40.4248 80.431 40.6548 82.9344 38.7222C84.7051 36.9429 83.9572 34.3967 82.9344 33.7371C80.4157 32.372 75.1189 30.1939 71.5775 29.7491C71.5775 29.7491 73.1296 33.7371 69.1765 35.5908C66.9309 36.0743 60.9067 36.5609 55.8355 36.579C50.1754 36.5992 45.581 36.3114 46.2685 40.4248Z" fill="url(#paint1_linear_630_38619)"/>
<path d="M48.4816 62.8037C48.4816 62.8037 47.352 69.2459 45.9629 68.5404C44.5738 67.8194 49.6722 72.8352 50.8781 76.5011C52.0841 80.167 54.1753 77.222 54.7096 74.9059C55.2439 72.6051 49.0769 63.2025 48.4816 62.8037Z" fill="black"/>
<path d="M48.2988 63.724C48.2988 63.724 46.9708 69.1232 45.7649 68.4789C44.559 67.8347 49.4131 72.6664 50.4359 75.9642C51.4739 79.262 53.382 76.7158 53.8247 74.6297C54.3131 72.5437 48.8178 64.0768 48.2988 63.724Z" fill="#B58C6B"/>
<path d="M39.6284 73.0959C40.8648 76.1329 51.7638 77.9122 53.1224 77.2833C54.4809 76.6391 54.1146 73.7401 54.1146 73.7401C54.1146 73.7401 52.9392 73.0192 49.4894 72.6511C46.0548 72.2829 43.5972 68.9238 43.5972 68.9238C43.5972 68.9238 37.2013 67.0832 39.6284 73.0959Z" fill="#D26443"/>
<path d="M43.5361 66.9911C41.7196 66.3009 38.2851 66.5463 36.1785 67.574C36.1785 67.574 34.7589 71.7307 36.6518 74.369C39.7658 73.2953 44.2536 67.7274 43.5361 66.9911ZM37.2013 72.6204C35.9496 70.8871 36.896 68.1722 36.896 68.1722C38.2698 67.4973 40.529 67.3286 41.7196 67.7887C42.1928 68.2642 39.2468 71.9148 37.2013 72.6204Z" fill="#DB9565"/>
<path d="M45.459 33.1202C45.459 32.3116 46.1178 31.6378 46.9317 31.6378C47.7455 31.6378 48.4237 32.2924 48.4237 33.1202C48.4237 33.9287 47.7649 34.6025 46.9317 34.6025C46.1178 34.6025 45.459 33.948 45.459 33.1202Z" fill="#B58C6B"/>
<defs>
<radialGradient id="paint0_radial_630_38619" cx="0" cy="0" r="1" gradientUnits="userSpaceOnUse" gradientTransform="translate(19.7648 2.97903) rotate(60.5463) scale(48.2341 48.3128)">
<stop offset="0.432292" stop-color="#C85C3E"/>
<stop offset="0.838542" stop-color="#853113"/>
<stop offset="0.994792" stop-color="#702307"/>
</radialGradient>
<linearGradient id="paint1_linear_630_38619" x1="81.5296" y1="35.5908" x2="56.8237" y2="39.5437" gradientUnits="userSpaceOnUse">
<stop stop-color="#DB9565"/>
<stop offset="0.639432" stop-color="#DB9565"/>
</linearGradient>
</defs>
</svg>
