<svg width="16" height="16" viewBox="0 0 16 16" fill="none" xmlns="http://www.w3.org/2000/svg">
<path d="M7.49479 11.3333C7.49479 11.7015 7.79327 12 8.16146 12C8.52965 12 8.82812 11.7015 8.82812 11.3333H7.49479ZM7.49479 7.33333C7.1266 7.33333 6.82812 7.63181 6.82812 8C6.82812 8.36819 7.1266 8.66667 7.49479 8.66667V7.33333ZM7.99479 4.66667C7.6266 4.66667 7.32812 4.96514 7.32812 5.33333C7.32812 5.70152 7.6266 6 7.99479 6V4.66667ZM7.99979 6C8.36798 6 8.66646 5.70152 8.66646 5.33333C8.66646 4.96514 8.36798 4.66667 7.99979 4.66667V6ZM14 8H14.6667C14.6667 4.3181 11.6819 1.33333 8 1.33333V2V2.66667C10.9455 2.66667 13.3333 5.05448 13.3333 8H14ZM8 2V1.33333C4.3181 1.33333 1.33333 4.3181 1.33333 8H2H2.66667C2.66667 5.05448 5.05448 2.66667 8 2.66667V2ZM2 8H1.33333C1.33333 11.6819 4.3181 14.6667 8 14.6667V14V13.3333C5.05448 13.3333 2.66667 10.9455 2.66667 8H2ZM8 14V14.6667C11.6819 14.6667 14.6667 11.6819 14.6667 8H14H13.3333C13.3333 10.9455 10.9455 13.3333 8 13.3333V14ZM8.16146 11.3333H8.82812V8.66667H8.16146H7.49479V11.3333H8.16146ZM8.16146 8.66667H8.82812C8.82812 8.52838 8.82954 8.35759 8.80997 8.21205C8.78781 8.0473 8.72851 7.81951 8.5352 7.6262L8.06379 8.0976L7.59239 8.56901C7.54975 8.52637 7.52086 8.4788 7.50375 8.43722C7.48883 8.40097 7.48716 8.37959 7.48853 8.38977C7.48996 8.40038 7.4922 8.42508 7.49348 8.47573C7.49475 8.52604 7.49479 8.58562 7.49479 8.66667H8.16146ZM8.06379 8.0976L8.5352 7.6262C8.34185 7.43285 8.114 7.37361 7.94935 7.35148C7.80385 7.33192 7.63308 7.33333 7.49479 7.33333V8V8.66667C7.57584 8.66667 7.63543 8.66671 7.68574 8.66798C7.73639 8.66926 7.76111 8.6715 7.77173 8.67293C7.78193 8.6743 7.76056 8.67264 7.7243 8.65772C7.68271 8.64061 7.63508 8.6117 7.59239 8.56901L8.06379 8.0976ZM7.99479 5.33333V6H7.99979V5.33333V4.66667H7.99479V5.33333Z" fill="#3399FF"/>
</svg>
