<svg width="20" height="20" viewBox="0 0 20 20" fill="none" xmlns="http://www.w3.org/2000/svg">
<g >
<path d="M2.50024 5.83252L12.5002 5.83252M12.5002 5.83252C12.5002 7.21323 13.6195 8.33252 15.0002 8.33252C16.381 8.33252 17.5002 7.21323 17.5002 5.83252C17.5002 4.45181 16.381 3.33252 15.0002 3.33252C13.6195 3.33252 12.5002 4.45181 12.5002 5.83252ZM7.50025 14.1669L17.5002 14.1669M7.50025 14.1669C7.50025 15.5476 6.38096 16.6669 5.00024 16.6669C3.61953 16.6669 2.50024 15.5476 2.50024 14.1669C2.50024 12.7862 3.61953 11.6669 5.00024 11.6669C6.38096 11.6669 7.50025 12.7862 7.50025 14.1669Z" stroke="white" stroke-width="1.67" stroke-linecap="round" stroke-linejoin="round"/>
</g>
</svg>
