<svg width="84" height="84" viewBox="0 0 84 84" fill="none" xmlns="http://www.w3.org/2000/svg">
<path d="M16.0791 45.5998C21.0307 53.901 25.9822 62.2022 30.9483 70.5033C31.4318 71.31 31.9006 72.102 32.384 72.9086C32.7063 73.4366 33.0139 73.9793 33.3362 74.5073C33.6585 75.0499 33.9954 75.6072 34.3177 76.1499C35.2992 75.2112 36.2954 74.2726 37.2769 73.3339C38.024 72.6153 38.9176 71.794 39.6648 71.0753C39.1813 70.518 38.6979 69.946 38.2145 69.3887C37.7457 68.846 37.2769 68.2887 36.8081 67.7461C36.2075 67.0421 35.7534 66.1768 35.1527 65.4874C28.9267 58.2569 22.9351 50.9384 16.7091 43.7225C16.6065 43.8252 16.0059 44.3239 15.9033 44.4265C15.8154 44.5145 15.7275 44.6025 15.625 44.6905C15.6104 44.7052 15.5957 44.7198 15.5811 44.7345C15.7275 44.9985 15.9033 45.3065 16.0791 45.5998Z" fill="url(#paint0_linear_630_46212)"/>
<path d="M0.0674657 63.1115C0.389754 64.2261 1.12223 65.9861 2.90946 68.802C4.27186 70.9433 6.08839 73.5686 7.53869 75.4165C10.0291 78.5698 12.124 80.7991 14.0431 82.1924C14.9513 82.8524 15.9035 83.4537 16.8118 83.7177C17.3245 83.8937 17.8812 83.9817 18.4379 83.9964C18.936 84.011 19.4194 83.9817 19.8735 83.8937C20.1226 83.8497 20.3716 83.791 20.5767 83.747C20.8843 83.6884 21.192 83.6151 21.485 83.5417C21.9098 83.4244 22.32 83.2777 22.7448 83.1457C23.1404 83.0137 23.6677 82.7644 24.034 82.5884C22.5104 82.1631 20.8697 81.6351 19.5805 80.9604C17.9691 80.1098 14.9953 77.9538 10.8788 72.8499C9.10618 70.65 7.68518 68.7287 6.08839 66.4114C4.4916 64.1088 2.76297 61.2342 1.56171 59.1662C1.54706 59.2102 1.51776 59.2542 1.48846 59.3129C1.40057 59.4742 1.31267 59.6209 1.21012 59.7675C1.13688 59.8848 1.06363 59.9875 0.990382 60.1048C0.902485 60.2368 0.814588 60.3835 0.741341 60.5155C0.550898 60.8675 0.331156 61.2928 0.184661 61.7181C0.00886789 62.2315 -0.0643794 62.7301 0.0674657 63.1115Z" fill="url(#paint1_linear_630_46212)"/>
<path d="M28.6924 27.0468C28.6045 27.3548 28.5459 27.6922 28.5459 28.0442C28.5459 28.4548 28.5898 28.8801 28.6924 29.3348C28.8389 30.0241 29.1026 30.7574 29.4542 31.5494C29.7325 32.1801 30.0694 32.8401 30.465 33.5147C31.007 34.4534 31.593 35.3627 32.1936 36.2427C32.8382 37.1666 33.5267 38.12 34.2592 39.0586C34.7426 39.6893 35.2407 40.3199 35.7388 40.9359C36.2955 41.6399 36.8668 42.3292 37.4381 43.0039C37.8923 43.5465 38.3464 44.0892 38.8005 44.6172C39.1375 45.0131 39.4744 45.4091 39.7967 45.7905C40.3387 46.4211 40.8807 47.0518 41.4081 47.6678C41.8769 48.2251 42.3603 48.7677 42.8291 49.2957C43.1661 49.6771 43.503 50.0584 43.8399 50.4397C44.2062 50.8504 44.5724 51.261 44.9386 51.657C45.2316 51.9797 45.5393 52.317 45.8469 52.6397C46.2131 53.021 46.5647 53.4023 46.931 53.7836C47.3998 54.2676 47.8832 54.7516 48.3666 55.2356C49.2749 56.1303 50.2124 56.9809 51.1793 57.8169C51.5602 58.1396 51.9411 58.4622 52.322 58.7702C52.8494 59.2102 53.406 59.6355 53.9627 60.0462C54.3729 60.3542 54.7831 60.6475 55.1933 60.9408C55.5595 61.1902 55.9257 61.4395 56.292 61.6888C56.878 61.2782 57.4493 60.8822 58.006 60.4862C58.8703 59.8849 59.676 59.2982 60.4671 58.7262C61.8881 57.6996 63.2212 56.7169 64.525 55.7343C65.1109 55.2943 65.6969 54.8543 66.2829 54.3996C67.2937 53.6223 68.3192 52.8303 69.3739 51.9943C70.5605 51.0704 71.7911 50.0877 73.1242 49.0171C74.7942 47.6824 75.849 46.8464 76.6401 46.2158C78.3248 44.8518 78.7203 44.4998 81.2107 42.3439C81.4158 42.1679 81.6355 41.9772 81.8406 41.8012C82.2508 41.4492 82.6463 41.1119 83.0712 40.6866C83.1444 40.6132 83.1151 40.3639 83.0126 40.0266C82.9833 39.9093 82.9247 39.7773 82.8807 39.6159C82.661 38.9706 82.3973 38.3399 82.1043 37.724C81.7381 36.9613 81.3133 36.1693 80.8445 35.4213C80.405 34.732 79.9362 34.0867 79.4674 33.6027C78.4859 32.6347 77.7095 33.3974 78.0025 32.5614C78.0464 32.4147 78.1197 32.2534 78.2222 32.1067C79.233 30.4054 82.0604 27.8682 81.5916 26.9442C81.24 26.2549 80.8298 25.5362 80.3757 24.8175C79.9948 24.2162 79.5846 23.6296 79.1598 23.0723C78.647 22.3829 78.105 21.7523 77.5923 21.195C77.1089 20.6816 76.6401 20.2563 76.2006 19.9483C75.3949 19.3763 74.5306 18.8923 74.3694 17.9977C74.1936 16.9857 74.7503 15.5484 74.2669 14.8737C74.0032 14.5071 73.7248 14.0964 73.4172 13.6711C73.0217 13.0991 72.5822 12.4831 72.0987 11.8671C71.4981 11.1045 70.8389 10.3565 70.1064 9.68184C69.4472 9.08052 68.744 8.55253 67.9529 8.14187C66.781 7.54055 64.2906 8.62587 62.9428 8.22987C62.5326 8.11254 62.3861 7.40856 62.225 7.0419C61.7709 6.07392 61.053 5.1646 60.2327 4.35795C59.2219 3.36064 58.0206 2.52465 56.9219 1.95266C56.1894 1.57134 55.5009 1.32201 54.9296 1.21934C54.4315 1.13135 54.0213 1.14601 53.7576 1.30734C53.5232 1.49801 53.3181 1.68867 53.0984 1.87933C52.9812 1.982 52.8786 2.06999 52.7761 2.15799C49.6411 5.28193 48.059 6.74857 45.8762 9.09519C44.8654 10.1805 43.6788 11.4271 42.0381 13.0258C40.7782 14.2578 39.489 15.4751 38.2292 16.6484C37.1012 17.719 35.9878 18.7457 34.9477 19.743C34.3471 20.315 33.7758 20.8723 33.2191 21.4149C32.0032 22.6176 30.9484 23.7176 30.1573 24.7149C29.7179 25.2575 29.3516 25.7562 29.0733 26.2255C28.9268 26.5042 28.7949 26.7828 28.6924 27.0468Z" fill="url(#paint2_linear_630_46212)"/>
<path d="M83.9061 41.1999C83.9793 41.0532 84.0086 40.8919 83.994 40.6866C83.9207 39.7479 82.4997 37.1813 82.4411 37.0493C82.4411 37.0493 81.0055 34.4827 79.8189 33.3387C79.687 33.2067 79.5698 33.1187 79.4527 33.0454C79.1011 32.8401 78.6176 32.6494 78.2953 32.7814C78.266 32.7961 78.2514 32.7961 78.2221 32.8107C78.5004 32.6494 78.7495 32.4881 78.9985 32.3414C79.7163 31.9014 80.2144 31.6081 80.2144 31.6081C80.2144 31.6081 81.5768 30.8014 82.1774 29.8481C82.1774 29.8481 82.4265 29.5401 82.6609 29.1881C82.8367 28.9241 83.1883 28.3521 83.1004 27.8681C83.0711 27.7068 83.0125 27.5162 82.9246 27.3108C82.1188 25.3602 79.8335 22.2216 79.8335 22.2216C79.7163 22.0749 77.3138 18.8923 76.303 18.203C76.0833 18.0563 75.8928 17.983 75.7024 17.9537C75.424 17.9097 75.0139 17.9977 74.8234 18.1003C74.7062 18.159 74.6183 18.2323 74.5451 18.3057C74.633 18.203 74.7209 18.1003 74.7941 17.983C74.7941 17.983 75.0139 17.8363 75.2336 17.5577C75.3801 17.3817 75.5852 16.971 75.5998 16.663C75.6145 16.4577 75.5705 16.223 75.468 15.9591C74.9406 14.6977 72.0547 11.3391 71.9228 11.1778C71.9228 11.1778 68.9929 7.98054 67.0739 6.66057C66.8541 6.5139 66.6783 6.41124 66.5025 6.33791C66.0044 6.13258 65.3013 6.38191 64.979 6.49924C64.5395 6.67523 64.2319 6.95389 64.2319 6.95389C63.6898 7.29122 63.2064 7.78988 62.9281 8.09787C62.9867 8.00987 63.0306 7.93654 63.0599 7.86321C63.221 7.40855 62.972 6.93923 62.7376 6.54324C62.6058 6.36724 62.4593 6.17658 62.2542 5.97125C60.5402 4.12328 58.0498 2.45132 58.0498 2.45132C57.9033 2.36332 54.9295 0.310024 53.5964 0.0460295C53.318 -0.012636 53.069 -0.012636 52.8492 0.0313632C52.5855 0.0900287 52.2486 0.280692 52.1168 0.427355C51.9263 0.647351 51.5015 1.14601 51.5015 1.14601C48.5276 4.32861 42.8876 10.0485 38.2144 14.3897C34.7425 17.6017 30.1865 21.9136 26.5095 26.4455C24.3121 29.1441 22.0561 32.6494 21.3968 35.6267C20.0051 37.5773 18.9943 39.7186 17.7638 41.5665C17.3536 42.1825 16.6358 43.3852 16.2109 44.0598C16.3574 44.2358 16.7969 44.7491 17.3243 45.3505C17.7784 45.8785 18.2472 46.4211 18.7013 46.9491C19.4192 47.7851 20.137 48.6064 20.8548 49.4571C21.0746 49.7064 21.3675 50.0437 21.7045 50.4397C23.6382 52.625 27.9012 57.6409 28.1063 57.8902C28.2674 58.0809 28.4286 58.2715 28.6044 58.4622C28.8241 58.7115 33.6584 64.2994 34.5667 65.3847C35.2845 66.2354 36.017 67.0714 36.7495 67.922C36.896 68.098 37.438 68.7287 37.98 69.3447C38.6832 70.1513 39.3571 70.9433 39.5475 71.1633C40.1482 70.738 40.822 70.3713 41.4959 70.0633C43.5761 69.0807 45.8761 68.2154 48.0735 67.0567C48.7034 66.7194 49.3187 66.3821 49.934 66.0447C50.813 65.9421 52.3072 65.7514 52.5709 65.6781C53.1129 65.5461 54.3581 65.2821 55.2224 64.7981C56.6434 64.1088 58.2402 62.6568 59.7491 61.4102C62.8255 58.8582 65.9605 56.5556 69.2566 53.8276C73.9884 49.9264 78.5297 46.6998 82.9539 42.1385C83.0125 42.0945 83.1883 41.9772 83.3787 41.8159C83.5984 41.6399 83.8035 41.4199 83.9061 41.1999ZM68.1726 52.7717C65.0522 55.2649 62.1077 57.6262 58.0498 60.3835C57.7568 60.5888 57.4492 60.7942 57.1415 61.0142C56.8632 61.2048 56.5555 61.4102 56.2333 61.6302C56.0868 61.5128 55.9842 61.4248 55.6912 61.1902C55.281 60.8675 54.8562 60.5302 54.5779 60.3248C54.3581 60.1635 53.9919 59.8849 53.4206 59.5035C52.8785 59.1369 52.3512 58.7409 51.9703 58.4475C51.8677 58.2569 51.7505 58.0662 51.6187 57.8756C50.5932 56.2916 48.8939 54.297 47.0041 52.141C45.0557 49.941 42.9023 47.5798 41.0711 45.3945C38.5807 42.4319 36.4858 39.8799 34.4642 37.284C33.1018 35.5387 31.7687 33.764 30.377 31.8134C30.2158 31.5787 30.0547 31.3587 29.8789 31.1241C29.6298 30.7868 29.3955 30.4348 29.1464 30.0828C28.8827 29.0708 28.8095 27.9561 29.4101 26.5482C29.6445 26.0055 29.9668 25.4335 30.4356 24.8175C32.6476 21.9283 36.3979 19.039 39.8991 15.6364C45.6124 10.0045 47.7512 7.52588 53.2301 2.05532C54.2556 2.59798 55.5887 3.3753 56.8632 4.26995C56.9657 4.34328 57.039 4.38728 57.1269 4.46061C59.3096 6.00058 60.5402 7.11522 61.2434 7.84854C60.6281 8.40587 59.7198 9.25652 58.709 10.2392C58.3135 10.6205 58.0498 10.8552 57.7129 11.2218C57.5224 11.4271 57.2001 11.7498 56.7167 12.3071C55.9549 13.2018 55.0173 14.3751 54.5632 15.2697C54.4753 15.4311 54.4167 15.5924 54.3581 15.7391C54.1823 16.267 54.2116 16.6337 54.2849 16.883C54.3874 17.1764 54.5632 17.2937 54.5632 17.2937C54.5632 17.2937 54.7097 17.455 55.0174 17.5284C55.1492 17.5577 55.2957 17.5724 55.4715 17.543C55.7791 17.499 56.16 17.367 56.6288 17.0297C57.1708 16.6484 58.8262 15.1817 60.7306 13.5538C61.6536 12.7764 62.6204 11.9551 63.558 11.2071C64.3637 10.5472 65.1694 9.97517 65.8433 9.47651C66.1216 9.27118 66.3853 9.08052 66.6197 8.91919C67.6452 9.8285 68.8904 10.9871 70.0916 12.3071C70.1502 12.3658 70.1942 12.4245 70.2528 12.4831C71.2929 13.6418 72.2598 14.8151 73.0362 15.7831C72.8164 16.0177 72.5674 16.311 72.2744 16.6337C71.7177 17.279 71.0585 18.0417 70.326 18.8043C69.491 19.699 68.5828 20.623 67.7038 21.4883C65.9019 23.3069 64.2758 24.8762 63.8363 25.3895C63.4554 25.8295 63.2796 26.2108 63.2064 26.5042C63.1624 26.6802 63.1624 26.8268 63.1771 26.9442C63.2064 27.1788 63.3089 27.3108 63.3529 27.3695C63.3236 27.3842 63.3089 27.3988 63.3089 27.3988C63.3089 27.3988 63.4408 27.5748 63.7191 27.6628C63.8363 27.7068 63.9828 27.7362 64.144 27.7215C64.437 27.7215 64.8032 27.6188 65.2573 27.3548C65.7847 27.0468 67.4254 25.8149 69.3152 24.4655C70.2235 23.8202 71.1757 23.1456 72.0986 22.5149C72.9043 21.9723 73.6808 21.5029 74.34 21.1069C75.0578 20.6816 75.6291 20.3443 75.9514 20.1243C76.6985 20.9603 77.6361 22.0456 78.5004 23.2336C78.5444 23.2922 78.5883 23.3509 78.6323 23.4096C79.5112 24.6562 80.2584 25.9469 80.8297 27.0322C80.5074 27.3548 80.0826 27.7948 79.5845 28.3081C78.9985 28.9095 78.31 29.5988 77.5336 30.3174C76.6546 31.1241 75.7024 31.9747 74.7941 32.7667C72.9043 34.4094 71.205 35.8467 70.7509 36.316C70.3553 36.7266 70.1649 37.0933 70.077 37.3866C70.0331 37.5626 70.0037 37.6946 70.0184 37.8266C70.0477 38.1346 70.1942 38.3253 70.1942 38.3253C70.1942 38.3253 70.1942 38.3399 70.4432 38.5013C70.663 38.6479 70.956 38.6919 71.454 38.6626C71.5712 38.6479 71.6884 38.6333 71.8203 38.6039C72.5381 38.4279 73.4757 37.9586 74.3839 37.4306C74.8967 37.1373 75.2922 36.8733 75.4973 36.7413C75.8635 36.5213 76.0979 36.36 76.4495 36.1253C77.2113 35.6267 78.0609 34.996 78.7055 34.512C79.394 35.2747 80.2437 36.3307 80.9322 37.5333C80.9615 37.5773 80.9908 37.6213 81.0055 37.68C81.7233 38.9413 82.2507 40.2172 82.5583 41.0972C77.8559 45.3358 72.5088 49.2957 68.1726 52.7717Z" fill="url(#paint3_linear_630_46212)"/>
<path d="M49.3628 66.118C49.8755 66.0887 52.2048 65.7954 52.5417 65.7074C53.0838 65.5754 54.329 65.3114 55.1933 64.8274C56.6143 64.1381 58.2111 62.6861 59.72 61.4395C62.7963 58.8875 65.9313 56.5849 69.2275 53.8569C73.9739 49.941 78.5445 46.6998 82.9833 42.1238C83.1591 41.9185 83.1444 41.4785 83.1591 41.2879C83.1591 41.2439 83.1591 40.6719 83.1151 40.6279C78.2808 45.0278 72.6701 49.1637 68.158 52.7716C65.0377 55.2649 62.0932 57.6262 58.0353 60.3835C57.7423 60.5888 57.4346 60.7941 57.127 61.0141C54.9442 62.5248 50.9449 64.7541 49.3628 66.118Z" fill="url(#paint4_linear_630_46212)"/>
<path d="M28.5898 58.4916C28.8096 58.7409 33.6439 64.3288 34.5522 65.4141C35.27 66.2647 36.0025 67.1007 36.7349 67.9514C36.8814 68.1274 37.4235 68.758 37.9655 69.374C38.6687 70.1807 39.3425 70.9726 39.533 71.1926C40.1336 70.7673 40.8075 70.4007 41.4814 70.0927C43.5616 69.11 45.8616 68.2447 48.059 67.0861C49.6411 66.2501 51.1061 65.3848 52.8933 64.4021C53.7869 63.9181 54.6366 63.4048 55.413 62.8915C55.662 62.7301 55.8671 62.5395 56.0429 62.3195C56.1601 62.1728 56.2627 61.8502 56.3066 61.6888C56.1015 61.5275 56.0283 61.4542 55.6767 61.1755C55.2665 60.8528 54.8417 60.5155 54.5633 60.3102C54.3436 60.1489 53.9774 59.8702 53.406 59.4889C52.6443 58.9609 51.9264 58.4036 51.5455 58.1102C51.5895 58.2422 51.6334 58.3742 51.6774 58.5209C51.7653 58.8142 51.8239 59.0929 51.8532 59.3862C51.9704 60.3542 51.7067 61.6595 51.1061 62.5101C50.2857 63.6688 48.7475 64.6074 46.594 65.5021C44.5138 66.3674 41.0565 66.8221 36.9986 65.0768C35.6948 64.5194 30.0108 59.5769 28.5898 58.4916Z" fill="url(#paint5_linear_630_46212)"/>
<path opacity="0.62" d="M28.1063 57.9195C27.8866 57.6702 23.6382 52.6543 21.7045 50.469C21.3529 50.073 21.0746 49.7503 20.8548 49.4863C20.137 48.6504 19.4192 47.829 18.7013 46.9784C18.2472 46.4504 17.7784 45.9078 17.3243 45.3798C16.7969 44.7638 16.3574 44.2504 16.2109 44.0891C16.6358 43.4145 17.3536 42.2265 17.7638 41.5958C19.0383 39.6745 20.0784 37.4453 21.5433 35.4506C21.7338 35.6706 21.9389 35.9933 21.9682 36.0519C22.0121 36.0959 22.144 36.2866 22.3344 36.5213C22.5102 36.7266 22.7006 36.9026 22.7739 36.9906C22.8471 37.0933 22.9057 37.1666 23.1255 37.4159C21.9682 39.3519 21.0013 42.6958 22.1293 46.9784C22.4809 48.3424 27.2273 56.3502 28.1063 57.9195Z" fill="url(#paint6_radial_630_46212)"/>
<path opacity="0.4" d="M21.2649 38.2081C21.763 37.5921 22.4369 35.6708 23.1254 34.9962C23.6967 34.4535 25.0591 33.0456 25.4986 32.6789C25.7037 32.5176 25.8648 32.3856 25.9967 32.2829C26.3483 32.0336 28.6922 30.3909 29.1317 30.1269C28.8533 29.0856 28.7508 27.9417 29.366 26.5044C29.6004 25.9617 29.9227 25.3897 30.3915 24.7737C32.6036 21.8844 36.3538 18.9952 39.8551 15.5926C45.8906 9.71135 47.9269 7.26206 54.0504 1.20485C53.8892 1.01418 53.6549 0.911518 53.3912 0.808854C53.0982 0.706189 52.9517 0.676856 52.6294 0.647524C52.102 0.603524 51.8969 0.66219 51.4867 1.13151C48.5275 4.31412 42.8582 10.0633 38.1704 14.4193C34.6985 17.6312 30.1425 21.9431 26.4655 26.475C23.6235 29.9949 20.6643 34.8789 21.2649 38.2081Z" fill="url(#paint7_radial_630_46212)"/>
<path d="M20.6789 41.4932C20.6936 41.7572 20.7082 41.9772 20.7375 42.2119C20.8108 42.7252 20.8547 43.2825 20.9573 43.7958C21.2649 45.2478 21.7044 46.9638 22.4369 48.8117C23.5209 51.569 25.2935 54.4436 27.4763 57.1569C29.2635 59.3715 30.8896 60.9702 32.3985 62.2755C33.8781 63.5368 35.3137 64.4901 36.9838 65.2381C37.3354 65.3994 37.7162 65.5607 38.0971 65.7074C38.4341 65.8394 38.7856 65.9714 39.1519 66.0887C39.3863 66.1621 39.6353 66.2501 39.8697 66.3234C40.3531 66.4847 40.8805 66.5434 41.3933 66.5874C42.2429 66.6607 43.283 66.6607 44.3671 66.4994C45.4805 66.3381 46.5645 65.9567 47.6486 65.4581C48.2785 65.1647 48.8791 64.7834 49.5091 64.4168C50.0511 64.1088 50.5785 63.7861 51.0326 63.3901C51.4281 63.0675 51.7651 62.6861 52.0288 62.2461C52.1753 62.0115 52.2778 61.7621 52.3804 61.4981C52.5268 61.0435 52.6733 60.5595 52.5708 59.9142C52.5561 59.7822 52.5122 59.6502 52.4682 59.5035C52.395 59.2835 52.2925 59.0342 52.146 58.7702C51.9995 58.4769 51.809 58.1542 51.5893 57.8169C50.5638 56.2329 48.8645 54.2383 46.9747 52.0823C45.0263 49.8824 42.8729 47.5211 41.0417 45.3358C38.5513 42.3732 36.4564 39.8212 34.4348 37.2253C33.0724 35.48 31.7393 33.7054 30.3476 31.7547C30.1864 31.5201 30.0253 31.3001 29.8495 31.0654C29.6004 30.7134 29.3514 30.3468 29.0877 29.9801C28.7215 30.2148 28.3406 30.4641 27.9451 30.6988C27.7107 30.8454 27.4763 30.9921 27.2272 31.1387C26.7731 31.4174 26.319 31.7107 25.8648 32.0334C25.3374 32.4147 24.7954 32.8107 24.2827 33.28C23.6967 33.808 23.1254 34.424 22.6126 35.1133C21.9974 35.964 21.5725 36.7853 21.2649 37.6066C20.9426 38.5013 20.7668 39.3666 20.6936 40.1732C20.6789 40.6719 20.6643 41.0386 20.6789 41.4932Z" fill="url(#paint8_linear_630_46212)"/>
<path d="M54.3583 15.7244C54.1825 16.2524 54.2118 16.619 54.285 16.8684C54.3876 17.1617 54.5634 17.279 54.5634 17.279C54.5634 17.279 55.3984 16.5457 56.5118 15.5484C57.3468 14.8004 58.3283 13.9204 59.2512 13.0551C60.5257 11.8671 61.6977 10.7232 62.2104 10.1072C62.5913 9.63785 62.7817 9.24186 62.8696 8.88987C63.0015 8.34721 62.855 7.96588 62.7231 7.74589C62.6499 7.61389 62.1665 7.23257 62.0346 7.11523C62.0346 7.11523 60.555 8.43521 58.6945 10.2245C58.299 10.6058 58.0353 10.8405 57.6984 11.2072C57.5079 11.4125 57.1856 11.7351 56.7022 12.2925C55.9404 13.1871 55.0029 14.3604 54.5487 15.2551C54.4755 15.4311 54.4022 15.5924 54.3583 15.7244Z" fill="url(#paint9_radial_630_46212)"/>
<path opacity="0.5" d="M37.8484 20.2123C37.5407 21.4736 37.7605 22.4709 38.0681 23.1749C38.449 24.0255 38.9617 24.4655 38.9617 24.4655C38.9617 24.4655 40.9394 23.1456 43.6056 21.2829C45.5686 19.919 47.9125 18.2617 50.11 16.6484C53.1278 14.4191 55.8818 12.2484 57.0245 10.9725C57.8888 10.0192 58.2697 9.09517 58.3723 8.24452C58.5334 6.92455 58.0207 5.8099 57.5665 5.12058C57.3321 4.72459 55.9404 3.40462 55.5156 2.99396C55.5156 2.99396 51.9997 5.42858 47.6196 8.81651C46.6966 9.53516 46.0814 9.97515 45.2756 10.7085C44.8215 11.1191 44.089 11.7351 42.9757 12.8791C41.2177 14.6831 39.1229 17.1177 38.2293 19.1416C38.0535 19.5083 37.9363 19.875 37.8484 20.2123Z" fill="url(#paint10_radial_630_46212)"/>
<path opacity="0.5" d="M52.3955 25.8735C52.4248 27.1495 52.9229 28.2055 53.4649 28.9535C54.0948 29.8481 54.7834 30.3468 54.7834 30.3468C54.7834 30.3468 56.5267 29.1295 58.8559 27.4135C60.5699 26.1522 62.6062 24.6122 64.496 23.1162C67.0889 21.0483 69.4182 19.0097 70.2971 17.7777C70.9417 16.8537 71.1029 15.9297 70.971 15.0644C70.7806 13.7151 69.9163 12.5271 69.2424 11.7791C68.8615 11.3538 66.9864 9.8725 66.415 9.41785C66.415 9.41785 63.3387 11.6618 59.6177 14.8444C58.8266 15.5191 58.2992 15.9297 57.64 16.619C57.2738 17.015 56.6585 17.587 55.7942 18.687C54.4318 20.4176 52.8643 22.7789 52.4688 24.8029C52.4248 25.1549 52.3955 25.5215 52.3955 25.8735Z" fill="url(#paint11_radial_630_46212)"/>
<path opacity="0.5" d="M60.877 35.392C60.7891 36.6386 61.17 37.6799 61.6241 38.4279C62.1515 39.3226 62.7667 39.8359 62.7667 39.8359C62.7667 39.8359 64.554 38.7066 66.9565 37.1226C68.7291 35.9493 70.8239 34.5267 72.787 33.1187C75.4825 31.1827 77.9143 29.2908 78.8665 28.1175C79.5843 27.2375 79.8041 26.3428 79.7748 25.5068C79.7162 24.1869 78.9983 22.9989 78.4124 22.2509C78.0754 21.8256 76.4054 20.3296 75.9073 19.8603C75.9073 19.8603 72.7284 21.9429 68.8609 24.9055C68.0406 25.5362 67.4839 25.9175 66.7953 26.5628C66.3998 26.9295 65.7552 27.4721 64.8177 28.5135C63.3381 30.1561 61.6241 32.3854 61.0528 34.3507C60.9649 34.7027 60.9063 35.0547 60.877 35.392Z" fill="url(#paint12_radial_630_46212)"/>
<path opacity="0.5" d="M58.4602 54.8983C58.1672 56.3649 58.4456 57.5089 58.8411 58.3155C59.3099 59.2835 59.9398 59.7675 59.9398 59.7675C59.9398 59.7675 62.1665 58.1835 65.155 55.9542C67.3671 54.3116 69.9893 52.3316 72.4504 50.3957C75.8345 47.7411 78.9109 45.1451 80.1854 43.6345C81.1376 42.5052 81.5331 41.4199 81.621 40.4519C81.7529 38.9266 81.1083 37.6506 80.5662 36.8733C80.2586 36.4333 78.5739 34.9373 78.0612 34.4827C78.0612 34.4827 74.1058 37.4013 69.2129 41.4492C68.1728 42.2998 67.4843 42.8278 66.5907 43.6932C66.0926 44.1771 65.2576 44.9105 64.027 46.2598C62.0786 48.4011 59.7787 51.261 58.8264 53.637C58.6653 54.0769 58.5481 54.4876 58.4602 54.8983Z" fill="url(#paint13_radial_630_46212)"/>
<path d="M54.6221 17.2497C54.5928 17.2791 54.5781 17.2937 54.5781 17.2937C54.5781 17.2937 54.7246 17.4551 55.0323 17.5284C55.1641 17.5577 55.3106 17.5724 55.4864 17.5431C55.794 17.4991 56.1749 17.3671 56.6437 17.0297C57.1857 16.6484 58.8411 15.1818 60.7455 13.5538C61.6685 12.7765 62.6353 11.9552 63.5729 11.2072C64.3786 10.5472 65.1843 9.9752 65.8582 9.47655C67.0009 8.64056 67.8066 8.09791 67.7919 7.93658C67.748 7.61392 67.206 7.23259 66.6493 6.93926C66.2391 6.71927 65.741 6.58727 65.2283 6.60194C63.9831 6.67527 62.6939 8.39124 62.6939 8.39124C62.6939 8.39124 62.3277 8.83123 61.8003 9.49121C60.9067 10.5619 59.5443 12.2045 58.5921 13.2605C57.3322 14.6538 55.9845 15.9738 54.6221 17.2497Z" fill="url(#paint14_radial_630_46212)"/>
<path d="M63.353 27.3842C63.3237 27.4135 63.3091 27.4135 63.3091 27.4135C63.3091 27.4135 63.4409 27.5895 63.7193 27.6775C63.8365 27.7215 63.983 27.7508 64.1441 27.7362C64.4371 27.7362 64.8033 27.6335 65.2575 27.3695C65.7848 27.0615 67.4256 25.8295 69.3154 24.4802C70.2236 23.8349 71.1758 23.1602 72.0988 22.5296C72.9045 21.9869 73.6809 21.5176 74.3401 21.1216C75.4535 20.447 76.2446 20.007 76.2299 19.8603C76.2006 19.5523 75.849 19.0977 75.3363 18.7603C74.9554 18.511 74.5599 18.2323 74.0911 18.203C72.9631 18.1443 71.4542 19.787 71.4542 19.787C71.4542 19.787 71.0879 20.1683 70.5459 20.7256C69.6523 21.6496 68.3045 23.0722 67.2791 23.9229C65.9899 25.0229 64.6129 26.1669 63.353 27.3842Z" fill="url(#paint15_radial_630_46212)"/>
<path d="M63.4116 27.3548C63.3823 27.3842 63.3677 27.3988 63.3677 27.3988C63.3677 27.3988 63.2212 27.2522 63.1772 26.9588C63.1626 26.8415 63.1626 26.6948 63.2065 26.5189C63.2798 26.2255 63.4556 25.8589 63.8364 25.4042C64.2759 24.8909 65.902 23.3069 67.7039 21.5029C68.5682 20.6376 69.4911 19.699 70.3262 18.819C71.0586 18.0417 71.7179 17.2937 72.2745 16.6484C73.2121 15.5631 73.8274 14.9031 74.1497 14.9471C74.472 14.9911 74.7063 15.2697 74.9407 15.8271C75.1165 16.2377 75.2044 16.7217 75.1165 17.2204C74.9261 18.3937 72.9631 19.655 72.9631 19.655C72.9631 19.655 72.4796 19.9923 71.7911 20.5056C70.6338 21.3416 68.9345 22.7203 67.7772 23.6149C66.2683 24.7882 64.8326 26.0642 63.4116 27.3548Z" fill="url(#paint16_radial_630_46212)"/>
<path d="M71.4542 38.692C70.9708 38.7213 70.6631 38.6626 70.4434 38.5306C70.1943 38.3546 70.1943 38.3546 70.1943 38.3546C70.1943 38.3546 70.8096 37.5333 71.8204 36.7853C72.5675 36.2427 73.4612 35.5827 74.3255 34.9814C75.5121 34.1454 76.6547 33.3974 77.2554 33.1041C77.7095 32.8841 78.0904 32.8107 78.4127 32.8254C78.8668 32.8547 79.1745 33.1627 79.3502 33.3681C79.4674 33.5001 79.5846 33.6614 79.6725 33.8227C79.6725 33.8227 77.8853 35.2454 76.4497 36.184C76.0981 36.4187 75.849 36.58 75.4974 36.8C75.2923 36.9173 74.8968 37.196 74.3841 37.4893C73.4758 38.0173 72.5382 38.4866 71.8204 38.6626C71.6886 38.6626 71.5567 38.6773 71.4542 38.692Z" fill="url(#paint17_radial_630_46212)"/>
<path d="M70.2382 38.296C70.2089 38.3253 70.1943 38.34 70.1943 38.34C70.1943 38.34 70.0331 38.164 70.0185 37.8413C70.0038 37.7093 70.0331 37.5773 70.0771 37.4013C70.165 37.108 70.3554 36.7413 70.7509 36.3307C71.2051 35.8467 72.9044 34.424 74.7942 32.7814C75.7024 31.9894 76.6547 31.1388 77.5336 30.3321C78.2954 29.6281 78.9986 28.9241 79.5846 28.3228C80.5661 27.3108 81.2839 26.5335 81.445 26.5775C81.7527 26.6655 82.075 27.2082 82.2947 27.8095C82.4412 28.2495 82.5144 28.7628 82.4119 29.2761C82.1775 30.4641 80.1998 31.6228 80.1998 31.6228C80.1998 31.6228 79.7018 31.9161 78.9839 32.3561C77.7973 33.0747 75.9808 34.1894 74.7795 34.9814C73.212 35.9933 71.7178 37.1373 70.2382 38.296Z" fill="url(#paint18_radial_630_46212)"/>
<path opacity="0.3" d="M74.3545 18.4817C74.3545 18.4817 76.5519 20.6083 78.4856 23.2482C78.5296 23.3069 78.5735 23.3656 78.6175 23.4242C80.8003 26.5042 82.148 29.8628 82.148 29.8628C82.148 29.8628 82.397 29.5548 82.6314 29.2028C82.8072 28.9388 83.1588 28.3668 83.0709 27.8828C83.0416 27.7215 82.983 27.5308 82.8951 27.3255C82.0894 25.3749 79.8041 22.2363 79.8041 22.2363C79.6869 22.0896 77.2844 18.907 76.2736 18.2177C76.0538 18.071 75.8634 17.9977 75.6729 17.9683C75.3946 17.9243 74.9844 18.0123 74.794 18.115C74.501 18.2763 74.3545 18.4817 74.3545 18.4817Z" fill="url(#paint19_radial_630_46212)"/>
<path opacity="0.3" d="M51.4873 1.17537C51.4873 1.17537 54.2854 2.46601 56.8637 4.26997C56.9662 4.3433 57.0394 4.3873 57.1273 4.46064C61.6687 7.68724 62.1521 9.00721 62.1521 9.00721C62.1521 9.00721 62.9285 8.25923 63.0604 7.89257C63.2215 7.43791 62.9725 6.96859 62.7381 6.57259C62.6062 6.3966 62.4598 6.20593 62.2547 6.00061C60.5407 4.15264 58.0503 2.48067 58.0503 2.48067C57.9038 2.39268 54.9299 0.339382 53.5968 0.0753874C53.3185 0.0167219 53.0694 0.0167219 52.8497 0.0607211C52.586 0.119387 52.2491 0.31005 52.1172 0.456713C51.8975 0.676709 51.4873 1.17537 51.4873 1.17537Z" fill="url(#paint20_radial_630_46212)"/>
<path opacity="0.3" d="M74.7502 17.9977C74.7502 17.9977 72.67 15.1964 70.2529 12.4831C70.1943 12.4245 70.1503 12.3658 70.0917 12.3071C67.279 9.2272 64.2319 6.95391 64.2319 6.95391C64.2319 6.95391 64.5542 6.66059 64.9791 6.49925C65.3013 6.38192 66.0045 6.11793 66.5026 6.33792C66.6637 6.41126 66.8542 6.51392 67.0739 6.66059C69.0077 7.98056 71.879 11.1925 71.879 11.1925C72.0108 11.3392 74.9114 14.6978 75.4241 15.9737C75.5413 16.2377 75.5706 16.4724 75.556 16.6777C75.5413 16.9857 75.3362 17.3964 75.1897 17.5724C74.97 17.851 74.7502 17.9977 74.7502 17.9977Z" fill="url(#paint21_radial_630_46212)"/>
<path opacity="0.3" d="M82.91 42.1972C82.91 42.1972 82.2801 39.9239 81.0056 37.724C80.9763 37.68 80.947 37.636 80.9324 37.5773C79.4967 35.1133 77.4458 33.28 77.4458 33.28C77.4458 33.28 77.9439 32.9134 78.2808 32.7814C78.6178 32.6494 79.1012 32.8547 79.4381 33.0454C79.5553 33.1187 79.6725 33.2067 79.8044 33.3387C80.991 34.4827 82.4266 37.0493 82.4266 37.0493C82.4852 37.1666 83.9209 39.7479 83.9795 40.6866C83.9941 40.8919 83.9502 41.0532 83.8916 41.1999C83.789 41.4199 83.5839 41.6545 83.3495 41.8599C83.1151 42.0505 82.91 42.1972 82.91 42.1972Z" fill="url(#paint22_radial_630_46212)"/>
<path d="M1.50293 59.2982C1.56153 59.4302 1.63477 59.5622 1.70802 59.7089C1.79592 59.8995 1.91311 60.0902 2.01566 60.2955C2.16216 60.5742 2.3233 60.8675 2.49909 61.1608C4.28633 64.2701 7.23087 68.6847 10.4098 72.7326C12.2117 75.0352 14.0282 77.0885 15.9326 78.7605C17.2804 79.9485 18.7307 80.9164 20.4154 81.6204C20.6205 81.7084 20.8402 81.7964 21.06 81.8698C21.3822 81.9871 21.7045 82.0898 22.0415 82.1924C22.6128 82.3538 23.1988 82.4858 23.7994 82.5884C24.4879 82.6471 25.1765 82.6031 25.865 82.5004C26.158 82.4564 26.4363 82.3977 26.7293 82.3244C26.9197 82.2804 27.1102 82.2218 27.3006 82.1631C28.2528 81.8551 29.1758 81.4151 30.0694 80.8578C31.0509 80.2418 32.0617 79.5525 32.8821 78.6285C33.512 77.9245 33.9661 77.3378 34.3617 76.5312C34.4935 76.2672 34.5668 76.0619 34.6547 75.8272C34.7572 75.5485 34.8451 75.2699 34.933 74.9912C34.9769 74.8446 35.0062 74.6832 35.0502 74.5366C35.0941 74.3459 35.1381 74.1406 35.1674 73.9499C35.2846 73.2753 35.3432 72.5713 35.3139 71.882C35.2846 71.2806 35.1674 70.6793 35.0209 70.0927C34.9623 69.858 34.889 69.6087 34.8158 69.3593C34.7572 69.1833 34.6986 69.022 34.64 68.846C34.1419 67.4674 33.4095 65.9861 32.4865 64.4754C31.1974 62.3488 29.5566 60.1342 27.7401 58.0369C24.3854 54.1356 20.6937 49.1637 18.4817 44.9545C18.2619 44.5438 18.0715 44.1478 17.881 43.7518C17.7492 43.4585 17.6173 43.1799 17.5001 42.9012C17.4122 42.6959 17.3829 42.5492 17.3097 42.3439C16.9435 42.5492 16.6358 42.8132 16.3135 43.0919C15.9912 43.3705 15.6543 43.6638 15.332 43.9425C15.2148 44.0452 15.1123 44.1332 14.9951 44.2358C14.4238 44.7345 13.8524 45.2332 13.2957 45.7465C12.8709 46.1278 12.4461 46.5091 12.0212 46.8904" fill="#0049B7"/>
<path d="M17.9397 40.5399L18.4524 41.8745C18.4964 42.0065 18.5403 42.1092 18.555 42.1972C18.5843 42.2852 18.5989 42.3292 18.6282 42.4025C18.7454 42.6665 18.8626 42.9451 18.9944 43.2091C19.1702 43.5758 19.3607 43.9718 19.5658 44.3678C21.4702 48.005 24.8689 52.8009 28.6631 57.2155C30.5675 59.4301 32.2522 61.7181 33.5267 63.8154C34.5229 65.458 35.2846 66.998 35.7827 68.406C35.856 68.5966 35.9146 68.7726 35.9732 68.9633C36.0611 69.2273 36.1343 69.5059 36.2076 69.7699C36.398 70.4886 36.5005 71.1486 36.5299 71.7939V71.8232C36.5445 72.5712 36.4859 73.3485 36.3541 74.1259C36.3101 74.3459 36.2808 74.5658 36.2222 74.7712C36.1783 74.9472 36.1343 75.1085 36.0904 75.2698C36.0025 75.5925 35.8999 75.9152 35.7827 76.2231C35.6802 76.5018 35.5776 76.7365 35.4311 77.0298C34.977 77.9538 34.4496 78.6284 33.7611 79.4058C32.8235 80.4617 31.6809 81.2391 30.6847 81.855C29.6886 82.4857 28.6631 82.9697 27.6376 83.2923C27.4179 83.3657 27.2128 83.4243 26.9931 83.483C26.6708 83.571 26.3485 83.6297 26.0262 83.6883C25.2351 83.8203 24.444 83.8497 23.6676 83.791L23.5504 83.7763C22.9059 83.6737 22.2613 83.527 21.6607 83.351C21.2944 83.2483 20.9428 83.131 20.5912 83.0137C20.3568 82.9257 20.1225 82.8377 19.8881 82.7497C18.1887 82.0457 16.6212 81.0337 15.0684 79.6844C15.0537 79.6697 15.0391 79.6551 15.0244 79.6404C13.2519 78.0711 11.406 76.0618 9.3844 73.4805C6.43986 69.7259 3.37813 65.238 1.3858 61.7621C1.21001 61.4394 1.03421 61.1461 0.887718 60.8528C0.770522 60.6328 0.667976 60.4275 0.56543 60.2368M12.8417 47.7997C11.4793 49.0464 10.3513 50.1317 9.3844 51.1436C9.04747 51.4956 8.66658 51.877 8.27104 52.2876C7.56787 53.0063 6.8354 53.7543 6.11757 54.5169C5.16536 55.5289 4.24244 56.5409 3.50997 57.6262C3.48067 57.6702 3.45137 57.7142 3.42207 57.7435C3.21698 58.0662 3.07049 58.3008 2.95329 58.5355C2.85075 58.7408 2.79215 58.9168 2.7482 59.0488C2.76285 59.0782 2.7775 59.1075 2.79215 59.1515C2.88004 59.3275 2.98259 59.5181 3.08514 59.7088C3.23163 59.9728 3.37813 60.2515 3.55392 60.5448C5.5023 63.9181 8.49079 68.3033 11.3621 71.9699C13.2812 74.4192 15.0244 76.3258 16.6798 77.7925C16.6945 77.8071 16.7091 77.8218 16.7238 77.8218C18.0715 78.9951 19.4193 79.8604 20.8549 80.4617C21.0454 80.5351 21.2505 80.6231 21.4409 80.6964C21.7339 80.7991 22.0415 80.9017 22.3345 80.9897C22.8326 81.1364 23.36 81.2537 23.902 81.3417C24.4587 81.3857 25.0447 81.3564 25.616 81.2537C25.865 81.2097 26.1141 81.1657 26.3631 81.0924C26.5243 81.0484 26.7001 81.0044 26.8612 80.9457C27.6816 80.6817 28.5312 80.2857 29.3516 79.7577C30.2452 79.2004 31.1681 78.5698 31.9006 77.7485C32.4866 77.1031 32.8528 76.6191 33.1898 75.9298C33.2923 75.7245 33.3656 75.5632 33.4388 75.3432C33.5267 75.1085 33.6 74.8592 33.6732 74.6098C33.7025 74.4779 33.7465 74.3459 33.7758 74.2139C33.8197 74.0379 33.849 73.8765 33.8783 73.7005C33.9808 73.0845 34.0248 72.4832 34.0101 71.8966C33.9808 71.4272 33.8929 70.9286 33.7611 70.3713C33.7025 70.1513 33.6439 69.9313 33.5707 69.7113C33.5267 69.5499 33.4681 69.4033 33.4095 69.242C32.9554 67.9953 32.2669 66.5873 31.3586 65.0914C30.1573 63.0967 28.5605 60.9261 26.744 58.8288C24.8689 56.6435 20.1811 50.9823 17.3244 45.5118C17.1047 45.1011 16.9142 44.6904 16.7238 44.3091" fill="url(#paint23_linear_630_46212)"/>
<path opacity="0.7" d="M32.0914 76.7218L10.4834 49.8824C10.4834 49.8824 11.8458 48.8851 12.6222 48.0051C13.5891 46.9051 14.4827 46.3331 14.9075 46.3038C15.2884 46.4798 17.31 48.2251 17.7495 48.6211C22.4813 52.7863 27.4621 60.2222 27.4768 60.2368C27.7405 60.6035 33.5856 68.758 34.4206 71.8379C34.5964 72.4833 34.5964 73.0552 34.5085 73.5539C34.362 74.3166 33.7467 75.2845 33.3219 75.7099C32.6627 76.3552 32.0914 76.7218 32.0914 76.7218Z" fill="url(#paint24_radial_630_46212)"/>
<path d="M35.1527 69.418L16.2256 45.0865C16.2256 45.0865 16.5772 44.9105 17.1339 45.0132C17.544 45.0865 18.467 45.2625 19.2434 45.9665C19.5071 46.2012 19.8147 46.5091 20.1663 46.8905C23.3892 50.3371 28.6483 57.2743 28.6483 57.2743C28.8974 57.5969 34.2151 64.7541 35.4017 67.0127C35.6508 67.4967 35.7826 67.8634 35.8412 68.1567C35.9145 68.5967 35.7826 69.022 35.6215 69.1687C35.4017 69.3594 35.1527 69.418 35.1527 69.418Z" fill="url(#paint25_radial_630_46212)"/>
<defs>
<linearGradient id="paint0_linear_630_46212" x1="29.9608" y1="58.4991" x2="20.0023" y2="65.3629" gradientUnits="userSpaceOnUse">
<stop offset="0.125" stop-color="#C8C5C5" stop-opacity="0.9926"/>
<stop offset="0.78125" stop-color="white"/>
</linearGradient>
<linearGradient id="paint1_linear_630_46212" x1="14.3501" y1="70.4825" x2="6.23614" y2="77.7699" gradientUnits="userSpaceOnUse">
<stop offset="0.125" stop-color="#C8C5C5" stop-opacity="0.9926"/>
<stop offset="0.78125" stop-color="white"/>
</linearGradient>
<linearGradient id="paint2_linear_630_46212" x1="73.4941" y1="16.0275" x2="40.0007" y2="43.5288" gradientUnits="userSpaceOnUse">
<stop offset="0.364583" stop-color="#0151FF"/>
<stop offset="0.552083" stop-color="#408CFF"/>
<stop offset="0.619792" stop-color="#408CFF"/>
<stop offset="0.844536" stop-color="#0C3FA0"/>
<stop offset="0.944856" stop-color="#00329F"/>
</linearGradient>
<linearGradient id="paint3_linear_630_46212" x1="56.6847" y1="32.4278" x2="33.4758" y2="52.9442" gradientUnits="userSpaceOnUse">
<stop offset="0.125" stop-color="#9B9B9B" stop-opacity="0.9926"/>
<stop offset="0.78125" stop-color="white"/>
</linearGradient>
<linearGradient id="paint4_linear_630_46212" x1="69.5417" y1="52.2433" x2="61.3421" y2="62.3323" gradientUnits="userSpaceOnUse">
<stop offset="0.125" stop-color="#C8C5C5" stop-opacity="0.9926"/>
<stop offset="0.78125" stop-color="white"/>
</linearGradient>
<linearGradient id="paint5_linear_630_46212" x1="45.1389" y1="64.0716" x2="41.6645" y2="70.9028" gradientUnits="userSpaceOnUse">
<stop offset="0.260417" stop-color="#C8C5C5" stop-opacity="0.9926"/>
<stop offset="1" stop-color="white"/>
</linearGradient>
<radialGradient id="paint6_radial_630_46212" cx="0" cy="0" r="1" gradientUnits="userSpaceOnUse" gradientTransform="translate(24.8156 46.6874) rotate(41.4165) scale(8.27445 8.27565)">
<stop stop-color="white"/>
<stop offset="1" stop-color="white" stop-opacity="0"/>
</radialGradient>
<radialGradient id="paint7_radial_630_46212" cx="0" cy="0" r="1" gradientUnits="userSpaceOnUse" gradientTransform="translate(36.3705 18.5604) rotate(41.4165) scale(1.95274 27.3143)">
<stop stop-color="white"/>
<stop offset="1" stop-color="white" stop-opacity="0"/>
</radialGradient>
<linearGradient id="paint8_linear_630_46212" x1="39.7388" y1="46.6828" x2="27.9607" y2="56.205" gradientUnits="userSpaceOnUse">
<stop offset="0.197917" stop-color="white"/>
<stop offset="0.630458" stop-color="#BEBDBD" stop-opacity="0.9926"/>
<stop offset="0.887681" stop-color="#9F9F9F" stop-opacity="0.9926"/>
</linearGradient>
<radialGradient id="paint9_radial_630_46212" cx="0" cy="0" r="1" gradientUnits="userSpaceOnUse" gradientTransform="translate(58.4751 12.3419) rotate(41.4165) scale(4.55379 4.55445)">
<stop stop-color="white"/>
<stop offset="1" stop-color="white" stop-opacity="0"/>
</radialGradient>
<radialGradient id="paint10_radial_630_46212" cx="0" cy="0" r="1" gradientUnits="userSpaceOnUse" gradientTransform="translate(47.6324 13.762) rotate(-40.7822) scale(8.60052 3.25409)">
<stop offset="0.000975135" stop-color="#00D1FF" stop-opacity="0.8"/>
<stop offset="1" stop-color="#00D1FF" stop-opacity="0"/>
</radialGradient>
<radialGradient id="paint11_radial_630_46212" cx="0" cy="0" r="1" gradientUnits="userSpaceOnUse" gradientTransform="translate(61.6383 19.7549) rotate(52.8564) scale(4.73046 9.561)">
<stop stop-color="#00D1FF" stop-opacity="0.8"/>
<stop offset="0.8834" stop-color="#00D1FF" stop-opacity="0"/>
</radialGradient>
<radialGradient id="paint12_radial_630_46212" cx="0" cy="0" r="1" gradientUnits="userSpaceOnUse" gradientTransform="translate(69.3678 30.1686) rotate(-42.1729) scale(6.91632 4.77966)">
<stop stop-color="#00D1FF" stop-opacity="0.8"/>
<stop offset="1" stop-color="#00D1FF" stop-opacity="0"/>
</radialGradient>
<radialGradient id="paint13_radial_630_46212" cx="0" cy="0" r="1" gradientUnits="userSpaceOnUse" gradientTransform="translate(68.9919 47.4955) rotate(-36.276) scale(11.7868 4.17358)">
<stop stop-color="#00D1FF" stop-opacity="0.8"/>
<stop offset="1" stop-color="#00D1FF" stop-opacity="0"/>
</radialGradient>
<radialGradient id="paint14_radial_630_46212" cx="0" cy="0" r="1" gradientUnits="userSpaceOnUse" gradientTransform="translate(61.2269 12.582) rotate(47.5415) scale(1.33528 7.3783)">
<stop stop-color="white"/>
<stop offset="1" stop-color="white" stop-opacity="0"/>
</radialGradient>
<radialGradient id="paint15_radial_630_46212" cx="0" cy="0" r="1" gradientUnits="userSpaceOnUse" gradientTransform="translate(69.8574 23.5564) rotate(55.5383) scale(1.9059 7.45334)">
<stop stop-color="white"/>
<stop offset="1" stop-color="white" stop-opacity="0"/>
</radialGradient>
<radialGradient id="paint16_radial_630_46212" cx="0" cy="0" r="1" gradientUnits="userSpaceOnUse" gradientTransform="translate(69.363 21.642) rotate(46.3945) scale(1.61731 8.3024)">
<stop stop-color="white"/>
<stop offset="1" stop-color="white" stop-opacity="0"/>
</radialGradient>
<radialGradient id="paint17_radial_630_46212" cx="0" cy="0" r="1" gradientUnits="userSpaceOnUse" gradientTransform="translate(74.9782 36.0148) rotate(58.7443) scale(1.38084 5.63318)">
<stop stop-color="white"/>
<stop offset="1" stop-color="white" stop-opacity="0"/>
</radialGradient>
<radialGradient id="paint18_radial_630_46212" cx="0" cy="0" r="1" gradientUnits="userSpaceOnUse" gradientTransform="translate(76.2752 32.5713) rotate(49.7539) scale(1.17663 7.68147)">
<stop stop-color="white"/>
<stop offset="1" stop-color="white" stop-opacity="0"/>
</radialGradient>
<radialGradient id="paint19_radial_630_46212" cx="0" cy="0" r="1" gradientUnits="userSpaceOnUse" gradientTransform="translate(79.2497 22.9394) rotate(53.895) scale(5.0308 0.838877)">
<stop stop-color="white"/>
<stop offset="1" stop-color="white" stop-opacity="0"/>
</radialGradient>
<radialGradient id="paint20_radial_630_46212" cx="0" cy="0" r="1" gradientUnits="userSpaceOnUse" gradientTransform="translate(57.8082 3.37929) rotate(36.1726) scale(4.84064 0.756613)">
<stop stop-color="white"/>
<stop offset="1" stop-color="white" stop-opacity="0"/>
</radialGradient>
<radialGradient id="paint21_radial_630_46212" cx="0" cy="0" r="1" gradientUnits="userSpaceOnUse" gradientTransform="translate(70.6202 11.2646) rotate(47.5334) scale(5.53348 0.870526)">
<stop stop-color="white"/>
<stop offset="1" stop-color="white" stop-opacity="0"/>
</radialGradient>
<radialGradient id="paint22_radial_630_46212" cx="0" cy="0" r="1" gradientUnits="userSpaceOnUse" gradientTransform="translate(81.3601 36.8418) rotate(57.1903) scale(3.93417 0.720689)">
<stop stop-color="white"/>
<stop offset="1" stop-color="white" stop-opacity="0"/>
</radialGradient>
<linearGradient id="paint23_linear_630_46212" x1="22.0402" y1="60.2617" x2="8.28446" y2="70.8703" gradientUnits="userSpaceOnUse">
<stop offset="0.125" stop-color="#C1C1C1" stop-opacity="0.9926"/>
<stop offset="0.78125" stop-color="white"/>
</linearGradient>
<radialGradient id="paint24_radial_630_46212" cx="0" cy="0" r="1" gradientUnits="userSpaceOnUse" gradientTransform="translate(24.6482 60.1373) rotate(52.4768) scale(17.5896 2.01154)">
<stop stop-color="#00D1FF"/>
<stop offset="1" stop-color="#00D1FF" stop-opacity="0"/>
</radialGradient>
<radialGradient id="paint25_radial_630_46212" cx="0" cy="0" r="1" gradientUnits="userSpaceOnUse" gradientTransform="translate(26.8758 56.3612) rotate(52.6401) scale(11.1628 0.781466)">
<stop stop-color="white"/>
<stop offset="1" stop-color="white" stop-opacity="0"/>
</radialGradient>
</defs>
</svg>
