<?xml version="1.0" encoding="utf-8"?>
<!-- Generator: Adobe Illustrator 28.2.0, SVG Export Plug-In . SVG Version: 6.00 Build 0)  -->
<svg version="1.1" xmlns="http://www.w3.org/2000/svg" xmlns:xlink="http://www.w3.org/1999/xlink" x="0px" y="0px"
	 viewBox="0 0 21.7 17.7" style="enable-background:new 0 0 21.7 17.7;" xml:space="preserve">
<style type="text/css">
	.st0{fill:none;stroke:#ffffff;stroke-width:0.75;stroke-miterlimit:10;}
	.st1{fill:#6DECFF; animation: col 1800ms linear infinite;}<!---->
	.st2{fill:#6DECFF;}
	
	#novi {
		animation: novi_sc 1800ms linear infinite normal forwards;
		transform-origin: 50% 55%;
	}

	@keyframes novi_sc { 
		0% {transform: scale(.8)} 
		50% {transform: scale(1.1)} 
		100% {transform: scale(.8)} 
	}
	
	@keyframes col {
		0% {fill:#6DECFF}
		40% {fill:red}
		60% {fill:red}
		100% {fill:#6DECFF}
	}
	
</style>
<g id="stroke">
	<path class="st0" d="M10.9,17.3c-3.8,0-7-3-7.1-6.9c-0.2-4,2.9-7.3,6.9-7.4c1.9-0.1,3.7,0.6,5.1,1.9s2.2,3.1,2.3,5
		c0,1.2-0.2,2.4-0.7,3.4c0,0.2,0.2,0.7,0.3,1c0.4,1,0.5,1.6,0.2,1.9c-0.4,0.5-1.1,0.2-1.8-0.2c-0.2-0.1-0.6-0.3-0.7-0.3
		C15,16,14.5,16.3,14,16.6c-0.9,0.4-1.8,0.6-2.8,0.7C11.1,17.3,11,17.3,10.9,17.3L10.9,17.3z M16.9,13.1L16.9,13.1L16.9,13.1z"/>
</g>
<g id="novi">
	<path class="st1" d="M14.8,9l-0.6,4.7c0,0.1-0.1,0.2-0.3,0.2h-2.3c-0.1,0-0.2-0.1-0.2-0.2l0,0L12,8.9c0-0.2,0-0.4,0-0.6
		c0-0.3,0-0.4-0.1-0.6s-0.3-0.2-0.6-0.2c-0.4,0-0.9,0.1-0.9,0.1l-0.7,6c0,0.1-0.1,0.2-0.3,0.2H7c-0.2,0-0.2-0.1-0.2-0.2l0,0l0.8-6.7
		C7.7,6.4,8.2,6.2,9.2,6C10,5.9,11,5.7,12,5.7s1.8,0.1,2.4,0.5C14.8,6.5,15,6.9,15,7.6C14.9,8.1,14.9,8.5,14.8,9"/>
</g>
<g id="head">
	<path class="st2" d="M2.8,8.7c0.3-1.8,1-3.5,2.3-4.7c1.5-1.5,3.5-2.4,5.8-2.4s4.3,0.9,5.8,2.4C18,5.3,18.8,6.9,19,8.8
		c0.1,1.2,0.1,2.1-0.1,2.7c-0.1,0.6-0.3,1.1-0.5,1.6l1.2,0.2c0.6,0.1,1.2-0.4,1.3-1l0.4-2.6c0-0.7-0.4-1.3-1-1.4l0,0l-0.6-0.1
		c-0.1-0.5-0.2-1-0.4-1.5c0.1-0.1,0.2-0.3,0.1-0.4c-0.7-1.8-1.9-3.2-3.4-4.2s-3.3-1.6-5.1-1.6S7.2,1.1,5.7,2.1S3,4.6,2.3,6.3
		c-0.1,0.2,0,0.3,0.2,0.4c-0.2,0.5-0.3,1-0.4,1.5l0,0L1.5,8.3C0.8,8.4,0.4,9,0.5,9.6l0.4,2.6c0.1,0.6,0.7,1.1,1.3,1L3.4,13
		c-0.2-0.5-0.4-1.1-0.5-1.6c-0.1-0.6-0.2-1.1-0.2-1.7C2.7,9.3,2.8,8.7,2.8,8.7z"/>
</g>
</svg>
