<svg width="24" height="24" viewBox="0 0 24 24" fill="none" xmlns="http://www.w3.org/2000/svg">
<g clip-path="url(#clip0)">
<path d="M16.0916 23.1866C14.0352 23.1866 12.3678 21.5195 12.3678 19.4628C12.3678 17.4062 14.0352 15.739 16.0916 15.739C18.1483 15.739 19.8154 17.4062 19.8154 19.4628C19.8132 21.5186 18.1473 23.1845 16.0916 23.1866ZM16.0916 16.5665C14.4922 16.5665 13.1954 17.8632 13.1954 19.4628C13.1954 21.0624 14.4922 22.359 16.0916 22.359C17.6912 22.359 18.988 21.0624 18.988 19.4628C18.9861 17.864 17.6905 16.5683 16.0916 16.5665Z" fill="#4FB86A"/>
<path d="M20.2293 20.2903C18.1727 20.2903 16.5055 18.6231 16.5055 16.5665C16.5055 14.51 18.1727 12.8427 20.2293 12.8427C22.2859 12.8427 23.9531 14.51 23.9531 16.5665C23.9509 18.6222 22.285 20.2881 20.2293 20.2903ZM20.2293 13.6703C18.6297 13.6703 17.3329 14.9669 17.3329 16.5665C17.3329 18.1661 18.6297 19.4628 20.2293 19.4628C21.8289 19.4628 23.1257 18.1661 23.1257 16.5665C23.1238 14.9678 21.8282 13.6721 20.2293 13.6703Z" fill="#E3472C"/>
<path d="M7.81647 23.1866C5.75983 23.1866 4.09265 21.5195 4.09265 19.4628C4.09265 17.4062 5.75983 15.739 7.81647 15.739C9.87311 15.739 11.5403 17.4062 11.5403 19.4628C11.5381 21.5186 9.87219 23.1845 7.81647 23.1866ZM7.81647 16.5665C6.21686 16.5665 4.92011 17.8632 4.92011 19.4628C4.92011 21.0624 6.21686 22.359 7.81647 22.359C9.41608 22.359 10.7128 21.0624 10.7128 19.4628C10.711 17.864 9.41535 16.5683 7.81647 16.5665Z" fill="#FFBF41"/>
<path d="M3.67896 20.2903C1.6225 20.2903 -0.0446777 18.6231 -0.0446777 16.5665C-0.0446777 14.51 1.6225 12.8427 3.67896 12.8427C5.7356 12.8427 7.40277 14.51 7.40277 16.5665C7.40057 18.6222 5.73468 20.2881 3.67896 20.2903ZM3.67896 13.6703C2.07953 13.6703 0.782776 14.9669 0.782776 16.5665C0.782776 18.1661 2.07953 19.4628 3.67896 19.4628C5.27857 19.4628 6.57532 18.1661 6.57532 16.5665C6.57349 14.9678 5.27783 13.6721 3.67896 13.6703Z" fill="#2276BB"/>
<path d="M11.9542 20.2903C9.89752 20.2903 8.23035 18.6231 8.23035 16.5665C8.23035 14.51 9.89752 12.8427 11.9542 12.8427C14.0108 12.8427 15.678 14.51 15.678 16.5665C15.6756 18.6222 14.0097 20.2881 11.9542 20.2903ZM11.9542 13.6703C10.3546 13.6703 9.0578 14.9669 9.0578 16.5665C9.0578 18.1661 10.3546 19.4628 11.9542 19.4628C13.5538 19.4628 14.8503 18.1661 14.8503 16.5665C14.8485 14.9678 13.553 13.6721 11.9542 13.6703Z" fill="#0F2537"/>
<path d="M4.9353 19.1732C4.92542 19.2695 4.92029 19.3662 4.92029 19.4629C4.92047 19.6605 4.94061 19.8577 4.98071 20.0512C6.42395 19.512 7.38635 18.1405 7.40283 16.6C7.11115 16.642 6.82752 16.7286 6.5622 16.8569C6.45911 17.8593 5.84314 18.7361 4.9353 19.1732Z" fill="#2276BB"/>
<path d="M4.09276 19.4293C3.95579 19.4504 3.81755 19.4617 3.67894 19.4628C2.07951 19.4628 0.78276 18.1661 0.78276 16.5664C0.78276 14.9668 2.07933 13.6703 3.67894 13.6703C5.05186 13.6703 6.23601 14.634 6.51488 15.9781C6.77379 15.8811 7.04277 15.8135 7.31688 15.7765C6.88054 13.7668 4.89769 12.4911 2.88792 12.9274C0.877975 13.3636 -0.397538 15.3466 0.0386193 17.3564C0.410323 19.0691 1.92625 20.291 3.67894 20.2903C3.8463 20.2892 4.01329 20.2765 4.17882 20.2527C4.12224 19.9931 4.09331 19.7283 4.09276 19.4628C4.09276 19.4516 4.09276 19.4408 4.09276 19.4293Z" fill="#2276BB"/>
<path d="M7.81647 22.3589C6.21686 22.3589 4.92011 21.0624 4.92011 19.4628C4.92011 19.3661 4.92523 19.2694 4.93512 19.1731C5.03766 18.171 5.65289 17.2937 6.56036 16.8561C6.57025 16.7599 6.5752 16.6633 6.5752 16.5664C6.5752 16.3688 6.55487 16.1716 6.51477 15.9781C5.07172 16.5173 4.10913 17.8888 4.09265 19.4293V19.4628C4.09595 21.5194 5.76587 23.1838 7.82251 23.1805C9.57007 23.1776 11.0807 21.96 11.4542 20.2527C11.1803 20.2157 10.9113 20.1481 10.6524 20.0511C10.3717 21.3942 9.18866 22.3571 7.81647 22.3589Z" fill="#FFBF41"/>
<path d="M9.11835 15.9781C8.54523 15.7569 7.92468 15.6875 7.31677 15.7765C7.37354 16.0362 7.40228 16.301 7.40283 16.5665V16.6C7.97321 16.5172 8.5553 16.6067 9.07458 16.8569C9.98187 17.2945 10.5973 18.1717 10.6998 19.1741C10.9651 19.3019 11.2488 19.3879 11.5405 19.4293C11.524 17.8888 10.5614 16.5174 9.11835 15.9781Z" fill="#FFBF41"/>
<path d="M12.3678 19.4294C11.7976 19.5121 11.2155 19.4226 10.6962 19.1725C9.78876 18.7349 9.17352 17.8576 9.07099 16.8553C8.80566 16.7275 8.52203 16.6414 8.23035 16.6C8.24884 18.4487 9.62067 20.0038 11.4526 20.2528C11.7839 20.303 12.121 20.303 12.4522 20.2528C12.3962 19.9932 12.3678 19.7284 12.3678 19.4629C12.3678 19.4517 12.3678 19.4409 12.3678 19.4294Z" fill="#0F2537"/>
<path d="M13.2103 19.1732C13.2004 19.2695 13.1954 19.3662 13.1954 19.4629C13.1954 19.6605 13.2158 19.8577 13.2559 20.0512C14.6989 19.512 15.6615 18.1405 15.678 16.6C15.3861 16.642 15.1025 16.7286 14.8372 16.8569C14.7341 17.8593 14.1181 18.7361 13.2103 19.1732Z" fill="#0F2537"/>
<path d="M11.9543 12.8427C10.2032 12.8454 8.68988 14.066 8.31653 15.7767C8.59045 15.8135 8.85944 15.8813 9.11835 15.9782C9.44336 14.4119 10.9765 13.4057 12.5428 13.7307C13.6727 13.9653 14.5557 14.8482 14.7902 15.9782C15.0491 15.8813 15.3181 15.8137 15.592 15.7767C15.2185 14.066 13.7053 12.8454 11.9543 12.8427Z" fill="#0F2537"/>
<path d="M20.2293 12.8427C18.4783 12.8454 16.9649 14.066 16.5916 15.7767C16.8655 15.8135 17.1345 15.8813 17.3934 15.9781C17.7184 14.4119 19.2515 13.4057 20.8176 13.7305C22.3839 14.0555 23.3903 15.5887 23.0652 17.1548C22.7864 18.499 21.602 19.4628 20.2293 19.4628C19.7946 19.4583 19.366 19.3594 18.9732 19.1732C18.0657 18.7355 17.4505 17.8583 17.348 16.8561C17.0819 16.728 16.7979 16.6415 16.5055 16.6C16.524 18.4486 17.896 20.0037 19.7278 20.2527C19.894 20.2766 20.0616 20.2892 20.2293 20.2903C22.2859 20.2903 23.9531 18.6231 23.9531 16.5665C23.9531 14.51 22.2859 12.8427 20.2293 12.8427Z" fill="#E3472C"/>
<path d="M17.3933 15.9781C16.8202 15.7569 16.1996 15.6875 15.5919 15.7765C15.6485 16.0362 15.6774 16.301 15.678 16.5665V16.6C16.2484 16.5172 16.8303 16.6067 17.3495 16.8569C18.257 17.2945 18.8723 18.1717 18.9748 19.1741C19.2403 19.3019 19.5237 19.3879 19.8156 19.4293C19.7989 17.8888 18.8365 16.5174 17.3933 15.9781Z" fill="#4FB86A"/>
<path d="M18.9275 20.0511C18.6025 21.6174 17.0694 22.6235 15.5033 22.2985C14.1591 22.0196 13.1954 20.8355 13.1954 19.4628C13.1953 19.3661 13.2004 19.2694 13.2103 19.1731C13.3128 18.171 13.928 17.2937 14.8355 16.8561C14.8454 16.7599 14.8503 16.6633 14.8503 16.5664C14.8503 16.3688 14.83 16.1716 14.7899 15.9781C13.3469 16.5173 12.3843 17.8888 12.3678 19.4293V19.4628C12.3713 21.5194 14.0412 23.1838 16.0977 23.1805C17.8454 23.1776 19.3558 21.96 19.7294 20.2527C19.4554 20.2157 19.1865 20.1481 18.9275 20.0511Z" fill="#4FB86A"/>
<path d="M13.6091 8.29138H10.2991C8.92798 8.29138 7.81653 7.17993 7.81653 5.80884C7.81653 4.66626 8.74268 3.74011 9.88525 3.74011C11.0278 3.74011 11.9542 2.81378 11.9542 1.6712V0.84375C14.2393 0.84375 16.0916 2.69623 16.0916 4.98139V5.80884C16.0916 7.17993 14.9802 8.29138 13.6091 8.29138Z" fill="#FFBF41"/>
<path d="M9.47168 9.94653H14.4368C14.8938 9.94653 15.2642 10.317 15.2642 10.774C15.2642 11.231 14.8938 11.6014 14.4368 11.6014H9.47168C9.01465 11.6014 8.64404 11.231 8.64404 10.774C8.64404 10.317 9.01465 9.94653 9.47168 9.94653Z" fill="#D1E3EE"/>
</g>
<defs>
<clipPath id="clip0">
<rect width="24" height="24" fill="white"/>
</clipPath>
</defs>
</svg>
