<svg width="84" height="84" viewBox="0 0 84 84" fill="none" xmlns="http://www.w3.org/2000/svg">
<path d="M39.6401 30.259V84L82.211 67.9442V17.3047L39.6401 30.259Z" fill="url(#paint0_linear_630_38675)"/>
<path d="M39.6401 37.4454L82.211 24.6045V31.0155L39.6401 44.4804V37.4454Z" fill="url(#paint1_linear_630_38675)"/>
<path d="M39.7544 31.0155V38.1262L83.9809 24.0182V17.5694L39.7544 31.0155Z" fill="url(#paint2_linear_630_38675)"/>
<path d="M1.54175 15.7917V67.4903L39.6405 84V30.259L1.54175 15.7917Z" fill="url(#paint3_linear_630_38675)"/>
<path d="M0 15.9242L41.9048 4.2747L84 17.5695L39.7544 31.0155L0 15.9242Z" fill="url(#paint4_linear_630_38675)"/>
<path d="M26.6824 21.1123L53.687 12.2758L56.3294 13.1192L29.2447 22.0964L26.6824 21.1123Z" fill="url(#paint5_linear_630_38675)"/>
<path d="M39.6405 44.4804L1.54175 29.0297V22.6187L39.6405 37.4453V44.4804Z" fill="url(#paint6_linear_630_38675)"/>
<path d="M39.7544 31.0155L0 15.9241V22.5999L39.7544 38.1451V31.0155Z" fill="url(#paint7_linear_630_38675)"/>
<path d="M54.2171 13.9961L46.4471 0L24.0759 5.64857L31.1294 21.6053L54.2171 13.9961Z" fill="white"/>
<defs>
<linearGradient id="paint0_linear_630_38675" x1="37.4817" y1="77.7952" x2="84.8254" y2="15.1006" gradientUnits="userSpaceOnUse">
<stop offset="0.0328467" stop-color="#E8E8E7"/>
<stop offset="1" stop-color="#B4B4B4"/>
</linearGradient>
<linearGradient id="paint1_linear_630_38675" x1="61.9034" y1="37.7233" x2="59.9468" y2="31.2835" gradientUnits="userSpaceOnUse">
<stop offset="0.192708" stop-opacity="0"/>
<stop offset="1" stop-opacity="0.25"/>
</linearGradient>
<linearGradient id="paint2_linear_630_38675" x1="39.7637" y1="27.8584" x2="83.9962" y2="27.8584" gradientUnits="userSpaceOnUse">
<stop stop-color="#F1F1F1"/>
<stop offset="1" stop-color="#D2D4D2"/>
</linearGradient>
<linearGradient id="paint3_linear_630_38675" x1="1.5404" y1="47.9266" x2="39.6483" y2="47.9266" gradientUnits="userSpaceOnUse">
<stop offset="0.0328467" stop-color="#BFBFBF"/>
<stop offset="1" stop-color="#9F9F9F"/>
</linearGradient>
<linearGradient id="paint4_linear_630_38675" x1="0" y1="17.6544" x2="83.9962" y2="17.6544" gradientUnits="userSpaceOnUse">
<stop offset="0.0328467" stop-color="#E8E8E7"/>
<stop offset="1" stop-color="#CDCDCD"/>
</linearGradient>
<linearGradient id="paint5_linear_630_38675" x1="41.8557" y1="18.1288" x2="41.1559" y2="16.1032" gradientUnits="userSpaceOnUse">
<stop stop-color="#666666"/>
<stop offset="0.9672" stop-color="#B0B0B0"/>
</linearGradient>
<linearGradient id="paint6_linear_630_38675" x1="21.4662" y1="37.0482" x2="24.301" y2="29.6102" gradientUnits="userSpaceOnUse">
<stop offset="0.192708" stop-opacity="0"/>
<stop offset="1" stop-opacity="0.4"/>
</linearGradient>
<linearGradient id="paint7_linear_630_38675" x1="0" y1="27.034" x2="39.7637" y2="27.034" gradientUnits="userSpaceOnUse">
<stop offset="0.0328467" stop-color="#CCCDCC"/>
<stop offset="1" stop-color="#A5A5A5"/>
</linearGradient>
</defs>
</svg>
