<svg width="84" height="84" viewBox="0 0 84 84" fill="none" xmlns="http://www.w3.org/2000/svg">
<path d="M62.4422 64.7469C43.6525 84.2301 18.5678 89.8673 6.45468 77.3071C-5.65847 64.7469 -0.221864 38.7363 18.5678 19.2531C37.3575 -0.230053 62.4422 -5.86732 74.5554 6.69291C86.6685 19.2531 81.2319 45.2637 62.4422 64.7469Z" fill="url(#paint0_radial_630_45091)"/>
<path d="M70.0729 5.8028C78.9431 15.5938 74.3649 34.9781 59.8673 49.0218C45.3697 63.0656 26.3892 66.527 17.519 56.736C8.74409 46.8461 13.3223 27.4618 27.8199 13.4181C42.3175 -0.625666 61.2026 -4.08715 70.0729 5.8028Z" fill="url(#paint1_radial_630_45091)"/>
<path d="M63.9714 8.59427C71.2586 16.6968 67.4975 32.7381 55.5872 44.3599C43.6769 55.9816 28.0839 58.8462 20.7967 50.7437C13.5878 42.5593 17.3489 26.518 29.2592 14.8962C41.1695 3.27444 56.6842 0.409919 63.9714 8.59427Z" fill="url(#paint2_radial_630_45091)"/>
<g opacity="0.7">
<path d="M54.5261 0.561149H53.5723V0.46225H54.5261V0.561149Z" fill="#706F6F"/>
<path d="M53.0954 0.561127L52.1416 0.660026V0.561127H53.0954Z" fill="#706F6F"/>
<path d="M51.6647 0.758964L50.7109 0.857864V0.758964L51.6647 0.660065V0.758964Z" fill="#706F6F"/>
<path d="M50.2341 0.857841L49.2803 1.05564V0.95674L50.2341 0.758942V0.857841Z" fill="#706F6F"/>
<path d="M48.8034 1.15453L47.8496 1.35233V1.15453L48.8034 1.05563V1.15453Z" fill="#706F6F"/>
<path d="M47.3727 1.45126L46.5143 1.64905L46.4189 1.55015L47.3727 1.35236V1.45126Z" fill="#706F6F"/>
<path d="M46.0373 1.84685L45.0835 2.14354V1.94575L46.0373 1.64905V1.84685Z" fill="#706F6F"/>
<path d="M44.7018 2.24242L43.748 2.53912V2.44022L44.6065 2.14352L44.7018 2.24242Z" fill="#706F6F"/>
<path d="M43.3664 2.73695L42.4126 3.13255V2.93475L43.271 2.53915L43.3664 2.73695Z" fill="#706F6F"/>
<path d="M42.0311 3.23143L41.0773 3.62703L40.9819 3.42923L41.9357 3.03363L42.0311 3.23143Z" fill="#706F6F"/>
<path d="M40.696 3.82481L39.7422 4.22041V4.02261L40.6006 3.62701L40.696 3.82481Z" fill="#706F6F"/>
<path d="M39.361 4.41826L38.5026 4.81386L38.4072 4.61606L39.2656 4.22046L39.361 4.41826Z" fill="#706F6F"/>
<path d="M38.0251 5.01164L37.1667 5.40724L37.0713 5.20944L37.9297 4.81384L38.0251 5.01164Z" fill="#706F6F"/>
<path d="M36.7853 5.60503L35.9269 6.09952L35.8315 5.90172L36.69 5.40723L36.7853 5.60503Z" fill="#706F6F"/>
<path d="M35.5453 6.29732L34.6869 6.79181L34.4961 6.59401L35.3545 6.09952L35.5453 6.29732Z" fill="#706F6F"/>
<path d="M34.3054 7.08854L33.4469 7.58303L33.3516 7.38524L34.1146 6.79184L34.3054 7.08854Z" fill="#706F6F"/>
<path d="M33.0656 7.87971L32.3026 8.47311L32.1118 8.17641L32.8748 7.68192L33.0656 7.87971Z" fill="#706F6F"/>
<path d="M31.9206 8.67091L31.1576 9.26431L30.9668 9.06651L31.7298 8.47311L31.9206 8.67091Z" fill="#706F6F"/>
<path d="M30.7765 9.56102L30.0135 10.1544L29.8228 9.95662L30.5858 9.36322L30.7765 9.56102Z" fill="#706F6F"/>
<path d="M29.6315 10.4511L28.8685 11.0445L28.6777 10.8467L29.4408 10.2533L29.6315 10.4511Z" fill="#706F6F"/>
<path d="M28.487 11.3412L27.724 12.0335L27.5332 11.7368L28.2962 11.1434L28.487 11.3412Z" fill="#706F6F"/>
<path d="M27.3428 12.3302L26.6751 12.9236L26.4844 12.7258L27.2474 12.1324L27.3428 12.3302Z" fill="#706F6F"/>
<path d="M26.294 13.3192L25.6263 13.9126L25.4355 13.7148L26.1032 13.0225L26.294 13.3192Z" fill="#706F6F"/>
<path d="M25.2442 14.3082L24.5765 15.0005L24.3857 14.7038L25.0534 14.1104L25.2442 14.3082Z" fill="#706F6F"/>
<path d="M24.1953 15.2972L23.5277 15.9895L23.3369 15.7917L24.0046 15.0994L24.1953 15.2972Z" fill="#706F6F"/>
<path d="M23.1455 16.2861L22.5732 17.0773L22.2871 16.8795L22.9548 16.0883L23.1455 16.2861Z" fill="#706F6F"/>
<path d="M22.1924 17.3741L21.5247 18.1653L21.334 17.9675L22.0016 17.1763L22.1924 17.3741Z" fill="#706F6F"/>
<path d="M21.2383 18.462L20.5706 19.2532L20.3799 19.0554L21.0475 18.2642L21.2383 18.462Z" fill="#706F6F"/>
<path d="M20.0848 19.4201L19.4819 20.1865L19.7037 20.374L20.3066 19.6077L20.0848 19.4201Z" fill="#706F6F"/>
<path d="M19.4258 20.7366L18.8535 21.5278L18.5674 21.33L19.1397 20.5388L19.4258 20.7366Z" fill="#706F6F"/>
<path d="M18.5679 21.9234L17.9002 22.7146L17.7095 22.5168L18.2817 21.7256L18.5679 21.9234Z" fill="#706F6F"/>
<path d="M17.6141 23.1102L17.0418 23.9014L16.8511 23.7036L17.4233 22.9124L17.6141 23.1102Z" fill="#706F6F"/>
<path d="M16.7557 24.297L16.2788 25.0882L15.9927 24.8904L16.565 24.0992L16.7557 24.297Z" fill="#706F6F"/>
<path d="M15.9925 25.4838L15.4203 26.275L15.2295 26.0772L15.7064 25.286L15.9925 25.4838Z" fill="#706F6F"/>
<path d="M15.1341 26.6706L14.6572 27.5607L14.3711 27.3629L14.9434 26.5717L15.1341 26.6706Z" fill="#706F6F"/>
<path d="M14.3714 27.9563L13.7992 28.7475L13.6084 28.5497L14.0853 27.7585L14.3714 27.9563Z" fill="#706F6F"/>
<path d="M13.6078 29.1431L13.0355 30.0332L12.8447 29.8354L13.3216 29.0442L13.6078 29.1431Z" fill="#706F6F"/>
<path d="M12.8451 30.4288L12.3682 31.3189L12.082 31.1211L12.5589 30.231L12.8451 30.4288Z" fill="#706F6F"/>
<path d="M12.0819 31.7145L11.605 32.5057L11.3188 32.4068L11.7957 31.5167L12.0819 31.7145Z" fill="#706F6F"/>
<path d="M11.4144 33.0002L10.9375 33.7913L10.6514 33.6924L11.1283 32.8024L11.4144 33.0002Z" fill="#706F6F"/>
<path d="M10.6511 34.2858L10.2695 35.1759L9.9834 34.9781L10.4603 34.088L10.6511 34.2858Z" fill="#706F6F"/>
<path d="M9.98406 35.5716L9.60254 36.4617L9.31641 36.3627L9.7933 35.4727L9.98406 35.5716Z" fill="#706F6F"/>
<path d="M9.41147 36.8572L8.93457 37.7473L8.64844 37.6484L9.12533 36.7583L9.41147 36.8572Z" fill="#706F6F"/>
<path d="M8.74383 38.2418L8.36231 39.1319L8.07617 39.033L8.45769 38.1429L8.74383 38.2418Z" fill="#706F6F"/>
<path d="M8.17156 39.5275L7.79004 40.5165L7.50391 40.3187L7.88542 39.4286L8.17156 39.5275Z" fill="#706F6F"/>
<path d="M7.59913 40.9121L7.21761 41.8022L7.02686 41.7033L7.31299 40.8132L7.59913 40.9121Z" fill="#706F6F"/>
<path d="M7.12273 42.2967L6.74122 43.1868L6.45508 43.0879L6.83659 42.1978L7.12273 42.2967Z" fill="#706F6F"/>
<path d="M6.5503 43.6813L6.26416 44.6703L5.97803 44.5714L6.35954 43.5824L6.5503 43.6813Z" fill="#706F6F"/>
<path d="M6.16847 45.0659L5.78695 46.0549L5.59619 45.956L5.88233 44.967L6.16847 45.0659Z" fill="#706F6F"/>
<path d="M5.69142 46.5494L5.40528 47.4395L5.11914 47.3406L5.40528 46.4505L5.69142 46.5494Z" fill="#706F6F"/>
<path d="M5.31007 47.934L5.02393 48.8241H4.73779L5.02393 47.8351L5.31007 47.934Z" fill="#706F6F"/>
<path d="M4.83334 49.3186L4.64258 50.3076L4.35645 50.2087L4.64258 49.2197L4.83334 49.3186Z" fill="#706F6F"/>
<path d="M4.54688 50.8021L4.26075 51.6922H3.97461L4.26075 50.7032L4.54688 50.8021Z" fill="#706F6F"/>
<path d="M4.16537 52.1866L3.97461 53.1756L3.68848 53.0767L3.87923 52.1866H4.16537Z" fill="#706F6F"/>
<path d="M3.87924 53.6701L3.68848 54.6591L3.40234 54.5602L3.5931 53.5712L3.87924 53.6701Z" fill="#706F6F"/>
<path d="M3.59343 55.1536L3.49805 56.0437H3.21191L3.30729 55.0547L3.59343 55.1536Z" fill="#706F6F"/>
<path d="M3.40268 56.5382L3.21192 57.5272H2.92578L3.11654 56.5382H3.40268Z" fill="#706F6F"/>
<path d="M3.21127 58.0217L3.02051 59.0107H2.73438L2.92513 58.0217H3.21127Z" fill="#706F6F"/>
<path d="M3.02117 59.5052L2.92579 60.4942H2.63965L2.73503 59.5052H3.02117Z" fill="#706F6F"/>
<path d="M2.92546 60.9887L2.83008 61.9777H2.54395L2.63932 60.9887H2.92546Z" fill="#706F6F"/>
<path d="M2.83025 62.4722L2.73487 63.4612H2.44873L2.54411 62.4722H2.83025Z" fill="#706F6F"/>
<path d="M2.73487 63.9557V64.9447H2.44873V63.9557H2.73487Z" fill="#706F6F"/>
<path d="M2.73487 65.4392L2.83025 66.4282H2.54411L2.44873 65.4392H2.73487Z" fill="#706F6F"/>
<path d="M2.83008 66.9227V67.8128L2.54395 67.9117V66.9227H2.83008Z" fill="#706F6F"/>
<path d="M2.92579 68.3073L3.02117 69.2962L2.73503 69.3951L2.63965 68.4061L2.92579 68.3073Z" fill="#706F6F"/>
<path d="M3.11622 69.7907L3.21159 70.7797L2.92546 70.8786L2.83008 69.8896L3.11622 69.7907Z" fill="#706F6F"/>
<path d="M3.30713 71.2742L3.59327 72.1643L3.30713 72.2632L3.021 71.2742H3.30713Z" fill="#706F6F"/>
<path d="M3.68848 72.6588L4.07 73.6478L3.78386 73.7467L3.40234 72.7577L3.68848 72.6588Z" fill="#706F6F"/>
<path d="M4.16553 74.0434C4.26091 74.3401 4.45167 74.6368 4.54705 74.9335L4.26091 75.1313C4.07015 74.8346 3.97477 74.5379 3.87939 74.2412L4.16553 74.0434Z" fill="#706F6F"/>
<path d="M4.83334 75.3291L5.40561 76.1203L5.21485 76.3181L4.64258 75.5269L4.83334 75.3291Z" fill="#706F6F"/>
<path d="M5.78695 76.417L6.4546 77.1093L6.26385 77.3071L5.59619 76.6148L5.78695 76.417Z" fill="#706F6F"/>
<path d="M6.83627 77.406L7.5993 77.9005L7.50392 78.1972L6.64551 77.6038L6.83627 77.406Z" fill="#706F6F"/>
<path d="M8.0765 78.0983C8.36264 78.1972 8.64877 78.2961 8.93491 78.395L8.83953 78.6917C8.5534 78.5928 8.26726 78.4939 7.88574 78.395L8.0765 78.0983Z" fill="#706F6F"/>
<path d="M9.41178 78.4939L10.3656 78.6917L10.2702 78.9884L9.31641 78.7906L9.41178 78.4939Z" fill="#706F6F"/>
<path d="M10.7471 78.7906H11.7009V79.0873H10.7471V78.7906Z" fill="#706F6F"/>
<path d="M12.1777 78.8895H13.1315V79.1862H12.1777V78.8895Z" fill="#706F6F"/>
<path d="M13.6084 78.8895H14.5622V79.1862H13.6084V78.8895Z" fill="#706F6F"/>
<path d="M15.0391 78.8895L15.9929 78.7906V79.0873L15.0391 79.1862V78.8895Z" fill="#706F6F"/>
<path d="M16.4697 78.7906L17.4235 78.5928V78.8895L16.4697 79.0873V78.7906Z" fill="#706F6F"/>
<path d="M17.9004 78.5928L18.8542 78.395V78.6917L17.9004 78.8895V78.5928Z" fill="#706F6F"/>
<path d="M19.2354 78.2961L20.1891 78.0983L20.2845 78.395L19.3307 78.5928L19.2354 78.2961Z" fill="#706F6F"/>
<path d="M20.666 77.9994L21.6198 77.7027V77.9994L20.7614 78.2961L20.666 77.9994Z" fill="#706F6F"/>
<path d="M22.0015 77.6038L22.9553 77.3071L23.0506 77.6038L22.0968 77.9005L22.0015 77.6038Z" fill="#706F6F"/>
<path d="M23.4321 77.1093L24.2905 76.8126L24.3859 77.0104L23.5275 77.406L23.4321 77.1093Z" fill="#706F6F"/>
<path d="M24.6719 76.6148L24.8626 76.5159L25.6257 76.2192L25.721 76.5159L24.958 76.8126H24.8626L24.6719 76.6148Z" fill="#706F6F"/>
<path d="M26.1025 76.1203L26.961 75.7247L27.0563 76.0214L26.1979 76.417L26.1025 76.1203Z" fill="#706F6F"/>
<path d="M27.4385 75.6258L28.2969 75.2302L28.3923 75.5269L27.5339 75.9225L27.4385 75.6258Z" fill="#706F6F"/>
<path d="M28.7734 75.0324L29.6318 74.6368L29.7272 74.9335L28.8688 75.3291L28.7734 75.0324Z" fill="#706F6F"/>
<path d="M30.0132 74.439L30.8716 74.0434L31.0624 74.3401L30.1086 74.7357L30.0132 74.439Z" fill="#706F6F"/>
<path d="M31.3486 73.8456L32.207 73.45L32.3024 73.7467L31.444 74.1423L31.3486 73.8456Z" fill="#706F6F"/>
<path d="M32.5889 73.2522L33.4473 72.7577L33.5427 73.0544L32.7796 73.45L32.5889 73.2522Z" fill="#706F6F"/>
<path d="M33.9238 72.5599L34.6869 72.1643L34.8776 72.3621L34.0192 72.8566L33.9238 72.5599Z" fill="#706F6F"/>
<path d="M35.1636 71.8676L36.022 71.472L36.1174 71.6698L35.259 72.1643L35.1636 71.8676Z" fill="#706F6F"/>
<path d="M36.4038 71.1753L37.2622 70.6808L37.3576 70.9775L36.4992 71.472L36.4038 71.1753Z" fill="#706F6F"/>
<path d="M37.6436 70.4831L38.502 69.9886L38.5973 70.2852L37.8343 70.7797L37.6436 70.4831Z" fill="#706F6F"/>
<path d="M38.8838 69.7907L39.7422 69.2962L39.8376 69.494L39.0745 69.9885L38.8838 69.7907Z" fill="#706F6F"/>
<path d="M40.1235 68.9996L40.9819 68.5051L41.0773 68.8018L40.3143 69.2963L40.1235 68.9996Z" fill="#706F6F"/>
<path d="M41.3633 68.2084L42.2217 67.7139L42.3171 68.0106L41.554 68.5051L41.3633 68.2084Z" fill="#706F6F"/>
<path d="M42.6035 67.5161L43.3665 66.9227L43.5573 67.2194L42.6989 67.7139L42.6035 67.5161Z" fill="#706F6F"/>
<path d="M43.8433 66.7249L44.6063 66.2304L44.7971 66.4282L43.9386 66.9227L43.8433 66.7249Z" fill="#706F6F"/>
<path d="M44.9883 65.9337L45.8467 65.4392L45.9421 65.637L45.179 66.1315L44.9883 65.9337Z" fill="#706F6F"/>
<path d="M46.2275 65.1425L46.9906 64.5491L47.1813 64.8458L46.4183 65.3403L46.2275 65.1425Z" fill="#706F6F"/>
<path d="M47.3721 64.3513L48.2305 63.7579L48.3259 64.0546L47.5628 64.5491L47.3721 64.3513Z" fill="#706F6F"/>
<path d="M48.6123 63.4612L49.3753 62.9667L49.5661 63.1645L48.8031 63.7579L48.6123 63.4612Z" fill="#706F6F"/>
<path d="M49.7568 62.67L50.5199 62.0766L50.7106 62.2744L49.9476 62.8678L49.7568 62.67Z" fill="#706F6F"/>
<path d="M50.9014 61.7799L51.6644 61.1865L51.8552 61.4832L51.0921 62.0766L50.9014 61.7799Z" fill="#706F6F"/>
<path d="M52.0459 60.8898L52.8089 60.2964L52.9997 60.4942L52.2367 61.1865L52.0459 60.8898Z" fill="#706F6F"/>
<path d="M53.1904 59.9997L53.9535 59.4063L54.1442 59.6041L53.3812 60.1975L53.1904 59.9997Z" fill="#706F6F"/>
<path d="M54.335 59.1096L55.098 58.5162L55.2888 58.714L54.5257 59.3074L54.335 59.1096Z" fill="#706F6F"/>
<path d="M55.4795 58.1206L56.1471 57.5272L56.3379 57.725L55.6703 58.4173L55.4795 58.1206Z" fill="#706F6F"/>
<path d="M56.5288 57.2305L57.2918 56.5382L57.4826 56.8349L56.7196 57.4283L56.5288 57.2305Z" fill="#706F6F"/>
<path d="M57.6729 56.2415L58.3405 55.5492L58.5313 55.8459L57.7682 56.4393L57.6729 56.2415Z" fill="#706F6F"/>
<path d="M58.7227 55.2525L59.3903 54.5602L59.5811 54.8569L58.9134 55.4503L58.7227 55.2525Z" fill="#706F6F"/>
<path d="M59.7715 54.2635L60.4391 53.5712L60.6299 53.769L59.9622 54.4613L59.7715 54.2635Z" fill="#706F6F"/>
<path d="M60.8213 53.2745L61.4889 52.5822L61.6797 52.78L61.012 53.4723L60.8213 53.2745Z" fill="#706F6F"/>
<path d="M61.7744 52.1867L62.5374 51.4944L62.7282 51.7911L62.0605 52.4833L61.7744 52.1867Z" fill="#706F6F"/>
<path d="M62.8232 51.1976L63.4909 50.5053L63.6817 50.7031L63.014 51.3954L62.8232 51.1976Z" fill="#706F6F"/>
<path d="M63.873 50.1098L64.4453 49.4175L64.7315 49.6153L64.0638 50.3076L63.873 50.1098Z" fill="#706F6F"/>
<path d="M64.8267 49.0219L65.4943 48.3296L65.6851 48.5274L65.0174 49.2197L64.8267 49.0219Z" fill="#706F6F"/>
<path d="M65.7803 47.934L66.4479 47.2417L66.6387 47.4395L65.971 48.1318L65.7803 47.934Z" fill="#706F6F"/>
<path d="M66.7344 46.8461L67.402 46.1538L67.5928 46.3516L66.9251 47.0439L66.7344 46.8461Z" fill="#706F6F"/>
<path d="M67.688 45.7582L68.2603 44.967L68.5464 45.1648L67.8787 45.956L67.688 45.7582Z" fill="#706F6F"/>
<path d="M68.5464 44.5714L69.214 43.8791L69.4048 44.0769L68.8325 44.7692L68.5464 44.5714Z" fill="#706F6F"/>
<path d="M69.5 43.4835L70.0723 42.6923L70.263 42.8901L69.6908 43.6813L69.5 43.4835Z" fill="#706F6F"/>
<path d="M70.3589 42.2967L70.9312 41.5055L71.1219 41.7033L70.5496 42.4945L70.3589 42.2967Z" fill="#706F6F"/>
<path d="M71.2173 41.1099L71.7896 40.3187L71.9803 40.5165L71.408 41.3077L71.2173 41.1099Z" fill="#706F6F"/>
<path d="M72.0752 39.9231L72.5521 39.1319L72.8382 39.2308L72.266 40.1209L72.0752 39.9231Z" fill="#706F6F"/>
<path d="M72.8384 38.7363L73.4107 37.8462L73.6014 38.044L73.1245 38.8352L72.8384 38.7363Z" fill="#706F6F"/>
<path d="M73.6016 37.4506L74.1738 36.6594L74.3646 36.7583L73.8877 37.6484L73.6016 37.4506Z" fill="#706F6F"/>
<path d="M74.3643 36.1649C74.555 35.8683 74.6504 35.5716 74.8412 35.2749L75.1273 35.4727C74.9365 35.7694 74.8412 36.0661 74.6504 36.3627L74.3643 36.1649Z" fill="#706F6F"/>
<path d="M75.1279 34.8792L75.6048 34.088L75.7956 34.1869L75.3187 35.077L75.1279 34.8792Z" fill="#706F6F"/>
<path d="M75.7949 33.5935L76.2718 32.8024L76.4626 32.9013L76.0811 33.7913L75.7949 33.5935Z" fill="#706F6F"/>
<path d="M76.4629 32.3079L76.8444 31.4178L77.1305 31.5167L76.749 32.4068L76.4629 32.3079Z" fill="#706F6F"/>
<path d="M77.0352 31.0222L77.4167 30.0332L77.7028 30.1321L77.3213 31.1211L77.0352 31.0222Z" fill="#706F6F"/>
<path d="M77.6074 29.6376L77.9889 28.7475H78.1797L77.7982 29.7365L77.6074 29.6376Z" fill="#706F6F"/>
<path d="M78.084 28.253L78.3701 27.264L78.6563 27.3629L78.2747 28.3519L78.084 28.253Z" fill="#706F6F"/>
<path d="M78.561 26.8684L78.8472 25.8794L79.0379 25.9783L78.7518 26.8684H78.561Z" fill="#706F6F"/>
<path d="M78.9429 25.3849L79.1336 24.3959L79.3244 24.4948L79.1336 25.4838L78.9429 25.3849Z" fill="#706F6F"/>
<path d="M79.229 24.0003L79.4198 23.0113H79.6105L79.4198 24.0003H79.229Z" fill="#706F6F"/>
<path d="M79.5146 22.5168L79.7054 21.5278H79.8008L79.7054 22.5168H79.5146Z" fill="#706F6F"/>
<path d="M79.7061 21.0333L79.8014 20.0443H79.9922L79.8968 21.0333H79.7061Z" fill="#706F6F"/>
<path d="M79.8965 19.5498V18.5609H79.9919V19.5498H79.8965Z" fill="#706F6F"/>
<path d="M79.8967 18.0664V17.8686L79.8013 17.0774H79.8967L79.992 17.8686V18.0664H79.8967Z" fill="#706F6F"/>
<path d="M79.7054 16.6817L79.5146 15.6927H79.61L79.8008 16.5828L79.7054 16.6817Z" fill="#706F6F"/>
<path d="M79.4199 15.1983L79.1338 14.3082L79.2292 14.2093L79.5153 15.1983H79.4199Z" fill="#706F6F"/>
<path d="M78.9426 13.8137L78.561 12.9236H78.6564L79.0379 13.8137H78.9426Z" fill="#706F6F"/>
<path d="M78.3708 12.4291L77.9893 11.539L78.4662 12.4291H78.3708Z" fill="#706F6F"/>
<path d="M77.7026 11.1434L77.1304 10.3522H77.2257L77.7026 11.1434Z" fill="#706F6F"/>
<path d="M76.8442 9.9566L76.272 9.16541L76.9396 9.9566H76.8442Z" fill="#706F6F"/>
<path d="M76.1764 9.0665L75.7949 8.76981L76.1764 9.0665Z" fill="#706F6F"/>
</g>
<path d="M12.8447 65.7359C9.98362 50.4065 13.7989 29.1431 27.6288 14.3082C18.5677 25.6816 17.1371 46.4505 19.0447 65.2414L12.8447 65.7359Z" fill="#06721D"/>
<path d="M2.83036 68.7029C1.39947 48.923 10.3646 28.4224 23.8137 15.2972C23.8137 15.2972 11.1042 32.4814 9.98225 51.7841C9.98225 51.7841 8.98497 64.9912 14.5947 79.0873C9.0298 79.5818 3.49566 77.8997 2.83036 68.7029Z" fill="#3F423F"/>
<path d="M12.8447 67.7138L14.7523 75.1313C14.7523 75.1313 16.4694 76.2389 21.9057 76.1203L19.6871 67.2276L12.8447 67.7138Z" fill="#D8D20B"/>
<path d="M70.763 15.6494C68.1774 35.5827 59.9056 55.35 41.8544 65.0589C56.7073 54.6478 62.9407 31.6168 63.9284 14.0843L70.763 15.6494Z" fill="#06721D"/>
<path d="M80.5009 20.1797C76.4679 39.5693 62.268 56.5956 45.7834 65.2313C45.7834 65.2313 62.668 52.4856 69.0188 34.3037C69.0188 34.3037 73.9845 20.0793 72.4567 4.91273C77.2257 8.37421 79.6101 13.3192 80.5009 20.1797Z" fill="#3F423F"/>
<path d="M70.6539 13.987L70.6539 6.3962C70.6539 6.3962 69.1187 4.41821 63.8729 2.93472L63.959 12.443L70.6539 13.987Z" fill="#D8D20B"/>
<defs>
<radialGradient id="paint0_radial_630_45091" cx="0" cy="0" r="1" gradientUnits="userSpaceOnUse" gradientTransform="translate(37.6435 29.1431) rotate(-35.0924) scale(65.163 33.5569)">
<stop offset="0.459" stop-color="#EFF2F9"/>
<stop offset="0.5155" stop-color="#E5EBF6"/>
<stop offset="0.6818" stop-color="#CED9EE"/>
<stop offset="0.7851" stop-color="#C5D2EB"/>
<stop offset="0.7964" stop-color="#C2D0EA"/>
<stop offset="0.8624" stop-color="#B6C6E5"/>
<stop offset="0.9278" stop-color="#B2C3E4"/>
</radialGradient>
<radialGradient id="paint1_radial_630_45091" cx="0" cy="0" r="1" gradientUnits="userSpaceOnUse" gradientTransform="translate(43.8442 31.2267) rotate(-44.1267) scale(36.5773 23.9563)">
<stop offset="0.0349543" stop-color="white" stop-opacity="0.8"/>
<stop offset="0.9757" stop-color="white" stop-opacity="0"/>
</radialGradient>
<radialGradient id="paint2_radial_630_45091" cx="0" cy="0" r="1" gradientUnits="userSpaceOnUse" gradientTransform="translate(42.4237 29.6336) rotate(-44.3354) scale(30.1562 19.7547)">
<stop offset="0.0349543" stop-color="white" stop-opacity="0.8"/>
<stop offset="0.9757" stop-color="white" stop-opacity="0"/>
</radialGradient>
</defs>
</svg>
