<svg width="20" height="20" viewBox="0 0 20 20" fill="none" xmlns="http://www.w3.org/2000/svg">
<path d="M17.1705 11.9205L17.7008 12.4509L17.7009 12.4508L17.1705 11.9205ZM13.3295 11.9205L12.7991 12.4508L12.7992 12.4509L13.3295 11.9205ZM6.67053 2.82951L7.20088 2.2992L7.20082 2.29914L6.67053 2.82951ZM6.67053 6.6705L7.20082 7.20086L7.20088 7.2008L6.67053 6.6705ZM2.82948 6.6705L2.29912 7.2008L2.29918 7.20086L2.82948 6.6705ZM2.82948 2.8295L2.29918 2.29914L2.29912 2.2992L2.82948 2.8295ZM6.67052 13.3295L7.20091 12.7992L7.20079 12.7991L6.67052 13.3295ZM6.67052 17.1705L7.20079 17.7009L7.20091 17.7008L6.67052 17.1705ZM2.82948 17.1705L2.29908 17.7008L2.29921 17.7009L2.82948 17.1705ZM2.82948 13.3295L2.29921 12.7991L2.29909 12.7992L2.82948 13.3295ZM12.25 10L12.25 9.25H12.25V10ZM10.926 10.1332L10.5997 9.45789L10.5996 9.45792L10.926 10.1332ZM10.1142 11.0803L9.40738 10.8293L9.40735 10.8294L10.1142 11.0803ZM9.88585 14.1697L10.5926 14.4207L10.5926 14.4206L9.88585 14.1697ZM9.07405 15.1168L9.40032 15.7921L9.40039 15.7921L9.07405 15.1168ZM7.75 15.25V14.5V15.25ZM10.926 9.8668L10.5996 10.5421L10.5997 10.5421L10.926 9.8668ZM10.1142 8.9197L9.40735 9.17057L9.40738 9.17066L10.1142 8.9197ZM9.88585 5.83031L10.5926 5.57943L10.5926 5.57936L9.88585 5.83031ZM9.07405 4.88321L9.40041 4.20794L9.40033 4.2079L9.07405 4.88321ZM7.75 4.75V4V4.75ZM15.25 7.75V8.5C15.8015 8.5 16.1397 8.50159 16.3845 8.5345C16.6077 8.56451 16.638 8.60766 16.6402 8.60984L17.1705 8.07951L17.7008 7.54918C17.3735 7.22185 16.9739 7.10025 16.5844 7.04788C16.2164 6.99841 15.7591 7 15.25 7V7.75ZM17.1705 8.07951L16.6402 8.60984C16.6423 8.61201 16.6855 8.64232 16.7155 8.86551C16.7484 9.11027 16.75 9.44847 16.75 10L17.5 10H18.25C18.25 9.49088 18.2516 9.03358 18.2021 8.66564C18.1498 8.27612 18.0282 7.87651 17.7008 7.54918L17.1705 8.07951ZM17.5 10L16.75 10C16.75 10.5515 16.7484 10.8897 16.7155 11.1345C16.6855 11.3577 16.6423 11.388 16.6401 11.3902L17.1705 11.9205L17.7009 12.4508C18.0282 12.1235 18.1498 11.7239 18.2021 11.3344C18.2516 10.9664 18.25 10.5091 18.25 10H17.5ZM17.1705 11.9205L16.6402 11.3902C16.638 11.3923 16.6077 11.4355 16.3845 11.4655C16.1397 11.4984 15.8015 11.5 15.25 11.5V12.25V13C15.7591 13 16.2164 13.0016 16.5844 12.9521C16.9739 12.8998 17.3735 12.7782 17.7008 12.4509L17.1705 11.9205ZM15.25 12.25V11.5C14.6985 11.5 14.3603 11.4984 14.1155 11.4655C13.8923 11.4355 13.862 11.3923 13.8598 11.3902L13.3295 11.9205L12.7992 12.4509C13.1265 12.7782 13.5261 12.8998 13.9156 12.9521C14.2836 13.0016 14.7409 13 15.25 13V12.25ZM13.3295 11.9205L13.8599 11.3902C13.8577 11.388 13.8145 11.3577 13.7845 11.1345C13.7516 10.8897 13.75 10.5515 13.75 10H13L12.25 10C12.25 10.5091 12.2484 10.9664 12.2979 11.3344C12.3502 11.7239 12.4718 12.1235 12.7991 12.4508L13.3295 11.9205ZM13 10H13.75C13.75 9.44847 13.7516 9.11027 13.7845 8.86551C13.8145 8.64232 13.8577 8.61201 13.8598 8.60984L13.3295 8.0795L12.7992 7.54917C12.4718 7.87651 12.3502 8.27612 12.2979 8.66564C12.2484 9.03358 12.25 9.49088 12.25 10L13 10ZM13.3295 8.0795L13.8598 8.60984C13.862 8.60766 13.8923 8.56451 14.1155 8.5345C14.3603 8.50159 14.6985 8.5 15.25 8.5V7.75V7C14.7409 7 14.2836 6.99841 13.9156 7.04788C13.5261 7.10025 13.1265 7.22185 12.7992 7.54917L13.3295 8.0795ZM4.75 2.5V3.25C5.30153 3.25 5.63972 3.25159 5.88449 3.2845C6.10768 3.31451 6.13802 3.35766 6.14023 3.35987L6.67053 2.82951L7.20082 2.29914C6.87348 1.97184 6.47389 1.85025 6.08436 1.79788C5.71641 1.74841 5.25912 1.75 4.75 1.75V2.5ZM6.67053 2.82951L6.14017 3.35981C6.14234 3.36198 6.1855 3.3923 6.2155 3.6155C6.24841 3.86027 6.25 4.19847 6.25 4.75H7H7.75C7.75 4.24087 7.75159 3.78358 7.70213 3.41564C7.64977 3.02614 7.52818 2.62653 7.20088 2.2992L6.67053 2.82951ZM7 4.75H6.25C6.25 5.30153 6.24841 5.63974 6.2155 5.8845C6.1855 6.1077 6.14234 6.13802 6.14017 6.14019L6.67053 6.6705L7.20088 7.2008C7.52818 6.87347 7.64977 6.47386 7.70213 6.08436C7.75159 5.71642 7.75 5.25913 7.75 4.75H7ZM6.67053 6.6705L6.14023 6.14013C6.13802 6.14234 6.10768 6.18549 5.88449 6.2155C5.63972 6.24841 5.30153 6.25 4.75 6.25V7L4.75 7.75C5.25912 7.75 5.71641 7.75159 6.08436 7.70212C6.47389 7.64975 6.87348 7.52816 7.20082 7.20086L6.67053 6.6705ZM4.75 7V6.25C4.19847 6.25 3.86028 6.24841 3.61551 6.2155C3.39233 6.18549 3.36198 6.14234 3.35977 6.14013L2.82948 6.6705L2.29918 7.20086C2.62652 7.52816 3.02611 7.64975 3.41564 7.70212C3.78359 7.75159 4.24088 7.75 4.75 7.75L4.75 7ZM2.82948 6.6705L3.35983 6.14019C3.35766 6.13802 3.3145 6.1077 3.2845 5.8845C3.25159 5.63973 3.25 5.30153 3.25 4.75H2.5H1.75C1.75 5.25913 1.74841 5.71642 1.79787 6.08436C1.85023 6.47386 1.97182 6.87347 2.29912 7.2008L2.82948 6.6705ZM2.5 4.75H3.25C3.25 4.19847 3.25159 3.86026 3.2845 3.6155C3.3145 3.3923 3.35766 3.36198 3.35983 3.35981L2.82948 2.8295L2.29912 2.2992C1.97182 2.62653 1.85024 3.02614 1.79787 3.41564C1.74841 3.78358 1.75 4.24087 1.75 4.75H2.5ZM2.82948 2.8295L3.35977 3.35987C3.36198 3.35766 3.39233 3.31451 3.61551 3.2845C3.86028 3.25159 4.19847 3.25 4.75 3.25V2.5V1.75C4.24088 1.75 3.78359 1.74841 3.41564 1.79788C3.02611 1.85025 2.62652 1.97184 2.29918 2.29914L2.82948 2.8295ZM4.75 13V13.75C5.30152 13.75 5.63973 13.7516 5.8845 13.7845C6.1077 13.8145 6.13805 13.8577 6.14025 13.8599L6.67052 13.3295L7.20079 12.7991C6.87345 12.4718 6.47387 12.3502 6.08435 12.2979C5.71641 12.2484 5.25913 12.25 4.75 12.25V13ZM6.67052 13.3295L6.14013 13.8597C6.14234 13.862 6.1855 13.8923 6.2155 14.1155C6.24841 14.3603 6.25 14.6985 6.25 15.25H7H7.75C7.75 14.7409 7.75159 14.2836 7.70213 13.9156C7.64977 13.5261 7.52818 13.1265 7.20091 12.7992L6.67052 13.3295ZM7 15.25H6.25C6.25 15.8015 6.24841 16.1397 6.2155 16.3845C6.1855 16.6077 6.14234 16.638 6.14013 16.6403L6.67052 17.1705L7.20091 17.7008C7.52818 17.3735 7.64977 16.9739 7.70213 16.5844C7.75159 16.2164 7.75 15.7591 7.75 15.25H7ZM6.67052 17.1705L6.14025 16.6401C6.13805 16.6423 6.1077 16.6855 5.8845 16.7155C5.63973 16.7484 5.30152 16.75 4.75 16.75V17.5V18.25C5.25913 18.25 5.71641 18.2516 6.08435 18.2021C6.47387 18.1498 6.87345 18.0282 7.20079 17.7009L6.67052 17.1705ZM4.75 17.5V16.75C4.19848 16.75 3.86027 16.7484 3.6155 16.7155C3.3923 16.6855 3.36195 16.6423 3.35975 16.6401L2.82948 17.1705L2.29921 17.7009C2.62655 18.0282 3.02613 18.1498 3.41565 18.2021C3.78359 18.2516 4.24087 18.25 4.75 18.25V17.5ZM2.82948 17.1705L3.35987 16.6403C3.35766 16.638 3.3145 16.6077 3.2845 16.3845C3.25159 16.1397 3.25 15.8015 3.25 15.25H2.5H1.75C1.75 15.7591 1.74841 16.2164 1.79787 16.5844C1.85023 16.9739 1.97182 17.3735 2.29908 17.7008L2.82948 17.1705ZM2.5 15.25H3.25C3.25 14.6985 3.25159 14.3603 3.2845 14.1155C3.3145 13.8923 3.35766 13.862 3.35987 13.8597L2.82948 13.3295L2.29909 12.7992C1.97182 13.1265 1.85024 13.5261 1.79787 13.9156C1.74841 14.2836 1.75 14.7409 1.75 15.25H2.5ZM2.82948 13.3295L3.35975 13.8599C3.36195 13.8577 3.3923 13.8145 3.6155 13.7845C3.86027 13.7516 4.19848 13.75 4.75 13.75V13V12.25C4.24087 12.25 3.78359 12.2484 3.41565 12.2979C3.02613 12.3502 2.62655 12.4718 2.29921 12.7991L2.82948 13.3295ZM13 10L13 9.25L12.25 9.25L12.25 10L12.25 10.75L13 10.75L13 10ZM12.25 10V9.25C11.9125 9.25 11.6156 9.24945 11.3698 9.26901C11.1145 9.28933 10.8549 9.33458 10.5997 9.45789L10.926 10.1332L11.2522 10.8085C11.2727 10.7986 11.3257 10.7773 11.4888 10.7643C11.6613 10.7506 11.8886 10.75 12.25 10.75V10ZM10.926 10.1332L10.5996 9.45792C10.0333 9.73159 9.61739 10.2379 9.40738 10.8293L10.1142 11.0803L10.8209 11.3313C10.9154 11.0652 11.0836 10.89 11.2523 10.8085L10.926 10.1332ZM10.1142 11.0803L9.40735 10.8294C9.31639 11.0857 9.28168 11.3478 9.26555 11.6237C9.2497 11.8947 9.25 12.2261 9.25 12.625H10H10.75C10.75 12.2085 10.7503 11.9283 10.763 11.7113C10.7754 11.499 10.7978 11.3965 10.8209 11.3312L10.1142 11.0803ZM10 12.625H9.25C9.25 13.0415 9.2497 13.3217 9.23701 13.5388C9.2246 13.751 9.20224 13.8535 9.17905 13.9188L9.88585 14.1697L10.5926 14.4206C10.6836 14.1643 10.7183 13.9022 10.7345 13.6263C10.7503 13.3553 10.75 13.0239 10.75 12.625H10ZM9.88585 14.1697L9.17908 13.9187C9.08459 14.1848 8.91641 14.36 8.74771 14.4415L9.07405 15.1168L9.40039 15.7921C9.96669 15.5184 10.3826 15.0121 10.5926 14.4207L9.88585 14.1697ZM9.07405 15.1168L8.74778 14.4415C8.7273 14.4514 8.67433 14.4727 8.51123 14.4857C8.33868 14.4994 8.11142 14.5 7.75 14.5V15.25V16C8.08751 16 8.38442 16.0006 8.63024 15.981C8.88551 15.9607 9.1451 15.9154 9.40032 15.7921L9.07405 15.1168ZM7.75 15.25V14.5H7V15.25V16H7.75V15.25ZM12.25 10V9.25C11.8886 9.25 11.6613 9.24945 11.4888 9.23571C11.3257 9.22273 11.2727 9.20138 11.2522 9.19149L10.926 9.8668L10.5997 10.5421C10.8549 10.6654 11.1145 10.7107 11.3698 10.731C11.6156 10.7506 11.9125 10.75 12.25 10.75V10ZM10.926 9.8668L11.2523 9.19152C11.0836 9.10999 10.9154 8.93485 10.8209 8.66874L10.1142 8.9197L9.40738 9.17066C9.61739 9.7621 10.0333 10.2684 10.5996 10.5421L10.926 9.8668ZM10.1142 8.9197L10.8209 8.66883C10.7978 8.6035 10.7754 8.50098 10.763 8.28875C10.7503 8.07168 10.75 7.7915 10.75 7.375H10H9.25C9.25 7.7739 9.2497 8.10527 9.26555 8.3763C9.28168 8.65217 9.31639 8.9143 9.40735 9.17057L10.1142 8.9197ZM10 7.375H10.75C10.75 6.9761 10.7503 6.64473 10.7345 6.3737C10.7183 6.09783 10.6836 5.8357 10.5926 5.57943L9.88585 5.83031L9.17906 6.08119C9.20224 6.14651 9.2246 6.24903 9.23701 6.46125C9.2497 6.67832 9.25 6.9585 9.25 7.375H10ZM9.88585 5.83031L10.5926 5.57936C10.3826 4.98784 9.96666 4.48161 9.40041 4.20794L9.07405 4.88321L8.74769 5.55848C8.91644 5.64003 9.0846 5.81516 9.17908 6.08125L9.88585 5.83031ZM9.07405 4.88321L9.40033 4.2079C9.14511 4.08459 8.88551 4.03933 8.63025 4.01902C8.38442 3.99945 8.08751 4 7.75 4V4.75V5.5C8.11142 5.5 8.33868 5.50055 8.51122 5.51429C8.67433 5.52727 8.72729 5.54862 8.74777 5.55851L9.07405 4.88321ZM7.75 4.75V4H7V4.75V5.5H7.75V4.75Z" fill="white"/>
</svg>
