<svg width="20" height="20" viewBox="0 0 20 20" fill="none" xmlns="http://www.w3.org/2000/svg">
<path d="M6.66732 13.7502V8.75016M10.0007 13.7502V6.25016M13.334 13.7502V9.5835M2.08398 12.9168C2.08398 15.2738 2.08398 16.4523 2.81622 17.1846C3.54845 17.9168 4.72696 17.9168 7.08398 17.9168H12.9173C15.2743 17.9168 16.4528 17.9168 17.1851 17.1846C17.9173 16.4523 17.9173 15.2738 17.9173 12.9168V7.0835C17.9173 4.72647 17.9173 3.54796 17.1851 2.81573C16.4528 2.0835 15.2743 2.0835 12.9173 2.0835H7.08398C4.72696 2.0835 3.54845 2.0835 2.81622 2.81573C2.08398 3.54796 2.08398 4.72647 2.08398 7.0835V12.9168Z" stroke="#0A1324" stroke-width="1.67" stroke-linecap="round"/>
</svg>
