<svg width="21" height="20" viewBox="0 0 21 20" fill="none" xmlns="http://www.w3.org/2000/svg">
<path d="M12.183 2.5H8.98301C6.35962 2.5 5.04794 2.5 4.11814 3.26296C3.77414 3.54522 3.47493 3.89585 3.23406 4.29898C2.58301 5.38859 2.58301 6.92572 2.58301 10C2.58301 13.0743 2.58301 14.6114 3.23406 15.701C3.47493 16.1042 3.77414 16.4548 4.11814 16.7371C5.04794 17.5 6.35962 17.5 8.98301 17.5H12.183C14.8064 17.5 16.118 17.5 17.0479 16.7371C17.3919 16.4548 17.6911 16.1042 17.932 15.701C18.583 14.6114 18.583 13.0743 18.583 10C18.583 6.92572 18.583 5.38859 17.932 4.29898C17.6911 3.89585 17.3919 3.54522 17.0479 3.26296C16.118 2.5 14.8064 2.5 12.183 2.5Z" stroke="white" stroke-width="1.5" stroke-linecap="round"/>
<path d="M14.75 9.94779L8.5 13.5562L8.5 6.33936L14.75 9.94779Z" fill="white"/>
</svg>
