<svg width="20" height="20" viewBox="0 0 20 20" fill="none" xmlns="http://www.w3.org/2000/svg">
<path d="M11.666 2.0835H8.33268C5.59999 2.0835 4.23365 2.0835 3.26511 2.88884C2.90677 3.18678 2.5951 3.5569 2.3442 3.98242C1.66602 5.13256 1.66602 6.75509 1.66602 10.0002C1.66602 13.2452 1.66602 14.8677 2.3442 16.0179C2.5951 16.4434 2.90677 16.8135 3.26511 17.1115C4.23365 17.9168 5.59999 17.9168 8.33268 17.9168H11.666C14.3987 17.9168 15.765 17.9168 16.7336 17.1115C17.0919 16.8135 17.4036 16.4434 17.6545 16.0179C18.3327 14.8677 18.3327 13.2452 18.3327 10.0002C18.3327 6.75509 18.3327 5.13256 17.6545 3.98242C17.4036 3.5569 17.0919 3.18678 16.7336 2.88884C15.765 2.0835 14.3987 2.0835 11.666 2.0835Z" stroke="#0A1324" stroke-width="1.67" stroke-linecap="round"/>
<path d="M12.875 8.9929C13.5417 9.3778 13.5417 10.3401 12.875 10.725L9.625 12.6013C8.95833 12.9862 8.125 12.5051 8.125 11.7353L8.125 7.98254C8.125 7.21274 8.95833 6.73161 9.625 7.11651L12.875 8.9929Z" fill="#0A1324"/>
</svg>
