<svg width="23" height="18" viewBox="0 0 23 18" fill="none" xmlns="http://www.w3.org/2000/svg">
<g clip-path="url(#clip0_2126_272387)">
<rect y="0.5" width="23" height="17" rx="3.98" fill="#3195F8"/>
<path d="M11.9947 -1.2849C12.1313 -1.2849 12.242 -1.17418 12.242 -1.03759V2.69359C12.242 2.83018 12.3527 2.94091 12.4893 2.94091H23.2474C23.384 2.94091 23.4947 3.05163 23.4947 3.18822V3.93015C23.4947 4.06674 23.384 4.17746 23.2474 4.17746H18.6721C18.5355 4.17746 18.4248 4.28819 18.4248 4.42478V13.5753C18.4248 13.7119 18.5355 13.8226 18.6721 13.8226H23.2474C23.384 13.8226 23.4947 13.9334 23.4947 14.0699V14.8119C23.4947 14.9485 23.384 15.0592 23.2474 15.0592H12.4893C12.3527 15.0592 12.242 15.1699 12.242 15.3065V19.0377C12.242 19.1743 12.1313 19.285 11.9947 19.285H11.2528C11.1162 19.285 11.0054 19.1743 11.0054 19.0377V15.3065C11.0054 15.1699 10.8947 15.0592 10.7581 15.0592H-0.247241C-0.383828 15.0592 -0.494553 14.9485 -0.494553 14.8119V14.0699C-0.494553 13.9334 -0.383827 13.8226 -0.247241 13.8226H4.32803C4.46462 13.8226 4.57534 13.7119 4.57534 13.5753V4.42478C4.57534 4.28819 4.46462 4.17746 4.32803 4.17746H-0.247241C-0.383828 4.17746 -0.494553 4.06674 -0.494553 3.93015V3.18822C-0.494553 3.05163 -0.383827 2.94091 -0.247241 2.94091H10.7581C10.8947 2.94091 11.0054 2.83018 11.0054 2.69359V-1.03759C11.0054 -1.17418 11.1162 -1.2849 11.2528 -1.2849H11.9947ZM12.242 13.5753C12.242 13.7119 12.3527 13.8226 12.4893 13.8226H16.9409C17.0775 13.8226 17.1882 13.7119 17.1882 13.5753V9.86564C17.1882 9.72905 17.0775 9.61833 16.9409 9.61833H12.4893C12.3527 9.61833 12.242 9.72905 12.242 9.86564V13.5753ZM5.8119 13.5753C5.8119 13.7119 5.92262 13.8226 6.05921 13.8226H10.7581C10.8947 13.8226 11.0054 13.7119 11.0054 13.5753V9.86564C11.0054 9.72905 10.8947 9.61833 10.7581 9.61833H6.05921C5.92262 9.61833 5.8119 9.72905 5.8119 9.86564V13.5753ZM12.242 8.13445C12.242 8.27104 12.3527 8.38177 12.4893 8.38177H16.9409C17.0775 8.38177 17.1882 8.27104 17.1882 8.13445V4.42478C17.1882 4.28819 17.0775 4.17746 16.9409 4.17746H12.4893C12.3527 4.17746 12.242 4.28819 12.242 4.42478V8.13445ZM5.8119 8.13445C5.8119 8.27104 5.92262 8.38177 6.05921 8.38177H10.7581C10.8947 8.38177 11.0054 8.27104 11.0054 8.13445V4.42478C11.0054 4.28819 10.8947 4.17746 10.7581 4.17746H6.05921C5.92262 4.17746 5.8119 4.28819 5.8119 4.42478V8.13445Z" fill="white" fill-opacity="0.7"/>
</g>
<defs>
<clipPath id="clip0_2126_272387">
<rect y="0.5" width="23" height="17" rx="3.98" fill="white"/>
</clipPath>
</defs>
</svg>
