<svg width="84" height="84" viewBox="0 0 84 84" fill="none" xmlns="http://www.w3.org/2000/svg">
<path d="M83.9894 41.6669C84.5044 64.5331 66.1138 83.4818 42.9269 83.9896C19.74 84.4974 0.5255 66.3612 0.0105632 43.495C-0.504374 20.6289 17.8715 1.68014 41.0731 1.17232C64.26 0.66451 83.4745 18.7862 83.9894 41.6669Z" fill="url(#paint0_radial_630_43855)"/>
<path d="M81.1208 53.2595L81.0767 53.1289C81.0473 53.0419 81.0179 52.9693 80.9884 52.9113C79.6496 49.4146 77.8252 46.0486 75.4418 42.5954L75.3388 42.4503L75.4124 42.3052C77.222 38.7796 78.5903 34.9347 79.8261 29.871C79.8409 29.7985 79.8703 29.6969 79.8997 29.5809L79.9291 29.4793C80.7383 26.4904 80.3999 26.1277 80.2969 26.0117L80.091 26.1567L79.9733 26.0842C78.9875 31.8298 76.7512 37.2416 76.7512 37.2416C76.7512 37.2416 76.3834 38.2427 75.9568 39.1568C71.5283 49.6323 64.6281 57.264 59.2875 62.5017C59.0962 62.6904 58.8756 62.9225 58.6402 63.1692L58.6107 63.1982C57.0659 64.7797 55.6094 66.216 54.5501 66.3466C54.4618 66.3611 54.3735 66.3611 54.2853 66.3611C53.5643 66.3611 52.6669 66.0709 51.8871 65.8098C51.5046 65.6792 51.1221 65.5631 50.769 65.4761C46.7966 64.475 43.7805 63.4883 40.3378 62.081L39.9553 61.9214L40.2348 61.6312C50.0186 51.0687 58.4342 38.0106 65.8051 21.9201C68.012 16.9435 69.395 13.1277 69.8069 11.9815C69.7187 11.8944 69.6598 11.7928 69.601 11.7058L69.3508 11.3576L69.189 11.7638C62.6125 27.39 54.1676 45.207 41.4118 58.889C41.2059 59.1066 41.0146 59.3388 40.8528 59.5419C40.2643 60.2383 39.6758 60.9638 38.7783 61.3265L38.6606 61.37L38.0574 61.0799C34.3057 59.3243 30.4363 57.5252 27.332 55.0151L27.1848 54.8845L27.2437 54.6959C32.7903 38.8231 39.5139 25.1991 47.2527 14.0417C47.238 14.0562 47.238 14.0562 47.238 14.0562L48.7092 11.9815C51.6076 7.90444 54.3588 4.53836 55.271 3.45018L55.1092 3.39215C55.0062 3.34862 54.9179 3.33411 54.8149 3.33411C54.2853 3.33411 53.8145 3.92898 53.4025 4.4513C53.2848 4.59639 53.1818 4.72697 53.0935 4.84304C40.2495 19.5697 32.0694 38.8666 26.3757 54.043L26.2432 54.3912L25.9343 54.1736C23.5067 52.476 21.8295 51.0251 19.9316 49.0084L19.6521 48.7037C18.2102 47.1803 15.5178 44.351 15.2972 42.3488C15.1647 41.1155 15.7091 39.0988 16.1946 37.3141C16.3123 36.9079 16.4447 36.3711 16.5771 35.8778C18.681 27.361 21.4911 20.3241 25.1987 14.4625C25.64 13.6065 26.2874 12.7504 26.2874 12.7504C30.0685 6.90332 34.0556 3.33411 36.0271 1.78165L36.0123 1.72361H35.6298L35.571 1.76714C35.4238 1.85419 35.2473 1.88321 35.1149 1.89772C35.0707 1.89772 35.0119 1.91223 34.9678 1.92674L34.9089 1.94125L34.8648 1.98478C30.8041 5.26381 27.5821 9.39886 24.7131 13.3743L24.6102 13.5194L24.4336 13.4904C22.6093 13.1712 20.1229 12.9826 17.7836 12.9826C16.1652 12.9826 14.6351 13.0696 13.3698 13.2437C12.9284 13.3018 12.5018 13.3743 12.1781 13.4759C11.9574 13.708 11.722 13.9257 11.5013 14.1578C15.1942 13.6645 18.9017 13.8386 21.1086 14.0417C21.9619 14.0998 22.8447 14.2013 23.7568 14.3174L24.1688 14.3754L23.9628 14.7382C21.8001 18.5685 19.3872 23.1969 17.7689 28.5652L17.6953 28.7974L17.4599 28.7684C15.8268 28.5652 14.0907 28.4492 12.2958 28.4492C8.76481 28.4492 5.17496 28.8699 2.12947 29.6244C2.0412 29.8855 1.95292 30.1467 1.87936 30.4079C5.29266 29.6679 9.63284 29.4793 9.63284 29.4793L9.61813 29.4938C10.5156 29.4358 11.3983 29.4068 12.2811 29.4068C13.973 29.4068 15.5767 29.5083 17.0479 29.7114L17.401 29.755L17.2833 30.0742C16.1505 33.2226 15.4296 36.8499 14.7234 40.3465L14.6204 40.8253C14.5321 41.2316 14.4585 41.6378 14.3703 42.0296L14.3408 42.2037L14.1643 42.2472C11.7956 42.8276 10.2361 43.0887 7.69079 43.7561C5.85173 44.3075 2.37959 45.8599 0.260986 46.9916C0.290411 47.2238 0.305124 47.4559 0.334549 47.6736C0.702361 47.5575 1.08489 47.3689 1.48212 47.1803C2.11476 46.8756 3.64486 45.889 4.38048 45.8019L4.61588 45.7729L4.68945 45.9905C7.66137 55.2618 14.7675 63.2997 23.9922 69.1904C32.2459 74.4571 41.3383 77.475 52.6669 77.6056C53.7997 77.6201 54.9326 77.6056 56.0655 77.5621L56.3156 77.5476L56.3597 77.7942C56.4774 78.5342 56.6834 78.9549 56.757 79.6514V79.6804C56.8158 80.2172 56.8747 80.7831 56.9482 81.3199C57.1836 81.2328 57.4337 81.1313 57.6691 81.0442C57.5661 78.5196 57.0218 75.9371 56.8599 74.8924C56.5363 72.9772 56.1979 70.7283 55.8301 68.9002L55.4917 67.2462L55.6241 67.1446C58.7579 64.4604 61.9799 61.283 65.7463 57.1624L65.9964 56.8868L66.2024 57.1915C68.0267 59.9917 69.5715 63.9671 70.5867 68.4214C70.8515 69.4806 71.1163 70.6703 71.3517 71.9181C71.3959 71.9906 71.4547 72.0486 71.5283 72.1067C71.7196 71.9181 71.9108 71.7295 72.1021 71.5408C72.1757 70.7864 71.9402 69.9303 71.7196 69.1033C71.646 68.8277 71.5724 68.552 71.5136 68.3053C70.4543 63.6479 68.7476 59.3243 66.732 56.1323L66.629 55.9582L66.7615 55.7986C69.5421 52.389 72.1462 48.5151 74.7209 43.9593L74.9416 43.582L75.2064 43.9302C76.1922 45.2506 77.1926 46.9336 78.1195 48.7327C78.4285 49.2841 80.2969 52.5776 81.2974 56.1178C81.4151 56.2339 81.5475 56.2919 81.6799 56.3064C81.7682 56.0598 81.8565 55.8131 81.93 55.5664C81.827 55.1457 81.6211 54.4493 81.1208 53.2595ZM56.0949 76.2853L56.139 76.59L55.8301 76.6045C54.7119 76.648 53.5791 76.6625 52.4609 76.648C41.353 76.5174 32.7315 73.5866 24.4189 68.2763C15.3413 62.4727 8.41171 54.6524 5.54277 45.7003L5.46921 45.4537L5.71932 45.3521C8.02918 44.4526 9.75054 44.264 12.3105 43.6256C12.9137 43.4805 13.5169 43.3209 14.1202 43.1613L14.3261 43.1032L14.4438 43.2773C21.6088 54.7685 34.3204 62.4437 54.4618 67.4058L54.6531 67.4493L54.6825 67.6379C54.8885 69.0163 55.168 70.3946 55.4181 71.6134L55.4328 71.6569C55.6829 73.0353 55.9036 74.8199 56.0949 76.2853Z" fill="url(#paint1_radial_630_43855)"/>
<path d="M56.286 77.5332V77.5622C56.4625 77.272 56.6538 76.9818 56.8598 76.6916C56.6097 76.6481 56.3743 76.5901 56.1242 76.5465V76.6046L55.8152 76.6191C54.697 76.6626 53.5642 76.6771 52.446 76.6626C41.3381 76.532 32.7166 73.6012 24.404 68.2909C15.3411 62.4728 8.41155 54.6525 5.54261 45.7005L5.46905 45.4683C5.30721 45.3522 5.16008 45.2217 5.01296 45.0911C4.88055 45.3232 4.74814 45.5409 4.61572 45.773L4.67457 45.9616C7.6465 55.2329 14.7526 63.2708 23.9774 69.1615C32.2311 74.4282 41.3234 77.4461 52.652 77.5767C53.7849 77.5912 54.9177 77.5767 56.0506 77.5332H56.286Z" fill="url(#paint2_radial_630_43855)"/>
<path d="M80.1062 25.9539H80.0914C80.0617 25.9539 80.0321 25.9539 79.9875 25.9682C79.9875 25.9826 79.9875 25.9826 79.9875 25.9969C80.0321 25.9682 80.0766 25.9539 80.1062 25.9539Z" fill="url(#paint3_radial_630_43855)"/>
<path d="M81.5621 52.3892L81.518 52.2586C81.4885 52.1715 81.4591 52.099 81.4297 52.041C80.0908 48.5443 78.2665 45.1782 75.8831 41.7251L75.7801 41.58L75.8536 41.4349C77.6633 37.9092 79.0315 34.0643 80.2674 29.0007C80.2821 28.9281 80.3115 28.8266 80.341 28.7105L80.3704 28.6089C80.5911 27.8109 80.7235 27.2016 80.797 26.7228C80.6499 26.3601 80.4881 25.9973 80.3262 25.6346C79.3111 31.2351 77.1778 36.3712 77.1778 36.3712C77.1778 36.3712 76.81 37.3724 76.3833 38.2864C71.9548 48.7619 65.0547 56.3936 59.714 61.6314C59.5228 61.82 59.3021 62.0521 59.0667 62.2988L59.0373 62.3278C57.4925 63.9093 56.0359 65.3457 54.9766 65.4763C54.8884 65.4908 54.8001 65.4908 54.7118 65.4908C54.2851 65.4908 53.5495 65.3457 53.0493 65.2151C52.7109 65.1135 51.0484 64.6057 50.5923 64.4897C47.282 63.6046 43.7804 62.4439 40.7496 61.2106L40.3671 61.051L40.6467 60.7608C50.4599 50.1983 58.8754 37.1402 66.2464 21.0498C68.1443 16.7696 69.439 13.331 70.0128 11.735C69.8215 11.5754 69.645 11.4013 69.4537 11.2417C62.8919 26.7808 54.4911 44.4382 41.8384 58.0186C41.6324 58.2363 41.4411 58.4684 41.2793 58.6716C40.6908 59.368 40.1023 60.0934 39.2048 60.4562L39.0871 60.4997L38.4839 60.2095C34.7322 58.4539 30.8629 56.6548 27.7585 54.1448L27.6114 54.0142L27.6702 53.8256C33.2169 37.9527 39.9405 24.3288 47.6792 13.1714C47.6645 13.1859 47.6645 13.1859 47.6645 13.1859L49.1358 11.1111C51.6075 7.62895 53.9615 4.68363 55.1679 3.20371C54.9031 3.11666 54.6235 3.02961 54.344 2.94255C54.1527 3.13117 53.9762 3.3488 53.8143 3.56644C53.6966 3.71153 53.5937 3.84211 53.5054 3.95818C40.6908 18.6993 32.5107 37.9963 26.8169 53.1726L26.6845 53.5209L26.3756 53.3032C23.948 51.6057 22.2708 50.1548 20.3729 48.138L20.0933 47.8333C18.6515 46.3099 15.9591 43.4806 15.7384 41.4784C15.606 40.2451 16.1504 38.2284 16.6359 36.4438C16.7536 36.0375 16.886 35.5007 17.0184 35.0074C19.1223 26.4906 21.9324 19.4538 25.6399 13.5921C26.0813 12.7361 26.7286 11.8801 26.7286 11.8801C30.0095 6.83096 33.4228 3.47938 35.5561 1.65125C35.1589 1.70929 34.7617 1.78183 34.3791 1.85438C30.7452 5.00283 27.7879 8.80418 25.1397 12.4895L25.0367 12.6346L24.8602 12.6055C23.0358 12.2863 20.5494 12.0977 18.2101 12.0977C16.5917 12.0977 15.0616 12.1848 13.7964 12.3589C13.6051 12.3879 13.3991 12.4169 13.2226 12.4459C12.943 12.7071 12.6782 12.9537 12.4134 13.2149C15.9444 12.7942 19.4313 12.9683 21.5499 13.1569C22.4032 13.2149 23.2859 13.3165 24.1981 13.4325L24.6101 13.4906L24.4041 13.8533C22.2413 17.6837 19.8285 22.312 18.2101 27.6804L18.1366 27.9125L17.9012 27.8835C16.2681 27.6804 14.532 27.5643 12.7371 27.5643C9.14723 27.5643 5.49853 27.9996 2.40891 28.7685C2.32063 29.0297 2.21764 29.2909 2.12937 29.552C5.55738 28.783 10.0447 28.5799 10.0447 28.5799L10.03 28.5944C10.9274 28.5364 11.8102 28.5074 12.6929 28.5074C14.3849 28.5074 15.9885 28.6089 17.4598 28.8121L17.8129 28.8556L17.6952 29.1748C16.5623 32.3232 15.8414 35.9505 15.1352 39.4472L15.0322 39.9259C14.9439 40.3322 14.8704 40.7385 14.7821 41.1302L14.7527 41.3043L14.5761 41.3478C12.2074 41.9282 10.692 42.2184 8.14678 42.8858C6.16059 43.4806 2.37948 45.1202 0.172607 46.3679C0.172607 46.426 0.18732 46.484 0.18732 46.5566C0.202032 46.6001 0.216745 46.6291 0.216745 46.6726L0.275595 46.9193L0.525707 46.8612C0.967082 46.7452 1.42317 46.542 1.90868 46.2954C2.54132 45.9907 4.11555 45.0186 4.85118 44.9315L5.08658 44.9025L5.14543 45.1202C8.11735 54.3914 15.1793 62.4149 24.4041 68.3055C32.6578 73.5723 41.7648 76.5901 53.0787 76.7207C54.2116 76.7352 55.3444 76.7207 56.4773 76.6772L56.7274 76.6627L56.7715 76.9093C56.8892 77.6493 57.0805 78.0555 57.1541 78.7665V78.7955C57.2276 79.4194 57.2865 80.0723 57.3895 80.6817L57.4336 80.9573L57.7131 80.8703C57.8308 80.8268 57.9485 80.7977 58.0957 80.7687C58.0515 78.1426 57.4483 75.1393 57.2718 74.0075C56.9481 72.0924 56.6097 69.8435 56.2272 68.0008L55.8888 66.3468L56.0212 66.2452C59.155 63.5611 62.377 60.3836 66.1434 56.2631L66.3935 55.9874L66.5995 56.2921C68.4238 59.0923 69.9687 63.0678 70.9838 67.522C71.2486 68.5812 71.5135 69.7709 71.7489 71.0187C71.8224 71.1203 71.9254 71.2073 72.0284 71.2799L72.1755 71.3814C72.2491 71.3089 72.3079 71.2363 72.3815 71.1783V71.1638C72.6758 70.2933 72.3815 69.2341 72.102 68.204C72.0284 67.9283 71.9548 67.6526 71.896 67.406C70.8367 62.7486 69.13 58.4249 67.1144 55.2329L67.0114 55.0588L67.1439 54.8992C69.9245 51.4896 72.5286 47.6157 75.1033 43.0599L75.324 42.6827L75.5888 43.0309C76.5746 44.3512 77.575 46.0342 78.5019 47.8333C78.8109 48.3847 80.6793 51.6782 81.6798 55.2184C81.7534 55.291 81.8416 55.349 81.9299 55.378C82.0476 55.0443 82.1506 54.6961 82.2536 54.3624C82.1653 53.9416 81.9593 53.3177 81.5621 52.3892ZM56.5509 75.4149V76.0533H56.2419C55.1237 76.0678 53.9909 76.0678 52.8727 76.0243C41.7795 75.6906 32.8343 72.4841 24.5218 67.1883C15.4442 61.3992 8.8824 53.7965 6.01347 44.8445L5.9399 44.5978L6.19001 44.4963C8.49988 43.5967 10.1771 43.3936 12.7518 42.7552C13.355 42.6101 13.9582 42.4505 14.5614 42.2909L14.7674 42.2329L14.8851 42.407C22.0501 53.8981 34.7617 61.5733 54.9031 66.5354L55.0943 66.5789L55.1238 66.7676C55.3297 68.1459 55.6093 69.5243 55.8594 70.743L55.8741 70.7866C56.1242 72.1649 56.3596 73.9495 56.5509 75.4149Z" fill="url(#paint4_radial_630_43855)"/>
<path d="M80.5477 25.0833H80.5328C80.5031 25.0833 80.4735 25.0833 80.429 25.0977C80.429 25.112 80.429 25.112 80.429 25.1263C80.4735 25.0977 80.518 25.0833 80.5477 25.0833Z" fill="url(#paint5_radial_630_43855)"/>
<path d="M81.4143 52.8244L81.3701 52.6938C81.3407 52.6068 81.3113 52.5342 81.2819 52.4762C79.943 48.9795 78.1187 45.6134 75.7353 42.1603L75.6323 42.0152L75.7058 41.8701C77.5155 38.3444 78.8837 34.4995 80.1196 29.4359C80.1343 29.3634 80.1637 29.2618 80.1931 29.1457L80.2226 29.0442C80.5462 27.8399 80.6934 27.0709 80.7375 26.5631C80.6198 26.2875 80.4874 25.9973 80.3697 25.7216L80.2667 25.6636C79.281 31.4091 77.0447 36.821 77.0447 36.821C77.0447 36.821 76.6769 37.8221 76.2502 38.7362C71.8217 49.2116 64.9216 56.8434 59.581 62.0811C59.3897 62.2697 59.169 62.5019 58.9336 62.7485L58.9042 62.7775C57.3594 64.359 55.9028 65.7954 54.8435 65.926C54.7553 65.9405 54.667 65.9405 54.5787 65.9405C53.8578 65.9405 48.7673 64.4461 47.7227 64.1414C45.251 63.4159 43.0441 62.647 40.6313 61.6604L40.2487 61.5008L40.5283 61.2106C50.3121 50.6335 58.7276 37.5754 66.0986 21.485C68.1878 16.7696 69.5413 13.0843 70.0268 11.7495C69.8503 11.5899 69.6737 11.4303 69.4825 11.2707L69.453 11.3287C62.8766 26.9549 54.4316 44.7719 41.6759 58.4539C41.4699 58.6715 41.2786 58.9036 41.1168 59.1068C40.5283 59.8032 39.9398 60.5287 39.0423 60.8914L38.9246 60.9349L38.3214 60.6447C34.5697 58.8891 30.7003 57.09 27.596 54.58L27.4489 54.4494L27.5077 54.2608C33.0543 38.3879 39.7779 24.764 47.5167 13.6066C47.502 13.6211 47.502 13.6211 47.502 13.6211L48.9733 11.5463C51.6803 7.73047 54.255 4.553 55.329 3.2617C55.0936 3.18915 54.8582 3.1021 54.6228 3.02956C54.2697 3.23268 53.9608 3.63893 53.6665 4.00166C53.5488 4.14675 53.4459 4.27733 53.3576 4.3934C40.543 19.1345 32.3629 38.4315 26.6691 53.6079L26.5367 53.9561L26.2277 53.7384C23.8002 52.0409 22.123 50.59 20.225 48.5732L19.9455 48.2686C18.5037 46.7451 15.8113 43.9159 15.5906 41.9136C15.4582 40.6804 16.0026 38.6636 16.4881 36.879C16.6058 36.4728 16.7382 35.9359 16.8706 35.4426C18.9745 26.9258 21.7846 19.889 25.4921 14.0274C25.9335 13.1713 26.5808 12.3153 26.5808 12.3153C30.1854 6.75836 33.9665 3.2617 36.0116 1.59317C35.6143 1.6512 35.2318 1.70924 34.8493 1.76727C30.921 5.00278 27.7873 9.03627 24.9919 12.9247L24.8889 13.0698L24.7124 13.0408C22.888 12.7216 20.4016 12.5329 18.0623 12.5329C16.4439 12.5329 14.9138 12.62 13.6486 12.7941C13.2955 12.8376 12.9571 12.8957 12.6775 12.9682C12.4274 13.2149 12.1773 13.447 11.9419 13.6937C15.5906 13.2294 19.2246 13.4035 21.402 13.5921C22.2554 13.6501 23.1381 13.7517 24.0503 13.8678L24.4622 13.9258L24.2563 14.2885C22.0935 18.1189 19.6807 22.7473 18.0623 28.1156L17.9888 28.3477L17.7534 28.3187C16.1203 28.1156 14.3842 27.9995 12.5893 27.9995C8.99942 27.9995 5.33601 28.4348 2.24639 29.2183C2.15811 29.4794 2.06984 29.7406 1.98156 30.0018C5.40957 29.2328 9.89688 29.0297 9.89688 29.0297L9.88217 29.0442C10.7796 28.9861 11.6624 28.9571 12.5451 28.9571C14.2371 28.9571 15.8407 29.0587 17.312 29.2618L17.6651 29.3053L17.5474 29.6245C16.4145 32.773 15.6936 36.4002 14.9874 39.8969L14.8844 40.3757C14.7961 40.7819 14.7226 41.1882 14.6343 41.5799L14.6049 41.754L14.4283 41.7976C12.0596 42.3779 10.5295 42.6536 7.98426 43.321C6.04221 43.9014 2.3788 45.5119 0.216064 46.7161C0.230777 46.9192 0.260202 47.1224 0.289627 47.3255L0.392614 47.2965C0.833989 47.1804 1.29008 46.9773 1.77559 46.7306C2.40823 46.4259 3.95304 45.4538 4.68866 45.3523L4.92406 45.3232L4.99762 45.5409C7.96955 54.8121 15.0463 62.8356 24.2857 68.7262C32.5394 73.993 41.6464 77.0109 52.9603 77.1414C54.0932 77.1559 55.2261 77.1414 56.3589 77.0979L56.609 77.0834L56.6532 77.3301C56.7709 78.07 56.9621 78.4908 57.0357 79.1872V79.2162C57.1093 79.8401 57.1681 80.493 57.2711 81.1024L57.2858 81.1604C57.5212 81.0734 57.7419 80.9718 57.9773 80.8848C57.9037 78.3022 57.3299 75.5164 57.1534 74.4283C56.8297 72.5131 56.4913 70.2642 56.1088 68.4215L55.7704 66.7675L55.9028 66.666C59.0366 63.9818 62.2586 60.8043 66.025 56.6838L66.2751 56.4081L66.4811 56.7128C68.3055 59.513 69.8503 63.4885 70.8654 67.9427C71.1303 69.0019 71.3951 70.1916 71.6305 71.4394C71.704 71.541 71.7923 71.6135 71.8806 71.6861C72.0424 71.5265 72.1896 71.3669 72.3514 71.2073C72.4691 70.4238 72.2337 69.4952 71.9983 68.6102C71.9247 68.3345 71.8512 68.0588 71.7923 67.8122C70.733 63.1548 69.0264 58.8311 67.0108 55.6391L66.9078 55.465L67.0402 55.3054C69.8208 51.8958 72.425 48.0219 74.9996 43.4661L75.2203 43.0889L75.4852 43.4371C76.4709 44.7574 77.4713 46.4404 78.3982 48.2395C78.7072 48.7909 80.5757 52.0844 81.5761 55.6246C81.6497 55.6972 81.738 55.7552 81.8262 55.7842C81.9439 55.4505 82.0469 55.1168 82.1499 54.7976C82.0175 54.4059 81.8115 53.782 81.4143 52.8244ZM56.506 76.3434H56.1971C55.0789 76.3725 53.9461 76.3579 52.8279 76.3289C41.7347 76.0242 33.0249 73.1224 24.7124 67.8122C15.6348 62.0231 8.71988 54.2172 5.85095 45.2652L5.77739 45.0185L6.0275 44.917C8.33736 44.0174 10.044 43.8143 12.604 43.1759C13.2072 43.0308 13.8104 42.8712 14.4136 42.7116L14.6196 42.6536L14.7373 42.8277C21.9023 54.3188 34.6139 61.9941 54.7553 66.9561L54.9465 66.9997L54.9759 67.1883C55.1819 68.5666 55.4615 69.945 55.7116 71.1637L55.7263 71.2073C55.9764 72.6001 56.506 76.3434 56.506 76.3434Z" fill="url(#paint6_radial_630_43855)"/>
<path d="M81.1202 52.9696L81.0761 52.839C81.0467 52.7519 81.0172 52.6794 80.9878 52.6213C79.649 49.1247 77.8246 45.7586 75.4412 42.3055L75.3382 42.1604L75.4118 42.0153C77.2214 38.4896 78.5897 34.6447 79.8255 29.5811C79.8402 29.5085 79.8697 29.407 79.8991 29.2909L79.9285 29.1893C80.2522 27.9851 80.3993 27.2161 80.4435 26.7083C80.3552 26.5052 80.2669 26.3166 80.1786 26.1134C79.1635 31.6994 77.0302 36.8211 77.0302 36.8211C77.0302 36.8211 76.6623 37.8222 76.2357 38.7363C71.8072 49.2117 64.9071 56.8435 59.5664 62.0812C59.3752 62.2698 59.1545 62.502 58.9191 62.7486L58.8897 62.7776C57.595 64.1125 56.3444 65.3312 55.3587 65.7665C55.0644 65.9261 54.7849 66.0422 54.5348 66.0712C54.4465 66.0857 54.3582 66.0857 54.2699 66.0857C53.549 66.0857 52.6516 65.7955 51.8718 65.5343C51.4893 65.4038 51.1067 65.2877 50.7536 65.2006C46.7813 64.1995 43.7652 63.2129 40.3225 61.8055L39.94 61.6459L40.2195 61.3558C50.018 50.7787 58.4336 37.7206 65.8045 21.6302C67.8937 16.9147 69.2472 13.2295 69.7328 11.8946C69.6151 11.7931 69.4827 11.677 69.3649 11.5754C62.8032 27.1291 54.3876 44.8445 41.6908 58.454C41.4848 58.6716 41.2935 58.9037 41.1317 59.1069C40.5579 59.7888 39.9694 60.4997 39.1014 60.877C38.9984 60.935 38.8807 60.993 38.763 61.0366L38.6453 61.0801L38.0421 60.7899C34.2904 59.0343 30.421 57.2352 27.3167 54.7251L27.1695 54.5946L27.2284 54.4059C32.775 38.5331 39.4986 24.9092 47.2374 13.7518C47.2227 13.7663 47.2226 13.7663 47.2226 13.7663L48.6939 11.6915C51.401 7.87565 53.9757 4.69818 55.0497 3.40688C54.829 3.33434 54.623 3.26179 54.4023 3.20376C54.1375 3.42139 53.9021 3.72608 53.6814 4.01626C53.5637 4.16135 53.4607 4.29193 53.3725 4.408C40.5432 19.1346 32.363 38.4316 26.6693 53.608L26.5369 53.9562L26.3456 53.8256L26.2426 54.1013L25.9337 53.8836C23.5061 52.1861 21.8289 50.7352 19.931 48.7184L19.6514 48.4137C18.2096 46.8903 15.5172 44.061 15.2965 42.0588C15.1641 40.8255 15.7085 38.8088 16.194 37.0242C16.3117 36.6179 16.4441 36.0811 16.5765 35.5878C18.6804 27.071 21.4905 20.0342 25.1981 14.1725C25.6394 13.3165 26.2868 12.4605 26.2868 12.4605C29.8913 6.90355 33.6724 3.40688 35.7175 1.73835C35.3791 1.78188 35.0407 1.83991 34.7023 1.89795C30.8476 5.11894 27.758 9.0944 24.9921 12.9248L24.8891 13.0699L24.7273 13.0408C24.7273 13.0554 24.7125 13.0554 24.7125 13.0699L24.6096 13.215L24.433 13.1859C22.6087 12.8667 20.1222 12.6781 17.783 12.6781C16.1646 12.6781 14.6345 12.7652 13.3692 12.9393C13.0897 12.9828 12.8248 13.0118 12.5894 13.0699C12.3688 13.273 12.1628 13.4906 11.9568 13.6938C15.6055 13.2295 19.2395 13.4036 21.4169 13.5922C22.2703 13.6502 23.153 13.7518 24.0652 13.8679L24.4771 13.9259L24.2712 14.2886C22.1084 18.119 19.6956 22.7474 18.0772 28.1157L18.0036 28.3478L17.7682 28.3188L17.7094 28.4929L17.474 28.4639C15.8409 28.2608 14.1048 28.1447 12.3099 28.1447C8.82305 28.1447 5.26263 28.5509 2.24657 29.2909C2.17301 29.523 2.08473 29.7552 2.01117 29.9873C5.43918 29.2184 9.92649 29.0152 9.92649 29.0152L9.91178 29.0297C10.8092 28.9717 11.692 28.9427 12.5747 28.9427C14.2667 28.9427 15.8703 29.0443 17.3416 29.2474L17.6947 29.2909L17.577 29.6101C16.4441 32.7586 15.7232 36.3858 15.017 39.8825L14.914 40.3613C14.8257 40.7675 14.7522 41.1738 14.6639 41.5655L14.6345 41.7396L14.4579 41.7831C14.4285 41.7976 14.3844 41.7976 14.3549 41.8122L14.3402 41.8847L14.1637 41.9282C11.795 42.5086 10.2502 42.7697 7.7049 43.4372C6.14538 43.9014 3.14403 45.2508 1.27554 46.1503C0.922444 46.3244 0.569344 46.5131 0.230957 46.6872C0.24567 46.8903 0.275094 47.0934 0.304519 47.2965L0.407507 47.2675C0.848882 47.1515 1.30497 46.9483 1.79048 46.7017C2.42312 46.397 3.96793 45.4249 4.70355 45.3233L4.93895 45.2943L5.01252 45.5119C7.98444 54.7832 15.0611 62.8066 24.3006 68.6973C32.5543 73.9641 41.6613 76.9819 52.9752 77.1125C54.1081 77.127 55.241 77.1125 56.3738 77.069L56.6239 77.0545L56.6681 77.3011C56.7858 78.0411 56.977 78.4618 57.0506 79.1583V79.1873C57.1242 79.8112 57.183 80.4641 57.286 81.0735L57.3007 81.1315C57.4331 81.0735 57.5655 81.0299 57.6979 80.9719C57.6097 78.3893 57.0506 75.6326 56.874 74.5444C56.5504 72.6292 56.212 70.3803 55.8295 68.5522L55.4911 66.8982L55.6235 66.7966C58.7572 64.1125 61.9793 60.935 65.7457 56.8144L65.9958 56.5388L66.0694 56.6403L66.29 56.3937L66.496 56.6984C68.3204 59.4986 69.8652 63.4741 70.8803 67.9283C71.1452 68.9875 71.41 70.1772 71.6454 71.425C71.6895 71.4975 71.7484 71.5556 71.8219 71.5991C71.9102 71.512 71.9985 71.425 72.0868 71.3379C72.2045 70.5544 71.9691 69.6259 71.7337 68.7408C71.6601 68.4651 71.5865 68.1895 71.5277 67.9428C70.4684 63.2854 68.7617 58.9618 66.7461 55.7698L66.6431 55.5957L66.7756 55.4361C69.5562 52.0265 72.1603 48.1526 74.735 43.5968L74.9557 43.2195L75.0734 43.3791L75.2499 43.0744L75.5148 43.4226C76.5005 44.743 77.501 46.426 78.4278 48.2251C78.7368 48.7765 80.6053 52.07 81.6057 55.6102C81.6205 55.6247 81.6352 55.6392 81.6499 55.6537C81.7234 55.4071 81.8117 55.1749 81.8853 54.9283C81.7234 54.551 81.5175 53.9272 81.1202 52.9696ZM55.697 71.1928L55.7118 71.2364C55.9913 72.6002 56.212 74.3848 56.4032 75.8502L56.5062 76.3435C56.5062 76.3435 55.8883 76.4306 52.7251 76.3435C52.6221 76.3435 52.5339 76.3435 52.4603 76.3435C41.3524 76.213 32.7308 73.2821 24.4183 67.9718C15.3407 62.1828 8.4111 54.3624 5.54217 45.4104L5.4686 45.1637L5.71872 45.0622C5.73343 45.0477 5.76285 45.0477 5.77757 45.0331V45.0186L6.02768 44.9171C8.33754 44.0175 10.0442 43.8144 12.6042 43.176C13.2074 43.0309 13.8106 42.8713 14.4138 42.7117L14.6198 42.6537L14.7375 42.8278C21.9025 54.3189 34.614 61.9941 54.7554 66.9562L54.9467 66.9997L54.9761 67.1884C55.1674 68.5957 55.4469 69.9741 55.697 71.1928Z" fill="url(#paint7_radial_630_43855)"/>
<path d="M80.12 28.4786C80.3113 27.6806 80.4142 27.1147 80.4437 26.7085C80.3701 26.5489 80.2965 26.3748 80.223 26.2152C80.1053 26.8535 79.9582 27.4774 79.811 28.0868C79.9287 28.2174 80.0317 28.348 80.12 28.4786Z" fill="url(#paint8_radial_630_43855)"/>
<path d="M32.0692 4.8289C33.2756 3.55211 34.3791 2.53648 35.2618 1.79652C35.0705 1.82554 34.894 1.85456 34.7027 1.88358C33.5846 2.81215 32.5253 3.81327 31.5396 4.85792C31.7014 4.84341 31.8927 4.8289 32.0692 4.8289Z" fill="url(#paint9_radial_630_43855)"/>
<path d="M56.492 76.6774L56.7421 76.6629L56.7715 76.837C56.9039 76.7645 57.051 76.6919 57.1835 76.6194C57.0363 75.7489 56.9039 75.0234 56.8451 74.5881C56.5214 72.673 56.183 70.4241 55.8005 68.5959L55.4621 66.9419L55.5945 66.8404C55.6239 66.8258 55.6386 66.7968 55.6681 66.7823L55.6092 66.5212L55.7416 66.4196C57.1246 65.2299 58.537 63.9386 59.9935 62.5167C59.7729 62.4731 59.5522 62.4151 59.3315 62.3571C59.1991 62.4877 59.0667 62.6327 58.9195 62.7778L58.8901 62.8069C57.5954 64.1417 56.3448 65.3604 55.3591 65.7957C55.0649 65.9553 54.7853 66.0714 54.5352 66.1004C54.4469 66.1149 54.3587 66.1149 54.2704 66.1149C53.5495 66.1149 52.652 65.8247 51.8723 65.5636C51.4897 65.433 51.1072 65.3169 50.7541 65.2299C46.7817 64.2287 43.7657 63.2421 40.3229 61.8348L39.9404 61.6752L40.22 61.385C40.2347 61.3705 40.2641 61.3414 40.2788 61.3269L40.0875 61.2544L40.3671 60.9642C42.4268 58.7443 44.413 56.4229 46.3551 53.9854C46.1491 53.9564 45.9431 53.9128 45.7371 53.8693C44.4424 55.4508 43.1036 57.0033 41.7059 58.4977C41.4999 58.7153 41.3087 58.9475 41.1468 59.1506C40.5731 59.8325 39.9846 60.5435 39.1165 60.9207C39.0135 60.9787 38.8958 61.0368 38.7781 61.0803L38.6604 61.1238L38.0572 60.8336C34.3055 59.078 30.4362 57.2789 27.3318 54.7689L27.1847 54.6383L27.2435 54.4497C27.273 54.3626 27.3024 54.2901 27.3318 54.203L27.3907 54.0144C28.5088 50.8079 29.6858 47.6885 30.8922 44.6706C30.7304 44.4675 30.5833 44.2499 30.4214 44.0467C29.0532 47.3548 27.8173 50.5758 26.6698 53.6227L26.5373 53.9709L26.3461 53.8403L26.2431 54.116L25.9341 53.8983C23.5066 52.2008 21.8293 50.7499 19.9314 48.7331L19.6519 48.4285C18.2101 46.905 15.5177 44.0758 15.297 42.0735C15.1646 40.8403 15.7089 38.8235 16.1945 37.0389C16.2533 36.8358 16.3122 36.5891 16.3857 36.3425C16.2092 36.2264 16.0326 36.0958 15.8561 35.9507C15.606 37.1114 15.3706 38.2867 15.1352 39.4474L15.0322 39.9262C14.9439 40.3324 14.8703 40.7387 14.7821 41.1304L14.7526 41.3045L14.6938 41.3191C14.6791 41.4061 14.6644 41.4787 14.6496 41.5657L14.6202 41.7398L14.4437 41.7833C14.4142 41.7978 14.3701 41.7979 14.3407 41.8124L14.326 41.8849L14.1494 41.9284C11.7807 42.5088 10.2359 42.7699 7.69064 43.4374C6.13112 43.9016 3.12977 45.251 1.26128 46.1505C0.967034 46.2956 0.687496 46.4407 0.407959 46.6003C0.422671 46.6874 0.422671 46.7744 0.437384 46.876L0.540371 46.847C0.981746 46.7309 1.43783 46.5278 1.92335 46.2811C2.55598 45.9764 4.10079 45.0043 4.83642 44.9028L5.07182 44.8738L5.14538 45.0914C8.1173 54.3626 15.194 62.3861 24.4335 68.2767C32.6872 73.5435 41.7942 76.5614 53.1081 76.6919C54.2115 76.721 55.3591 76.7065 56.492 76.6774ZM52.4608 76.3437C41.3528 76.2132 32.7313 73.2823 24.4187 67.9721C15.3411 62.183 8.41155 54.3626 5.54262 45.4106L5.46906 45.1639L5.71917 45.0624C5.71917 45.0624 5.71917 45.0624 5.73388 45.0624C5.71917 45.0334 5.71917 45.0043 5.70446 44.9753L5.63089 44.7287L5.88101 44.6271C5.89572 44.6126 5.92514 44.6126 5.93986 44.5981V44.5836L6.18997 44.482C8.49983 43.5825 10.2065 43.3793 12.7665 42.7409C13.3697 42.5958 13.9729 42.4362 14.5761 42.2766L14.7821 42.2186L14.8998 42.3927C22.0647 53.8838 34.7763 61.5591 54.9177 66.5212L55.109 66.5647L55.1384 66.7533C55.3444 68.1317 55.6239 69.51 55.874 70.7288L55.8888 70.7723C56.1683 72.1361 56.389 73.9207 56.5802 75.3861L56.6832 75.8794C56.6832 75.8794 56.6244 75.894 56.4478 75.894L56.5361 76.3147C56.5361 76.3147 55.9182 76.4018 52.755 76.3147C52.6373 76.3437 52.549 76.3437 52.4608 76.3437Z" fill="url(#paint10_radial_630_43855)"/>
<path d="M10.0301 28.5655C10.7216 28.522 11.3983 28.4929 12.0751 28.4929C12.0751 28.3769 12.0751 28.2463 12.0751 28.1302V28.1157C8.6618 28.1302 5.17494 28.5365 2.20302 29.2619C2.1736 29.349 2.14417 29.436 2.11475 29.5231C5.54276 28.7541 10.0301 28.551 10.0301 28.551C10.0448 28.5655 10.0448 28.5655 10.0301 28.5655Z" fill="url(#paint11_radial_630_43855)"/>
<path d="M70.8802 65.665C70.3064 63.6337 69.615 61.6895 68.8499 59.9194C68.7763 59.9919 68.7028 60.0645 68.6145 60.137C69.3796 61.8926 70.0416 63.8513 70.6007 65.9551C70.689 65.8536 70.7919 65.752 70.8802 65.665Z" fill="url(#paint12_radial_630_43855)"/>
<path d="M17.2384 12.9393C17.2678 12.9103 17.2825 12.8958 17.3119 12.8668C17.3855 12.7942 17.4738 12.7362 17.5473 12.6637C16.0025 12.6637 14.546 12.7652 13.3248 12.9248C13.0453 12.9684 12.7805 12.9974 12.5451 13.0554C12.4862 13.0989 12.4421 13.157 12.3979 13.2005C14.0752 12.9974 15.7377 12.9393 17.2384 12.9393Z" fill="url(#paint13_radial_630_43855)"/>
<path d="M81.1057 52.9261L81.0762 52.8535C81.0468 52.7665 81.0174 52.6939 80.988 52.6359C80.37 51.0399 79.6638 49.4584 78.8399 47.8914C78.7958 47.993 78.7517 48.0946 78.7075 48.1961C79.1636 49.0086 80.1493 50.8803 80.988 53.1002C81.0174 53.0276 81.0615 52.9696 81.1057 52.9261Z" fill="url(#paint14_radial_630_43855)"/>
<path d="M68.9825 13.8826C69.3062 13.0556 69.5563 12.3736 69.7328 11.8803C69.6151 11.7788 69.4974 11.6627 69.365 11.5611C69.1002 12.185 68.8354 12.8089 68.5706 13.4328C68.703 13.5924 68.8501 13.7375 68.9825 13.8826Z" fill="url(#paint15_radial_630_43855)"/>
<path d="M53.0196 5.69935C53.7699 4.74175 54.4173 3.95827 54.8734 3.37791C54.7115 3.31987 54.5644 3.27635 54.4026 3.21831C54.1378 3.43595 53.9024 3.74063 53.6817 4.03081C53.564 4.1759 53.461 4.30648 53.3727 4.42256C53.0196 4.82881 52.6665 5.23506 52.3281 5.64131C52.5488 5.67033 52.7842 5.68484 53.0196 5.69935Z" fill="url(#paint16_radial_630_43855)"/>
<path d="M80.4004 25.5187H80.3856C80.3559 25.5187 80.3263 25.5187 80.2817 25.5331C80.2817 25.5474 80.2817 25.5474 80.2817 25.5617C80.3263 25.5331 80.3708 25.5187 80.4004 25.5187Z" fill="black"/>
<path d="M44.6204 75.6954C44.6204 75.6954 33.2372 73.6379 22.4003 65.5985C12.515 58.5202 7.64527 48.2152 6.76884 44.9098C6.79509 44.5513 7.12756 43.4123 7.33821 43.9814C8.90899 49.627 15.0734 58.9097 22.479 64.5231C30.1609 70.5146 36.3175 72.6835 47.6475 75.4257C45.6178 75.7662 45.6179 75.7662 44.6204 75.6954Z" fill="url(#paint17_radial_630_43855)"/>
<path d="M13.2935 41.6141C20.794 53.2106 37.2952 61.9079 54.2964 65.2902C53.3238 65.8029 42.1962 64.3942 33.169 59.3063C24.6086 54.6887 15.7936 48.3787 13.2935 41.6141Z" fill="url(#paint18_radial_630_43855)"/>
<path d="M28.3638 51.0626C28.3638 51.0626 35.3129 38.9152 42.173 27.6449C50.5541 12.0348 55.492 4.09491 54.9922 4.22924C53.7451 4.56452 47.1511 12.1401 41.175 23.7486C35.3901 34.5782 30.8488 43.8098 28.3638 51.0626Z" fill="url(#paint19_radial_630_43855)"/>
<path d="M16.5471 40.2968C16.5471 40.2968 18.1848 32.4049 22.0476 21.936C27.548 8.89006 36.9577 0.653434 36.5485 0.675933C30.0479 5.50779 24.1974 13.8155 21.0471 21.936C17.9265 29.4767 17.4345 35.0161 16.5471 40.2968Z" fill="url(#paint20_radial_630_43855)"/>
<path d="M42.5644 60.958C55.853 41.4236 61.7883 33.1211 69.4104 13.8201C69.831 14.9517 66.9236 27.3013 60.4684 37.8232C54.5649 47.8007 47.3029 55.346 42.5644 60.958Z" fill="url(#paint21_radial_630_43855)"/>
<path d="M53.4527 66.4005C66.428 49.7136 72.2266 42.6393 79.6083 25.8081C80.0321 26.849 76.7855 39.1277 70.4903 48.1597C64.7357 56.7379 58.0897 61.664 53.4527 66.4005Z" fill="url(#paint22_radial_630_43855)" fill-opacity="0.6"/>
<defs>
<radialGradient id="paint0_radial_630_43855" cx="0" cy="0" r="1" gradientUnits="userSpaceOnUse" gradientTransform="translate(21.4995 12.5008) rotate(82.8254) scale(72.0663 73.0458)">
<stop stop-color="#FFE353"/>
<stop offset="0.37874" stop-color="#FFED4D"/>
<stop offset="0.661248" stop-color="#D4AC01"/>
<stop offset="1" stop-color="#A57800"/>
</radialGradient>
<radialGradient id="paint1_radial_630_43855" cx="0" cy="0" r="1" gradientUnits="userSpaceOnUse" gradientTransform="translate(47.4346 31.5944) scale(70.8004 69.8211)">
<stop stop-color="white"/>
<stop offset="0.0417025" stop-color="#FFFFD7"/>
<stop offset="0.1085" stop-color="#FFFF9C"/>
<stop offset="0.1656" stop-color="#FFFF71"/>
<stop offset="0.21" stop-color="#FFFF57"/>
<stop offset="0.2364" stop-color="#FFFF4D"/>
<stop offset="0.4424" stop-color="#ECC903"/>
<stop offset="0.6364" stop-color="#C99E00"/>
<stop offset="0.8641" stop-color="#A37600"/>
<stop offset="1" stop-color="#916300"/>
</radialGradient>
<radialGradient id="paint2_radial_630_43855" cx="0" cy="0" r="1" gradientUnits="userSpaceOnUse" gradientTransform="translate(47.5173 30.5509) scale(47.5859 46.9277)">
<stop stop-color="white"/>
<stop offset="0.0417025" stop-color="#FFFFD7"/>
<stop offset="0.1085" stop-color="#FFFF9C"/>
<stop offset="0.1656" stop-color="#FFFF71"/>
<stop offset="0.21" stop-color="#FFFF57"/>
<stop offset="0.2364" stop-color="#FFFF4D"/>
<stop offset="0.4424" stop-color="#ECC903"/>
<stop offset="0.6364" stop-color="#C99E00"/>
<stop offset="0.8641" stop-color="#A37600"/>
<stop offset="1" stop-color="#916300"/>
</radialGradient>
<radialGradient id="paint3_radial_630_43855" cx="0" cy="0" r="1" gradientUnits="userSpaceOnUse" gradientTransform="translate(46.9465 31.7376) scale(71.894 69.4732)">
<stop stop-color="white"/>
<stop offset="0.0417025" stop-color="#FFFFD7"/>
<stop offset="0.1085" stop-color="#FFFF9C"/>
<stop offset="0.1656" stop-color="#FFFF71"/>
<stop offset="0.21" stop-color="#FFFF57"/>
<stop offset="0.2364" stop-color="#FFFF4D"/>
<stop offset="0.4424" stop-color="#ECC903"/>
<stop offset="0.6364" stop-color="#C99E00"/>
<stop offset="0.8641" stop-color="#A37600"/>
<stop offset="1" stop-color="#916300"/>
</radialGradient>
<radialGradient id="paint4_radial_630_43855" cx="0" cy="0" r="1" gradientUnits="userSpaceOnUse" gradientTransform="translate(48.2262 26.4138) scale(45.045 44.4219)">
<stop stop-color="white"/>
<stop offset="0.0417025" stop-color="#FFFFD7"/>
<stop offset="0.1085" stop-color="#FFFF9C"/>
<stop offset="0.1656" stop-color="#FFFF71"/>
<stop offset="0.21" stop-color="#FFFF57"/>
<stop offset="0.2364" stop-color="#FFFF4D"/>
<stop offset="0.4424" stop-color="#ECC903"/>
<stop offset="0.6364" stop-color="#C99E00"/>
<stop offset="0.8641" stop-color="#A37600"/>
<stop offset="1" stop-color="#916300"/>
</radialGradient>
<radialGradient id="paint5_radial_630_43855" cx="0" cy="0" r="1" gradientUnits="userSpaceOnUse" gradientTransform="translate(47.9944 25.8532) scale(45.7831 44.2415)">
<stop stop-color="white"/>
<stop offset="0.0417025" stop-color="#FFFFD7"/>
<stop offset="0.1085" stop-color="#FFFF9C"/>
<stop offset="0.1656" stop-color="#FFFF71"/>
<stop offset="0.21" stop-color="#FFFF57"/>
<stop offset="0.2364" stop-color="#FFFF4D"/>
<stop offset="0.4424" stop-color="#ECC903"/>
<stop offset="0.6364" stop-color="#C99E00"/>
<stop offset="0.8641" stop-color="#A37600"/>
<stop offset="1" stop-color="#916300"/>
</radialGradient>
<radialGradient id="paint6_radial_630_43855" cx="0" cy="0" r="1" gradientUnits="userSpaceOnUse" gradientTransform="translate(49.2823 25.9924) scale(61.4667 60.6165)">
<stop stop-color="#383838"/>
<stop offset="0.6089" stop-color="#131313"/>
<stop offset="1"/>
</radialGradient>
<radialGradient id="paint7_radial_630_43855" cx="0" cy="0" r="1" gradientUnits="userSpaceOnUse" gradientTransform="translate(30.5001 14.4733) rotate(70.538) scale(69.036 69.7909)">
<stop stop-color="#99935C"/>
<stop offset="1"/>
</radialGradient>
<radialGradient id="paint8_radial_630_43855" cx="0" cy="0" r="1" gradientUnits="userSpaceOnUse" gradientTransform="translate(27.6701 68.4431) scale(59.4012 58.5797)">
<stop stop-color="#383838"/>
<stop offset="0.2119" stop-color="#4A4A4A"/>
<stop offset="0.4861" stop-color="#131313"/>
<stop offset="1"/>
</radialGradient>
<radialGradient id="paint9_radial_630_43855" cx="0" cy="0" r="1" gradientUnits="userSpaceOnUse" gradientTransform="translate(27.6694 68.4414) scale(59.4005 58.5789)">
<stop stop-color="#383838"/>
<stop offset="0.2119" stop-color="#4A4A4A"/>
<stop offset="0.4861" stop-color="#131313"/>
<stop offset="1"/>
</radialGradient>
<radialGradient id="paint10_radial_630_43855" cx="0" cy="0" r="1" gradientUnits="userSpaceOnUse" gradientTransform="translate(28.8284 70.6825) scale(26.5513 26.184)">
<stop stop-color="#383838"/>
<stop offset="0.2119" stop-color="#4A4A4A"/>
<stop offset="0.4861" stop-color="#131313"/>
<stop offset="1"/>
</radialGradient>
<radialGradient id="paint11_radial_630_43855" cx="0" cy="0" r="1" gradientUnits="userSpaceOnUse" gradientTransform="translate(27.6697 68.4425) scale(59.4014 58.5797)">
<stop stop-color="#383838"/>
<stop offset="0.2119" stop-color="#4A4A4A"/>
<stop offset="0.4861" stop-color="#131313"/>
<stop offset="1"/>
</radialGradient>
<radialGradient id="paint12_radial_630_43855" cx="0" cy="0" r="1" gradientUnits="userSpaceOnUse" gradientTransform="translate(27.6689 68.4426) scale(59.4018 58.5802)">
<stop stop-color="#383838"/>
<stop offset="0.2119" stop-color="#4A4A4A"/>
<stop offset="0.4861" stop-color="#131313"/>
<stop offset="1"/>
</radialGradient>
<radialGradient id="paint13_radial_630_43855" cx="0" cy="0" r="1" gradientUnits="userSpaceOnUse" gradientTransform="translate(27.6689 68.4355) scale(59.3943 58.5727)">
<stop stop-color="#383838"/>
<stop offset="0.2119" stop-color="#4A4A4A"/>
<stop offset="0.4861" stop-color="#131313"/>
<stop offset="1"/>
</radialGradient>
<radialGradient id="paint14_radial_630_43855" cx="0" cy="0" r="1" gradientUnits="userSpaceOnUse" gradientTransform="translate(27.6695 68.4422) scale(59.4013 58.5797)">
<stop stop-color="#383838"/>
<stop offset="0.2119" stop-color="#4A4A4A"/>
<stop offset="0.4861" stop-color="#131313"/>
<stop offset="1"/>
</radialGradient>
<radialGradient id="paint15_radial_630_43855" cx="0" cy="0" r="1" gradientUnits="userSpaceOnUse" gradientTransform="translate(27.6694 68.4432) scale(59.4015 58.5799)">
<stop stop-color="#383838"/>
<stop offset="0.2119" stop-color="#4A4A4A"/>
<stop offset="0.4861" stop-color="#131313"/>
<stop offset="1"/>
</radialGradient>
<radialGradient id="paint16_radial_630_43855" cx="0" cy="0" r="1" gradientUnits="userSpaceOnUse" gradientTransform="translate(27.6694 68.4449) scale(59.4032 58.5815)">
<stop stop-color="#383838"/>
<stop offset="0.2119" stop-color="#4A4A4A"/>
<stop offset="0.4861" stop-color="#131313"/>
<stop offset="1"/>
</radialGradient>
<radialGradient id="paint17_radial_630_43855" cx="0" cy="0" r="1" gradientUnits="userSpaceOnUse" gradientTransform="translate(26.7935 58.9867) rotate(-131.853) scale(16.4095 16.1609)">
<stop offset="0.369646" stop-color="#FFF963"/>
<stop offset="1" stop-color="white" stop-opacity="0"/>
</radialGradient>
<radialGradient id="paint18_radial_630_43855" cx="0" cy="0" r="1" gradientUnits="userSpaceOnUse" gradientTransform="translate(35.6778 52.7573) rotate(14.5163) scale(17.1885 15.9034)">
<stop offset="0.369646" stop-color="#FFF963"/>
<stop offset="1" stop-color="white" stop-opacity="0"/>
</radialGradient>
<radialGradient id="paint19_radial_630_43855" cx="0" cy="0" r="1" gradientUnits="userSpaceOnUse" gradientTransform="translate(43.9599 31.5675) rotate(-50.7693) scale(21.3556 12.3358)">
<stop offset="0.369646" stop-color="white"/>
<stop offset="1" stop-color="white" stop-opacity="0"/>
</radialGradient>
<radialGradient id="paint20_radial_630_43855" cx="0" cy="0" r="1" gradientUnits="userSpaceOnUse" gradientTransform="translate(25.5541 22.4912) rotate(32.832) scale(32.5929 12.4567)">
<stop offset="0.392969" stop-color="#FFD464"/>
<stop offset="0.903551" stop-color="#F0AD00" stop-opacity="0"/>
</radialGradient>
<radialGradient id="paint21_radial_630_43855" cx="0" cy="0" r="1" gradientUnits="userSpaceOnUse" gradientTransform="translate(55.5435 35.2732) rotate(-71.291) scale(19.8861 12.456)">
<stop offset="0.369646" stop-color="#FFF963"/>
<stop offset="1" stop-color="white" stop-opacity="0"/>
</radialGradient>
<radialGradient id="paint22_radial_630_43855" cx="0" cy="0" r="1" gradientUnits="userSpaceOnUse" gradientTransform="translate(66.0763 44.1794) rotate(47.7497) scale(23.9194 16.7484)">
<stop offset="0.159258" stop-color="#FFF963"/>
<stop offset="1" stop-color="#FFF963" stop-opacity="0"/>
</radialGradient>
</defs>
</svg>
