<svg width="24" height="25" viewBox="0 0 24 25" fill="none" xmlns="http://www.w3.org/2000/svg">
<path d="M12.0041 3.92871C13.1899 3.92871 14.3441 4.10438 15.4289 4.42953L13.3771 10.7198C12.9333 10.6027 12.4795 10.5387 12.0041 10.5387C11.5287 10.5387 11.0641 10.6027 10.6257 10.7198L8.58008 4.42953C9.66415 4.10438 10.813 3.92871 12.0041 3.92871Z" fill="url(#paint0_linear_607_4258)"/>
<path d="M13.3764 10.7198C12.4734 10.5095 11.528 10.5095 10.625 10.7198C11.5141 10.4478 12.4873 10.4486 13.3764 10.7198Z" fill="#F7E4BA"/>
<path d="M10.6257 10.72V11.6815L8.58008 5.39126V4.42969L10.6257 10.72Z" fill="url(#paint1_linear_607_4258)"/>
<path d="M15.4288 4.42969V5.39126L13.377 11.6815V10.72L15.4288 4.42969Z" fill="url(#paint2_linear_607_4258)"/>
<path d="M21.5209 8.63135V9.59292L16.1621 13.4762V12.5146L21.5209 8.63135Z" fill="url(#paint3_linear_607_4258)"/>
<path d="M15.9859 4.61035C18.2087 5.38777 20.1265 6.8047 21.5211 8.63153L16.1623 12.5148C15.5852 11.7959 14.8209 11.2365 13.9395 10.906L15.9859 4.61035Z" fill="#FE7500"/>
<path d="M13.9395 10.9062V11.8678C14.8209 12.1984 15.5852 12.757 16.1623 13.4766V12.515C15.5844 11.7962 14.8209 11.2368 13.9395 10.9062Z" fill="url(#paint4_linear_607_4258)"/>
<path d="M16.1623 12.515C16.133 12.4827 16.0768 12.4172 16.0483 12.384C15.9897 12.3193 15.8703 12.1945 15.8087 12.1336C15.6546 11.9811 15.4596 11.8108 15.2878 11.6775C14.9257 11.3978 14.5173 11.159 14.0989 10.9741C14.0596 10.9579 13.9787 10.9232 13.9395 10.9062C13.9811 10.9209 14.062 10.9502 14.1028 10.9656C14.9126 11.2807 15.6361 11.8231 16.1623 12.515Z" fill="#F9C9A5"/>
<g opacity="0.25">
<path d="M21.5216 8.63135L17.8379 11.3011V12.2627L21.5216 9.59292V8.63135Z" fill="url(#paint5_linear_607_4258)"/>
</g>
<path d="M24.0011 15.6035H17.3711V16.5651H24.0011V15.6035Z" fill="url(#paint6_linear_607_4258)"/>
<path d="M21.879 9.11084C23.1665 10.9646 23.9416 13.196 24.0001 15.6037H17.3701C17.3223 14.6453 17.0172 13.7499 16.5156 12.9941L21.879 9.11084Z" fill="url(#paint7_linear_607_4258)"/>
<path d="M17.3701 15.6036C17.3316 15.1721 17.253 14.7437 17.1235 14.33C16.9787 13.8607 16.7707 13.4123 16.5156 12.9932C16.8038 13.393 17.0218 13.8453 17.1659 14.3169C17.2938 14.7337 17.3655 15.169 17.3701 15.6036Z" fill="#FC6363"/>
<path d="M17.3701 15.6038V16.5654C17.3223 15.6069 17.0172 14.7116 16.5156 13.9557V12.9941C17.018 13.7508 17.3223 14.6453 17.3701 15.6038Z" fill="#C10002"/>
<path d="M24.0019 15.6037C21.8715 15.6337 19.7088 15.633 17.5784 15.6068L17.3711 15.6037L17.5784 15.6006C19.7088 15.5744 21.8715 15.5736 24.0019 15.6037Z" fill="#FC8686"/>
<path d="M8.0137 4.62158L10.0655 10.9065C9.18407 11.237 8.41975 11.791 7.83726 12.5152L2.47852 8.63197C3.87849 6.80515 5.79701 5.39361 8.0137 4.62158Z" fill="url(#paint8_linear_607_4258)"/>
<path d="M8.83567 12.5274C8.83798 12.5258 8.8403 12.5235 8.84261 12.522C9.02598 12.3894 9.21938 12.2692 9.4197 12.1614C9.42587 12.1583 9.43126 12.1552 9.43742 12.1521C9.63929 12.0443 9.84886 11.9487 10.0661 11.8678V10.9062C10.013 10.9263 9.96059 10.9471 9.90819 10.9687C9.84039 10.9964 9.77413 11.0257 9.70787 11.0557C9.64931 11.0827 9.59075 11.1112 9.53297 11.1405C9.5006 11.1567 9.46901 11.1736 9.43742 11.1906C9.43126 11.1936 9.42587 11.1967 9.4197 11.1998C9.40506 11.2075 9.39042 11.2144 9.37656 11.2229C9.32879 11.2491 9.28102 11.2769 9.23402 11.3046C9.18933 11.3308 9.14541 11.3578 9.10226 11.3855C9.06066 11.4117 9.01982 11.4387 8.97898 11.4656C8.93969 11.4918 8.90116 11.5188 8.86341 11.5458C8.85648 11.5504 8.85031 11.5558 8.84338 11.5604C8.84107 11.5619 8.83798 11.5642 8.83567 11.5658C8.80871 11.5858 8.78097 11.6051 8.754 11.6259C8.71933 11.6521 8.68466 11.679 8.64998 11.7068C8.61685 11.7338 8.58372 11.7607 8.55059 11.7877C8.51823 11.8147 8.48664 11.8416 8.45582 11.8694C8.425 11.8963 8.39495 11.9241 8.36413 11.9518C8.34641 11.968 8.32869 11.9849 8.31097 12.0019C8.30866 12.0042 8.30635 12.0065 8.30404 12.0088C8.29479 12.0181 8.28554 12.0265 8.2763 12.035C8.24779 12.0628 8.21928 12.0905 8.19154 12.119C8.16381 12.1467 8.13607 12.1752 8.1091 12.2038C8.08214 12.2323 8.05594 12.2608 8.02974 12.29C8.00355 12.3186 7.97812 12.3478 7.95269 12.3779C7.92727 12.4072 7.90261 12.4372 7.87796 12.4665C7.86486 12.4827 7.85099 12.4988 7.83789 12.515V13.4766C7.98274 13.2971 8.13838 13.1276 8.30404 12.9696C8.30635 12.9673 8.30866 12.965 8.31174 12.9627C8.47663 12.8063 8.65153 12.6607 8.83567 12.5274Z" fill="url(#paint9_linear_607_4258)"/>
<path d="M7.83726 12.5151V13.4767L2.47852 9.59341V8.63184L7.83726 12.5151Z" fill="url(#paint10_linear_607_4258)"/>
<g opacity="0.22">
<path d="M7.83721 12.5152L3.0625 9.05566V10.0172L7.83721 13.4767V12.5152Z" fill="url(#paint11_linear_607_4258)"/>
</g>
<path d="M10.0661 10.9062C9.58844 11.105 9.12846 11.367 8.71779 11.6814C8.39881 11.9279 8.10217 12.2099 7.83789 12.5143C8.07751 12.1891 8.37261 11.8963 8.69082 11.6467C9.10303 11.3285 9.57149 11.0696 10.0661 10.9062Z" fill="#F9F5B2"/>
<path d="M2.13194 9.11084L7.48529 12.9941C6.99372 13.7507 6.68399 14.6453 6.63544 15.6037H0C0.0585571 13.1967 0.839062 10.9646 2.13194 9.11084Z" fill="url(#paint12_linear_607_4258)"/>
<path d="M6.89252 15.1923C6.89406 15.187 6.8956 15.1816 6.89791 15.1769C6.9688 14.9627 7.05355 14.7547 7.14986 14.5536C7.15141 14.5498 7.15372 14.5459 7.15526 14.5421C7.25311 14.3386 7.36329 14.1429 7.48503 13.9557V12.9941C7.46422 13.0265 7.44342 13.0589 7.42339 13.0912C7.40181 13.1259 7.38101 13.1606 7.36021 13.196C7.3394 13.2315 7.3186 13.2677 7.29857 13.3031C7.27854 13.3393 7.2585 13.3763 7.23847 13.4133C7.21844 13.451 7.19918 13.4888 7.18068 13.5265C7.17221 13.5443 7.16373 13.562 7.15526 13.5797C7.15372 13.5836 7.15141 13.5874 7.14986 13.5913C7.14139 13.6082 7.13291 13.6259 7.12521 13.6429C7.10672 13.683 7.08822 13.723 7.0705 13.7639C7.05201 13.8055 7.03506 13.8471 7.01734 13.8894C6.99962 13.9326 6.98267 13.9757 6.96649 14.0197C6.94954 14.0651 6.93336 14.1098 6.91718 14.156C6.91024 14.1753 6.90408 14.1953 6.89791 14.2154C6.89637 14.2208 6.89483 14.2262 6.89252 14.2308C6.88482 14.2539 6.87711 14.2762 6.87018 14.2993C6.85477 14.3494 6.83936 14.3995 6.82549 14.4504C6.81008 14.5035 6.79621 14.5575 6.78311 14.6114C6.76847 14.6692 6.75537 14.7277 6.74305 14.7863C6.73611 14.8187 6.73072 14.851 6.72455 14.8834C6.72301 14.8919 6.72147 14.9011 6.71916 14.9096C6.71454 14.9327 6.70992 14.955 6.70606 14.9781C6.69373 15.0498 6.68295 15.1222 6.6737 15.1947C6.66292 15.2794 6.65367 15.3649 6.64674 15.4505C6.64288 15.5013 6.6398 15.5514 6.63672 15.603V16.5646C6.64828 16.3288 6.67678 16.0977 6.71916 15.8711C6.7207 15.8627 6.72224 15.8534 6.72455 15.8449C6.76616 15.623 6.82318 15.405 6.89252 15.1923Z" fill="#66AC00"/>
<path d="M6.63544 15.6035H0V16.5651H6.63544V15.6035Z" fill="url(#paint13_linear_607_4258)"/>
<path d="M7.4858 12.9941C7.36791 13.1929 7.2585 13.3971 7.16219 13.6067L7.12675 13.686C7.11519 13.7122 7.10286 13.7384 7.09208 13.7654L7.05895 13.8455L7.04277 13.8856C7.03737 13.8987 7.03198 13.9126 7.02659 13.9257C7.00655 13.9796 6.98498 14.0328 6.96572 14.0875L6.93721 14.1691L6.92334 14.21L6.91641 14.23L6.91024 14.2508L6.88405 14.3332L6.87095 14.3741L6.86478 14.3949L6.85862 14.4157L6.8355 14.4989L6.82395 14.5405L6.81778 14.5613L6.81239 14.5821L6.79159 14.6661L6.7808 14.7077L6.77541 14.7285C6.77387 14.7354 6.77232 14.7424 6.77078 14.7493L6.75229 14.8341L6.74305 14.8764C6.73996 14.8903 6.73688 14.905 6.73457 14.9188C6.68911 15.1453 6.65752 15.3742 6.63672 15.6046C6.63903 15.3726 6.66137 15.1415 6.70067 14.9127C6.71069 14.8556 6.72224 14.7986 6.73303 14.7416C6.73457 14.7347 6.73611 14.727 6.73765 14.72L6.74228 14.6985L6.75229 14.6561L6.77232 14.5713L6.77695 14.5498L6.78234 14.529L6.7939 14.4866L6.81701 14.4026L6.82241 14.3818L6.82857 14.361L6.84167 14.3194L6.86709 14.2362L6.87403 14.2154L6.88096 14.1946L6.8956 14.1537L6.92488 14.0713L6.93182 14.0505L6.93952 14.0304L6.9557 13.9896L6.98729 13.9087C6.99268 13.8948 6.99808 13.8817 7.00424 13.8686L7.02196 13.8286L7.05663 13.7484C7.08052 13.6953 7.10595 13.6437 7.13137 13.5913C7.23385 13.384 7.35173 13.1829 7.4858 12.9941Z" fill="url(#paint14_linear_607_4258)"/>
<path d="M6.63544 15.6037C4.5035 15.6337 2.3392 15.633 0.207261 15.6068L0 15.6037L0.207261 15.6006C2.3392 15.5744 4.5035 15.5736 6.63544 15.6037Z" fill="#ADFC7A"/>
<path d="M22.9602 13.6293L23.0337 14.2349C23.0345 14.242 23.0354 14.249 23.0354 14.249C23.0362 14.256 23.0371 14.263 23.0371 14.263C23.0379 14.27 23.0379 14.27 23.0388 14.277C23.0388 14.277 23.0396 14.284 23.0324 14.2849C23.0332 14.2919 23.0332 14.2919 23.0341 14.2989L23.0349 14.3059C23.0349 14.3059 23.0358 14.3129 23.0285 14.3138C23.0294 14.3208 23.0294 14.3208 23.0302 14.3278C23.0302 14.3278 23.0302 14.3278 23.0311 14.3348L23.0247 14.3427L23.0255 14.3497C23.0264 14.3567 23.0191 14.3576 23.0191 14.3576C23.02 14.3646 23.02 14.3646 23.02 14.3646C23.0208 14.3716 23.0208 14.3716 23.0208 14.3716C23.0136 14.3725 23.0136 14.3725 23.0144 14.3795C23.0144 14.3795 23.0144 14.3795 23.008 14.3874L23.0089 14.3944L23.0024 14.4023C23.0033 14.4093 23.0033 14.4093 22.996 14.4102C22.9969 14.4172 22.9969 14.4172 22.9977 14.4242C22.9905 14.4251 22.9905 14.4251 22.9913 14.4321L22.9785 14.4478C22.9794 14.4549 22.9721 14.4557 22.9721 14.4557C22.973 14.4627 22.9657 14.4636 22.9666 14.4706L22.9602 14.4785L22.9538 14.4864C22.9473 14.4943 22.9473 14.4943 22.9482 14.5013C22.9409 14.5022 22.9409 14.5022 22.9409 14.5022C22.9418 14.5092 22.9345 14.5101 22.9345 14.5101L22.9281 14.518C22.9217 14.5258 22.9217 14.5258 22.9153 14.5337L22.9089 14.5416C22.9025 14.5495 22.9025 14.5495 22.8961 14.5574C22.8888 14.5583 22.8897 14.5653 22.8824 14.5662C22.876 14.574 22.876 14.574 22.8696 14.5819C22.8624 14.5828 22.856 14.5907 22.856 14.5907C22.8496 14.5986 22.8423 14.5995 22.8359 14.6074C22.8295 14.6152 22.8295 14.6152 22.8231 14.6231C22.8158 14.624 22.8158 14.624 22.8094 14.6319C22.8022 14.6328 22.8022 14.6328 22.8022 14.6328C22.7958 14.6407 22.783 14.6493 22.7758 14.6502C22.7693 14.6581 22.7629 14.666 22.7493 14.6676C22.7429 14.6755 22.7293 14.6843 22.7229 14.6851C22.7093 14.6938 22.6965 14.7025 22.6828 14.7113C22.6683 14.713 22.6556 14.7217 22.6347 14.7313L17.4275 16.8475L17.3765 16.427L22.5612 14.1257C22.6294 14.0961 22.6832 14.0621 22.7361 14.0273C22.7891 13.9863 22.8275 13.9461 22.866 13.9069C22.9385 13.8067 22.9711 13.7194 22.9602 13.6293Z" fill="#383839" fill-opacity="0.6"/>
<path d="M22.8046 13.3416C22.7711 13.3843 22.7283 13.426 22.6795 13.4634L22.6787 13.4645C22.6289 13.5021 22.5724 13.5364 22.5095 13.5643L22.5827 14.1679C22.5993 14.1608 22.6149 14.1529 22.6305 14.1449C22.6435 14.1382 22.6556 14.1317 22.6676 14.1241C22.6779 14.1178 22.6874 14.1126 22.6967 14.1064C22.7053 14.1013 22.7138 14.0952 22.7215 14.0902C22.7291 14.0852 22.7367 14.0792 22.7435 14.0743C22.7459 14.072 22.7485 14.0706 22.751 14.0683L22.7518 14.0672C22.7552 14.0647 22.7586 14.0623 22.762 14.0599C22.7678 14.0551 22.7737 14.0503 22.7795 14.0455C22.7845 14.0409 22.7905 14.0371 22.7954 14.0324C22.8004 14.0278 22.8055 14.0241 22.8095 14.0195C22.8137 14.016 22.8177 14.0114 22.8227 14.0068C22.8267 14.0022 22.8309 13.9987 22.835 13.9941C22.8382 13.9907 22.8423 13.9861 22.8455 13.9827C22.8488 13.9792 22.8529 13.9747 22.8561 13.9712C22.8594 13.9678 22.8626 13.9643 22.8658 13.9599C22.8691 13.9565 22.8714 13.9531 22.8747 13.9497C22.8755 13.9486 22.877 13.9463 22.8778 13.9452C22.8794 13.943 22.881 13.9408 22.8827 13.9396C22.885 13.9362 22.8874 13.9329 22.8897 13.9296C22.8921 13.9262 22.8944 13.9229 22.8968 13.9196C22.8991 13.9162 22.9015 13.9129 22.9039 13.9096C22.9062 13.9062 22.9077 13.903 22.91 13.8997C22.9115 13.8965 22.9138 13.8931 22.9154 13.8909C22.9169 13.8877 22.9192 13.8843 22.9207 13.8811C22.9221 13.8779 22.9245 13.8746 22.926 13.8723C22.9275 13.8691 22.9291 13.8669 22.9305 13.8637C22.932 13.8604 22.9335 13.8582 22.935 13.855C22.9364 13.8518 22.938 13.8496 22.9394 13.8463C22.9409 13.8431 22.9425 13.8409 22.943 13.8378C22.9445 13.8346 22.9451 13.8324 22.9466 13.8292C22.948 13.826 22.9487 13.8239 22.9501 13.8207C22.9508 13.8185 22.9523 13.8153 22.9529 13.8132C22.9529 13.8132 22.9528 13.8122 22.9537 13.8121C22.9542 13.809 22.9558 13.8068 22.9564 13.8037C22.9569 13.8005 22.9585 13.7983 22.959 13.7952C22.9596 13.7921 22.9602 13.79 22.9617 13.7868C22.9622 13.7836 22.9628 13.7805 22.9643 13.7783C22.9649 13.7752 22.9654 13.7721 22.9661 13.77C22.9666 13.7669 22.9672 13.7637 22.9678 13.7616C22.9685 13.7595 22.9689 13.7554 22.9695 13.7523C22.97 13.7492 22.9705 13.7461 22.9711 13.7429C22.9716 13.7398 22.9722 13.7367 22.9718 13.7337C22.9723 13.7306 22.972 13.7276 22.9724 13.7235C22.9728 13.7194 22.9723 13.7154 22.9728 13.7113C22.9723 13.7073 22.9727 13.7031 22.9722 13.6991C22.9716 13.6941 22.9719 13.689 22.9712 13.683L22.9711 13.682L22.8979 13.0794L22.8978 13.0784C22.9061 13.1617 22.8723 13.2552 22.8046 13.3416Z" fill="url(#paint15_linear_607_4258)"/>
<path d="M22.5096 13.5647L22.5827 14.1673L14.0716 18.0298L13.9984 17.4261L22.5096 13.5647Z" fill="#383839"/>
<path d="M10.5224 18.2721L10.4492 17.6685C10.4683 17.8256 10.5113 17.9829 10.5804 18.1351C10.9004 18.8307 11.6587 19.21 12.4206 19.1176C12.5875 19.0973 12.7553 19.0546 12.9174 18.9872C13.5913 18.7013 13.9947 18.0815 13.998 17.4259L14.0713 18.0295C14.068 18.6851 13.6646 19.3049 12.9906 19.5909C12.8276 19.6584 12.6607 19.701 12.4938 19.7212C11.7319 19.8136 10.9736 19.4343 10.6536 18.7387C10.5853 18.5855 10.5415 18.4293 10.5224 18.2721Z" fill="url(#paint16_linear_607_4258)"/>
<path d="M22.4106 12.8298C22.6255 12.8037 22.8133 12.8642 22.8743 13.0031C22.9598 13.1847 22.7985 13.4328 22.508 13.5646L13.9969 17.427C13.9936 18.0826 13.5902 18.7024 12.9163 18.9884C12.7533 19.0559 12.5863 19.0985 12.4195 19.1187C11.6576 19.2112 10.8992 18.8318 10.5793 18.1362C10.1956 17.2878 10.6114 16.2998 11.5169 15.9198C11.679 15.8524 11.8459 15.8098 12.0119 15.7896C12.538 15.7258 13.063 15.8887 13.4421 16.2216L22.2015 12.8816C22.2719 12.8547 22.3426 12.838 22.4106 12.8298Z" fill="url(#paint17_linear_607_4258)"/>
<path d="M22.4105 12.8297C22.4649 12.8231 22.52 12.8215 22.5739 12.8261C22.6289 12.8317 22.6828 12.8434 22.7343 12.8666C22.7598 12.8788 22.7845 12.893 22.807 12.9116C22.8286 12.9304 22.8489 12.9533 22.8639 12.9789L22.8746 12.9989C22.8782 13.0056 22.8809 13.0124 22.8835 13.0192C22.889 13.0337 22.8935 13.0484 22.8954 13.0635C22.9008 13.0933 22.901 13.1247 22.8954 13.1549C22.8852 13.215 22.8597 13.2699 22.8268 13.3176C22.7939 13.3653 22.7549 13.4076 22.7115 13.4443C22.6681 13.4811 22.6221 13.5121 22.573 13.5393C22.5609 13.5459 22.5488 13.5524 22.5358 13.5591C22.5236 13.5646 22.5106 13.5713 22.4984 13.5768L22.4234 13.6113L21.221 14.1615L18.8156 15.2568L16.4077 16.3463L15.2025 16.8886L13.9961 17.4281L15.1972 16.8751L16.3996 16.3249L18.805 15.2296L21.2129 14.1401L22.4181 13.5978L22.4932 13.5643C22.5054 13.5587 22.5185 13.5531 22.5307 13.5475C22.5428 13.541 22.555 13.5354 22.5671 13.5289C22.6155 13.5027 22.6615 13.4727 22.7049 13.436C22.7476 13.4003 22.7867 13.359 22.8197 13.3124C22.8527 13.2657 22.8785 13.2128 22.8888 13.1536C22.8936 13.1246 22.8945 13.094 22.8891 13.0652C22.8873 13.0502 22.8829 13.0365 22.8774 13.0219C22.8748 13.0152 22.8721 13.0084 22.8685 13.0017L22.8587 12.9816C22.8437 12.956 22.8244 12.9339 22.8037 12.9151C22.7814 12.8975 22.7574 12.8821 22.7329 12.8698C22.6821 12.8455 22.6282 12.8338 22.5731 12.8273C22.5192 12.8226 22.4649 12.8231 22.4105 12.8297Z" fill="url(#paint18_linear_607_4258)"/>
<path d="M13.9978 17.4259C13.9995 17.5313 13.9912 17.6369 13.9724 17.7398C13.9673 17.7658 13.963 17.7917 13.956 17.8169C13.9529 17.8295 13.9498 17.8421 13.9467 17.8546L13.9366 17.8924L13.9315 17.9113L13.9256 17.9303L13.9135 17.9674L13.9005 18.0045C13.8965 18.0172 13.8915 18.0289 13.8865 18.0407C13.8484 18.1368 13.8026 18.2297 13.7487 18.3165C13.6949 18.4032 13.6338 18.4838 13.5665 18.559C13.4991 18.6332 13.4265 18.7019 13.3483 18.7632C13.2711 18.8244 13.1884 18.8791 13.1031 18.9271C13.06 18.9506 13.0167 18.9731 12.9721 18.9927C12.9277 19.0133 12.8829 19.031 12.8371 19.0477C12.7462 19.0801 12.6528 19.1066 12.5575 19.1253C12.3677 19.1615 12.1727 19.1699 11.9803 19.1466C11.7878 19.1232 11.5965 19.0712 11.4179 18.9872C11.2384 18.9034 11.07 18.7897 10.9263 18.6446C10.7828 18.5005 10.6624 18.3272 10.5801 18.135C10.6727 18.3219 10.7969 18.4876 10.944 18.6232C11.0167 18.6916 11.095 18.7532 11.1778 18.8061C11.2598 18.8591 11.3456 18.9066 11.4339 18.9447C11.6108 19.0217 11.7972 19.0713 11.9855 19.0911C12.1739 19.1119 12.3634 19.1031 12.5486 19.0675C12.6412 19.0491 12.7321 19.0249 12.8213 18.9937C12.9105 18.9626 12.9968 18.9227 13.0805 18.877C13.2481 18.7866 13.4029 18.6672 13.5376 18.5259C13.6712 18.3827 13.7844 18.2156 13.8638 18.0282C13.9049 17.9349 13.9354 17.8367 13.9582 17.7364C13.9612 17.7239 13.9634 17.7114 13.9665 17.6988C13.9687 17.6864 13.9717 17.6738 13.9738 17.6604C13.978 17.6345 13.9824 17.6096 13.9855 17.5828C13.9931 17.5311 13.996 17.4789 13.9978 17.4259Z" fill="url(#paint19_linear_607_4258)"/>
<path d="M10.5723 10.9761L10.5866 11.9761C11.6151 11.6333 12.8485 11.8333 13.3723 11.9761V10.9761C13.3723 10.9761 12.1437 10.5476 10.5723 10.9761Z" fill="url(#paint20_radial_607_4258)"/>
<defs>
<linearGradient id="paint0_linear_607_4258" x1="12.0012" y1="3.88237" x2="12.0382" y2="10.2404" gradientUnits="userSpaceOnUse">
<stop offset="0.1797" stop-color="#FEC61D"/>
<stop offset="1" stop-color="#FEC209"/>
</linearGradient>
<linearGradient id="paint1_linear_607_4258" x1="8.34788" y1="4.57826" x2="10.9977" y2="11.9205" gradientUnits="userSpaceOnUse">
<stop stop-color="#C07F1F"/>
<stop offset="0.3585" stop-color="#B1741B"/>
<stop offset="1" stop-color="#8D5912"/>
</linearGradient>
<linearGradient id="paint2_linear_607_4258" x1="15.6724" y1="4.20967" x2="13.2241" y2="11.628" gradientUnits="userSpaceOnUse">
<stop stop-color="#C74B12"/>
<stop offset="0.4177" stop-color="#DA5112"/>
<stop offset="0.8382" stop-color="#F15811"/>
</linearGradient>
<linearGradient id="paint3_linear_607_4258" x1="21.9638" y1="8.85314" x2="15.8503" y2="13.1623" gradientUnits="userSpaceOnUse">
<stop offset="0.2075" stop-color="#C3250C"/>
<stop offset="0.4564" stop-color="#C5250C"/>
<stop offset="0.5943" stop-color="#CD260C"/>
<stop offset="0.7049" stop-color="#DB270D"/>
<stop offset="0.8006" stop-color="#EF280D"/>
<stop offset="0.8568" stop-color="#FE290E"/>
</linearGradient>
<linearGradient id="paint4_linear_607_4258" x1="15.4743" y1="11.4964" x2="14.8778" y2="12.4744" gradientUnits="userSpaceOnUse">
<stop stop-color="#FEBA41"/>
<stop offset="0.749" stop-color="#FE9B3C"/>
</linearGradient>
<linearGradient id="paint5_linear_607_4258" x1="20.7422" y1="11.0351" x2="18.8763" y2="10.0023" gradientUnits="userSpaceOnUse">
<stop/>
<stop offset="0.0931681" stop-color="#2B0702"/>
<stop offset="0.2285" stop-color="#621005"/>
<stop offset="0.3648" stop-color="#921808"/>
<stop offset="0.4991" stop-color="#B91E0A"/>
<stop offset="0.6312" stop-color="#D7230C"/>
<stop offset="0.7601" stop-color="#ED260D"/>
<stop offset="0.8847" stop-color="#FA280E"/>
<stop offset="1" stop-color="#FE290E"/>
</linearGradient>
<linearGradient id="paint6_linear_607_4258" x1="20.6866" y1="16.5653" x2="20.6866" y2="15.6038" gradientUnits="userSpaceOnUse">
<stop stop-color="#C80000"/>
<stop offset="0.2237" stop-color="#D10702"/>
<stop offset="0.5844" stop-color="#E91908"/>
<stop offset="0.8465" stop-color="#FE290E"/>
</linearGradient>
<linearGradient id="paint7_linear_607_4258" x1="19.6933" y1="8.73482" x2="20.45" y2="15.9504" gradientUnits="userSpaceOnUse">
<stop stop-color="#FE290E"/>
<stop offset="0.3008" stop-color="#F2200B"/>
<stop offset="0.8421" stop-color="#D20803"/>
<stop offset="1" stop-color="#C80000"/>
</linearGradient>
<linearGradient id="paint8_linear_607_4258" x1="7.0973" y1="3.31298" x2="5.8221" y2="13.2928" gradientUnits="userSpaceOnUse">
<stop offset="0.1909" stop-color="#F9ED24"/>
<stop offset="0.266" stop-color="#F9EE1C"/>
<stop offset="0.4619" stop-color="#F8F00C"/>
<stop offset="0.6863" stop-color="#F7F103"/>
<stop offset="1" stop-color="#F7F100"/>
</linearGradient>
<linearGradient id="paint9_linear_607_4258" x1="8.01674" y1="11.8367" x2="11.0675" y2="12.9939" gradientUnits="userSpaceOnUse">
<stop offset="0.1141" stop-color="#A8901C"/>
<stop offset="0.1718" stop-color="#9F881B"/>
<stop offset="0.2679" stop-color="#98821A"/>
<stop offset="0.5353" stop-color="#96801A"/>
</linearGradient>
<linearGradient id="paint10_linear_607_4258" x1="5.95892" y1="9.53499" x2="4.53165" y2="12.2409" gradientUnits="userSpaceOnUse">
<stop stop-color="#FEFE3E"/>
<stop offset="0.1375" stop-color="#FAFA3D"/>
<stop offset="0.2798" stop-color="#EDEF39"/>
<stop offset="0.4246" stop-color="#D9DD34"/>
<stop offset="0.5708" stop-color="#BCC32B"/>
<stop offset="0.7183" stop-color="#96A221"/>
<stop offset="0.8647" stop-color="#697A14"/>
<stop offset="0.9959" stop-color="#3A5007"/>
</linearGradient>
<linearGradient id="paint11_linear_607_4258" x1="5.33231" y1="8.93153" x2="5.48903" y2="12.0475" gradientUnits="userSpaceOnUse">
<stop offset="0.1743" stop-color="#FEFE3E"/>
<stop offset="0.1863" stop-color="#F6F63C"/>
<stop offset="0.2821" stop-color="#BDBD2E"/>
<stop offset="0.3805" stop-color="#8B8B22"/>
<stop offset="0.4796" stop-color="#606017"/>
<stop offset="0.5793" stop-color="#3D3D0F"/>
<stop offset="0.6799" stop-color="#222208"/>
<stop offset="0.7819" stop-color="#0F0F04"/>
<stop offset="0.8861" stop-color="#040401"/>
<stop offset="0.9959"/>
</linearGradient>
<linearGradient id="paint12_linear_607_4258" x1="3.74263" y1="16.4791" x2="3.74263" y2="8.06496" gradientUnits="userSpaceOnUse">
<stop stop-color="#76BD2F"/>
<stop offset="0.586" stop-color="#81D22C"/>
<stop offset="0.9959" stop-color="#86DB2B"/>
</linearGradient>
<linearGradient id="paint13_linear_607_4258" x1="3.31789" y1="16.5653" x2="3.31789" y2="15.6038" gradientUnits="userSpaceOnUse">
<stop stop-color="#74BA30"/>
<stop offset="0.8465" stop-color="#86DB2B"/>
</linearGradient>
<linearGradient id="paint14_linear_607_4258" x1="6.61391" y1="14.2991" x2="7.50454" y2="14.2991" gradientUnits="userSpaceOnUse">
<stop offset="0.1535" stop-color="#86DB2B"/>
<stop offset="1" stop-color="#74BA30"/>
</linearGradient>
<linearGradient id="paint15_linear_607_4258" x1="22.5188" y1="13.6487" x2="22.9585" y2="13.5954" gradientUnits="userSpaceOnUse">
<stop offset="0.2822" stop-color="#383839"/>
<stop offset="0.3892" stop-color="#3E3E3E"/>
<stop offset="0.5253" stop-color="#4D4D4E"/>
<stop offset="0.6764" stop-color="#676768"/>
<stop offset="0.8133" stop-color="#858585"/>
</linearGradient>
<linearGradient id="paint16_linear_607_4258" x1="10.5871" y1="18.8019" x2="14.1135" y2="18.3741" gradientUnits="userSpaceOnUse">
<stop offset="0.1867" stop-color="#A8A8AA"/>
<stop offset="0.2676" stop-color="#A2A2A4"/>
<stop offset="0.3746" stop-color="#929293"/>
<stop offset="0.4963" stop-color="#767678"/>
<stop offset="0.6277" stop-color="#515152"/>
<stop offset="0.7054" stop-color="#373738"/>
</linearGradient>
<linearGradient id="paint17_linear_607_4258" x1="9.909" y1="18.4737" x2="24.2" y2="13.0003" gradientUnits="userSpaceOnUse">
<stop offset="0.0954357" stop-color="#57585A"/>
<stop offset="0.8299" stop-color="#565759"/>
</linearGradient>
<linearGradient id="paint18_linear_607_4258" x1="13.7834" y1="15.6641" x2="23.089" y2="14.5353" gradientUnits="userSpaceOnUse">
<stop stop-color="#323334"/>
<stop offset="0.9544" stop-color="#A8A8AA"/>
</linearGradient>
<linearGradient id="paint19_linear_607_4258" x1="10.6119" y1="18.6015" x2="14.1157" y2="18.1765" gradientUnits="userSpaceOnUse">
<stop offset="0.2946" stop-color="#373738"/>
<stop offset="0.3723" stop-color="#515152"/>
<stop offset="0.5037" stop-color="#767678"/>
<stop offset="0.6254" stop-color="#929293"/>
<stop offset="0.7324" stop-color="#A2A2A4"/>
<stop offset="0.8133" stop-color="#A8A8AA"/>
</linearGradient>
<radialGradient id="paint20_radial_607_4258" cx="0" cy="0" r="1" gradientUnits="userSpaceOnUse" gradientTransform="translate(11.9722 12.6904) rotate(-66.0375) scale(2.81396 7.55989)">
<stop offset="0.382269" stop-color="#A56B19"/>
<stop offset="0.490857" stop-color="#FF9900"/>
</radialGradient>
</defs>
</svg>
